<?xml version="1.0" encoding="UTF-8" standalone="no"?>
<!-- Created with Inkscape (http://www.inkscape.org/) -->

<svg
   xmlns:dc="http://purl.org/dc/elements/1.1/"
   xmlns:cc="http://creativecommons.org/ns#"
   xmlns:rdf="http://www.w3.org/1999/02/22-rdf-syntax-ns#"
   xmlns:svg="http://www.w3.org/2000/svg"
   xmlns="http://www.w3.org/2000/svg"
   version="1.1"
   width="1000"
   height="1000"
   id="svg2"
   xml:space="preserve"><metadata
     id="metadata8"><rdf:RDF><cc:Work
         rdf:about=""><dc:format>image/svg+xml</dc:format><dc:type
           rdf:resource="http://purl.org/dc/dcmitype/StillImage" /><dc:title></dc:title></cc:Work></rdf:RDF></metadata><defs
     id="defs6"><clipPath
       id="clipPath16"><path
         d="M 0,800 800,800 800,0 0,0 0,800 z"
         id="path18" /></clipPath><clipPath
       id="clipPath152"><path
         d="m 462.449,624.661 c -2.966,-0.57 -5.461,0.884 -8.669,2.338 l 0,0 c -3.504,1.588 -7.859,3.176 -14.607,2.129 l 0,0 c -12.928,-2.006 -18.858,-20.15 -16.772,-32.018 l 0,0 c 2.085,-11.868 16.26,-29.797 39.177,-30.79 l 0,0 c 22.915,-0.991 41.859,17.13 43.095,34.359 l 0,0 c 1.235,17.229 -9.138,29.616 -17.481,30.686 l 0,0 c -1.575,0.202 -2.976,0.293 -4.238,0.293 l 0,0 c -9.544,10e-4 -11.177,-5.205 -20.505,-6.997"
         id="path154" /></clipPath><clipPath
       id="clipPath164"><path
         d="M 0,800 800,800 800,0 0,0 0,800 z"
         id="path166" /></clipPath><clipPath
       id="clipPath188"><path
         d="m 357.097,654.988 c -16.686,-0.605 -28.321,-14.363 -29.952,-31.105 l 0,0 c -1.633,-16.742 12.916,-33.996 24.222,-39.849 l 0,0 c 11.306,-5.852 27.232,-8.989 47.393,2.902 l 0,0 c 13.219,7.796 16.532,31.506 9.45,44.141 l 0,0 c -7.082,12.635 -20.443,9.583 -25.666,12.864 l 0,0 c -5.041,3.167 -8.515,11.077 -23.758,11.078 l 0,0 c -0.549,0 -1.11,-0.01 -1.689,-0.031"
         id="path190" /></clipPath><clipPath
       id="clipPath200"><path
         d="M 0,800 800,800 800,0 0,0 0,800 z"
         id="path202" /></clipPath><clipPath
       id="clipPath284"><path
         d="m 191.876,431.76 c -22.377,-3.109 -32.945,-13.676 -44.756,-18.027 l 0,0 c -3.598,-1.326 -10.649,0.226 -19.435,1.777 l 0,0 c -12.578,2.221 -28.708,4.443 -43.347,-1.777 l 0,0 C 59.473,403.165 35.852,357.787 59.473,315.517 l 0,0 c 23.621,-42.269 73.351,-64.025 95.107,-60.296 l 0,0 c 21.756,3.73 26.108,13.054 29.837,15.54 l 0,0 c 1.657,1.106 4.42,0.246 8.397,-0.613 l 0,0 c 4.972,-1.075 11.841,-2.15 20.819,0.613 l 0,0 c 16.162,4.973 46,57.189 41.648,98.837 l 0,0 c -4.096,39.203 -36.832,62.433 -59.326,62.434 l 0,0 c -1.403,0.001 -2.765,-0.09 -4.079,-0.272"
         id="path286" /></clipPath><clipPath
       id="clipPath296"><path
         d="M 0,800 800,800 800,0 0,0 0,800 z"
         id="path298" /></clipPath><clipPath
       id="clipPath352"><path
         d="m 469.69,260.261 155.108,0 0,-152.319 -155.108,0 0,152.319 z"
         id="path354" /></clipPath><clipPath
       id="clipPath408"><path
         d="m 131.931,669.655 c -4.271,-0.852 -3.905,-5.999 -8.486,-8.16 l 0,0 c -3.365,-1.586 -11.042,-0.36 -13.397,-3.511 l 0,0 C 101.596,646.68 99.917,626.62 107.047,607.176 l 0,0 c 9.117,-24.865 25.693,-69.621 31.495,-95.314 l 0,0 c 5.802,-25.694 33.982,-40.612 65.476,-44.757 l 0,0 c 31.496,-4.143 47.243,7.46 54.702,13.262 l 0,0 c 7.46,5.801 1.658,16.576 14.091,23.206 l 0,0 c 12.432,6.631 32.615,9.946 35.785,30.667 l 0,0 c 3.169,20.72 6.107,54.777 -14.898,76.728 l 0,0 c -22.545,23.559 -74.085,13.613 -87.684,21.901 l 0,0 c -11.085,6.756 -32.964,37.743 -64.465,37.747 l 0,0 c -3.114,0 -6.317,-0.303 -9.618,-0.961"
         id="path410" /></clipPath><clipPath
       id="clipPath420"><path
         d="M 0,800 800,800 800,0 0,0 0,800 z"
         id="path422" /></clipPath><clipPath
       id="clipPath472"><path
         d="M 326.59,263.545 C 257.15,254.633 213.528,221.682 199.709,193.156 l 0,0 c -13.818,-28.524 -12.178,-31.944 -13.908,-43.277 l 0,0 c -8.803,-57.697 64.958,-76.424 100.29,-75.294 l 0,0 c 35.332,1.129 74.137,38.629 85.641,55.212 l 0,0 c 11.502,16.584 32.255,39.549 37.179,62.978 l 0,0 c 3.888,18.496 -1.339,71.929 -65.175,71.927 l 0,0 c -5.3,-10e-4 -11.01,-0.369 -17.146,-1.157"
         id="path474" /></clipPath><clipPath
       id="clipPath492"><path
         d="m 261.431,276.382 163.16,0 0,-180.2438 -163.16,0 0,180.2438 z"
         id="path494" /></clipPath><clipPath
       id="clipPath520"><path
         d="M 0,800 800,800 800,0 0,0 0,800 z"
         id="path522" /></clipPath></defs><g
     transform="matrix(1.25,0,0,-1.25,0,1000)"
     id="g10"><g
       id="g12"><g
         clip-path="url(#clipPath16)"
         id="g14"><g
           transform="translate(280.9235,29.5219)"
           id="g20"><path
             d="m 0,0 c 0,-0.703 0.109,-1.301 0.328,-1.795 0.218,-0.494 0.517,-0.866 0.897,-1.115 0.38,-0.251 0.795,-0.377 1.244,-0.377 0.456,0 0.872,0.119 1.25,0.357 0.376,0.237 0.677,0.602 0.902,1.091 C 4.846,-1.348 4.958,-0.733 4.958,0 4.958,0.691 4.846,1.284 4.621,1.782 4.396,2.278 4.092,2.658 3.709,2.922 3.326,3.184 2.906,3.314 2.451,3.314 1.976,3.314 1.552,3.18 1.178,2.911 0.804,2.643 0.515,2.257 0.309,1.753 0.103,1.249 0,0.665 0,0 m 5.101,-3.809 0,0.257 C 4.752,-3.95 4.409,-4.275 4.07,-4.524 3.731,-4.775 3.364,-4.966 2.968,-5.095 2.572,-5.227 2.141,-5.29 1.672,-5.29 c -0.621,0 -1.196,0.131 -1.725,0.394 -0.528,0.262 -0.986,0.638 -1.371,1.126 -0.388,0.487 -0.68,1.059 -0.879,1.718 -0.2,0.659 -0.3,1.371 -0.3,2.137 0,1.621 0.396,2.886 1.188,3.791 C -0.624,4.78 0.418,5.233 1.71,5.233 2.457,5.233 3.087,5.105 3.6,4.85 4.113,4.593 4.613,4.197 5.101,3.667 l 0,3.827 C 5.101,8.026 5.206,8.428 5.419,8.7 5.63,8.973 5.933,9.108 6.326,9.108 6.718,9.108 7.02,8.983 7.232,8.733 7.445,8.482 7.551,8.115 7.551,7.627 l 0,-11.436 c 0,-0.494 -0.114,-0.864 -0.342,-1.111 -0.228,-0.246 -0.522,-0.37 -0.883,-0.37 -0.355,0 -0.648,0.128 -0.879,0.384 -0.231,0.258 -0.346,0.623 -0.346,1.097"
             id="path22"
             style="fill:#f22f20;fill-opacity:1;fill-rule:nonzero;stroke:none" /></g><g
           transform="translate(292.3864,30.3383)"
           id="g24"><path
             d="M 0,0 4.702,0 C 4.639,0.887 4.398,1.551 3.984,1.99 3.569,2.431 3.024,2.65 2.346,2.65 1.7,2.65 1.169,2.428 0.755,1.982 0.34,1.535 0.089,0.874 0,0 m 5.071,-1.473 -5.071,0 c 0.006,-0.588 0.124,-1.107 0.356,-1.556 0.231,-0.451 0.539,-0.789 0.921,-1.017 0.384,-0.228 0.806,-0.341 1.268,-0.341 0.31,0 0.594,0.035 0.85,0.108 0.257,0.074 0.505,0.186 0.747,0.342 0.24,0.155 0.461,0.322 0.664,0.499 0.202,0.178 0.464,0.419 0.788,0.723 0.133,0.113 0.323,0.171 0.571,0.171 0.266,0 0.48,-0.074 0.644,-0.22 0.165,-0.146 0.249,-0.35 0.249,-0.617 0,-0.234 -0.093,-0.507 -0.276,-0.821 C 6.597,-4.516 6.32,-4.816 5.951,-5.105 5.579,-5.393 5.115,-5.631 4.554,-5.821 3.994,-6.012 3.35,-6.106 2.621,-6.106 c -1.665,0 -2.96,0.475 -3.884,1.424 -0.925,0.95 -1.387,2.239 -1.387,3.866 0,0.766 0.114,1.477 0.342,2.131 0.228,0.657 0.561,1.218 0.997,1.687 0.437,0.469 0.975,0.827 1.615,1.078 0.639,0.25 1.349,0.374 2.128,0.374 1.012,0 1.881,-0.212 2.606,-0.641 0.726,-0.426 1.269,-0.979 1.629,-1.656 0.36,-0.678 0.542,-1.369 0.542,-2.07 0,-0.653 -0.187,-1.075 -0.56,-1.27 -0.373,-0.192 -0.9,-0.29 -1.578,-0.29"
             id="path26"
             style="fill:#f22f20;fill-opacity:1;fill-rule:nonzero;stroke:none" /></g><g
           transform="translate(309.2726,27.6235)"
           id="g28"><path
             d="m 0,0 c 0,-0.716 -0.173,-1.329 -0.523,-1.839 -0.347,-0.51 -0.862,-0.896 -1.543,-1.159 -0.68,-0.263 -1.508,-0.394 -2.483,-0.394 -0.931,0 -1.729,0.143 -2.394,0.428 -0.664,0.284 -1.156,0.642 -1.472,1.068 -0.317,0.428 -0.475,0.856 -0.475,1.288 0,0.285 0.101,0.528 0.304,0.73 0.203,0.202 0.459,0.304 0.77,0.304 0.272,0 0.48,-0.067 0.626,-0.199 0.146,-0.133 0.286,-0.321 0.417,-0.56 0.267,-0.464 0.586,-0.807 0.956,-1.036 0.37,-0.228 0.875,-0.342 1.515,-0.342 0.519,0 0.945,0.116 1.278,0.347 0.332,0.232 0.498,0.496 0.498,0.794 0,0.456 -0.172,0.787 -0.518,0.996 -0.345,0.209 -0.914,0.409 -1.705,0.599 -0.893,0.221 -1.619,0.454 -2.18,0.699 -0.56,0.242 -1.008,0.564 -1.344,0.962 -0.335,0.4 -0.503,0.891 -0.503,1.473 0,0.519 0.155,1.01 0.465,1.473 0.311,0.461 0.768,0.83 1.374,1.105 0.603,0.277 1.333,0.414 2.188,0.414 0.671,0 1.275,-0.069 1.809,-0.21 0.536,-0.137 0.983,-0.326 1.34,-0.56 0.358,-0.234 0.63,-0.493 0.816,-0.777 0.187,-0.286 0.28,-0.564 0.28,-0.837 0,-0.297 -0.1,-0.541 -0.298,-0.732 -0.2,-0.188 -0.483,-0.285 -0.851,-0.285 -0.266,0 -0.492,0.076 -0.679,0.229 -0.186,0.152 -0.4,0.379 -0.641,0.683 -0.196,0.253 -0.426,0.456 -0.693,0.608 -0.266,0.153 -0.627,0.228 -1.083,0.228 -0.469,0 -0.858,-0.099 -1.168,-0.3 C -6.227,5 -6.382,4.752 -6.382,4.454 c 0,-0.273 0.113,-0.496 0.341,-0.67 C -5.812,3.609 -5.506,3.465 -5.119,3.352 -4.732,3.238 -4.202,3.1 -3.523,2.935 -2.72,2.737 -2.063,2.503 -1.553,2.231 -1.044,1.96 -0.657,1.638 -0.393,1.267 -0.131,0.896 0,0.475 0,0"
             id="path30"
             style="fill:#f22f20;fill-opacity:1;fill-rule:nonzero;stroke:none" /></g><g
           transform="translate(313.2042,33.3022)"
           id="g32"><path
             d="m 0,0 0,-7.493 c 0,-0.52 -0.124,-0.913 -0.371,-1.179 -0.247,-0.266 -0.56,-0.398 -0.94,-0.398 -0.38,0 -0.689,0.135 -0.926,0.408 -0.238,0.272 -0.356,0.662 -0.356,1.169 l 0,7.418 c 0,0.512 0.118,0.898 0.356,1.158 0.237,0.26 0.546,0.39 0.926,0.39 0.38,0 0.693,-0.13 0.94,-0.39 C -0.124,0.823 0,0.462 0,0 m -1.283,2.678 c -0.36,0 -0.669,0.111 -0.925,0.333 -0.257,0.22 -0.385,0.534 -0.385,0.94 0,0.368 0.131,0.669 0.394,0.907 0.263,0.239 0.569,0.357 0.916,0.357 0.336,0 0.634,-0.108 0.893,-0.323 C -0.13,4.676 0,4.363 0,3.951 0,3.552 -0.127,3.24 -0.381,3.016 -0.634,2.791 -0.934,2.678 -1.283,2.678"
             id="path34"
             style="fill:#f22f20;fill-opacity:1;fill-rule:nonzero;stroke:none" /></g><g
           transform="translate(317.0499,29.5883)"
           id="g36"><path
             d="m 0,0 c 0,-1.051 0.229,-1.846 0.688,-2.384 0.459,-0.539 1.053,-0.807 1.781,-0.807 0.43,0 0.837,0.116 1.22,0.346 0.384,0.232 0.695,0.58 0.937,1.045 0.239,0.466 0.36,1.03 0.36,1.695 0,1.057 -0.232,1.881 -0.698,2.469 C 3.822,2.953 3.21,3.248 2.45,3.248 1.708,3.248 1.115,2.966 0.669,2.402 0.223,1.84 0,1.038 0,0 m 7.513,3.286 0,-7.531 C 7.513,-5.106 7.42,-5.848 7.236,-6.469 7.054,-7.088 6.759,-7.602 6.354,-8.007 5.948,-8.411 5.418,-8.713 4.763,-8.908 4.108,-9.105 3.293,-9.203 2.317,-9.203 c -0.893,0 -1.691,0.125 -2.394,0.375 -0.702,0.251 -1.243,0.573 -1.624,0.969 -0.379,0.395 -0.57,0.802 -0.57,1.22 0,0.317 0.108,0.576 0.324,0.774 0.215,0.2 0.475,0.3 0.778,0.3 0.38,0 0.713,-0.168 0.998,-0.503 0.138,-0.171 0.282,-0.345 0.431,-0.519 0.149,-0.175 0.315,-0.323 0.494,-0.447 0.181,-0.122 0.398,-0.214 0.651,-0.275 0.253,-0.058 0.545,-0.089 0.874,-0.089 0.671,0 1.192,0.092 1.563,0.28 0.37,0.186 0.63,0.448 0.779,0.784 0.149,0.334 0.236,0.693 0.261,1.077 0.025,0.384 0.044,0.999 0.057,1.849 C 4.539,-3.967 4.08,-4.392 3.556,-4.683 3.034,-4.974 2.412,-5.119 1.69,-5.119 c -0.867,0 -1.625,0.222 -2.275,0.665 -0.648,0.443 -1.147,1.063 -1.495,1.861 -0.349,0.799 -0.522,1.719 -0.522,2.764 0,0.778 0.105,1.482 0.317,2.108 0.213,0.628 0.515,1.157 0.908,1.587 0.392,0.431 0.845,0.755 1.357,0.974 0.513,0.218 1.077,0.327 1.691,0.327 0.734,0 1.371,-0.142 1.91,-0.422 0.537,-0.283 1.038,-0.725 1.5,-1.326 l 0,0.352 c 0,0.45 0.11,0.797 0.332,1.045 0.222,0.246 0.507,0.371 0.856,0.371 0.5,0 0.832,-0.164 0.996,-0.49 C 7.43,4.371 7.513,3.9 7.513,3.286"
             id="path38"
             style="fill:#f22f20;fill-opacity:1;fill-rule:nonzero;stroke:none" /></g><g
           transform="translate(328.6837,33.3403)"
           id="g40"><path
             d="m 0,0 0,-0.314 c 0.455,0.602 0.954,1.044 1.496,1.326 0.541,0.281 1.163,0.423 1.866,0.423 0.684,0 1.295,-0.15 1.833,-0.448 0.538,-0.298 0.941,-0.719 1.206,-1.261 0.172,-0.318 0.282,-0.661 0.332,-1.027 0.051,-0.368 0.078,-0.836 0.078,-1.406 l 0,-4.824 c 0,-0.52 -0.12,-0.913 -0.357,-1.179 -0.238,-0.266 -0.546,-0.398 -0.926,-0.398 -0.387,0 -0.7,0.135 -0.941,0.408 -0.241,0.272 -0.36,0.662 -0.36,1.169 l 0,4.321 c 0,0.855 -0.12,1.509 -0.357,1.961 -0.238,0.452 -0.71,0.68 -1.42,0.68 -0.462,0 -0.883,-0.138 -1.263,-0.413 C 0.807,-1.259 0.528,-1.638 0.351,-2.118 0.225,-2.505 0.161,-3.226 0.161,-4.283 l 0,-3.248 c 0,-0.526 -0.122,-0.921 -0.365,-1.184 -0.244,-0.263 -0.559,-0.393 -0.945,-0.393 -0.374,0 -0.681,0.135 -0.922,0.408 -0.24,0.272 -0.361,0.662 -0.361,1.169 l 0,7.493 c 0,0.494 0.108,0.863 0.323,1.107 0.216,0.243 0.51,0.366 0.883,0.366 0.229,0 0.435,-0.054 0.619,-0.163 0.182,-0.108 0.33,-0.269 0.441,-0.483 C -0.055,0.573 0,0.31 0,0"
             id="path42"
             style="fill:#f22f20;fill-opacity:1;fill-rule:nonzero;stroke:none" /></g><g
           transform="translate(339.3868,30.3383)"
           id="g44"><path
             d="M 0,0 4.701,0 C 4.638,0.887 4.399,1.551 3.984,1.99 3.569,2.431 3.023,2.65 2.346,2.65 1.7,2.65 1.169,2.428 0.754,1.982 0.339,1.535 0.089,0.874 0,0 M 5.071,-1.473 0,-1.473 C 0.007,-2.061 0.125,-2.58 0.356,-3.029 0.587,-3.48 0.894,-3.818 1.278,-4.046 1.66,-4.274 2.083,-4.387 2.545,-4.387 c 0.31,0 0.594,0.035 0.851,0.108 0.255,0.074 0.504,0.186 0.746,0.342 0.239,0.155 0.461,0.322 0.665,0.499 0.201,0.178 0.464,0.419 0.787,0.723 0.133,0.113 0.323,0.171 0.57,0.171 0.266,0 0.482,-0.074 0.646,-0.22 0.165,-0.146 0.247,-0.35 0.247,-0.617 0,-0.234 -0.092,-0.507 -0.276,-0.821 C 6.597,-4.516 6.32,-4.816 5.95,-5.105 5.579,-5.393 5.115,-5.631 4.554,-5.821 3.994,-6.012 3.349,-6.106 2.621,-6.106 c -1.665,0 -2.96,0.475 -3.885,1.424 -0.924,0.95 -1.386,2.239 -1.386,3.866 0,0.766 0.114,1.477 0.341,2.131 0.228,0.657 0.562,1.218 0.998,1.687 0.437,0.469 0.976,0.827 1.615,1.078 0.639,0.25 1.349,0.374 2.128,0.374 1.012,0 1.88,-0.212 2.606,-0.641 C 5.763,3.387 6.306,2.834 6.667,2.157 7.028,1.479 7.209,0.788 7.209,0.087 7.209,-0.566 7.022,-0.988 6.648,-1.183 6.275,-1.375 5.75,-1.473 5.071,-1.473"
             id="path46"
             style="fill:#f22f20;fill-opacity:1;fill-rule:nonzero;stroke:none" /></g><g
           transform="translate(349.9283,29.5219)"
           id="g48"><path
             d="m 0,0 c 0,-0.703 0.108,-1.301 0.327,-1.795 0.219,-0.494 0.518,-0.866 0.899,-1.115 0.379,-0.251 0.794,-0.377 1.243,-0.377 0.456,0 0.873,0.119 1.249,0.357 0.377,0.237 0.678,0.602 0.902,1.091 C 4.845,-1.348 4.958,-0.733 4.958,0 4.958,0.691 4.845,1.284 4.62,1.782 4.396,2.278 4.092,2.658 3.709,2.922 3.325,3.184 2.906,3.314 2.45,3.314 1.976,3.314 1.551,3.18 1.177,2.911 0.804,2.643 0.514,2.257 0.308,1.753 0.102,1.249 0,0.665 0,0 m 5.1,-3.809 0,0.257 C 4.752,-3.95 4.408,-4.275 4.069,-4.524 3.73,-4.775 3.364,-4.966 2.968,-5.095 2.573,-5.227 2.14,-5.29 1.672,-5.29 c -0.622,0 -1.196,0.131 -1.724,0.394 -0.529,0.262 -0.986,0.638 -1.373,1.126 -0.386,0.487 -0.679,1.059 -0.878,1.718 -0.2,0.659 -0.299,1.371 -0.299,2.137 0,1.621 0.395,2.886 1.187,3.791 C -0.624,4.78 0.418,5.233 1.71,5.233 2.457,5.233 3.087,5.105 3.6,4.85 4.112,4.593 4.613,4.197 5.1,3.667 l 0,3.827 C 5.1,8.026 5.206,8.428 5.419,8.7 5.63,8.973 5.933,9.108 6.326,9.108 6.718,9.108 7.02,8.983 7.233,8.733 7.444,8.482 7.551,8.115 7.551,7.627 l 0,-11.436 C 7.551,-4.303 7.437,-4.673 7.209,-4.92 6.981,-5.166 6.687,-5.29 6.326,-5.29 5.971,-5.29 5.678,-5.162 5.447,-4.906 5.215,-4.648 5.1,-4.283 5.1,-3.809"
             id="path50"
             style="fill:#f22f20;fill-opacity:1;fill-rule:nonzero;stroke:none" /></g><g
           transform="translate(365.7496,29.4458)"
           id="g52"><path
             d="m 0,0 c 0,-1.032 0.236,-1.824 0.708,-2.378 0.471,-0.555 1.09,-0.833 1.856,-0.833 0.652,0 1.215,0.283 1.686,0.851 0.472,0.567 0.708,1.378 0.708,2.436 C 4.958,0.76 4.86,1.35 4.664,1.843 4.467,2.337 4.189,2.719 3.828,2.987 3.467,3.256 3.045,3.391 2.564,3.391 2.071,3.391 1.63,3.256 1.244,2.987 0.858,2.719 0.554,2.329 0.332,1.819 0.111,1.311 0,0.703 0,0 m -0.124,7.703 0,-3.96 c 0.488,0.506 0.985,0.895 1.492,1.163 0.506,0.269 1.133,0.403 1.881,0.403 0.861,0 1.615,-0.204 2.265,-0.611 0.648,-0.41 1.152,-1.002 1.51,-1.777 0.357,-0.775 0.537,-1.696 0.537,-2.76 0,-0.785 -0.1,-1.504 -0.299,-2.16 C 7.062,-2.654 6.772,-3.223 6.393,-3.703 6.012,-4.185 5.552,-4.558 5.011,-4.82 4.469,-5.083 3.872,-5.214 3.22,-5.214 c -0.399,0 -0.775,0.047 -1.125,0.143 -0.352,0.094 -0.652,0.218 -0.898,0.375 -0.246,0.154 -0.457,0.314 -0.632,0.479 -0.174,0.164 -0.404,0.412 -0.689,0.741 l 0,-0.256 c 0,-0.488 -0.117,-0.857 -0.351,-1.108 -0.233,-0.25 -0.531,-0.374 -0.893,-0.374 -0.367,0 -0.66,0.124 -0.878,0.374 -0.219,0.251 -0.328,0.62 -0.328,1.108 l 0,11.322 c 0,0.525 0.106,0.923 0.318,1.191 0.212,0.269 0.509,0.403 0.888,0.403 0.4,0 0.706,-0.127 0.922,-0.383 0.215,-0.258 0.322,-0.622 0.322,-1.098"
             id="path54"
             style="fill:#f22f20;fill-opacity:1;fill-rule:nonzero;stroke:none" /></g><g
           transform="translate(376.672,23.9086)"
           id="g56"><path
             d="m 0,0 0.237,0.58 -3.191,8.035 c -0.196,0.461 -0.295,0.798 -0.295,1.007 0,0.222 0.058,0.427 0.171,0.616 0.115,0.191 0.271,0.343 0.47,0.456 0.2,0.116 0.407,0.172 0.623,0.172 0.373,0 0.654,-0.119 0.845,-0.356 0.191,-0.237 0.358,-0.577 0.503,-1.021 l 2.195,-6.382 2.08,5.936 c 0.164,0.48 0.313,0.857 0.446,1.13 0.133,0.272 0.273,0.456 0.422,0.55 0.149,0.095 0.36,0.143 0.632,0.143 0.197,0 0.385,-0.052 0.566,-0.157 0.18,-0.104 0.319,-0.245 0.417,-0.423 C 6.219,10.109 6.269,9.923 6.269,9.727 6.243,9.607 6.203,9.436 6.145,9.213 6.087,8.992 6.019,8.766 5.936,8.539 L 2.555,-0.313 C 2.263,-1.092 1.978,-1.702 1.7,-2.145 1.421,-2.589 1.053,-2.931 0.593,-3.167 0.134,-3.405 -0.485,-3.523 -1.264,-3.523 c -0.759,0 -1.329,0.082 -1.708,0.246 -0.382,0.166 -0.571,0.466 -0.571,0.903 0,0.297 0.09,0.527 0.271,0.688 0.18,0.162 0.448,0.244 0.802,0.244 0.139,0 0.276,-0.02 0.409,-0.059 0.164,-0.037 0.307,-0.057 0.427,-0.057 0.297,0 0.532,0.044 0.703,0.134 0.171,0.088 0.324,0.241 0.461,0.461 C -0.335,-0.746 -0.177,-0.424 0,0"
             id="path58"
             style="fill:#f22f20;fill-opacity:1;fill-rule:nonzero;stroke:none" /></g><g
           transform="translate(414.2348,34.5502)"
           id="g60"><path
             d="m 0,0 0.618,0 0,0.778 c 0,0.815 0.1,1.457 0.307,1.938 0.204,0.478 0.555,0.826 1.047,1.045 0.49,0.217 1.163,0.326 2.016,0.326 1.52,0 2.273,-0.367 2.273,-1.114 C 6.261,2.734 6.182,2.528 6.021,2.357 5.866,2.189 5.678,2.102 5.463,2.102 5.363,2.102 5.185,2.12 4.936,2.161 4.698,2.194 4.483,2.217 4.312,2.217 3.845,2.217 3.546,2.076 3.407,1.802 3.28,1.526 3.212,1.133 3.212,0.617 L 3.212,0 3.845,0 C 4.836,0 5.326,-0.297 5.326,-0.895 5.326,-1.314 5.199,-1.586 4.934,-1.7 4.672,-1.814 4.31,-1.871 3.845,-1.871 l -0.633,0 0,-6.871 c 0,-0.511 -0.12,-0.901 -0.369,-1.168 -0.241,-0.273 -0.554,-0.406 -0.943,-0.406 -0.367,0 -0.671,0.133 -0.918,0.406 -0.244,0.267 -0.364,0.657 -0.364,1.168 l 0,6.871 -0.714,0 c -0.388,0 -0.682,0.084 -0.893,0.262 -0.209,0.171 -0.315,0.399 -0.315,0.677 C -1.304,-0.308 -0.869,0 0,0"
             id="path62"
             style="fill:#f22f20;fill-opacity:1;fill-rule:nonzero;stroke:none" /></g><g
           transform="translate(422.7241,27.976)"
           id="g64"><path
             d="m 0,0 0,-2.168 c 0,-0.523 -0.133,-0.919 -0.374,-1.18 -0.247,-0.265 -0.559,-0.394 -0.937,-0.394 -0.382,0 -0.688,0.131 -0.927,0.4 -0.237,0.264 -0.361,0.656 -0.361,1.174 l 0,7.223 c 0,1.166 0.42,1.749 1.261,1.749 0.434,0 0.743,-0.135 0.934,-0.408 0.189,-0.274 0.295,-0.674 0.317,-1.209 0.308,0.535 0.624,0.935 0.948,1.209 0.332,0.273 0.763,0.408 1.31,0.408 0.549,0 1.072,-0.135 1.585,-0.408 C 4.272,6.122 4.527,5.759 4.527,5.311 4.527,4.996 4.417,4.73 4.201,4.529 3.981,4.32 3.747,4.218 3.495,4.218 3.396,4.218 3.164,4.28 2.803,4.398 2.438,4.511 2.114,4.57 1.84,4.57 1.46,4.57 1.148,4.468 0.908,4.273 0.666,4.067 0.478,3.775 0.344,3.386 0.215,2.991 0.125,2.521 0.071,1.982 0.023,1.439 0,0.778 0,0"
             id="path66"
             style="fill:#f22f20;fill-opacity:1;fill-rule:nonzero;stroke:none" /></g><g
           transform="translate(429.5708,30.3432)"
           id="g68"><path
             d="M 0,0 4.701,0 C 4.639,0.885 4.403,1.55 3.987,1.986 3.569,2.429 3.028,2.646 2.347,2.646 1.701,2.646 1.17,2.427 0.755,1.978 0.341,1.531 0.087,0.873 0,0 m 5.074,-1.475 -5.074,0 c 0.009,-0.588 0.124,-1.11 0.354,-1.558 0.236,-0.446 0.541,-0.786 0.925,-1.017 0.385,-0.227 0.804,-0.34 1.269,-0.34 0.31,0 0.593,0.034 0.849,0.112 0.254,0.069 0.505,0.185 0.746,0.34 0.242,0.153 0.46,0.319 0.664,0.5 0.202,0.175 0.466,0.417 0.79,0.719 0.134,0.114 0.324,0.174 0.568,0.174 0.269,0 0.481,-0.074 0.649,-0.222 0.166,-0.147 0.244,-0.35 0.244,-0.617 0,-0.235 -0.089,-0.508 -0.268,-0.819 C 6.603,-4.52 6.327,-4.819 5.954,-5.109 5.58,-5.395 5.115,-5.637 4.557,-5.823 3.997,-6.014 3.351,-6.109 2.625,-6.109 c -1.671,0 -2.964,0.472 -3.887,1.422 -0.924,0.952 -1.391,2.242 -1.391,3.868 0,0.766 0.117,1.478 0.347,2.134 0.225,0.659 0.558,1.216 0.999,1.688 0.436,0.471 0.97,0.828 1.613,1.078 0.637,0.249 1.346,0.374 2.128,0.374 1.01,0 1.88,-0.214 2.606,-0.645 C 5.764,3.387 6.314,2.833 6.669,2.155 7.03,1.475 7.211,0.787 7.211,0.081 c 0,-0.648 -0.189,-1.07 -0.562,-1.266 -0.373,-0.193 -0.897,-0.29 -1.575,-0.29"
             id="path70"
             style="fill:#f22f20;fill-opacity:1;fill-rule:nonzero;stroke:none" /></g><g
           transform="translate(440.3589,30.3432)"
           id="g72"><path
             d="M 0,0 4.701,0 C 4.638,0.885 4.397,1.55 3.986,1.986 3.565,2.429 3.024,2.646 2.344,2.646 1.698,2.646 1.168,2.427 0.751,1.978 0.338,1.531 0.084,0.873 0,0 m 5.073,-1.475 -5.073,0 c 0.006,-0.588 0.125,-1.11 0.355,-1.558 0.231,-0.446 0.538,-0.786 0.92,-1.017 0.383,-0.227 0.806,-0.34 1.272,-0.34 0.308,0 0.593,0.034 0.845,0.112 0.258,0.069 0.505,0.185 0.75,0.34 0.242,0.153 0.46,0.319 0.664,0.5 0.199,0.175 0.464,0.417 0.788,0.719 0.135,0.114 0.326,0.174 0.568,0.174 0.269,0 0.484,-0.074 0.65,-0.222 0.166,-0.147 0.241,-0.35 0.241,-0.617 0,-0.235 -0.087,-0.508 -0.274,-0.819 C 6.603,-4.52 6.324,-4.819 5.949,-5.109 5.579,-5.395 5.109,-5.637 4.554,-5.823 3.996,-6.014 3.346,-6.109 2.619,-6.109 c -1.667,0 -2.959,0.472 -3.887,1.422 -0.923,0.952 -1.388,2.242 -1.388,3.868 0,0.766 0.116,1.478 0.347,2.134 0.227,0.659 0.559,1.216 0.997,1.688 0.435,0.471 0.972,0.828 1.614,1.078 0.637,0.249 1.35,0.374 2.129,0.374 1.008,0 1.878,-0.214 2.613,-0.645 C 5.764,3.387 6.31,2.833 6.665,2.155 7.024,1.475 7.21,0.787 7.21,0.081 7.21,-0.567 7.018,-0.989 6.648,-1.185 6.273,-1.378 5.749,-1.475 5.073,-1.475"
             id="path74"
             style="fill:#f22f20;fill-opacity:1;fill-rule:nonzero;stroke:none" /></g><g
           transform="translate(456.1958,29.5532)"
           id="g76"><path
             d="m 0,0 c 0,0.684 -0.107,1.273 -0.315,1.763 -0.208,0.492 -0.499,0.867 -0.866,1.128 -0.367,0.262 -0.782,0.396 -1.232,0.396 -0.714,0 -1.319,-0.284 -1.809,-0.844 -0.492,-0.566 -0.739,-1.395 -0.739,-2.493 0,-1.026 0.244,-1.833 0.735,-2.406 0.488,-0.573 1.086,-0.858 1.813,-0.858 0.429,0 0.83,0.125 1.197,0.372 0.371,0.253 0.665,0.626 0.884,1.126 C -0.111,-1.314 0,-0.708 0,0 m -5.084,3.768 0,-0.311 c 0.486,0.601 0.994,1.042 1.524,1.324 0.519,0.284 1.119,0.427 1.783,0.427 C -0.982,5.208 -0.242,5 0.43,4.591 1.101,4.177 1.628,3.575 2.018,2.784 2.408,1.989 2.604,1.055 2.604,-0.029 2.604,-0.825 2.492,-1.561 2.268,-2.23 2.045,-2.899 1.731,-3.457 1.34,-3.91 0.946,-4.36 0.484,-4.712 -0.05,-4.956 c -0.542,-0.241 -1.111,-0.363 -1.727,-0.363 -0.739,0 -1.365,0.148 -1.866,0.447 -0.503,0.292 -0.982,0.733 -1.441,1.306 l 0,-3.893 c 0,-1.136 -0.416,-1.71 -1.244,-1.71 -0.49,0 -0.809,0.146 -0.972,0.439 -0.151,0.299 -0.233,0.724 -0.233,1.291 l 0,11.194 c 0,0.495 0.106,0.859 0.32,1.107 0.215,0.24 0.512,0.365 0.885,0.365 0.369,0 0.666,-0.125 0.895,-0.375 0.236,-0.253 0.349,-0.61 0.349,-1.084"
             id="path78"
             style="fill:#f22f20;fill-opacity:1;fill-rule:nonzero;stroke:none" /></g><g
           transform="translate(462.6958,33.3081)"
           id="g80"><path
             d="m 0,0 0,-7.502 c 0,-0.516 -0.124,-0.908 -0.37,-1.172 -0.25,-0.269 -0.561,-0.4 -0.941,-0.4 -0.381,0 -0.685,0.133 -0.928,0.406 -0.234,0.276 -0.356,0.665 -0.356,1.166 l 0,7.428 c 0,0.51 0.122,0.894 0.356,1.154 0.243,0.265 0.547,0.392 0.928,0.392 0.38,0 0.691,-0.127 0.941,-0.392 C -0.124,0.82 0,0.458 0,0 m -1.284,2.679 c -0.363,0 -0.669,0.114 -0.923,0.335 -0.26,0.222 -0.388,0.532 -0.388,0.936 0,0.368 0.131,0.67 0.397,0.91 0.262,0.235 0.566,0.356 0.914,0.356 0.34,0 0.636,-0.107 0.893,-0.32 C -0.131,4.678 0,4.362 0,3.95 0,3.551 -0.127,3.239 -0.378,3.015 -0.632,2.793 -0.933,2.679 -1.284,2.679"
             id="path82"
             style="fill:#f22f20;fill-opacity:1;fill-rule:nonzero;stroke:none" /></g><g
           transform="translate(471.0552,25.4174)"
           id="g84"><path
             d="m 0,0 -2.284,3.766 -1.408,-1.328 0,-2.066 c 0,-0.499 -0.133,-0.882 -0.397,-1.149 -0.257,-0.273 -0.566,-0.407 -0.906,-0.407 -0.399,0 -0.715,0.131 -0.941,0.401 -0.226,0.263 -0.343,0.656 -0.343,1.174 l 0,11.063 c 0,0.573 0.114,1.011 0.331,1.314 0.222,0.304 0.545,0.452 0.953,0.452 0.399,0 0.713,-0.137 0.949,-0.411 0.234,-0.271 0.354,-0.674 0.354,-1.203 l 0,-6.293 2.916,3.063 C -0.414,8.752 -0.144,9.017 0.051,9.154 0.24,9.293 0.47,9.362 0.74,9.362 1.066,9.362 1.334,9.259 1.556,9.054 1.767,8.848 1.876,8.588 1.876,8.28 1.876,7.901 1.522,7.392 0.821,6.759 L -0.556,5.496 2.103,1.313 C 2.297,1 2.442,0.77 2.527,0.607 2.611,0.448 2.657,0.288 2.657,0.145 2.657,-0.268 2.543,-0.589 2.316,-0.83 2.092,-1.066 1.793,-1.184 1.431,-1.184 1.114,-1.184 0.867,-1.103 0.697,-0.928 0.527,-0.755 0.29,-0.444 0,0"
             id="path86"
             style="fill:#f22f20;fill-opacity:1;fill-rule:nonzero;stroke:none" /></g><g
           transform="translate(476.6909,24.2338)"
           id="g88"><path
             d="m 0,0 c -0.392,0 -0.728,0.126 -1.014,0.381 -0.284,0.249 -0.428,0.605 -0.428,1.064 0,0.386 0.137,0.719 0.41,0.996 0.274,0.279 0.607,0.418 1.008,0.418 0.397,0 0.735,-0.139 1.022,-0.412 C 1.277,2.172 1.42,1.835 1.42,1.445 1.42,0.993 1.277,0.638 0.998,0.386 0.711,0.126 0.379,0 0,0"
             id="path90"
             style="fill:#f22f20;fill-opacity:1;fill-rule:nonzero;stroke:none" /></g><g
           transform="translate(489.5893,27.4438)"
           id="g92"><path
             d="m 0,0 c 0,-0.32 -0.097,-0.668 -0.291,-1.034 -0.191,-0.37 -0.488,-0.718 -0.886,-1.05 -0.394,-0.332 -0.891,-0.603 -1.495,-0.804 -0.6,-0.202 -1.28,-0.306 -2.03,-0.306 -1.607,0 -2.858,0.469 -3.758,1.401 -0.895,0.936 -1.346,2.189 -1.346,3.76 0,1.067 0.204,2.006 0.62,2.824 0.407,0.814 1.003,1.447 1.781,1.894 0.779,0.448 1.716,0.67 2.794,0.67 0.673,0 1.288,-0.098 1.852,-0.295 0.561,-0.196 1.032,-0.452 1.425,-0.759 0.387,-0.315 0.686,-0.644 0.89,-0.992 C -0.237,4.957 -0.137,4.628 -0.137,4.321 -0.137,4.014 -0.25,3.75 -0.479,3.534 -0.715,3.319 -0.995,3.21 -1.318,3.21 c -0.219,0 -0.398,0.057 -0.541,0.166 -0.144,0.112 -0.305,0.29 -0.479,0.542 -0.317,0.478 -0.646,0.842 -0.996,1.079 -0.343,0.243 -0.78,0.362 -1.313,0.362 -0.762,0 -1.384,-0.298 -1.854,-0.897 -0.468,-0.596 -0.703,-1.42 -0.703,-2.454 0,-0.488 0.062,-0.94 0.183,-1.348 0.117,-0.407 0.291,-0.756 0.52,-1.044 0.23,-0.287 0.504,-0.505 0.826,-0.654 0.324,-0.153 0.681,-0.226 1.064,-0.226 0.521,0 0.966,0.12 1.337,0.361 0.376,0.241 0.702,0.607 0.986,1.102 0.158,0.291 0.327,0.518 0.509,0.684 0.182,0.163 0.409,0.249 0.675,0.249 0.317,0 0.581,-0.123 0.787,-0.362 C -0.106,0.529 0,0.27 0,0"
             id="path94"
             style="fill:#f22f20;fill-opacity:1;fill-rule:nonzero;stroke:none" /></g><g
           transform="translate(498.1762,29.5043)"
           id="g96"><path
             d="M 0,0 C 0,1.059 -0.234,1.881 -0.698,2.469 -1.161,3.064 -1.788,3.357 -2.572,3.357 -3.08,3.357 -3.527,3.225 -3.915,2.963 -4.302,2.701 -4.596,2.313 -4.805,1.799 -5.014,1.285 -5.12,0.686 -5.12,0 c 0,-0.679 0.102,-1.268 0.309,-1.773 0.208,-0.511 0.502,-0.898 0.886,-1.166 0.386,-0.267 0.835,-0.405 1.353,-0.405 0.784,0 1.411,0.296 1.874,0.892 C -0.234,-1.861 0,-1.041 0,0 m 2.604,0 c 0,-0.77 -0.123,-1.484 -0.356,-2.139 -0.247,-0.652 -0.592,-1.213 -1.05,-1.678 -0.455,-0.469 -1.002,-0.829 -1.632,-1.08 -0.639,-0.248 -1.349,-0.375 -2.138,-0.375 -0.785,0 -1.493,0.127 -2.121,0.382 -0.623,0.249 -1.171,0.615 -1.626,1.082 -0.461,0.477 -0.809,1.035 -1.052,1.677 -0.23,0.644 -0.351,1.355 -0.351,2.131 0,0.786 0.124,1.506 0.359,2.158 0.242,0.655 0.589,1.212 1.039,1.673 0.451,0.462 0.993,0.817 1.631,1.07 0.643,0.249 1.349,0.374 2.121,0.374 0.784,0 1.498,-0.125 2.138,-0.381 C 0.204,4.643 0.749,4.279 1.21,3.814 1.668,3.34 2.013,2.785 2.25,2.143 2.483,1.491 2.604,0.782 2.604,0"
             id="path98"
             style="fill:#f22f20;fill-opacity:1;fill-rule:nonzero;stroke:none" /></g><g
           transform="translate(510.6714,29.3139)"
           id="g100"><path
             d="m 0,0 0,-3.446 c 0,-0.547 -0.12,-0.951 -0.369,-1.228 -0.25,-0.272 -0.571,-0.408 -0.978,-0.408 -0.392,0 -0.714,0.136 -0.951,0.408 -0.247,0.277 -0.372,0.681 -0.372,1.228 l 0,4.131 c 0,0.653 -0.02,1.162 -0.063,1.524 -0.046,0.354 -0.168,0.655 -0.363,0.883 -0.196,0.235 -0.508,0.351 -0.93,0.351 -0.851,0 -1.408,-0.29 -1.677,-0.88 C -5.971,1.986 -6.109,1.149 -6.109,0.056 l 0,-3.502 c 0,-0.538 -0.123,-0.947 -0.362,-1.224 -0.249,-0.273 -0.567,-0.412 -0.965,-0.412 -0.395,0 -0.716,0.139 -0.966,0.412 -0.252,0.277 -0.376,0.686 -0.376,1.224 l 0,7.419 c 0,0.489 0.111,0.86 0.335,1.111 0.229,0.257 0.526,0.382 0.889,0.382 0.357,0 0.652,-0.123 0.892,-0.356 0.236,-0.238 0.354,-0.566 0.354,-0.984 l 0,-0.245 c 0.454,0.535 0.935,0.931 1.445,1.18 0.516,0.26 1.082,0.386 1.713,0.386 0.651,0 1.211,-0.131 1.677,-0.389 0.47,-0.261 0.854,-0.656 1.161,-1.177 0.439,0.528 0.909,0.923 1.41,1.18 0.5,0.257 1.052,0.386 1.662,0.386 0.706,0 1.321,-0.142 1.834,-0.419 C 5.104,4.75 5.486,4.349 5.741,3.833 5.962,3.36 6.071,2.623 6.071,1.616 l 0,-5.062 c 0,-0.547 -0.122,-0.951 -0.367,-1.228 -0.246,-0.272 -0.575,-0.408 -0.979,-0.408 -0.395,0 -0.714,0.139 -0.965,0.412 -0.25,0.277 -0.376,0.686 -0.376,1.224 l 0,4.361 C 3.384,1.474 3.36,1.918 3.314,2.253 3.268,2.59 3.138,2.873 2.932,3.1 2.72,3.327 2.401,3.443 1.979,3.443 1.637,3.443 1.312,3.337 1.005,3.136 0.698,2.938 0.458,2.659 0.284,2.323 0.099,1.885 0,1.11 0,0"
             id="path102"
             style="fill:#f22f20;fill-opacity:1;fill-rule:nonzero;stroke:none" /></g><g
           transform="translate(389.9668,30.1323)"
           id="g104"><path
             d="M 0,0 C -0.002,0.005 -0.002,0.01 -0.002,0.018 -0.002,0.01 -0.002,0.005 0,0"
             id="path106"
             style="fill:#f22f20;fill-opacity:1;fill-rule:nonzero;stroke:none" /></g><g
           transform="translate(390.0976,29.3032)"
           id="g108"><path
             d="M 0,0 0.003,0 C -0.047,0.236 -0.085,0.471 -0.116,0.702 -0.085,0.469 -0.047,0.233 0,0"
             id="path110"
             style="fill:#f22f20;fill-opacity:1;fill-rule:nonzero;stroke:none" /></g><g
           transform="translate(390.956,26.8969)"
           id="g112"><path
             d="M 0,0 C -0.006,0.01 -0.011,0.021 -0.017,0.033 -0.011,0.021 -0.006,0.01 0,0"
             id="path114"
             style="fill:#f22f20;fill-opacity:1;fill-rule:nonzero;stroke:none" /></g><g
           transform="translate(390.874,27.0571)"
           id="g116"><path
             d="M 0,0 C -0.022,0.044 -0.044,0.09 -0.065,0.134 -0.044,0.087 -0.022,0.044 0,0"
             id="path118"
             style="fill:#f22f20;fill-opacity:1;fill-rule:nonzero;stroke:none" /></g><g
           transform="translate(390.3388,28.3764)"
           id="g120"><path
             d="M 0,0 C 0.127,-0.4 0.28,-0.788 0.457,-1.158 0.277,-0.78 0.127,-0.392 0.003,0 L 0,0 z"
             id="path122"
             style="fill:#f22f20;fill-opacity:1;fill-rule:nonzero;stroke:none" /></g><g
           transform="translate(400.0044,40.0688)"
           id="g124"><path
             d="m 0,0 c 0.501,0 0.871,-0.04 1.295,-0.111 l 0.12,0.762 c 0,0 -1.171,0.361 -2.71,0.235 l -0.122,0.415 c 0.479,0.1 0.838,0.526 0.838,1.034 0,0.582 -0.474,1.054 -1.057,1.054 -0.583,0 -1.055,-0.472 -1.055,-1.054 0,-0.508 0.358,-0.934 0.836,-1.034 L -1.722,0.838 C -3.356,0.613 -4.657,-0.024 -4.657,-0.024 l 0.231,-0.706 c 0.988,0.33 1.846,0.53 2.624,0.614 C -1.041,-0.035 -0.467,0 0,0"
             id="path126"
             style="fill:#f22f20;fill-opacity:1;fill-rule:nonzero;stroke:none" /></g><g
           transform="translate(390.9365,36.2104)"
           id="g128"><path
             d="m 0,0 0.006,0.008 c 0.038,0.05 0.076,0.096 0.113,0.142 l -0.313,0.226 -0.488,0.356 c -0.027,-0.038 -0.795,-0.744 -1.401,-2.047 -0.025,0.041 -0.056,0.081 -0.09,0.119 -0.181,0.198 -0.435,0.3 -0.758,0.294 l -0.015,0 c -0.2,0 -0.337,0.066 -0.427,0.147 0.09,0.113 0.144,0.256 0.144,0.413 0,0.368 -0.3,0.669 -0.67,0.669 -0.369,0 -0.668,-0.301 -0.668,-0.669 0,-0.37 0.299,-0.669 0.668,-0.669 0.058,0 0.113,0.01 0.167,0.021 0.165,-0.183 0.425,-0.342 0.808,-0.334 0.196,0.002 0.341,-0.049 0.437,-0.156 0.111,-0.121 0.149,-0.295 0.16,-0.427 -10e-4,-0.002 -10e-4,-0.005 -0.003,-0.005 -0.436,-1.19 -0.311,-2.67 -0.311,-2.67 l 1.057,-0.042 c 0.022,0.539 0.099,1.482 0.372,2.23 C -0.686,-0.944 -0.027,-0.038 0,0"
             id="path130"
             style="fill:#f22f20;fill-opacity:1;fill-rule:nonzero;stroke:none" /></g><g
           transform="translate(409.2036,39.185)"
           id="g132"><path
             d="m 0,0 c -0.368,0 -0.669,-0.299 -0.669,-0.669 0,-0.058 0.009,-0.112 0.023,-0.165 C -0.829,-1 -0.988,-1.262 -0.982,-1.645 -0.98,-1.842 -1.03,-1.984 -1.137,-2.081 -1.222,-2.156 -1.328,-2.196 -1.433,-2.222 -2.22,-1.119 -3.189,-0.446 -3.189,-0.446 L -3.947,-1.26 c 0.573,-0.521 1.159,-1.175 1.728,-1.99 0.394,-0.563 0.799,-1.29 1.136,-2.015 l 1.024,0.487 c 0,0 -0.467,1.155 -1.126,2.191 0.115,0.04 0.23,0.103 0.331,0.192 0.201,0.181 0.299,0.437 0.293,0.758 -0.002,0.208 0.067,0.349 0.149,0.442 0.114,-0.087 0.257,-0.143 0.412,-0.143 0.371,0 0.67,0.3 0.67,0.669 C 0.67,-0.299 0.371,0 0,0"
             id="path134"
             style="fill:#f22f20;fill-opacity:1;fill-rule:nonzero;stroke:none" /></g><g
           transform="translate(406.5464,29.9829)"
           id="g136"><path
             d="m 0,0 c -1.409,-0.687 -3.728,-1.594 -6.781,-2.02 -1.198,-0.166 -2.36,-0.227 -3.429,-0.227 -1.39,0 -2.619,0.103 -3.562,0.223 -1.076,0.135 -1.917,0.301 -2.432,0.418 0.123,-0.392 0.273,-0.781 0.454,-1.159 0.003,-0.009 0.007,-0.02 0.012,-0.027 0.022,-0.044 0.043,-0.09 0.066,-0.134 0.021,-0.044 0.043,-0.087 0.065,-0.127 0.006,-0.011 0.011,-0.023 0.017,-0.033 0.302,-0.57 0.666,-1.095 1.08,-1.549 1.44,-1.575 2.907,-1.824 2.921,-1.826 l 0.023,-0.003 0.022,-0.008 c 0.013,-0.005 1.314,-0.424 3.291,-0.424 1.945,0 3.855,0.392 5.674,1.167 1.348,0.689 2.622,1.736 3.254,2.669 0.488,0.723 0.841,1.494 1.05,2.294 C 1.836,-0.34 1.924,0.342 1.872,1.06 1.476,0.793 0.849,0.413 0,0"
             id="path138"
             style="fill:#f22f20;fill-opacity:1;fill-rule:nonzero;stroke:none" /></g><g
           transform="translate(395.417,36.6127)"
           id="g140"><path
             d="m 0,0 c 1.557,0 2.817,-1.262 2.817,-2.817 0,-1.556 -1.26,-2.815 -2.817,-2.815 -1.555,0 -2.816,1.259 -2.816,2.815 C -2.816,-1.262 -1.555,0 0,0 m 8.242,-0.069 c 0.961,0 1.743,-0.781 1.743,-1.743 0,-0.962 -0.782,-1.745 -1.743,-1.745 -0.962,0 -1.742,0.783 -1.742,1.745 0,0.962 0.78,1.743 1.742,1.743 m -12.27,-0.667 c -0.041,-0.06 -0.652,-0.925 -1.135,-2.253 -0.362,-0.995 -0.346,-2.444 -0.346,-2.46 l 0,-0.003 c 0,-0.34 0.019,-0.677 0.057,-1.011 0,-0.008 0,-0.012 0.002,-0.017 0.004,-0.043 0.011,-0.084 0.015,-0.127 0.03,-0.232 0.069,-0.466 0.119,-0.702 0.7,-0.178 4.878,-1.153 9.548,-0.502 2.927,0.407 5.149,1.272 6.499,1.926 1.121,0.544 1.842,1.036 2.12,1.239 C 12.574,-3.618 11.809,-2.006 11.108,-1 9.103,1.865 6.941,2.601 5.831,2.783 5.407,2.853 5.068,2.893 4.587,2.893 4.14,2.893 3.585,2.857 2.844,2.778 2.101,2.701 1.272,2.506 0.312,2.183 -1.036,1.732 -2.255,1.023 -3.215,0.135 l -0.033,-0.03 c -0.142,-0.131 -0.439,-0.407 -0.78,-0.841"
             id="path142"
             style="fill:#f22f20;fill-opacity:1;fill-rule:nonzero;stroke:none" /></g><g
           transform="translate(462.449,624.6611)"
           id="g144"><path
             d="m 0,0 c -6.203,-1.192 -10.347,6.474 -23.276,4.467 -12.929,-2.006 -18.857,-20.15 -16.772,-32.018 2.085,-11.868 16.26,-29.797 39.176,-30.789 22.917,-0.992 41.861,17.129 43.096,34.358 C 43.459,-6.753 33.086,5.634 24.742,6.704 11.259,8.434 10.561,2.029 0,0"
             id="path146"
             style="fill:#991014;fill-opacity:1;fill-rule:nonzero;stroke:none" /></g></g></g><g
       id="g148"><g
         clip-path="url(#clipPath152)"
         id="g150"><g
           transform="translate(484.6567,631.6046)"
           id="g156"><path
             d="m 0,0 c 0,0 18.887,-16.898 10.613,-34.532 -8.274,-17.635 -26.302,-30.003 -59.448,-20.864 0,0 13.348,-24.352 48.022,-14.502 C 33.86,-60.047 42.185,0.156 0,0"
             id="path158"
             style="fill:#770715;fill-opacity:1;fill-rule:nonzero;stroke:none" /></g></g></g><g
       id="g160"><g
         clip-path="url(#clipPath164)"
         id="g162"><g
           transform="translate(439.2977,580.0328)"
           id="g168"><path
             d="m 0,0 c -8.605,3.778 -16.538,15.566 -14.262,26.993 2.277,11.426 8.805,18.561 16.686,18.561 7.88,0 15.385,-16.75 21.661,-15.689 6.276,1.061 14.944,10.121 20.461,10.122 5.516,0.002 11.032,-15.826 3.152,-25.643 C 39.817,4.527 19.285,-8.467 0,0"
             id="path170"
             style="fill:#c60018;fill-opacity:1;fill-rule:nonzero;stroke:none" /></g><g
           transform="translate(458.6224,606.5339)"
           id="g172"><path
             d="m 0,0 c -5.103,4.4 -12.373,16.411 -19.402,16.588 -7.028,0.177 -14.392,-17.173 -12.422,-22.593 1.97,-5.42 14.885,-22.273 29.464,-18.333 C 12.218,-20.398 9.749,-8.405 0,0"
             id="path174"
             style="fill:#e00026;fill-opacity:1;fill-rule:nonzero;stroke:none" /></g><g
           transform="translate(439.6244,620.495)"
           id="g176"><path
             d="m 0,0 c -4.17,0.821 -7.063,-5.956 -6.18,-9.543 0.883,-3.586 11.056,-3.475 12.297,0 C 7.357,-6.067 4.307,-0.848 0,0"
             id="path178"
             style="fill:#ffffff;fill-opacity:1;fill-rule:nonzero;stroke:none" /></g><g
           transform="translate(398.7607,586.936)"
           id="g180"><path
             d="m 0,0 c 13.219,7.796 16.532,31.506 9.45,44.141 -7.082,12.636 -20.444,9.583 -25.666,12.864 -5.223,3.28 -8.762,11.653 -25.448,11.047 C -58.35,67.447 -69.984,53.689 -71.616,36.947 -73.248,20.205 -58.699,2.951 -47.393,-2.902 -36.087,-8.754 -20.162,-11.89 0,0"
             id="path182"
             style="fill:#991014;fill-opacity:1;fill-rule:nonzero;stroke:none" /></g></g></g><g
       id="g184"><g
         clip-path="url(#clipPath188)"
         id="g186"><g
           transform="translate(331.8827,603.9919)"
           id="g192"><path
             d="m 0,0 c 0,0 10.616,-19.54 41.525,-15.886 30.908,3.655 40.906,40.269 24.842,51.769 0,0 4.426,4.226 11.518,-6.041 C 84.978,19.576 87.342,-24.16 57.396,-31.252 27.451,-38.345 4.853,-17.624 0,0"
             id="path194"
             style="fill:#770715;fill-opacity:1;fill-rule:nonzero;stroke:none" /></g></g></g><g
       id="g196"><g
         clip-path="url(#clipPath200)"
         id="g198"><g
           transform="translate(362.486,648.3908)"
           id="g204"><path
             d="m 0,0 c -8.175,1.336 -21.397,-0.585 -28.369,-12.546 -6.973,-11.962 0.115,-26.42 4.728,-33.48 6.743,-10.32 23.247,-8.935 37.432,-5.293 14.184,3.643 19.217,16.385 19.262,24.001 0.044,7.617 -5.078,8.581 -14.534,8.887 C 9.062,-18.125 7.264,-1.187 0,0"
             id="path206"
             style="fill:#c60018;fill-opacity:1;fill-rule:nonzero;stroke:none" /></g><g
           transform="translate(359.7278,644.6336)"
           id="g208"><path
             d="m 0,0 c -7.118,0.059 -14.949,-0.182 -21.671,-8.789 -6.722,-8.607 -1.182,-21.729 5.91,-27.051 7.093,-5.321 34.092,-0.681 35.762,8.031 1.67,8.713 -8.864,8.072 -10.295,13.318 C 8.274,-9.245 5.895,-0.049 0,0"
             id="path210"
             style="fill:#e00026;fill-opacity:1;fill-rule:nonzero;stroke:none" /></g><g
           transform="translate(350.6959,638.8526)"
           id="g212"><path
             d="M 0,0 C -5.177,5.307 -16.155,-6.128 -14.579,-12.52 -13.003,-18.913 15.761,-16.155 0,0"
             id="path214"
             style="fill:#ffffff;fill-opacity:1;fill-rule:nonzero;stroke:none" /></g><g
           transform="translate(379.8227,639.063)"
           id="g216"><path
             d="m 0,0 c 0,0 1.97,25.089 16.549,35.333 14.578,10.244 39.401,19.701 44.918,33.491 5.516,13.791 4.728,17.337 4.728,20.489 0,3.152 3.152,7.487 5.91,0 2.758,-7.486 11.821,-36.643 16.549,-49.252 4.728,-12.608 8.173,-52.641 2.263,-60.52 -5.911,-7.879 -9.355,0.114 -9.355,0.114 0,2.486 8.668,24.55 5.516,42.281 -3.152,17.731 -14.973,49.647 -16.155,57.133 0,0 -2.758,-16.155 -9.85,-22.065 C 53.98,51.094 23.641,33.363 18.519,29.423 13.397,25.483 9.206,5.092 9.161,-0.818 9.123,-5.779 -1.178,-6.094 0,0"
             id="path218"
             style="fill:#8f9936;fill-opacity:1;fill-rule:nonzero;stroke:none" /></g><g
           transform="translate(448.1234,722.7609)"
           id="g220"><path
             d="m 0,0 c -2.063,-3.635 -2.84,-8.13 -4.463,-11.99 -4.363,-10.37 -9.959,-12.583 -11.838,-16.828 -0.123,-0.277 0.143,-0.501 0.405,-0.437 4.193,1.021 11.404,9.967 13.034,13.57 2.028,4.48 3.816,10.385 4.221,15.273 C 1.427,0.413 0.405,0.713 0,0"
             id="path222"
             style="fill:#b4c25a;fill-opacity:1;fill-rule:nonzero;stroke:none" /></g><g
           transform="translate(434.6948,696.4838)"
           id="g224"><path
             d="m 0,0 c -11.282,-7.727 -24.214,-12.67 -35.066,-21.062 -11.561,-8.941 -17.175,-22.173 -17.544,-36.642 -0.049,-1.935 3.083,-1.987 3.341,-0.121 1.096,7.931 1.953,15.468 5.885,22.611 3.191,5.799 8.578,10.167 13.943,13.846 10.082,6.914 21.416,11.839 30.122,20.627 C 1.095,-0.324 0.46,0.315 0,0"
             id="path226"
             style="fill:#b4c25a;fill-opacity:1;fill-rule:nonzero;stroke:none" /></g><g
           transform="translate(470.038,666.7153)"
           id="g228"><path
             d="m 0,0 c -1.54,8.569 -4.853,16.836 -7.413,25.133 -2.901,9.402 -5.888,18.853 -9.323,28.073 -0.283,0.759 -1.405,0.338 -1.172,-0.426 5.122,-16.79 10.428,-33.918 14.247,-51.054 1.797,-8.064 2.63,-15.861 2.255,-24.127 -0.367,-8.097 -3.684,-15.09 -5.752,-22.771 -0.63,-2.343 2.96,-3.25 3.944,-1.195 C 3.611,-32.13 2.718,-15.122 0,0"
             id="path230"
             style="fill:#b4c25a;fill-opacity:1;fill-rule:nonzero;stroke:none" /></g><g
           transform="translate(394.1096,668.8947)"
           id="g232"><path
             d="m 0,0 c -2.118,-0.514 -3.386,-2.835 -4.533,-4.518 -1.226,-1.799 -2.027,-3.779 -2.247,-5.943 -0.131,-1.281 1.697,-1.963 2.235,-0.677 0.839,2.007 2.065,3.804 3.317,5.572 1.07,1.51 2.452,2.881 2.37,4.842 C 1.117,-0.125 0.505,0.122 0,0"
             id="path234"
             style="fill:#dae28d;fill-opacity:1;fill-rule:nonzero;stroke:none" /></g><g
           transform="translate(469.9627,643.0933)"
           id="g236"><path
             d="m 0,0 c -1.648,-3.531 -2.189,-7.545 -3.526,-11.21 -1.209,-3.319 -2.622,-6.642 -3.297,-10.119 -0.235,-1.214 1.374,-1.514 1.929,-0.585 1.823,3.051 2.816,6.574 3.642,10.014 0.918,3.825 2.309,7.771 2.265,11.73 C 1.007,0.383 0.213,0.456 0,0"
             id="path238"
             style="fill:#dae28d;fill-opacity:1;fill-rule:nonzero;stroke:none" /></g><g
           transform="translate(373.4075,644.6336)"
           id="g240"><path
             d="m 0,0 c 0,0 4.723,-6.969 10.005,-8.832 5.283,-1.863 8.977,2.528 12.126,1.33 0,0 -8.596,-4.728 -12.613,-3.298 C 5.501,-9.369 1.055,-4.408 0,0"
             id="path242"
             style="fill:#720911;fill-opacity:1;fill-rule:nonzero;stroke:none" /></g><g
           transform="translate(453.5376,622.9153)"
           id="g244"><path
             d="m 0,0 c 0,0 5.763,-1.528 9.184,-4.636 3.422,-3.107 7.443,0.762 9.989,2.942 2.546,2.179 6.328,3.672 6.328,3.672 0,0 -4.097,-3.429 -6.221,-6.182 C 17.157,-6.957 13.998,-10.187 9.391,-7.432 4.785,-4.676 4.831,-2.308 0,0"
             id="path246"
             style="fill:#720911;fill-opacity:1;fill-rule:nonzero;stroke:none" /></g><g
           transform="translate(449.1698,725.6182)"
           id="g248"><path
             d="m 0,0 c 0,0 -3.152,-3.94 -5.122,0 -1.97,3.94 0,6.901 0,6.901 0,0 -5.122,0.979 -4.728,4.92 0.394,3.94 2.736,3.546 4.914,5.91 2.178,2.364 0.602,6.698 4.936,7.486 4.334,0.788 7.88,-2.364 8.668,-4.728 0.788,-2.364 4.335,-5.962 1.576,-8.694 C 7.486,9.062 5.914,-2.486 0,0"
             id="path250"
             style="fill:#a4ad4b;fill-opacity:1;fill-rule:nonzero;stroke:none" /></g><g
           transform="translate(456.5541,740.9492)"
           id="g252"><path
             d="m 0,0 c -1.455,2.113 -4.457,1.29 -6.575,0.85 -2.85,-0.593 -5.312,-1.837 -7.391,-3.869 -1.023,-1 0.322,-2.632 1.539,-2.188 2.287,0.836 4.604,1.535 7.007,1.946 1.82,0.312 4.192,-0.078 5.352,1.668 C 0.263,-1.096 0.359,-0.522 0,0"
             id="path254"
             style="fill:#b4c25a;fill-opacity:1;fill-rule:nonzero;stroke:none" /></g><g
           transform="translate(455.2867,734.8705)"
           id="g256"><path
             d="m 0,0 c -3.423,2.597 -8.154,-2.085 -10.477,-4.309 -1.31,-1.254 0.692,-3.27 2.106,-2.292 1.291,0.894 2.675,1.539 4.126,2.134 1.544,0.632 3.339,0.593 4.48,1.918 C 0.858,-1.826 0.776,-0.589 0,0"
             id="path258"
             style="fill:#b4c25a;fill-opacity:1;fill-rule:nonzero;stroke:none" /></g><g
           transform="translate(453.4017,749.5266)"
           id="g260"><path
             d="m 0,0 c -1.979,0.449 -4.209,-0.721 -5.958,-1.528 -1.628,-0.751 -1.176,-3.175 0.69,-3.084 1.966,0.097 4.383,-0.119 6.065,1.081 C 2.251,-2.495 1.646,-0.373 0,0"
             id="path262"
             style="fill:#b4c25a;fill-opacity:1;fill-rule:nonzero;stroke:none" /></g><g
           transform="translate(448.4156,740.3177)"
           id="g264"><path
             d="m 0,0 c -2.153,1.52 -6.053,-0.746 -7.039,-2.779 -0.506,-1.045 0.839,-2.217 1.781,-1.479 0.896,0.701 1.787,1.332 2.851,1.754 0.952,0.377 2.036,0.813 2.589,1.713 C 0.327,-0.555 0.219,-0.154 0,0"
             id="path266"
             style="fill:#dae28d;fill-opacity:1;fill-rule:nonzero;stroke:none" /></g><g
           transform="translate(449.9807,747.9736)"
           id="g268"><path
             d="m 0,0 c -0.742,0.998 -2.235,0.117 -3.065,-0.297 -0.95,-0.474 -0.39,-2.04 0.568,-1.563 0.452,0.226 0.902,0.443 1.379,0.612 0.397,0.14 0.851,0.257 1.092,0.633 C 0.095,-0.426 0.147,-0.197 0,0"
             id="path270"
             style="fill:#dae28d;fill-opacity:1;fill-rule:nonzero;stroke:none" /></g><g
           transform="translate(450.1584,732.0536)"
           id="g272"><path
             d="m 0,0 c -0.37,0.568 -1.392,0.745 -1.973,0.581 -0.592,-0.167 -1.149,-0.475 -1.66,-0.813 -1,-0.662 -1.614,-1.843 -2.017,-2.941 -0.447,-1.218 1.231,-2.493 2.056,-1.286 0.551,0.804 1.22,1.433 2.013,1.995 0.525,0.372 1.036,0.531 1.417,1.091 C 0.149,-0.913 0.33,-0.508 0,0"
             id="path274"
             style="fill:#dae28d;fill-opacity:1;fill-rule:nonzero;stroke:none" /></g><g
           transform="translate(147.1206,413.7325)"
           id="g276"><path
             d="m 0,0 c -8.749,-3.223 -37.918,10.567 -62.783,0 -24.864,-10.567 -48.486,-55.945 -24.864,-98.215 23.621,-42.27 73.35,-64.026 95.106,-60.296 21.757,3.729 26.108,13.054 29.838,15.54 3.729,2.486 13.054,-4.973 29.216,0 16.162,4.973 45.999,57.188 41.648,98.836 C 103.809,-2.486 67.134,21.135 44.756,18.027 22.378,14.919 11.811,4.351 0,0"
             id="path278"
             style="fill:#bf2201;fill-opacity:1;fill-rule:nonzero;stroke:none" /></g></g></g></g></svg>