<?xml version="1.0" encoding="UTF-8" standalone="no"?>
<!-- Created with Inkscape (http://www.inkscape.org/) -->

<svg
   xmlns:dc="http://purl.org/dc/elements/1.1/"
   xmlns:cc="http://creativecommons.org/ns#"
   xmlns:rdf="http://www.w3.org/1999/02/22-rdf-syntax-ns#"
   xmlns:svg="http://www.w3.org/2000/svg"
   xmlns="http://www.w3.org/2000/svg"
   version="1.1"
   width="1000"
   height="1000"
   id="svg2"
   xml:space="preserve"><metadata
     id="metadata8"><rdf:RDF><cc:Work
         rdf:about=""><dc:format>image/svg+xml</dc:format><dc:type
           rdf:resource="http://purl.org/dc/dcmitype/StillImage" /><dc:title></dc:title></cc:Work></rdf:RDF></metadata><defs
     id="defs6"><clipPath
       id="clipPath20"><path
         d="M 0,800 800,800 800,0 0,0 0,800 z"
         id="path22" /></clipPath></defs><g
     transform="matrix(1.25,0,0,-1.25,0,1000)"
     id="g10"><g
       transform="translate(587.647,668.7433)"
       id="g260"><path
         d="M 0,0 C 3.648,6.616 9.414,13.667 15.662,17.75 9.754,22.996 2.76,26.862 -3.582,23.157 -3.62,23.025 -3.696,22.892 -3.809,22.769 -11.011,15.208 -6.049,6.957 0,0 m 17.231,-20.284 c 3.383,3.11 6.247,7.118 3.639,11.9 -1.248,2.307 -3.668,3.743 -6.191,4.187 -1.843,0.331 -8.233,0 -7.278,-3.487 0.019,-0.085 0.009,-0.152 -0.019,-0.218 0.208,-0.227 0.416,-0.453 0.605,-0.671 3.308,-3.724 6.389,-7.637 9.244,-11.711 m 8.336,27.269 c -0.435,0.633 -0.832,1.162 -1.153,1.55 -0.898,1.059 -1.9,2.221 -2.987,3.412 -2.391,-1.21 -6.011,-3.138 -4.31,-6.172 2.127,-3.79 6.475,-1.314 8.45,1.21 m -2.646,17.476 c 5.066,6.238 13.213,12.174 21.351,13.412 -4.31,9.348 -10.406,18.45 -21.257,18.195 -0.113,-0.113 -0.246,-0.199 -0.425,-0.236 -7.486,-1.286 -10.378,-9.386 -8.658,-16.116 1.446,-5.68 5.217,-10.661 8.989,-15.255 m 25.491,3.46 c -0.151,0.415 -0.303,0.822 -0.463,1.228 -0.983,2.411 -2.023,5.029 -3.195,7.666 -3.374,-1.484 -6.843,-2.571 -10.075,-4.348 -0.019,-0.047 -0.048,-0.104 -0.085,-0.151 -3.157,-3.8 -1.787,-9.603 2.948,-11.342 5.038,-1.853 11.078,1.115 10.861,6.88 0,0.029 0.009,0.048 0.009,0.067 M 55.671,9.452 c -0.539,0.69 -1.011,1.493 -1.418,2.382 -0.539,1.162 -1.021,2.363 -1.484,3.572 -2.958,-0.491 -5.349,-3.487 -3.336,-6.323 0.954,-1.342 2.59,-1.928 4.168,-1.389 1.011,0.349 1.512,1.039 2.07,1.758 m -13.062,-80.69 c 15.51,-2.127 22.533,15.18 18.081,27.713 -2.495,7.041 -7.684,12.901 -15.227,14.48 -7.24,1.521 -14.301,-1.172 -18.714,-7.042 5.68,-11.38 8.941,-24.461 14.952,-35.529 0.199,0.255 0.511,0.435 0.908,0.378 m 24.073,-13.043 c -1.796,2.996 -4.168,5.434 -7.977,5.576 -3.554,0.132 -6.465,-1.919 -8.393,-4.707 2.278,-2.278 4.839,-4.338 7.826,-6.096 0.179,0.132 0.416,0.189 0.624,0.123 0.047,0.047 0.085,0.094 0.132,0.132 2.495,1.852 5.104,3.488 7.788,4.972 m -1.89,97.92 c 7.817,-3.346 12.59,6.049 8.866,12.145 -1.957,3.214 -5.463,5.605 -9.282,4.301 -2.07,-0.699 -3.904,-2.108 -5.907,-3.015 1.162,-2.429 2.325,-4.858 3.487,-7.287 0.851,-1.787 2.193,-3.989 2.751,-6.125 0.028,-0.01 0.057,0 0.085,-0.019 M 78.034,36.89 c -0.303,2.685 -0.577,5.407 -0.898,8.119 -0.407,3.516 -0.898,7.023 -1.664,10.435 C 73.837,62.741 69.14,67.259 62.363,69.508 62.287,69.48 62.23,69.452 62.145,69.442 58.336,68.979 54.149,68.403 51.172,65.718 47.278,62.221 47.75,56.559 48.601,51.919 c 0.709,-3.847 1.975,-7.543 3.478,-11.144 7.373,3.752 16.163,6.04 24.433,4.764 0.321,-0.057 0.463,-0.293 0.463,-0.549 0,-0.349 -0.246,-0.718 -0.642,-0.737 -2.014,-0.066 -3.98,-0.17 -5.917,-0.321 -0.388,-2.24 0.293,-4.66 2.136,-6.115 1.824,-1.437 3.535,-1.191 5.482,-0.927 m 18.1,-17.051 c 0.085,3.488 -4.064,5.208 -6.616,2.911 -0.095,-0.085 -0.199,-0.122 -0.303,-0.151 0.057,-1.389 -0.038,-2.712 -0.349,-3.941 0.085,-0.473 0.075,-0.955 0.009,-1.427 0.104,0.009 0.217,-0.029 0.321,-0.123 2.543,-2.297 6.853,-0.87 6.938,2.731 M 111.436,3.932 c 0.237,-0.038 0.369,-0.236 0.397,-0.454 -0.283,3.838 -0.425,7.581 -0.491,10.634 -0.028,-0.01 -0.057,-0.019 -0.085,-0.019 -3.119,0.047 -6.569,-2.165 -6.115,-5.671 0.198,-1.56 1.209,-2.902 2.552,-3.687 1.2,-0.699 2.429,-0.605 3.742,-0.803 m 1.588,41.172 c 0.029,1.238 0.029,2.486 -0.019,3.724 -0.132,3.875 -0.708,7.731 -2.117,11.361 -0.973,2.505 -3.998,8.45 -7.495,10.312 -0.189,-0.303 -0.52,-0.492 -0.907,-0.359 -5.889,2.088 -14.046,1.313 -16.201,-5.652 -1.616,-5.227 -0.917,-11.9 -0.283,-17.704 8.714,1.654 18.44,1.437 26.805,-1.559 0.085,-0.029 0.151,-0.076 0.217,-0.123 m 11.239,-113.573 c 1.068,16.825 -14.084,30.586 -30.747,26.503 -17.297,-4.234 -22.41,-22.363 -15.737,-37.259 6.002,2.269 12.23,4.008 18.487,5.52 9.074,2.202 18.564,4.783 28.006,5.132 0,0.038 -0.009,0.067 -0.009,0.104 m 17.627,-25.708 c 0.066,0.189 0.161,0.33 0.284,0.444 -2.628,6.682 -3.734,13.894 -4.433,21.002 -0.161,0.179 -0.255,0.425 -0.265,0.671 -13.903,3.686 -28.629,-0.747 -42.193,-4.112 -12.542,-3.109 -24.792,-7.193 -35.397,-14.782 -0.047,-0.029 -0.104,-0.057 -0.151,-0.085 4.083,-8.847 7.845,-18.611 9.433,-28.186 0.019,-0.085 0.01,-0.16 0,-0.245 14.234,-1.154 27.949,-1.248 41.89,2.674 12.429,3.498 26.097,9.613 30.832,22.619 m 6.125,33.421 c -0.01,0.038 -0.029,0.057 -0.038,0.095 -0.964,4.243 -6.503,6.039 -8.8,1.71 -2.117,-4.007 2.07,-7.731 6.031,-6.72 0.066,0.019 0.141,0.01 0.208,-0.009 1.134,1.474 1.984,3.128 2.599,4.924 m 1.758,28.251 c 0.038,2.269 0.085,4.547 0.132,6.815 -5.68,0.567 -11.077,-3.053 -11.096,-9.272 -0.019,-6.068 5.236,-9.575 10.784,-9.584 0.066,4.007 0.104,8.024 0.18,12.041 m 0.756,38.923 c -0.028,0 -0.047,-0.01 -0.076,0 -4.281,0.709 -8.317,0.983 -12.306,0.907 -1.692,-3.762 -1.474,-8.289 2.023,-10.992 3.922,-3.025 7.835,-1.116 10.217,2.438 0.047,2.552 0.104,5.095 0.142,7.647 m 0.028,2.136 c 0.085,5.907 0.085,13.478 -5.538,17.06 -5.568,3.535 -17.713,3.46 -20.851,-2.911 -2.316,-4.697 -2.174,-11.096 -2.183,-16.569 8.809,3.601 19.451,4.121 28.563,1.673 0,0.246 0.009,0.501 0.009,0.747 m 1.399,9.007 c 1.475,-7.722 0.454,-16.134 0.322,-23.941 -0.171,-9.953 -0.36,-19.905 -0.539,-29.858 -0.246,-13.129 2.202,-29.82 -11.805,-36.191 0.009,-0.057 0.028,-0.113 0.037,-0.18 0.756,-7.06 2.326,-13.913 3.498,-20.907 0.453,-0.179 0.765,-0.633 0.557,-1.247 -4.159,-12.439 -16.512,-19.065 -28.261,-22.94 -15.066,-4.981 -32.561,-6.938 -48.081,-2.921 -0.501,0.133 -0.567,0.766 -0.283,1.087 -3.375,9.433 -6.012,19.197 -9.263,28.696 -10.095,3.412 -16.484,13.176 -20.605,22.505 -5.321,12.041 -8.743,24.622 -15.255,36.162 C 18.875,-26.153 15,-20.397 10.671,-15 6.503,-9.792 1.626,-5.274 -2.703,-0.217 -8.365,6.38 -12.75,17.136 -5.18,24.13 c 0.227,0.208 0.473,0.284 0.7,0.274 5,3.602 12.108,1.985 17.41,-1.937 4.575,-3.384 8.658,-7.59 12.401,-11.862 3.157,-3.62 9.31,-15.416 14.754,-13.299 1.437,4.972 -3.875,8.819 -6.853,12.07 -2.656,2.921 -5.245,5.889 -7.778,8.923 -4.499,5.406 -9.613,11.077 -12.344,17.656 -3.46,8.327 -1.22,20.397 9.225,21.786 0.245,0.028 0.444,-0.047 0.595,-0.18 8.639,1.324 15.926,-5.567 20.057,-12.712 2.92,-5.038 5.113,-10.558 7.268,-15.964 1.182,-2.949 2.297,-5.927 3.355,-8.923 1.314,-3.714 2.411,-11.559 8.053,-11.068 0.076,0.01 0.133,-0.009 0.199,-0.019 2.911,1.673 -0.983,8.507 -1.645,9.887 -0.756,1.578 -1.512,3.157 -2.268,4.726 -1.616,3.393 -3.261,6.777 -4.858,10.179 -2.921,6.191 -5.719,12.552 -6.711,19.376 -0.728,5.019 -0.624,10.445 3.384,14.093 3.279,2.977 8.071,4.026 12.381,4.111 0.397,0.01 0.643,-0.189 0.766,-0.434 8.232,-1.078 13.336,-8.318 14.83,-16.295 1.058,-5.662 1.55,-11.465 2.287,-17.183 l 1.248,-9.793 c 0.302,-2.362 0.397,-11.436 3.856,-12.533 4.735,6.012 0.511,16.872 -0.321,23.668 -0.926,7.58 -1.91,15.746 -1.04,23.374 1.04,9.026 9.839,12.977 17.826,10.265 3.724,0.699 7.751,-5 9.301,-7.685 3.724,-6.417 4.338,-13.979 3.988,-21.228 -0.472,-9.707 -1.814,-19.235 -1.569,-28.98 0.076,-3.138 1.825,-31.011 5.133,-30.217 0.368,0.095 0.661,-0.028 0.879,-0.227 1.644,0.567 1.049,2.089 0.907,4.405 -0.142,2.401 -0.236,4.801 -0.274,7.211 -0.095,4.802 -0.019,9.613 0.236,14.414 0.293,5.445 0.047,12.987 4.565,16.947 4.159,3.649 12.269,3.28 17.288,1.957 5.624,-1.484 8.837,-5.794 9.905,-11.352 M 111.833,3.412 c 0,-0.198 -0.085,-0.406 -0.264,-0.491 -3.478,-1.815 -7.788,2.277 -7.94,5.69 -0.179,3.894 3.894,7.372 7.694,6.209 -0.057,2.874 -0.047,5.048 -0.028,5.946 0.066,3.837 0.416,7.674 0.784,11.512 -3.062,-4.027 -9.159,-5.17 -13.62,-2.344 -5.624,3.554 -6.295,11.172 -1.692,15.813 0.076,0.075 0.17,0.113 0.265,0.113 0.293,0 0.586,-0.321 0.369,-0.605 -3.299,-4.3 -3.299,-10.51 1.436,-13.818 5.17,-3.601 10.615,-0.889 13.535,3.903 0.274,2.892 0.511,5.785 0.615,8.677 -0.142,-0.095 -0.322,-0.132 -0.539,-0.095 -5.293,0.955 -10.322,1.664 -15.416,1.957 -3.573,0.198 -7.174,0.198 -10.917,-0.076 0.095,-0.869 0.18,-1.71 0.255,-2.523 0.615,-6.39 2.212,-12.732 2.741,-19.112 3.431,2.382 8.507,0.161 8.412,-4.329 -0.104,-4.565 -5.718,-6.682 -8.846,-3.45 -0.246,-0.737 -0.662,-1.417 -1.22,-1.956 0.114,-0.331 0.038,-0.709 -0.34,-0.936 -4.669,-2.835 -6.73,3.148 -7.722,9.537 -0.766,4.943 -0.898,10.123 -1.087,11.626 -0.028,0.208 -0.047,0.406 -0.076,0.614 -2.221,-0.841 -5.245,0.113 -6.871,1.569 -2.013,1.796 -2.647,4.509 -1.976,6.994 -5.784,-0.519 -11.276,-1.588 -16.918,-3.969 1.427,-3.327 3.034,-6.598 4.593,-9.849 0.265,-0.567 0.539,-1.134 0.813,-1.701 3.403,2.438 7.675,5.302 11.834,3.27 3.365,-1.654 6.087,-4.887 6.843,-8.592 0.038,-0.17 0.066,-0.331 0.085,-0.491 1.011,-6.739 -5.151,-13.072 -11.72,-10.038 0.019,-0.114 0.038,-0.236 0.047,-0.35 C 65.038,10.066 64.102,8.223 62.514,7.505 62.419,7.259 62.23,7.06 61.919,7.004 59.801,6.645 58.128,7.155 56.796,8.27 56.03,7.127 54.518,6.333 53.299,6.106 51.352,5.756 49.48,6.578 48.317,8.157 c -2.457,3.327 0.029,8.308 4.216,7.892 -1.059,2.855 -1.975,5.794 -2.958,8.677 -1.513,-5.028 -8.252,-7.202 -13.176,-4.924 -4.282,1.975 -6.314,7.514 -3.847,11.389 -3.299,-2.136 -6.248,-4.698 -9.045,-7.448 0.765,-0.926 1.531,-1.843 2.268,-2.741 4.234,-5.17 8.847,-9.972 13.204,-15.019 1.257,-1.446 2.287,-2.977 2.722,-4.575 4.698,0.218 8.857,-3.724 9.66,-8.251 0.907,-5.066 -2.58,-9.915 -7.183,-11.749 -9.584,-3.828 -20.794,8.167 -12.004,15.993 0.227,0.208 0.491,0.151 0.652,-0.01 0.161,-0.16 0.208,-0.425 0.009,-0.652 -6.758,-7.873 3.044,-17.75 11.541,-13.525 8.261,4.102 6.465,15.453 -2.457,16.833 0.037,-0.86 -0.114,-1.729 -0.511,-2.627 0.378,-0.274 0.539,-0.832 0.114,-1.257 -2.808,-2.798 -5.87,-1.456 -8.677,1.238 -2.448,2.363 -4.707,5.756 -6.408,8.298 C 23.8,2.618 18.904,0.577 16.03,4.631 c -2.684,3.781 1.305,6.9 4.707,8.082 -1.314,1.427 -2.731,2.882 -4.225,4.262 C 13.8,14.159 10.728,11.72 8.1,8.79 5.388,5.775 3.062,2.495 0.68,-0.766 c 1.948,-2.174 3.97,-4.215 5.7,-6.049 -0.104,1.919 2.287,3.271 4.074,3.781 3.175,0.907 6.824,0.094 9.376,-1.966 4.811,-3.894 4.584,-14.083 -1.872,-16.304 2.949,-4.291 5.653,-8.743 8.063,-13.356 0.104,-0.198 0.198,-0.397 0.302,-0.586 3.346,6.39 11.125,8.97 18.062,8.006 8.29,-1.153 14.254,-6.928 17.373,-14.461 5.813,-14.074 -1.947,-33.403 -19.263,-31.342 2.004,-3.488 4.329,-6.739 7.117,-9.66 3.724,7.174 15.558,7.174 18.29,-0.917 2.939,1.541 5.973,2.873 9.064,4.074 -10.133,14.499 -0.274,35.066 16.125,39.13 17.627,4.357 34.026,-10.132 32.863,-28.053 0,-0.028 -0.019,-0.047 -0.019,-0.066 4.14,0.029 8.271,-0.387 12.335,-1.512 0.359,-0.095 0.577,-0.312 0.681,-0.567 2.183,0.945 3.95,2.202 5.378,3.695 -4.755,-1.001 -9.027,4.074 -6.503,8.762 2.467,4.575 8.733,3.989 10.907,-0.028 0.378,1.711 0.586,3.525 0.662,5.406 0.085,2.439 0.142,4.877 0.179,7.316 -6.606,-1.049 -12.552,4.282 -12.249,11.059 0.302,6.578 6.342,11.162 12.609,10.226 0.132,6.645 0.264,13.29 0.397,19.925 -2.373,-2.628 -6.957,-3.186 -10.067,-1.39 -4.726,2.713 -5.633,8.469 -3.261,12.94 -4.962,-0.199 -9.858,-0.955 -15.028,-2.278 0,-0.444 0,-0.879 -0.009,-1.314 -0.076,-3.043 -0.029,-6.068 0.056,-9.102 7.174,0.028 12.08,-7.032 12.6,-13.752 0.529,-6.985 -3.592,-13.289 -10.312,-15.388 -16.843,-5.264 -26.276,17.855 -11.966,27.127 0.283,0.179 0.605,-0.085 0.605,-0.359 0,-0.095 -0.038,-0.189 -0.123,-0.265 -5.312,-4.792 -8.422,-12.193 -4.584,-18.97 3.062,-5.406 9.064,-7.854 15.066,-6.2 5.86,1.607 9.773,6.748 9.773,12.817 0.009,6.228 -4.31,13.345 -11.021,13.459 0.104,-3.365 0.265,-6.72 0.416,-10.085 0.019,-0.463 -0.425,-0.926 -0.898,-0.898 -0.888,0.047 -1.786,0.132 -2.675,0.208 -2.826,-0.709 -4.622,3.799 -5.746,9.971 -0.624,3.403 -1.04,7.316 -1.324,11.144"
         id="path262"
         style="fill:#1d1d1b;fill-opacity:1;fill-rule:nonzero;stroke:none" /></g><g
       transform="translate(732.6656,694.3576)"
       id="g264"><path
         d="m 0,0 c 5.624,-3.582 5.624,-11.153 5.539,-17.06 0,-0.246 -0.01,-0.501 -0.01,-0.747 -9.111,2.448 -19.754,1.928 -28.563,-1.673 0.009,5.472 -0.132,11.871 2.183,16.569 C -17.713,3.459 -5.567,3.535 0,0"
         id="path266"
         style="fill:#ae6200;fill-opacity:1;fill-rule:nonzero;stroke:none" /></g><g
       transform="translate(738.1003,675.1611)"
       id="g268"><path
         d="m 0,0 c 0.028,-0.009 0.047,0 0.076,0 -0.038,-2.552 -0.095,-5.095 -0.142,-7.646 -2.382,-3.554 -6.295,-5.464 -10.218,-2.439 -3.497,2.703 -3.714,7.231 -2.022,10.992 C -8.318,0.983 -4.282,0.709 0,0"
         id="path270"
         style="fill:#ccdddc;fill-opacity:1;fill-rule:nonzero;stroke:none" /></g><g
       transform="translate(681.8245,645.8795)"
       id="g272"><path
         d="M 0,0 C 6.578,7.401 5.974,18.989 -2.013,25.113 -9.65,30.973 -20.142,28.96 -25.737,21.503 -31.38,15.331 -32.089,6.068 -25.813,-0.633 -18.998,-7.921 -6.531,-7.344 0,0 M 56.153,18.611 C 56.021,11.975 55.888,5.331 55.756,-1.314 49.49,-0.378 43.45,-4.962 43.147,-11.541 c -0.302,-6.777 5.643,-12.107 12.25,-11.058 -0.038,-2.439 -0.095,-4.877 -0.18,-7.316 -0.075,-1.881 -0.283,-3.696 -0.661,-5.406 -2.174,4.017 -8.441,4.603 -10.908,0.028 -2.523,-4.688 1.749,-9.764 6.503,-8.762 -1.427,-1.493 -3.195,-2.75 -5.378,-3.695 -0.104,0.255 -0.321,0.472 -0.68,0.567 -4.065,1.124 -8.195,1.54 -12.335,1.512 0,0.019 0.019,0.038 0.019,0.066 1.162,17.921 -15.236,32.41 -32.864,28.053 -16.399,-4.064 -26.257,-24.631 -16.125,-39.13 -3.09,-1.201 -6.124,-2.533 -9.064,-4.074 -2.732,8.091 -14.565,8.091 -18.289,0.917 -2.788,2.92 -5.114,6.172 -7.117,9.659 17.315,-2.06 25.075,17.269 19.262,31.343 -3.119,7.533 -9.083,13.308 -17.372,14.461 -6.938,0.964 -14.716,-1.616 -18.062,-8.006 -0.104,0.189 -0.199,0.388 -0.303,0.586 -2.41,4.613 -5.113,9.064 -8.062,13.356 6.455,2.221 6.682,12.41 1.871,16.304 -2.552,2.06 -6.2,2.873 -9.376,1.966 -1.786,-0.511 -4.178,-1.862 -4.074,-3.781 -1.729,1.834 -3.752,3.875 -5.699,6.049 2.382,3.261 4.707,6.541 7.42,9.556 2.627,2.93 5.699,5.369 8.412,8.185 1.493,-1.38 2.911,-2.835 4.225,-4.263 -3.403,-1.181 -7.392,-4.3 -4.707,-8.081 2.873,-4.055 7.769,-2.013 10.406,1.068 1.701,-2.542 3.96,-5.935 6.408,-8.298 l -0.019,-0.01 c -0.16,0.161 -0.425,0.218 -0.652,0.01 -8.79,-7.826 2.42,-19.821 12.004,-15.993 4.603,1.834 8.091,6.683 7.183,11.749 -0.803,4.527 -4.962,8.469 -9.659,8.251 -0.435,1.598 -1.465,3.129 -2.722,4.575 -4.358,5.047 -8.97,9.849 -13.205,15.019 -0.737,0.898 -1.502,1.814 -2.268,2.741 2.798,2.75 5.747,5.312 9.045,7.448 -2.467,-3.875 -0.434,-9.414 3.847,-11.39 4.925,-2.278 11.664,-0.104 13.176,4.925 0.983,-2.883 1.9,-5.823 2.958,-8.677 -4.187,0.416 -6.673,-4.565 -4.215,-7.892 1.163,-1.579 3.034,-2.401 4.981,-2.051 1.219,0.227 2.732,1.02 3.497,2.164 1.333,-1.115 3.006,-1.626 5.123,-1.266 0.312,0.056 0.501,0.255 0.596,0.501 1.587,0.718 2.523,2.561 2.448,4.612 -0.01,0.113 -0.029,0.236 -0.048,0.35 6.569,-3.034 12.732,3.298 11.721,10.038 l 2.759,0.529 c 0.993,-6.39 3.053,-12.373 7.723,-9.537 0.378,0.227 0.453,0.605 0.34,0.936 0.557,0.538 0.973,1.219 1.219,1.956 3.129,-3.232 8.743,-1.115 8.847,3.45 0.094,4.49 -4.981,6.711 -8.412,4.329 -0.529,6.38 -2.127,12.722 -2.741,19.112 -0.076,0.812 -0.161,1.654 -0.255,2.523 3.743,0.274 7.344,0.274 10.916,0.076 l 0,-0.019 C 2.76,68.724 2.665,68.686 2.59,68.61 -2.013,63.97 -1.342,56.352 4.282,52.798 c 4.461,-2.826 10.557,-1.683 13.62,2.344 -0.369,-3.838 -0.719,-7.675 -0.785,-11.513 -0.019,-0.897 -0.028,-3.071 0.029,-5.945 -3.8,1.163 -7.874,-2.315 -7.694,-6.21 0.151,-3.412 4.461,-7.504 7.939,-5.69 0.18,0.086 0.265,0.293 0.265,0.492 0.283,-3.828 0.699,-7.741 1.323,-11.144 l -0.208,-0.038 c 0,0.275 -0.321,0.539 -0.605,0.36 -14.31,-9.273 -4.877,-32.392 11.966,-27.127 6.72,2.098 10.841,8.403 10.312,15.388 -0.52,6.72 -5.425,13.78 -12.599,13.752 -0.085,3.034 -0.132,6.058 -0.057,9.102 0.01,0.435 0.01,0.869 0.01,1.314 5.17,1.323 10.066,2.079 15.028,2.278 -2.372,-4.471 -1.465,-10.227 3.261,-12.94 3.109,-1.796 7.694,-1.238 10.066,1.39"
         id="path274"
         style="fill:#33b4ae;fill-opacity:1;fill-rule:nonzero;stroke:none" /></g><g
       transform="translate(737.5521,643.0533)"
       id="g276"><path
         d="m 0,0 c -0.047,-2.268 -0.094,-4.546 -0.132,-6.815 -0.076,-4.017 -0.114,-8.034 -0.18,-12.041 -5.548,0.009 -10.803,3.516 -10.784,9.584 C -11.077,-3.053 -5.68,0.567 0,0"
         id="path278"
         style="fill:#ccdddc;fill-opacity:1;fill-rule:nonzero;stroke:none" /></g><g
       transform="translate(735.624,608.0818)"
       id="g280"><path
         d="M 0,0 C 0.009,-0.038 0.028,-0.057 0.038,-0.094 -0.577,-1.89 -1.427,-3.544 -2.561,-5.019 -2.628,-5 -2.703,-4.991 -2.769,-5.009 -6.73,-6.021 -10.917,-2.297 -8.8,1.711 -6.503,6.04 -0.964,4.244 0,0"
         id="path282"
         style="fill:#ccdddc;fill-opacity:1;fill-rule:nonzero;stroke:none" /></g><g
       transform="translate(660.4351,552.7983)"
       id="g284"><path
         d="m 0,0 c 0.18,-0.539 0.926,-0.312 0.832,0.227 -1.371,8.015 -4.925,15.936 -8.573,23.157 -0.17,0.349 -0.671,0.047 -0.51,-0.293 C -4.745,15.539 -2.628,7.845 0,0 M 9.083,-0.936 C 9.414,-1.72 10.51,-1.276 10.17,-0.473 6.314,8.611 2.495,17.722 -1.645,26.682 -1.767,26.938 -2.202,26.758 -2.098,26.493 1.427,17.268 5.274,8.176 9.083,-0.936 m 5.766,1.314 C 15.066,-0.123 15.86,0.236 15.718,0.747 12.854,10.605 9.074,20.312 5.784,30.047 5.671,30.387 5.161,30.246 5.255,29.905 7.94,20.028 10.784,9.783 14.849,0.378 m 10.066,-1.37 c 0.274,-0.549 1.229,-0.171 1.002,0.415 -4.244,10.719 -9.055,21.229 -13.327,31.947 -0.151,0.388 -0.775,0.237 -0.643,-0.179 3.582,-10.87 7.656,-22.023 12.968,-32.183 m 6.569,1.058 c 0.265,-0.737 1.437,-0.435 1.191,0.331 -3.582,11.503 -7.42,23.034 -11.701,34.301 -0.142,0.368 -0.728,0.226 -0.615,-0.171 3.299,-11.578 7.117,-23.109 11.125,-34.461 m 7.457,2.996 c 0.246,0.142 0.397,0.539 0.208,0.794 -0.028,0.029 -0.047,0.057 -0.075,0.095 -0.237,0.312 -0.747,0.312 -0.927,0 0.123,0.501 0.256,1.002 0.378,1.503 -0.311,0.879 -0.623,1.748 -0.935,2.618 -0.416,1.162 -0.841,2.334 -1.257,3.497 -1.049,2.902 -2.099,5.813 -3.157,8.724 -2.004,5.529 -3.979,11.068 -6.229,16.503 -0.161,0.387 -0.775,0.246 -0.643,-0.17 3.45,-11.191 7.496,-22.297 11.635,-33.252 0.142,-0.368 0.53,-0.576 0.898,-0.368 0.038,0.019 0.067,0.037 0.104,0.056 m 4.632,1.995 c 0.245,-0.549 1.134,-0.161 0.954,0.397 -3.147,10.141 -6.89,20.066 -9.905,30.274 -0.114,0.397 -0.728,0.236 -0.633,-0.18 2.363,-10.236 5.236,-20.898 9.584,-30.491 m 8.005,4.716 c 0.256,-0.576 1.144,-0.161 0.993,0.416 -2.581,9.887 -6.909,19.735 -11.087,29.045 -0.161,0.36 -0.785,0.104 -0.643,-0.274 3.507,-9.678 6.654,-19.745 10.737,-29.187 m 6.097,4.405 c 0.255,-0.662 1.314,-0.407 1.087,0.302 -1.342,4.253 -2.93,8.422 -4.433,12.618 -1.39,3.885 -4.528,9.197 -4.329,13.365 0.019,0.303 -0.501,0.388 -0.548,0.076 -0.53,-3.649 1.777,-7.807 2.93,-11.21 1.729,-5.057 3.365,-10.161 5.293,-15.151 m 8.185,6.295 c 0.425,-0.492 1.182,0.132 0.879,0.68 -3.544,6.229 -6.881,11.862 -8.932,18.828 -0.151,0.501 -0.898,0.293 -0.784,-0.208 1.512,-6.711 4.262,-14.045 8.837,-19.3 m 3.525,1.739 C 69.263,22.098 69.168,21.956 69.102,21.767 64.367,8.762 50.699,2.646 38.27,-0.851 24.329,-4.773 10.614,-4.679 -3.62,-3.526 c 0.009,0.086 0.019,0.161 0,0.246 -1.588,9.575 -5.35,19.339 -9.433,28.185 0.047,0.029 0.104,0.057 0.151,0.085 10.605,7.59 22.855,11.673 35.397,14.783 13.564,3.365 28.289,7.798 42.193,4.112 0.009,-0.246 0.104,-0.492 0.265,-0.671 0.699,-7.108 1.805,-14.32 4.432,-21.002"
         id="path286"
         style="fill:#d49440;fill-opacity:1;fill-rule:nonzero;stroke:none" /></g><g
       transform="translate(727.1741,573.9514)"
       id="g288"><path
         d="m 0,0 c 0.302,-0.548 -0.454,-1.172 -0.879,-0.681 -4.575,5.256 -7.325,12.59 -8.837,19.301 -0.114,0.501 0.633,0.709 0.784,0.208 C -6.881,11.862 -3.544,6.229 0,0"
         id="path290"
         style="fill:#1d1d1b;fill-opacity:1;fill-rule:nonzero;stroke:none" /></g><g
       transform="translate(709.7072,661.8151)"
       id="g292"><path
         d="m 0,0 c 6.711,-0.113 11.03,-7.231 11.021,-13.459 0,-6.068 -3.913,-11.21 -9.773,-12.817 -6.002,-1.654 -12.004,0.794 -15.067,6.2 -3.837,6.777 -0.727,14.178 4.585,18.97 0.085,0.076 0.122,0.17 0.122,0.265 l 0.208,0.038 c 1.125,-6.172 2.921,-10.681 5.747,-9.972 0.889,-0.076 1.786,-0.161 2.675,-0.208 0.473,-0.028 0.917,0.435 0.898,0.898 C 0.265,-6.72 0.104,-3.365 0,0"
         id="path294"
         style="fill:#ccdddc;fill-opacity:1;fill-rule:nonzero;stroke:none" /></g><g
       transform="translate(719.1968,567.2784)"
       id="g296"><path
         d="m 0,0 c 0.227,-0.709 -0.832,-0.964 -1.087,-0.302 -1.928,4.99 -3.563,10.094 -5.293,15.151 -1.153,3.402 -3.459,7.561 -2.93,11.21 0.047,0.311 0.567,0.226 0.548,-0.076 -0.198,-4.168 2.94,-9.48 4.329,-13.365 C -2.93,8.422 -1.342,4.253 0,0"
         id="path298"
         style="fill:#1d1d1b;fill-opacity:1;fill-rule:nonzero;stroke:none" /></g><g
       transform="translate(713.0059,562.9874)"
       id="g300"><path
         d="m 0,0 c 0.151,-0.577 -0.737,-0.992 -0.992,-0.416 -4.084,9.442 -7.231,19.509 -10.738,29.187 -0.141,0.378 0.482,0.633 0.643,0.274 C -6.909,19.735 -2.58,9.887 0,0"
         id="path302"
         style="fill:#1d1d1b;fill-opacity:1;fill-rule:nonzero;stroke:none" /></g><g
       transform="translate(681.1628,626.7774)"
       id="g304"><path
         d="m 0,0 c 16.663,4.083 31.815,-9.679 30.747,-26.503 0,-0.038 0.009,-0.066 0.009,-0.104 -9.442,-0.349 -18.932,-2.93 -28.006,-5.132 -6.257,-1.512 -12.485,-3.251 -18.487,-5.52 C -22.41,-22.363 -17.297,-4.234 0,0"
         id="path306"
         style="fill:#ccdddc;fill-opacity:1;fill-rule:nonzero;stroke:none" /></g><g
       transform="translate(704.9624,558.252)"
       id="g308"><path
         d="m 0,0 c 0.18,-0.558 -0.709,-0.945 -0.955,-0.397 -4.347,9.594 -7.221,20.255 -9.584,30.491 -0.094,0.416 0.52,0.577 0.634,0.18 C -6.89,20.066 -3.147,10.142 0,0"
         id="path310"
         style="fill:#1d1d1b;fill-opacity:1;fill-rule:nonzero;stroke:none" /></g><g
       transform="translate(700.6524,717.5712)"
       id="g312"><path
         d="m 0,0 c 0.047,-1.238 0.047,-2.486 0.019,-3.724 -0.066,0.047 -0.132,0.095 -0.217,0.123 -8.365,2.996 -18.091,3.213 -26.806,1.559 -0.633,5.804 -1.332,12.477 0.284,17.704 2.155,6.966 10.312,7.741 16.2,5.652 0.388,-0.133 0.718,0.056 0.908,0.359 3.497,-1.862 6.521,-7.807 7.495,-10.312 C -0.709,7.732 -0.132,3.875 0,0"
         id="path314"
         style="fill:#ae6200;fill-opacity:1;fill-rule:nonzero;stroke:none" /></g><g
       transform="translate(700.0947,712.6657)"
       id="g316"><path
         d="M 0,0 C 0.217,-0.038 0.397,0 0.539,0.095 0.435,-2.798 0.198,-5.69 -0.076,-8.582 c -2.92,-4.792 -8.364,-7.505 -13.535,-3.904 -4.735,3.308 -4.735,9.518 -1.436,13.819 0.217,0.283 -0.076,0.605 -0.369,0.605 l 0,0.019 C -10.321,1.664 -5.293,0.955 0,0"
         id="path318"
         style="fill:#ccdddc;fill-opacity:1;fill-rule:nonzero;stroke:none" /></g><g
       transform="translate(699.5844,556.6547)"
       id="g320"><path
         d="m 0,0 c 0.189,-0.255 0.038,-0.652 -0.208,-0.794 -0.038,-0.019 -0.066,-0.038 -0.104,-0.057 -0.369,-0.208 -0.756,0 -0.898,0.369 -4.14,10.955 -8.185,22.06 -11.635,33.251 -0.132,0.416 0.482,0.558 0.643,0.17 2.249,-5.434 4.225,-10.973 6.228,-16.502 1.059,-2.911 2.108,-5.823 3.157,-8.724 0.416,-1.163 0.842,-2.335 1.257,-3.497 0.312,-0.87 0.624,-1.74 0.936,-2.619 -0.123,-0.501 -0.255,-1.002 -0.378,-1.502 0.18,0.311 0.69,0.311 0.926,0 C -0.047,0.057 -0.028,0.028 0,0"
         id="path322"
         style="fill:#1d1d1b;fill-opacity:1;fill-rule:nonzero;stroke:none" /></g><g
       transform="translate(699.4803,672.2216)"
       id="g324"><path
         d="m 0,0 c -0.028,0.217 -0.161,0.416 -0.397,0.454 -1.314,0.198 -2.542,0.104 -3.743,0.803 -1.342,0.785 -2.353,2.127 -2.552,3.686 -0.454,3.507 2.996,5.719 6.115,5.671 0.029,0 0.057,0.01 0.086,0.019 C -0.425,7.58 -0.284,3.837 0,0"
         id="path326"
         style="fill:#ccdddc;fill-opacity:1;fill-rule:nonzero;stroke:none" /></g><g
       transform="translate(693.1099,553.1953)"
       id="g328"><path
         d="m 0,0 c 0.246,-0.766 -0.926,-1.068 -1.191,-0.331 -4.007,11.352 -7.826,22.883 -11.125,34.461 -0.113,0.397 0.473,0.539 0.615,0.171 C -7.42,23.034 -3.582,11.503 0,0"
         id="path330"
         style="fill:#1d1d1b;fill-opacity:1;fill-rule:nonzero;stroke:none" /></g><g
       transform="translate(686.3519,552.2218)"
       id="g332"><path
         d="m 0,0 c 0.227,-0.586 -0.728,-0.964 -1.002,-0.416 -5.312,10.161 -9.386,21.314 -12.968,32.183 -0.132,0.416 0.492,0.568 0.643,0.18 C -9.055,21.229 -4.244,10.718 0,0"
         id="path334"
         style="fill:#1d1d1b;fill-opacity:1;fill-rule:nonzero;stroke:none" /></g><g
       transform="translate(677.1647,691.4937)"
       id="g336"><path
         d="m 0,0 c 2.552,2.297 6.701,0.577 6.616,-2.911 -0.085,-3.601 -4.395,-5.028 -6.937,-2.732 -0.104,0.095 -0.218,0.133 -0.322,0.123 0.066,0.473 0.076,0.955 -0.009,1.427 0.312,1.229 0.406,2.552 0.35,3.942 C -0.198,-0.123 -0.095,-0.085 0,0"
         id="path338"
         style="fill:#ccdddc;fill-opacity:1;fill-rule:nonzero;stroke:none" /></g><g
       transform="translate(680.1326,646.6356)"
       id="g340"><path
         d="m 0,0 c 5.974,6.266 6.068,16.474 -0.52,22.325 -6.956,6.172 -17.259,4.329 -22.656,-2.892 -0.208,-0.274 -0.52,-0.359 -0.794,-0.303 -3.733,-6.058 -4.329,-13.459 1.068,-19.3 C -16.947,-6.607 -5.936,-6.21 0,0 M -0.321,24.357 C 7.665,18.232 8.27,6.645 1.692,-0.756 -4.839,-8.1 -17.306,-8.677 -24.121,-1.389 c -6.276,6.701 -5.567,15.964 0.076,22.136 5.595,7.457 16.087,9.47 23.724,3.61"
         id="path342"
         style="fill:#1d1d1b;fill-opacity:1;fill-rule:nonzero;stroke:none" /></g><g
       transform="translate(679.6127,668.9607)"
       id="g344"><path
         d="m 0,0 c 6.588,-5.851 6.493,-16.059 0.52,-22.325 -5.936,-6.21 -16.947,-6.607 -22.902,-0.17 -5.397,5.841 -4.801,13.242 -1.068,19.3 0.274,-0.056 0.586,0.029 0.794,0.303 C -17.259,4.329 -6.956,6.172 0,0"
         id="path346"
         style="fill:#ccdddc;fill-opacity:1;fill-rule:nonzero;stroke:none" /></g><g
       transform="translate(676.1534,553.545)"
       id="g348"><path
         d="m 0,0 c 0.142,-0.51 -0.652,-0.87 -0.87,-0.369 -4.064,9.405 -6.909,19.651 -9.593,29.528 -0.095,0.34 0.416,0.482 0.529,0.141 C -6.645,19.565 -2.864,9.858 0,0"
         id="path350"
         style="fill:#1d1d1b;fill-opacity:1;fill-rule:nonzero;stroke:none" /></g><g
       transform="translate(670.6052,552.3257)"
       id="g352"><path
         d="m 0,0 c 0.34,-0.803 -0.756,-1.248 -1.087,-0.463 -3.809,9.111 -7.656,18.204 -11.181,27.429 -0.104,0.265 0.33,0.444 0.453,0.189 C -7.675,18.195 -3.856,9.083 0,0"
         id="path354"
         style="fill:#1d1d1b;fill-opacity:1;fill-rule:nonzero;stroke:none" /></g><g
       transform="translate(667.0419,691.7773)"
       id="g356"><path
         d="m 0,0 -2.76,-0.529 c -0.019,0.16 -0.047,0.321 -0.085,0.491 -0.756,3.705 -3.478,6.938 -6.843,8.592 -4.159,2.032 -8.431,-0.832 -11.834,-3.27 -0.274,0.567 -0.548,1.134 -0.813,1.701 -1.559,3.251 -3.166,6.522 -4.593,9.849 5.643,2.381 11.134,3.45 16.919,3.969 -0.671,-2.485 -0.038,-5.198 1.975,-6.994 1.626,-1.456 4.65,-2.41 6.871,-1.569 0.029,-0.208 0.048,-0.406 0.076,-0.614 C -0.898,10.123 -0.766,4.943 0,0"
         id="path358"
         style="fill:#33b4ae;fill-opacity:1;fill-rule:nonzero;stroke:none" /></g><g
       transform="translate(664.7829,713.7527)"
       id="g360"><path
         d="m 0,0 c 0.321,-2.713 0.595,-5.435 0.898,-8.119 -1.947,-0.265 -3.658,-0.511 -5.482,0.926 -1.843,1.456 -2.524,3.875 -2.136,6.115 1.937,0.152 3.903,0.256 5.917,0.322 0.397,0.019 0.642,0.387 0.642,0.737 L 0,0 z"
         id="path362"
         style="fill:#ccdddc;fill-opacity:1;fill-rule:nonzero;stroke:none" /></g><g
       transform="translate(663.1194,724.1874)"
       id="g364"><path
         d="m 0,0 c 0.766,-3.412 1.257,-6.919 1.664,-10.435 l -0.161,-0.019 c 0,0.256 -0.142,0.492 -0.463,0.549 -8.271,1.275 -17.061,-1.012 -24.433,-4.764 -1.503,3.601 -2.77,7.297 -3.478,11.143 -0.851,4.641 -1.324,10.303 2.57,13.8 2.978,2.684 7.165,3.261 10.974,3.724 0.085,0.01 0.142,0.038 0.217,0.066 C -6.333,11.815 -1.635,7.297 0,0"
         id="path366"
         style="fill:#ae6200;fill-opacity:1;fill-rule:nonzero;stroke:none" /></g><g
       transform="translate(661.3046,694.5278)"
       id="g368"><path
         d="m 0,0 c 3.724,-6.096 -1.049,-15.492 -8.866,-12.146 -0.028,0.019 -0.056,0.01 -0.085,0.019 -0.557,2.136 -1.9,4.339 -2.75,6.125 -1.163,2.429 -2.325,4.858 -3.488,7.287 2.004,0.908 3.837,2.316 5.907,3.016 C -5.463,5.605 -1.956,3.214 0,0"
         id="path370"
         style="fill:#ccdddc;fill-opacity:1;fill-rule:nonzero;stroke:none" /></g><g
       transform="translate(661.2668,553.0252)"
       id="g372"><path
         d="m 0,0 c 0.094,-0.539 -0.652,-0.766 -0.832,-0.227 -2.627,7.845 -4.745,15.539 -8.251,23.091 -0.161,0.34 0.34,0.643 0.51,0.293 C -4.924,15.936 -1.37,8.015 0,0"
         id="path374"
         style="fill:#1d1d1b;fill-opacity:1;fill-rule:nonzero;stroke:none" /></g><g
       transform="translate(646.3519,590.0383)"
       id="g376"><path
         d="M 0,0 C 3.809,-0.142 6.181,-2.58 7.977,-5.577 5.293,-7.06 2.684,-8.696 0.189,-10.548 0.142,-10.586 0.104,-10.633 0.057,-10.68 c -0.208,0.066 -0.445,0.009 -0.624,-0.123 -2.987,1.758 -5.548,3.818 -7.826,6.096 C -6.465,-1.919 -3.554,0.132 0,0"
         id="path378"
         style="fill:#ccdddc;fill-opacity:1;fill-rule:nonzero;stroke:none" /></g><g
       transform="translate(648.3368,625.2178)"
       id="g380"><path
         d="m 0,0 c 4.452,-12.533 -2.571,-29.839 -18.081,-27.713 -0.397,0.057 -0.709,-0.122 -0.908,-0.378 -6.011,11.068 -9.272,24.15 -14.952,35.53 4.414,5.869 11.474,8.563 18.714,7.041 C -7.684,12.902 -2.495,7.042 0,0"
         id="path382"
         style="fill:#ccdddc;fill-opacity:1;fill-rule:nonzero;stroke:none" /></g><g
       transform="translate(641.9001,680.5769)"
       id="g384"><path
         d="M 0,0 C 0.406,-0.888 0.879,-1.692 1.418,-2.382 0.86,-3.1 0.359,-3.79 -0.652,-4.14 -2.231,-4.679 -3.866,-4.093 -4.82,-2.75 -6.834,0.085 -4.442,3.081 -1.484,3.573 -1.021,2.363 -0.539,1.163 0,0"
         id="path386"
         style="fill:#ccdddc;fill-opacity:1;fill-rule:nonzero;stroke:none" /></g><g
       transform="translate(635.5958,697.8926)"
       id="g388"><path
         d="m 0,0 c 0.161,-0.406 0.312,-0.813 0.463,-1.229 0,-0.019 -0.009,-0.038 -0.009,-0.066 0.217,-5.765 -5.823,-8.733 -10.86,-6.881 -4.736,1.739 -6.106,7.543 -2.949,11.342 0.037,0.048 0.066,0.104 0.085,0.152 3.232,1.776 6.701,2.863 10.075,4.347 C -2.023,5.028 -0.983,2.41 0,0"
         id="path390"
         style="fill:#ccdddc;fill-opacity:1;fill-rule:nonzero;stroke:none" /></g><g
       transform="translate(629.5656,668.7905)"
       id="g392"><path
         d="m 0,0 c 8.922,-1.38 10.718,-12.732 2.458,-16.834 -8.498,-4.225 -18.299,5.653 -11.541,13.526 0.198,0.227 0.151,0.491 -0.01,0.652 l 0.019,0.01 c 2.808,-2.694 5.87,-4.036 8.677,-1.239 0.425,0.426 0.265,0.983 -0.113,1.257 C -0.113,-1.73 0.038,-0.86 0,0"
         id="path394"
         style="fill:#ccdddc;fill-opacity:1;fill-rule:nonzero;stroke:none" /></g><g
       transform="translate(631.9191,706.6166)"
       id="g396"><path
         d="m 0,0 c -8.138,-1.238 -16.285,-7.174 -21.352,-13.412 -3.771,4.593 -7.542,9.575 -8.988,15.255 -1.72,6.73 1.172,14.83 8.658,16.115 0.179,0.038 0.312,0.123 0.425,0.237 C -10.406,18.45 -4.31,9.348 0,0"
         id="path398"
         style="fill:#ae6200;fill-opacity:1;fill-rule:nonzero;stroke:none" /></g><g
       transform="translate(612.0609,677.2783)"
       id="g400"><path
         d="m 0,0 c 0.321,-0.388 0.718,-0.917 1.153,-1.55 -1.975,-2.524 -6.323,-5 -8.45,-1.21 -1.701,3.034 1.919,4.962 4.31,6.172 C -1.9,2.221 -0.898,1.059 0,0"
         id="path402"
         style="fill:#ccdddc;fill-opacity:1;fill-rule:nonzero;stroke:none" /></g><g
       transform="translate(608.5165,660.3596)"
       id="g404"><path
         d="m 0,0 c 2.609,-4.783 -0.255,-8.79 -3.639,-11.9 -2.854,4.074 -5.936,7.987 -9.244,11.711 -0.189,0.217 -0.397,0.444 -0.605,0.671 0.029,0.066 0.038,0.132 0.019,0.217 -0.954,3.488 5.435,3.819 7.278,3.488 C -3.667,3.743 -1.248,2.306 0,0"
         id="path406"
         style="fill:#ccdddc;fill-opacity:1;fill-rule:nonzero;stroke:none" /></g><g
       transform="translate(603.3085,686.4937)"
       id="g408"><path
         d="m 0,0 c -6.248,-4.083 -12.013,-11.134 -15.662,-17.75 -6.049,6.956 -11.011,15.208 -3.809,22.769 0.114,0.123 0.189,0.255 0.227,0.387 C -12.902,9.112 -5.907,5.246 0,0"
         id="path410"
         style="fill:#ae6200;fill-opacity:1;fill-rule:nonzero;stroke:none" /></g></g></svg>