<?xml version="1.0" encoding="UTF-8" standalone="no"?>
<!-- Created with Inkscape (http://www.inkscape.org/) -->

<svg
   xmlns:dc="http://purl.org/dc/elements/1.1/"
   xmlns:cc="http://creativecommons.org/ns#"
   xmlns:rdf="http://www.w3.org/1999/02/22-rdf-syntax-ns#"
   xmlns:svg="http://www.w3.org/2000/svg"
   xmlns="http://www.w3.org/2000/svg"
   version="1.1"
   width="1000"
   height="1000"
   id="svg2"
   xml:space="preserve"><metadata
     id="metadata8"><rdf:RDF><cc:Work
         rdf:about=""><dc:format>image/svg+xml</dc:format><dc:type
           rdf:resource="http://purl.org/dc/dcmitype/StillImage" /><dc:title></dc:title></cc:Work></rdf:RDF></metadata><defs
     id="defs6"><clipPath
       id="clipPath16"><path
         d="m 45.984,665.329 c 0,-45.024 36.498,-81.522 81.521,-81.522 l 0,0 c 45.023,0 81.521,36.498 81.521,81.522 l 0,0 c 0,45.022 -36.498,81.521 -81.521,81.521 l 0,0 c -45.023,0 -81.521,-36.499 -81.521,-81.521"
         id="path18" /></clipPath><clipPath
       id="clipPath28"><path
         d="m 87.6763,729.541 280.6777,0 0,-324.877 -280.6777,0 0,324.877 z"
         id="path30" /></clipPath><clipPath
       id="clipPath72"><path
         d="m 124.485,729.541 43.918,0 0,-124.926 -43.918,0 0,124.926 z"
         id="path74" /></clipPath><clipPath
       id="clipPath88"><path
         d="m 586.824,664.148 c 0,-45.024 36.498,-81.521 81.52,-81.521 l 0,0 c 45.024,0 81.523,36.497 81.523,81.521 l 0,0 c 0,45.022 -36.499,81.52 -81.523,81.52 l 0,0 c -45.022,0 -81.52,-36.498 -81.52,-81.52"
         id="path90" /></clipPath><clipPath
       id="clipPath100"><path
         d="m 622.227,708.202 294.308,0 0,-282.204 -294.308,0 0,282.204 z"
         id="path102" /></clipPath><clipPath
       id="clipPath124"><path
         d="m 694.261,708.207 22.08,0 0,-81.797 -22.08,0 0,81.797 z"
         id="path126" /></clipPath><clipPath
       id="clipPath128"><path
         d="m 694.261,708.207 22.08,0 0,-81.797 -22.08,0 0,81.797 z"
         id="path130" /></clipPath><clipPath
       id="clipPath156"><path
         d="m 406.366,664.148 c 0,-45.024 36.498,-81.521 81.52,-81.521 l 0,0 c 45.024,0 81.522,36.497 81.522,81.521 l 0,0 c 0,45.022 -36.498,81.52 -81.522,81.52 l 0,0 c -45.022,0 -81.52,-36.498 -81.52,-81.52"
         id="path158" /></clipPath><clipPath
       id="clipPath168"><path
         d="m 422.936,688.4 332.06,0 0,-253.022 -332.06,0 0,253.022 z"
         id="path170" /></clipPath><clipPath
       id="clipPath208"><path
         d="m 430.636,685.317 40.666,0 0,-40.665 -40.666,0 0,40.665 z"
         id="path210" /></clipPath><clipPath
       id="clipPath224"><path
         d="m 444.656,671.296 32.035,0 0,-32.034 -32.035,0 0,32.034 z"
         id="path226" /></clipPath><clipPath
       id="clipPath260"><path
         d="m 500.961,685.317 40.666,0 0,-40.665 -40.666,0 0,40.665 z"
         id="path262" /></clipPath><clipPath
       id="clipPath276"><path
         d="m 514.982,671.296 32.034,0 0,-32.034 -32.034,0 0,32.034 z"
         id="path278" /></clipPath><clipPath
       id="clipPath292"><path
         d="m 488.484,688.4 66.317,0 0,-53.07 -66.317,0 0,53.07 z"
         id="path294" /></clipPath><clipPath
       id="clipPath308"><path
         d="m 228.176,664.148 c 0,-45.024 36.499,-81.521 81.521,-81.521 l 0,0 c 45.024,0 81.521,36.497 81.521,81.521 l 0,0 c 0,45.022 -36.497,81.52 -81.521,81.52 l 0,0 c -45.022,0 -81.521,-36.498 -81.521,-81.52"
         id="path310" /></clipPath><clipPath
       id="clipPath320"><path
         d="m 285.911,718.935 245.195,0 0,-303.666 -245.195,0 0,303.666 z"
         id="path322" /></clipPath><clipPath
       id="clipPath352"><path
         d="m 308.346,718.935 22.651,0 0,-103.715 -22.651,0 0,103.715 z"
         id="path354" /></clipPath><clipPath
       id="clipPath368"><path
         d="m 45.984,491.854 c 0,-45.023 36.498,-81.521 81.521,-81.521 l 0,0 c 45.023,0 81.521,36.498 81.521,81.521 l 0,0 c 0,45.023 -36.498,81.522 -81.521,81.522 l 0,0 c -45.023,0 -81.521,-36.499 -81.521,-81.522"
         id="path370" /></clipPath><clipPath
       id="clipPath380"><path
         d="m 92.0342,555.317 271.9618,0 0,-319.959 -271.9618,0 0,319.959 z"
         id="path382" /></clipPath><clipPath
       id="clipPath404"><path
         d="m 95.2036,539.668 65.6714,0 0,-78.485 -65.6714,0 0,78.485 z"
         id="path406" /></clipPath><clipPath
       id="clipPath420"><path
         d="m 114.979,503.311 45.896,0 0,-45.896 -45.896,0 0,45.896 z"
         id="path422" /></clipPath><clipPath
       id="clipPath452"><path
         d="m 128.208,555.317 35.837,0 0,-119.804 -35.837,0 0,119.804 z"
         id="path454" /></clipPath><clipPath
       id="clipPath468"><path
         d="m 225.776,491.854 c 0,-45.023 36.497,-81.521 81.52,-81.521 l 0,0 c 45.023,0 81.521,36.498 81.521,81.521 l 0,0 c 0,45.023 -36.498,81.522 -81.521,81.522 l 0,0 c -45.023,0 -81.52,-36.499 -81.52,-81.522"
         id="path470" /></clipPath><clipPath
       id="clipPath480"><path
         d="m 275.934,536.736 265.162,0 0,-294.788 -265.162,0 0,294.788 z"
         id="path482" /></clipPath><clipPath
       id="clipPath534"><path
         d="m 308.261,536.736 32.713,0 0,-94.642 -32.713,0 0,94.642 z"
         id="path536" /></clipPath><clipPath
       id="clipPath550"><path
         d="m 408.054,491.854 c 0,-45.023 36.497,-81.521 81.52,-81.521 l 0,0 c 45.023,0 81.522,36.498 81.522,81.521 l 0,0 c 0,45.023 -36.499,81.522 -81.522,81.522 l 0,0 c -45.023,0 -81.52,-36.499 -81.52,-81.522"
         id="path552" /></clipPath><clipPath
       id="clipPath562"><path
         d="m 432.594,543.307 312.745,0 0,-303.933 -312.745,0 0,303.933 z"
         id="path564" /></clipPath><clipPath
       id="clipPath588"><path
         d="m 489.144,543.307 56,0 0,-103.784 -56,0 0,103.784 z"
         id="path590" /></clipPath><clipPath
       id="clipPath604"><path
         d="m 586.824,491.854 c 0,-45.023 36.498,-81.521 81.52,-81.521 l 0,0 c 45.024,0 81.523,36.498 81.523,81.521 l 0,0 c 0,45.023 -36.499,81.522 -81.523,81.522 l 0,0 c -45.022,0 -81.52,-36.499 -81.52,-81.522"
         id="path606" /></clipPath><clipPath
       id="clipPath616"><path
         d="m 633.446,541.758 271.869,0 0,-292.823 -271.869,0 0,292.823 z"
         id="path618" /></clipPath><clipPath
       id="clipPath656"><path
         d="m 668.345,541.758 36.775,0 0,-92.686 -36.775,0 0,92.686 z"
         id="path658" /></clipPath><clipPath
       id="clipPath672"><path
         d="m 45.984,320.979 c 0,-45.024 36.498,-81.522 81.521,-81.522 l 0,0 c 45.023,0 81.521,36.498 81.521,81.522 l 0,0 c 0,45.023 -36.498,81.521 -81.521,81.521 l 0,0 c -45.023,0 -81.521,-36.498 -81.521,-81.521"
         id="path674" /></clipPath><clipPath
       id="clipPath684"><path
         d="m 85.9478,373.191 284.1352,0 0,-307.0728 -284.1352,0 0,307.0728 z"
         id="path686" /></clipPath><clipPath
       id="clipPath716"><path
         d="m 127.505,373.191 42.626,0 0,-106.878 -42.626,0 0,106.878 z"
         id="path718" /></clipPath><clipPath
       id="clipPath732"><path
         d="m 586.824,319.797 c 0,-45.022 36.498,-81.52 81.52,-81.52 l 0,0 c 45.024,0 81.523,36.498 81.523,81.52 l 0,0 c 0,45.023 -36.499,81.521 -81.523,81.521 l 0,0 c -45.022,0 -81.52,-36.498 -81.52,-81.521"
         id="path734" /></clipPath><clipPath
       id="clipPath744"><path
         d="m 630.782,357.298 277.197,0 0,-277.2863 -277.197,0 0,277.2863 z"
         id="path746" /></clipPath><clipPath
       id="clipPath782"><path
         d="m 668.385,353.063 1.781,0 0,-46.991 -1.781,0 0,46.991 z"
         id="path784" /></clipPath><clipPath
       id="clipPath800"><path
         d="m 669.48,357.298 38.303,0 0,-77.091 -38.303,0 0,77.091 z"
         id="path802" /></clipPath><clipPath
       id="clipPath816"><path
         d="m 406.366,319.797 c 0,-45.022 36.498,-81.52 81.52,-81.52 l 0,0 c 45.024,0 81.522,36.498 81.522,81.52 l 0,0 c 0,45.023 -36.498,81.521 -81.522,81.521 l 0,0 c -45.022,0 -81.52,-36.498 -81.52,-81.521"
         id="path818" /></clipPath><clipPath
       id="clipPath828"><path
         d="m 440.688,369.46 296.556,0 0,-291.6094 -296.556,0 0,291.6094 z"
         id="path830" /></clipPath><clipPath
       id="clipPath864"><path
         d="m 487.887,369.46 49.162,0 0,-91.414 -49.162,0 0,91.414 z"
         id="path866" /></clipPath><clipPath
       id="clipPath880"><path
         d="m 228.176,319.797 c 0,-45.022 36.499,-81.52 81.521,-81.52 l 0,0 c 45.024,0 81.521,36.498 81.521,81.52 l 0,0 c 0,45.023 -36.497,81.521 -81.521,81.521 l 0,0 c -45.022,0 -81.521,-36.498 -81.521,-81.521"
         id="path882" /></clipPath><clipPath
       id="clipPath892"><path
         d="m 252.179,370.645 312.702,0 0,-303.979 -312.702,0 0,303.979 z"
         id="path894" /></clipPath><clipPath
       id="clipPath948"><path
         d="m 308.803,370.645 55.926,0 0,-103.784 -55.926,0 0,103.784 z"
         id="path950" /></clipPath><clipPath
       id="clipPath964"><path
         d="m 45.984,147.504 c 0,-45.023 36.498,-81.52 81.521,-81.52 l 0,0 c 45.023,0 81.521,36.497 81.521,81.52 l 0,0 c 0,45.023 -36.498,81.522 -81.521,81.522 l 0,0 c -45.023,0 -81.521,-36.499 -81.521,-81.522"
         id="path966" /></clipPath><clipPath
       id="clipPath976"><path
         d="m 86.0762,206.324 283.8778,0 0,-308.664 -283.8778,0 0,308.664 z"
         id="path978" /></clipPath><clipPath
       id="clipPath1020"><path
         d="m 127.335,206.324 42.667,0 0,-108.4685 -42.667,0 0,108.4685 z"
         id="path1022" /></clipPath><clipPath
       id="clipPath1036"><path
         d="m 225.776,147.504 c 0,-45.023 36.497,-81.52 81.52,-81.52 l 0,0 c 45.023,0 81.521,36.497 81.521,81.52 l 0,0 c 0,45.023 -36.498,81.522 -81.521,81.522 l 0,0 c -45.023,0 -81.52,-36.499 -81.52,-81.522"
         id="path1038" /></clipPath><clipPath
       id="clipPath1048"><path
         d="m 261.509,187.313 294.029,0 0,-270.6411 -294.029,0 0,270.6411 z"
         id="path1050" /></clipPath><clipPath
       id="clipPath1084"><path
         d="m 281.323,168.923 34.055,0 0,-34.054 -34.055,0 0,34.054 z"
         id="path1086" /></clipPath><clipPath
       id="clipPath1100"><path
         d="m 294.64,155.606 28.004,0 0,-28.003 -28.004,0 0,28.003 z"
         id="path1102" /></clipPath><clipPath
       id="clipPath1118"><path
         d="m 300.421,187.313 54.977,0 0,-70.446 -54.977,0 0,70.446 z"
         id="path1120" /></clipPath><clipPath
       id="clipPath1134"><path
         d="m 408.054,147.504 c 0,-45.023 36.497,-81.52 81.52,-81.52 l 0,0 c 45.023,0 81.522,36.497 81.522,81.52 l 0,0 c 0,45.023 -36.499,81.522 -81.522,81.522 l 0,0 c -45.023,0 -81.52,-36.499 -81.52,-81.522"
         id="path1136" /></clipPath><clipPath
       id="clipPath1146"><path
         d="m 437.48,176.822 301.008,0 0,-257.6589 -301.008,0 0,257.6589 z"
         id="path1148" /></clipPath><clipPath
       id="clipPath1174"><path
         d="m 487.61,176.822 50.683,0 0,-57.464 -50.683,0 0,57.464 z"
         id="path1176" /></clipPath><clipPath
       id="clipPath1190"><path
         d="m 586.824,147.504 c 0,-45.023 36.498,-81.52 81.52,-81.52 l 0,0 c 45.024,0 81.523,36.497 81.523,81.52 l 0,0 c 0,45.023 -36.499,81.522 -81.523,81.522 l 0,0 c -45.022,0 -81.52,-36.499 -81.52,-81.522"
         id="path1192" /></clipPath><clipPath
       id="clipPath1202"><path
         d="m 621.312,188.482 297.905,0 0,-284.9791 -297.905,0 0,284.9791 z"
         id="path1204" /></clipPath><clipPath
       id="clipPath1230"><path
         d="m 669.703,188.482 49.318,0 0,-84.784 -49.318,0 0,84.784 z"
         id="path1232" /></clipPath><clipPath
       id="clipPath1246"><path
         d="M 0,800 800,800 800,0 0,0 0,800 z"
         id="path1248" /></clipPath></defs><g
     transform="matrix(1.25,0,0,-1.25,0,1000)"
     id="g10"><g
       transform="translate(200,71.186446)"
       id="g680"><g
         id="g682" /><g
         id="g688"><g
           clip-path="url(#clipPath684)"
           id="g690"
           style="opacity:0.10000598"><g
             transform="translate(370.0322,110.2021)"
             id="g692" /></g></g></g><g
       transform="translate(328.0396,348.61804)"
       id="g696"><path
         d="m 0,0 c -17.106,0 -30.973,13.868 -30.973,30.974 0,17.107 13.867,30.972 30.973,30.972 17.106,0 30.973,-13.865 30.973,-30.972 C 30.973,13.868 17.106,0 0,0 m 0,73.065 c -23.247,0 -42.092,-18.844 -42.092,-42.091 0,-23.246 18.845,-42.092 42.092,-42.092 23.247,0 42.092,18.846 42.092,42.092 0,23.247 -18.845,42.091 -42.092,42.091"
         id="path698"
         style="fill:#ffe669;fill-opacity:1;fill-rule:nonzero;stroke:none" /></g><g
       transform="translate(338.7192,417.02624)"
       id="g700"><path
         d="m 0,0 9.896,16.737 -10.287,10.615 -20.577,0 L -31.256,16.737 -21.359,0 0,0 z"
         id="path702"
         style="fill:#6ed8ff;fill-opacity:1;fill-rule:nonzero;stroke:none" /></g><g
       transform="translate(348.6157,433.76354)"
       id="g704"><path
         d="m 0,0 -10.288,-6.502 -20.576,0 -10.288,6.502 10.288,10.614 20.576,0 L 0,0 z"
         id="path706"
         style="fill:#abe8ff;fill-opacity:1;fill-rule:nonzero;stroke:none" /></g><g
       transform="translate(338.3281,427.26164)"
       id="g708"><path
         d="M 0,0 -20.577,0 -10.289,-10.235 0,0 z"
         id="path710"
         style="fill:#31bff5;fill-opacity:1;fill-rule:nonzero;stroke:none" /></g><g
       id="g1242"><g
         clip-path="url(#clipPath1246)"
         id="g1244"><g
           transform="translate(283.3916,29.5215)"
           id="g1250"><path
             d="M 0,0 C 0,-0.703 0.109,-1.301 0.328,-1.795 0.547,-2.289 0.846,-2.66 1.226,-2.91 1.605,-3.16 2.021,-3.287 2.47,-3.287 c 0.456,0 0.872,0.119 1.249,0.357 0.377,0.237 0.677,0.602 0.902,1.092 0.225,0.49 0.337,1.106 0.337,1.838 0,0.691 -0.112,1.285 -0.337,1.783 C 4.396,2.279 4.093,2.658 3.709,2.922 3.326,3.184 2.906,3.314 2.451,3.314 1.977,3.314 1.552,3.18 1.178,2.912 0.805,2.643 0.515,2.258 0.31,1.754 0.103,1.25 0,0.666 0,0 m 5.101,-3.809 0,0.258 C 4.752,-3.949 4.409,-4.275 4.07,-4.523 3.731,-4.775 3.364,-4.965 2.968,-5.094 2.572,-5.227 2.141,-5.289 1.672,-5.289 c -0.621,0 -1.195,0.131 -1.725,0.393 -0.528,0.263 -0.985,0.638 -1.371,1.126 -0.388,0.487 -0.68,1.059 -0.879,1.719 -0.199,0.658 -0.3,1.371 -0.3,2.137 0,1.621 0.397,2.885 1.188,3.791 C -0.623,4.781 0.418,5.234 1.71,5.234 2.457,5.234 3.087,5.105 3.6,4.85 4.113,4.594 4.613,4.197 5.101,3.668 l 0,3.826 c 0,0.533 0.105,0.934 0.318,1.207 0.212,0.272 0.514,0.408 0.907,0.408 0.393,0 0.695,-0.125 0.906,-0.375 C 7.445,8.482 7.551,8.115 7.551,7.627 l 0,-11.436 c 0,-0.494 -0.114,-0.863 -0.342,-1.111 -0.228,-0.246 -0.522,-0.369 -0.883,-0.369 -0.354,0 -0.647,0.127 -0.879,0.383 -0.231,0.258 -0.346,0.623 -0.346,1.097"
             id="path1252"
             style="fill:#c4c4c4;fill-opacity:1;fill-rule:nonzero;stroke:none" /></g><g
           transform="translate(294.8545,30.3379)"
           id="g1254"><path
             d="M 0,0 4.702,0 C 4.64,0.887 4.398,1.551 3.984,1.99 3.569,2.432 3.024,2.65 2.347,2.65 1.7,2.65 1.17,2.428 0.756,1.982 0.341,1.535 0.09,0.875 0,0 m 5.071,-1.473 -5.071,0 c 0.007,-0.588 0.125,-1.107 0.356,-1.556 0.231,-0.45 0.539,-0.789 0.921,-1.016 0.384,-0.228 0.807,-0.342 1.269,-0.342 0.309,0 0.593,0.035 0.85,0.108 0.256,0.074 0.504,0.187 0.746,0.343 0.241,0.155 0.462,0.321 0.665,0.498 0.202,0.178 0.464,0.42 0.788,0.723 0.133,0.113 0.323,0.172 0.57,0.172 0.266,0 0.481,-0.074 0.645,-0.221 0.165,-0.146 0.248,-0.349 0.248,-0.617 0,-0.234 -0.093,-0.506 -0.276,-0.82 C 6.598,-4.516 6.32,-4.816 5.951,-5.104 5.579,-5.393 5.115,-5.631 4.554,-5.82 3.994,-6.012 3.35,-6.105 2.621,-6.105 c -1.664,0 -2.96,0.474 -3.884,1.423 -0.925,0.95 -1.386,2.239 -1.386,3.866 0,0.767 0.113,1.478 0.341,2.132 0.229,0.657 0.561,1.217 0.997,1.686 0.437,0.469 0.975,0.828 1.616,1.078 0.638,0.25 1.348,0.375 2.127,0.375 1.012,0 1.881,-0.213 2.606,-0.641 0.726,-0.427 1.27,-0.98 1.63,-1.656 0.359,-0.678 0.541,-1.369 0.541,-2.07 0,-0.654 -0.187,-1.076 -0.56,-1.27 C 6.276,-1.375 5.75,-1.473 5.071,-1.473"
             id="path1256"
             style="fill:#c4c4c4;fill-opacity:1;fill-rule:nonzero;stroke:none" /></g><g
           transform="translate(311.7412,27.623)"
           id="g1258"><path
             d="m 0,0 c 0,-0.715 -0.174,-1.328 -0.522,-1.838 -0.348,-0.51 -0.863,-0.896 -1.544,-1.16 -0.68,-0.262 -1.508,-0.393 -2.484,-0.393 -0.93,0 -1.728,0.143 -2.393,0.428 -0.664,0.283 -1.156,0.641 -1.472,1.067 -0.316,0.429 -0.475,0.857 -0.475,1.289 0,0.285 0.101,0.527 0.304,0.73 0.202,0.201 0.459,0.303 0.77,0.303 0.271,0 0.48,-0.067 0.626,-0.199 0.146,-0.133 0.286,-0.321 0.418,-0.559 0.265,-0.465 0.585,-0.807 0.955,-1.037 0.37,-0.227 0.875,-0.342 1.515,-0.342 0.519,0 0.945,0.117 1.278,0.348 0.332,0.232 0.498,0.496 0.498,0.793 0,0.457 -0.172,0.787 -0.518,0.996 -0.346,0.209 -0.914,0.41 -1.705,0.599 -0.893,0.221 -1.619,0.455 -2.18,0.7 -0.56,0.242 -1.008,0.564 -1.343,0.963 -0.336,0.398 -0.504,0.89 -0.504,1.472 0,0.518 0.155,1.01 0.465,1.473 0.311,0.461 0.768,0.83 1.374,1.105 0.603,0.276 1.333,0.414 2.188,0.414 0.671,0 1.274,-0.07 1.809,-0.211 0.536,-0.136 0.983,-0.326 1.339,-0.56 0.359,-0.233 0.63,-0.492 0.817,-0.777 0.186,-0.286 0.28,-0.563 0.28,-0.836 0,-0.297 -0.1,-0.541 -0.299,-0.733 -0.199,-0.187 -0.482,-0.285 -0.85,-0.285 -0.266,0 -0.493,0.076 -0.679,0.23 -0.187,0.151 -0.4,0.379 -0.641,0.682 C -3.169,4.916 -3.399,5.119 -3.666,5.271 -3.932,5.424 -4.293,5.498 -4.749,5.498 -5.218,5.498 -5.606,5.4 -5.917,5.199 -6.228,5 -6.383,4.752 -6.383,4.455 c 0,-0.273 0.114,-0.496 0.342,-0.67 0.229,-0.176 0.535,-0.32 0.922,-0.433 C -4.732,3.238 -4.202,3.1 -3.523,2.936 -2.72,2.738 -2.063,2.504 -1.553,2.232 -1.044,1.961 -0.657,1.639 -0.394,1.268 -0.131,0.896 0,0.475 0,0"
             id="path1260"
             style="fill:#c4c4c4;fill-opacity:1;fill-rule:nonzero;stroke:none" /></g><g
           transform="translate(315.6729,33.3027)"
           id="g1262"><path
             d="m 0,0 0,-7.494 c 0,-0.52 -0.124,-0.912 -0.371,-1.178 -0.247,-0.266 -0.56,-0.398 -0.941,-0.398 -0.379,0 -0.688,0.134 -0.925,0.408 -0.239,0.271 -0.357,0.662 -0.357,1.168 l 0,7.418 c 0,0.512 0.118,0.898 0.357,1.158 0.237,0.26 0.546,0.391 0.925,0.391 0.381,0 0.694,-0.131 0.941,-0.391 C -0.124,0.822 0,0.461 0,0 m -1.283,2.678 c -0.361,0 -0.669,0.111 -0.926,0.332 -0.256,0.22 -0.385,0.535 -0.385,0.941 0,0.367 0.132,0.668 0.395,0.906 0.262,0.239 0.568,0.358 0.916,0.358 0.336,0 0.634,-0.108 0.892,-0.324 C -0.131,4.676 0,4.363 0,3.951 0,3.551 -0.128,3.24 -0.381,3.016 -0.634,2.791 -0.935,2.678 -1.283,2.678"
             id="path1264"
             style="fill:#c4c4c4;fill-opacity:1;fill-rule:nonzero;stroke:none" /></g><g
           transform="translate(319.5186,29.5879)"
           id="g1266"><path
             d="m 0,0 c 0,-1.051 0.229,-1.846 0.687,-2.383 0.459,-0.539 1.054,-0.808 1.782,-0.808 0.43,0 0.837,0.117 1.219,0.347 0.384,0.231 0.696,0.58 0.937,1.045 0.24,0.465 0.361,1.029 0.361,1.695 0,1.057 -0.232,1.881 -0.698,2.469 C 3.822,2.953 3.21,3.248 2.449,3.248 1.708,3.248 1.115,2.967 0.669,2.402 0.223,1.84 0,1.039 0,0 m 7.513,3.287 0,-7.531 C 7.513,-5.105 7.42,-5.848 7.236,-6.469 7.054,-7.088 6.759,-7.602 6.354,-8.006 5.948,-8.41 5.418,-8.713 4.763,-8.908 4.107,-9.105 3.292,-9.203 2.316,-9.203 c -0.892,0 -1.69,0.125 -2.393,0.375 -0.702,0.252 -1.243,0.574 -1.624,0.969 -0.379,0.396 -0.57,0.802 -0.57,1.22 0,0.317 0.108,0.577 0.324,0.774 0.215,0.201 0.474,0.301 0.778,0.301 0.38,0 0.712,-0.168 0.997,-0.504 0.139,-0.17 0.283,-0.344 0.432,-0.518 0.149,-0.176 0.314,-0.324 0.494,-0.447 0.181,-0.123 0.397,-0.215 0.65,-0.276 0.254,-0.058 0.546,-0.089 0.874,-0.089 0.672,0 1.193,0.093 1.564,0.281 0.37,0.185 0.63,0.447 0.778,0.783 0.15,0.334 0.236,0.693 0.262,1.078 0.025,0.383 0.044,0.998 0.056,1.848 C 4.539,-3.967 4.079,-4.391 3.556,-4.682 3.034,-4.973 2.411,-5.119 1.69,-5.119 c -0.868,0 -1.626,0.223 -2.275,0.666 -0.648,0.443 -1.147,1.062 -1.495,1.861 -0.349,0.799 -0.523,1.719 -0.523,2.764 0,0.777 0.106,1.482 0.318,2.107 0.213,0.629 0.515,1.157 0.907,1.588 0.393,0.43 0.846,0.754 1.358,0.973 0.513,0.219 1.077,0.328 1.691,0.328 0.734,0 1.371,-0.143 1.909,-0.422 C 4.118,4.463 4.619,4.021 5.081,3.42 l 0,0.351 c 0,0.45 0.11,0.797 0.332,1.045 0.222,0.246 0.507,0.371 0.856,0.371 0.5,0 0.832,-0.164 0.996,-0.49 C 7.43,4.371 7.513,3.9 7.513,3.287"
             id="path1268"
             style="fill:#c4c4c4;fill-opacity:1;fill-rule:nonzero;stroke:none" /></g><g
           transform="translate(331.1523,33.3398)"
           id="g1270"><path
             d="M 0,0 0,-0.312 C 0.455,0.289 0.954,0.73 1.495,1.012 2.037,1.293 2.658,1.436 3.361,1.436 4.046,1.436 4.656,1.285 5.195,0.988 5.732,0.689 6.136,0.27 6.4,-0.273 6.572,-0.592 6.683,-0.934 6.733,-1.301 6.784,-1.668 6.811,-2.137 6.811,-2.707 l 0,-4.824 c 0,-0.52 -0.12,-0.912 -0.358,-1.178 -0.237,-0.266 -0.546,-0.398 -0.926,-0.398 -0.386,0 -0.699,0.134 -0.94,0.408 -0.241,0.271 -0.36,0.662 -0.36,1.168 l 0,4.322 c 0,0.854 -0.12,1.508 -0.357,1.961 -0.238,0.451 -0.711,0.68 -1.421,0.68 -0.461,0 -0.883,-0.139 -1.262,-0.414 C 0.807,-1.258 0.528,-1.637 0.351,-2.117 0.225,-2.504 0.161,-3.225 0.161,-4.283 l 0,-3.248 c 0,-0.526 -0.123,-0.92 -0.365,-1.184 -0.244,-0.262 -0.559,-0.392 -0.945,-0.392 -0.374,0 -0.681,0.134 -0.922,0.408 -0.241,0.271 -0.361,0.662 -0.361,1.168 l 0,7.494 c 0,0.494 0.108,0.863 0.323,1.107 0.215,0.242 0.509,0.366 0.882,0.366 0.229,0 0.435,-0.055 0.62,-0.163 0.182,-0.109 0.33,-0.269 0.441,-0.484 C -0.056,0.574 0,0.311 0,0"
             id="path1272"
             style="fill:#c4c4c4;fill-opacity:1;fill-rule:nonzero;stroke:none" /></g><g
           transform="translate(341.8555,30.3379)"
           id="g1274"><path
             d="M 0,0 4.701,0 C 4.638,0.887 4.398,1.551 3.984,1.99 3.569,2.432 3.023,2.65 2.346,2.65 1.699,2.65 1.169,2.428 0.754,1.982 0.339,1.535 0.089,0.875 0,0 m 5.071,-1.473 -5.071,0 c 0.007,-0.588 0.124,-1.107 0.356,-1.556 0.231,-0.45 0.538,-0.789 0.921,-1.016 0.382,-0.228 0.806,-0.342 1.268,-0.342 0.31,0 0.594,0.035 0.851,0.108 0.255,0.074 0.503,0.187 0.746,0.343 0.239,0.155 0.461,0.321 0.665,0.498 0.201,0.178 0.464,0.42 0.787,0.723 0.133,0.113 0.323,0.172 0.57,0.172 0.266,0 0.482,-0.074 0.646,-0.221 0.165,-0.146 0.247,-0.349 0.247,-0.617 0,-0.234 -0.092,-0.506 -0.276,-0.82 C 6.597,-4.516 6.32,-4.816 5.949,-5.104 5.579,-5.393 5.114,-5.631 4.554,-5.82 3.993,-6.012 3.349,-6.105 2.621,-6.105 c -1.665,0 -2.96,0.474 -3.886,1.423 -0.923,0.95 -1.385,2.239 -1.385,3.866 0,0.767 0.114,1.478 0.341,2.132 0.228,0.657 0.561,1.217 0.998,1.686 0.437,0.469 0.975,0.828 1.615,1.078 0.638,0.25 1.348,0.375 2.128,0.375 1.012,0 1.88,-0.213 2.605,-0.641 C 5.763,3.387 6.306,2.834 6.667,2.158 7.027,1.48 7.209,0.789 7.209,0.088 7.209,-0.566 7.022,-0.988 6.648,-1.182 6.275,-1.375 5.749,-1.473 5.071,-1.473"
             id="path1276"
             style="fill:#c4c4c4;fill-opacity:1;fill-rule:nonzero;stroke:none" /></g><g
           transform="translate(352.3965,29.5215)"
           id="g1278"><path
             d="M 0,0 C 0,-0.703 0.108,-1.301 0.327,-1.795 0.546,-2.289 0.845,-2.66 1.226,-2.91 1.605,-3.16 2.02,-3.287 2.469,-3.287 c 0.457,0 0.873,0.119 1.249,0.357 0.377,0.237 0.678,0.602 0.902,1.092 C 4.846,-1.348 4.958,-0.732 4.958,0 4.958,0.691 4.846,1.285 4.62,1.783 4.396,2.279 4.092,2.658 3.709,2.922 3.325,3.184 2.906,3.314 2.45,3.314 1.976,3.314 1.551,3.18 1.178,2.912 0.805,2.643 0.515,2.258 0.309,1.754 0.103,1.25 0,0.666 0,0 m 5.1,-3.809 0,0.258 C 4.752,-3.949 4.408,-4.275 4.069,-4.523 3.73,-4.775 3.364,-4.965 2.968,-5.094 2.573,-5.227 2.141,-5.289 1.672,-5.289 c -0.621,0 -1.195,0.131 -1.724,0.393 -0.529,0.263 -0.986,0.638 -1.373,1.126 -0.387,0.487 -0.679,1.059 -0.878,1.719 -0.2,0.658 -0.3,1.371 -0.3,2.137 0,1.621 0.396,2.885 1.188,3.791 C -0.624,4.781 0.418,5.234 1.71,5.234 2.457,5.234 3.087,5.105 3.6,4.85 4.112,4.594 4.613,4.197 5.1,3.668 l 0,3.826 c 0,0.533 0.106,0.934 0.319,1.207 0.211,0.272 0.515,0.408 0.907,0.408 0.392,0 0.695,-0.125 0.906,-0.375 C 7.444,8.482 7.551,8.115 7.551,7.627 l 0,-11.436 C 7.551,-4.303 7.437,-4.672 7.209,-4.92 6.981,-5.166 6.687,-5.289 6.326,-5.289 5.972,-5.289 5.679,-5.162 5.447,-4.906 5.216,-4.648 5.1,-4.283 5.1,-3.809"
             id="path1280"
             style="fill:#c4c4c4;fill-opacity:1;fill-rule:nonzero;stroke:none" /></g><g
           transform="translate(368.2178,29.4453)"
           id="g1282"><path
             d="m 0,0 c 0,-1.031 0.236,-1.824 0.708,-2.377 0.472,-0.555 1.091,-0.834 1.856,-0.834 0.653,0 1.215,0.283 1.686,0.852 0.472,0.566 0.708,1.379 0.708,2.435 C 4.958,0.76 4.86,1.35 4.664,1.844 4.467,2.338 4.189,2.719 3.828,2.988 3.467,3.256 3.046,3.391 2.564,3.391 2.071,3.391 1.63,3.256 1.244,2.988 0.858,2.719 0.555,2.33 0.332,1.82 0.111,1.311 0,0.703 0,0 m -0.123,7.703 0,-3.959 C 0.364,4.25 0.861,4.639 1.368,4.906 1.874,5.176 2.502,5.311 3.249,5.311 4.11,5.311 4.864,5.105 5.515,4.699 6.162,4.289 6.666,3.697 7.024,2.922 7.382,2.146 7.562,1.227 7.562,0.162 c 0,-0.785 -0.101,-1.504 -0.3,-2.16 C 7.062,-2.654 6.772,-3.223 6.393,-3.703 6.013,-4.184 5.552,-4.557 5.011,-4.82 4.469,-5.082 3.872,-5.213 3.221,-5.213 c -0.4,0 -0.776,0.047 -1.126,0.143 -0.352,0.093 -0.652,0.218 -0.898,0.375 -0.246,0.154 -0.457,0.314 -0.632,0.478 -0.173,0.164 -0.404,0.412 -0.688,0.742 l 0,-0.257 c 0,-0.487 -0.117,-0.856 -0.352,-1.108 -0.233,-0.25 -0.531,-0.373 -0.892,-0.373 -0.367,0 -0.66,0.123 -0.879,0.373 -0.219,0.252 -0.327,0.621 -0.327,1.108 l 0,11.322 c 0,0.525 0.105,0.924 0.317,1.191 0.212,0.27 0.509,0.405 0.889,0.405 0.399,0 0.706,-0.129 0.921,-0.385 0.215,-0.258 0.323,-0.621 0.323,-1.098"
             id="path1284"
             style="fill:#c4c4c4;fill-opacity:1;fill-rule:nonzero;stroke:none" /></g><g
           transform="translate(379.1406,23.9082)"
           id="g1286"><path
             d="m 0,0 0.237,0.58 -3.191,8.035 c -0.196,0.461 -0.295,0.799 -0.295,1.008 0,0.221 0.058,0.426 0.171,0.615 0.114,0.192 0.27,0.344 0.47,0.457 0.2,0.116 0.407,0.172 0.623,0.172 0.373,0 0.654,-0.119 0.845,-0.357 0.191,-0.237 0.358,-0.576 0.503,-1.02 l 2.195,-6.383 2.08,5.936 c 0.164,0.48 0.312,0.857 0.446,1.131 0.133,0.271 0.273,0.455 0.422,0.549 0.148,0.095 0.359,0.144 0.632,0.144 0.197,0 0.384,-0.053 0.565,-0.158 C 5.884,10.605 6.022,10.465 6.121,10.287 6.219,10.109 6.269,9.924 6.269,9.727 6.242,9.607 6.202,9.436 6.145,9.213 6.087,8.992 6.019,8.766 5.937,8.539 L 2.555,-0.312 C 2.263,-1.092 1.979,-1.701 1.699,-2.145 1.421,-2.588 1.053,-2.93 0.593,-3.166 0.134,-3.404 -0.485,-3.523 -1.264,-3.523 c -0.759,0 -1.33,0.082 -1.709,0.246 -0.381,0.166 -0.57,0.466 -0.57,0.904 0,0.297 0.09,0.527 0.272,0.687 0.179,0.163 0.447,0.245 0.8,0.245 0.14,0 0.277,-0.02 0.409,-0.059 0.166,-0.037 0.307,-0.057 0.427,-0.057 0.298,0 0.532,0.043 0.704,0.133 0.17,0.088 0.324,0.242 0.46,0.461 C -0.335,-0.746 -0.178,-0.424 0,0"
             id="path1288"
             style="fill:#c4c4c4;fill-opacity:1;fill-rule:nonzero;stroke:none" /></g><g
           transform="translate(416.7031,34.5508)"
           id="g1290"><path
             d="m 0,0 0.619,0 0,0.777 c 0,0.815 0.1,1.457 0.307,1.938 0.203,0.478 0.554,0.826 1.047,1.045 0.49,0.217 1.162,0.326 2.015,0.326 1.52,0 2.274,-0.367 2.274,-1.113 C 6.262,2.734 6.182,2.527 6.021,2.357 5.867,2.188 5.678,2.102 5.463,2.102 5.363,2.102 5.186,2.119 4.936,2.16 4.699,2.193 4.484,2.217 4.312,2.217 3.846,2.217 3.547,2.076 3.408,1.801 3.281,1.525 3.213,1.133 3.213,0.617 L 3.213,0 3.846,0 c 0.99,0 1.48,-0.297 1.48,-0.896 0,-0.418 -0.127,-0.69 -0.392,-0.805 -0.262,-0.113 -0.623,-0.17 -1.088,-0.17 l -0.633,0 0,-6.871 c 0,-0.512 -0.121,-0.901 -0.369,-1.168 -0.242,-0.274 -0.555,-0.406 -0.944,-0.406 -0.367,0 -0.67,0.132 -0.918,0.406 -0.244,0.267 -0.363,0.656 -0.363,1.168 l 0,6.871 -0.715,0 c -0.388,0 -0.681,0.084 -0.892,0.262 -0.209,0.17 -0.315,0.398 -0.315,0.677 C -1.303,-0.309 -0.869,0 0,0"
             id="path1292"
             style="fill:#c4c4c4;fill-opacity:1;fill-rule:nonzero;stroke:none" /></g><g
           transform="translate(425.1934,27.9766)"
           id="g1294"><path
             d="m 0,0 0,-2.168 c 0,-0.523 -0.133,-0.92 -0.375,-1.18 -0.246,-0.265 -0.559,-0.394 -0.937,-0.394 -0.381,0 -0.688,0.131 -0.926,0.4 -0.237,0.264 -0.362,0.656 -0.362,1.174 l 0,7.223 c 0,1.166 0.42,1.748 1.262,1.748 0.434,0 0.742,-0.135 0.934,-0.408 0.189,-0.274 0.295,-0.674 0.316,-1.208 0.309,0.534 0.625,0.934 0.949,1.208 0.332,0.273 0.762,0.408 1.309,0.408 0.549,0 1.072,-0.135 1.586,-0.408 C 4.271,6.121 4.527,5.758 4.527,5.311 4.527,4.996 4.416,4.73 4.201,4.529 3.98,4.32 3.746,4.217 3.494,4.217 3.395,4.217 3.164,4.279 2.803,4.396 2.438,4.51 2.113,4.57 1.84,4.57 1.459,4.57 1.146,4.467 0.908,4.271 0.666,4.066 0.477,3.775 0.344,3.385 0.215,2.99 0.125,2.52 0.07,1.98 0.021,1.439 0,0.777 0,0"
             id="path1296"
             style="fill:#c4c4c4;fill-opacity:1;fill-rule:nonzero;stroke:none" /></g><g
           transform="translate(432.0391,30.3438)"
           id="g1298"><path
             d="M 0,0 4.701,0 C 4.639,0.885 4.404,1.549 3.988,1.986 3.57,2.428 3.029,2.646 2.348,2.646 1.701,2.646 1.17,2.426 0.756,1.977 0.342,1.531 0.088,0.873 0,0 m 5.074,-1.475 -5.074,0 c 0.01,-0.588 0.125,-1.111 0.355,-1.558 0.235,-0.447 0.54,-0.787 0.924,-1.018 0.385,-0.226 0.805,-0.34 1.27,-0.34 0.31,0 0.592,0.034 0.849,0.112 0.254,0.07 0.504,0.185 0.745,0.341 0.242,0.153 0.461,0.319 0.664,0.5 0.203,0.174 0.466,0.417 0.791,0.719 0.134,0.114 0.324,0.174 0.568,0.174 0.268,0 0.48,-0.074 0.648,-0.223 0.166,-0.146 0.245,-0.349 0.245,-0.617 0,-0.234 -0.09,-0.508 -0.268,-0.818 C 6.604,-4.521 6.328,-4.82 5.955,-5.109 5.58,-5.395 5.115,-5.637 4.557,-5.824 3.998,-6.014 3.352,-6.109 2.625,-6.109 c -1.67,0 -2.963,0.472 -3.887,1.422 -0.924,0.951 -1.39,2.242 -1.39,3.867 0,0.767 0.117,1.478 0.347,2.134 0.225,0.659 0.557,1.217 0.998,1.688 0.436,0.471 0.971,0.828 1.614,1.078 0.636,0.25 1.345,0.375 2.127,0.375 1.011,0 1.88,-0.215 2.607,-0.646 C 5.764,3.387 6.314,2.832 6.67,2.154 7.031,1.475 7.211,0.787 7.211,0.08 7.211,-0.568 7.023,-0.99 6.65,-1.186 6.277,-1.379 5.752,-1.475 5.074,-1.475"
             id="path1300"
             style="fill:#c4c4c4;fill-opacity:1;fill-rule:nonzero;stroke:none" /></g><g
           transform="translate(442.8281,30.3438)"
           id="g1302"><path
             d="M 0,0 4.701,0 C 4.637,0.885 4.396,1.549 3.986,1.986 3.564,2.428 3.023,2.646 2.344,2.646 1.697,2.646 1.168,2.426 0.75,1.977 0.338,1.531 0.084,0.873 0,0 m 5.072,-1.475 -5.072,0 c 0.006,-0.588 0.125,-1.111 0.354,-1.558 0.232,-0.447 0.539,-0.787 0.921,-1.018 0.383,-0.226 0.805,-0.34 1.272,-0.34 0.307,0 0.592,0.034 0.844,0.112 0.259,0.07 0.505,0.185 0.75,0.341 0.242,0.153 0.461,0.319 0.664,0.5 0.199,0.174 0.465,0.417 0.789,0.719 0.135,0.114 0.326,0.174 0.568,0.174 0.268,0 0.483,-0.074 0.65,-0.223 0.165,-0.146 0.241,-0.349 0.241,-0.617 0,-0.234 -0.088,-0.508 -0.274,-0.818 C 6.602,-4.521 6.324,-4.82 5.949,-5.109 5.578,-5.395 5.109,-5.637 4.553,-5.824 3.996,-6.014 3.346,-6.109 2.619,-6.109 c -1.668,0 -2.959,0.472 -3.887,1.422 -0.923,0.951 -1.388,2.242 -1.388,3.867 0,0.767 0.115,1.478 0.347,2.134 0.227,0.659 0.559,1.217 0.997,1.688 C -0.877,3.473 -0.34,3.83 0.301,4.08 0.939,4.33 1.652,4.455 2.43,4.455 3.439,4.455 4.309,4.24 5.043,3.809 5.764,3.387 6.309,2.832 6.664,2.154 7.023,1.475 7.209,0.787 7.209,0.08 7.209,-0.568 7.018,-0.99 6.648,-1.186 6.273,-1.379 5.748,-1.475 5.072,-1.475"
             id="path1304"
             style="fill:#c4c4c4;fill-opacity:1;fill-rule:nonzero;stroke:none" /></g><g
           transform="translate(458.6641,29.5527)"
           id="g1306"><path
             d="m 0,0 c 0,0.686 -0.105,1.273 -0.314,1.764 -0.209,0.492 -0.498,0.867 -0.866,1.127 -0.367,0.263 -0.783,0.396 -1.232,0.396 -0.715,0 -1.318,-0.283 -1.809,-0.844 -0.492,-0.566 -0.74,-1.394 -0.74,-2.492 0,-1.027 0.244,-1.834 0.736,-2.406 0.487,-0.574 1.086,-0.859 1.813,-0.859 0.428,0 0.83,0.126 1.197,0.373 0.371,0.252 0.664,0.627 0.883,1.127 C -0.111,-1.312 0,-0.707 0,0 m -5.084,3.768 0,-0.311 c 0.486,0.602 0.994,1.043 1.525,1.324 0.518,0.285 1.118,0.428 1.782,0.428 C -0.982,5.209 -0.242,5 0.43,4.592 1.102,4.178 1.629,3.576 2.02,2.785 2.408,1.99 2.605,1.055 2.605,-0.029 2.605,-0.824 2.492,-1.561 2.27,-2.23 2.045,-2.898 1.732,-3.457 1.34,-3.91 0.947,-4.359 0.484,-4.711 -0.049,-4.955 -0.592,-5.197 -1.16,-5.318 -1.777,-5.318 c -0.739,0 -1.364,0.148 -1.866,0.447 -0.502,0.291 -0.982,0.732 -1.441,1.305 l 0,-3.893 c 0,-1.135 -0.416,-1.709 -1.244,-1.709 -0.49,0 -0.809,0.147 -0.971,0.439 -0.152,0.299 -0.234,0.723 -0.234,1.292 l 0,11.193 c 0,0.494 0.107,0.859 0.32,1.107 0.215,0.239 0.512,0.364 0.885,0.364 0.369,0 0.666,-0.125 0.896,-0.373 0.235,-0.254 0.348,-0.612 0.348,-1.086"
             id="path1308"
             style="fill:#c4c4c4;fill-opacity:1;fill-rule:nonzero;stroke:none" /></g><g
           transform="translate(465.1641,33.3086)"
           id="g1310"><path
             d="m 0,0 0,-7.502 c 0,-0.516 -0.123,-0.908 -0.369,-1.172 -0.25,-0.269 -0.561,-0.4 -0.942,-0.4 -0.38,0 -0.685,0.133 -0.927,0.406 -0.235,0.275 -0.356,0.664 -0.356,1.166 l 0,7.428 c 0,0.51 0.121,0.894 0.356,1.154 0.242,0.264 0.547,0.391 0.927,0.391 0.381,0 0.692,-0.127 0.942,-0.391 C -0.123,0.82 0,0.457 0,0 m -1.283,2.678 c -0.363,0 -0.67,0.115 -0.924,0.336 -0.26,0.222 -0.387,0.531 -0.387,0.935 0,0.369 0.131,0.67 0.397,0.91 0.261,0.235 0.566,0.356 0.914,0.356 0.34,0 0.635,-0.106 0.892,-0.319 C -0.131,4.678 0,4.361 0,3.949 0,3.551 -0.127,3.238 -0.377,3.014 -0.631,2.793 -0.932,2.678 -1.283,2.678"
             id="path1312"
             style="fill:#c4c4c4;fill-opacity:1;fill-rule:nonzero;stroke:none" /></g><g
           transform="translate(473.5234,25.418)"
           id="g1314"><path
             d="m 0,0 -2.283,3.766 -1.408,-1.328 0,-2.067 c 0,-0.498 -0.133,-0.881 -0.397,-1.148 -0.258,-0.274 -0.566,-0.407 -0.906,-0.407 -0.399,0 -0.715,0.131 -0.942,0.401 -0.226,0.263 -0.343,0.656 -0.343,1.174 l 0,11.062 c 0,0.574 0.115,1.012 0.332,1.315 0.222,0.304 0.545,0.451 0.953,0.451 0.398,0 0.713,-0.137 0.949,-0.41 0.234,-0.272 0.354,-0.674 0.354,-1.204 l 0,-6.293 2.916,3.063 c 0.361,0.377 0.632,0.641 0.826,0.779 0.189,0.139 0.42,0.207 0.689,0.207 0.326,0 0.594,-0.103 0.817,-0.308 C 1.768,8.848 1.877,8.588 1.877,8.279 1.877,7.9 1.523,7.391 0.822,6.758 L -0.555,5.496 2.104,1.312 C 2.297,1 2.443,0.77 2.527,0.607 2.611,0.447 2.658,0.287 2.658,0.145 2.658,-0.268 2.543,-0.59 2.316,-0.83 2.092,-1.066 1.793,-1.184 1.432,-1.184 c -0.317,0 -0.565,0.08 -0.735,0.256 C 0.527,-0.756 0.291,-0.445 0,0"
             id="path1316"
             style="fill:#c4c4c4;fill-opacity:1;fill-rule:nonzero;stroke:none" /></g><g
           transform="translate(479.1602,24.2344)"
           id="g1318"><path
             d="m 0,0 c -0.393,0 -0.729,0.125 -1.014,0.381 -0.285,0.248 -0.429,0.605 -0.429,1.064 0,0.385 0.138,0.719 0.41,0.994 0.275,0.28 0.607,0.42 1.008,0.42 0.398,0 0.736,-0.14 1.023,-0.412 C 1.277,2.172 1.42,1.834 1.42,1.445 1.42,0.992 1.277,0.637 0.998,0.385 0.711,0.125 0.379,0 0,0"
             id="path1320"
             style="fill:#c4c4c4;fill-opacity:1;fill-rule:nonzero;stroke:none" /></g><g
           transform="translate(492.0586,27.4434)"
           id="g1322"><path
             d="m 0,0 c 0,-0.32 -0.098,-0.668 -0.291,-1.033 -0.191,-0.371 -0.488,-0.719 -0.887,-1.051 -0.394,-0.332 -0.89,-0.602 -1.494,-0.803 -0.601,-0.203 -1.281,-0.306 -2.031,-0.306 -1.606,0 -2.858,0.468 -3.758,1.4 -0.894,0.936 -1.346,2.189 -1.346,3.76 0,1.068 0.205,2.006 0.619,2.824 0.409,0.814 1.004,1.447 1.782,1.895 0.779,0.447 1.717,0.669 2.795,0.669 0.673,0 1.287,-0.097 1.851,-0.294 0.561,-0.196 1.033,-0.452 1.426,-0.76 0.387,-0.315 0.686,-0.643 0.889,-0.992 0.207,-0.352 0.308,-0.68 0.308,-0.987 C -0.137,4.014 -0.25,3.75 -0.48,3.535 -0.715,3.32 -0.996,3.211 -1.318,3.211 c -0.219,0 -0.399,0.057 -0.541,0.166 -0.145,0.111 -0.305,0.289 -0.479,0.541 -0.318,0.478 -0.646,0.842 -0.996,1.08 -0.344,0.242 -0.781,0.361 -1.314,0.361 -0.762,0 -1.383,-0.297 -1.854,-0.896 -0.467,-0.596 -0.703,-1.42 -0.703,-2.455 0,-0.488 0.062,-0.94 0.184,-1.348 0.117,-0.406 0.291,-0.756 0.519,-1.043 0.231,-0.287 0.504,-0.506 0.826,-0.654 0.324,-0.154 0.682,-0.227 1.065,-0.227 0.521,0 0.966,0.121 1.336,0.362 0.377,0.24 0.703,0.607 0.986,1.101 0.158,0.291 0.328,0.518 0.51,0.684 0.181,0.164 0.408,0.25 0.675,0.25 0.317,0 0.581,-0.123 0.786,-0.363 C -0.107,0.529 0,0.271 0,0"
             id="path1324"
             style="fill:#c4c4c4;fill-opacity:1;fill-rule:nonzero;stroke:none" /></g><g
           transform="translate(500.6445,29.5039)"
           id="g1326"><path
             d="M 0,0 C 0,1.059 -0.234,1.881 -0.697,2.469 -1.16,3.064 -1.787,3.357 -2.572,3.357 -3.08,3.357 -3.527,3.225 -3.914,2.963 -4.301,2.701 -4.596,2.314 -4.805,1.799 -5.014,1.285 -5.119,0.686 -5.119,0 c 0,-0.678 0.101,-1.268 0.308,-1.773 0.209,-0.51 0.502,-0.897 0.887,-1.166 0.385,-0.266 0.834,-0.405 1.352,-0.405 0.785,0 1.412,0.297 1.875,0.893 C -0.234,-1.861 0,-1.041 0,0 m 2.604,0 c 0,-0.77 -0.122,-1.484 -0.356,-2.139 -0.246,-0.652 -0.592,-1.213 -1.049,-1.677 -0.455,-0.469 -1.002,-0.829 -1.633,-1.08 -0.638,-0.249 -1.349,-0.375 -2.138,-0.375 -0.785,0 -1.492,0.126 -2.121,0.382 -0.623,0.248 -1.17,0.614 -1.625,1.082 -0.461,0.477 -0.809,1.034 -1.053,1.676 -0.229,0.645 -0.35,1.356 -0.35,2.131 0,0.787 0.123,1.506 0.358,2.158 0.242,0.655 0.59,1.213 1.039,1.674 0.451,0.461 0.994,0.816 1.631,1.07 0.644,0.248 1.349,0.373 2.121,0.373 0.785,0 1.498,-0.125 2.138,-0.38 C 0.205,4.643 0.75,4.279 1.211,3.814 1.668,3.34 2.014,2.785 2.25,2.143 2.484,1.492 2.604,0.783 2.604,0"
             id="path1328"
             style="fill:#c4c4c4;fill-opacity:1;fill-rule:nonzero;stroke:none" /></g><g
           transform="translate(513.1406,29.3145)"
           id="g1330"><path
             d="m 0,0 0,-3.447 c 0,-0.547 -0.121,-0.951 -0.369,-1.227 -0.25,-0.273 -0.572,-0.408 -0.979,-0.408 -0.392,0 -0.713,0.135 -0.951,0.408 -0.246,0.276 -0.371,0.68 -0.371,1.227 l 0,4.131 c 0,0.654 -0.021,1.162 -0.064,1.525 -0.045,0.354 -0.168,0.654 -0.362,0.883 -0.197,0.234 -0.509,0.351 -0.931,0.351 -0.85,0 -1.407,-0.291 -1.676,-0.88 C -5.971,1.986 -6.109,1.148 -6.109,0.055 l 0,-3.502 c 0,-0.537 -0.123,-0.946 -0.362,-1.223 -0.25,-0.273 -0.568,-0.412 -0.965,-0.412 -0.396,0 -0.716,0.139 -0.966,0.412 -0.252,0.277 -0.377,0.686 -0.377,1.223 l 0,7.42 c 0,0.488 0.111,0.859 0.336,1.111 0.228,0.256 0.525,0.381 0.888,0.381 0.358,0 0.653,-0.123 0.893,-0.356 0.236,-0.238 0.353,-0.566 0.353,-0.984 l 0,-0.244 c 0.454,0.535 0.936,0.931 1.446,1.18 0.515,0.259 1.082,0.386 1.713,0.386 0.65,0 1.211,-0.131 1.677,-0.39 0.469,-0.26 0.854,-0.655 1.161,-1.176 0.439,0.527 0.908,0.922 1.41,1.18 0.5,0.257 1.052,0.386 1.662,0.386 0.705,0 1.32,-0.142 1.834,-0.42 C 5.104,4.75 5.486,4.348 5.74,3.832 5.961,3.359 6.07,2.623 6.07,1.615 l 0,-5.062 C 6.07,-3.994 5.949,-4.398 5.703,-4.674 5.457,-4.947 5.129,-5.082 4.725,-5.082 4.33,-5.082 4.01,-4.943 3.76,-4.67 3.51,-4.393 3.383,-3.984 3.383,-3.447 l 0,4.361 C 3.383,1.473 3.359,1.918 3.314,2.252 3.268,2.59 3.137,2.873 2.932,3.1 2.719,3.326 2.4,3.443 1.979,3.443 1.637,3.443 1.312,3.336 1.004,3.135 0.697,2.938 0.457,2.658 0.283,2.322 0.098,1.885 0,1.109 0,0"
             id="path1332"
             style="fill:#c4c4c4;fill-opacity:1;fill-rule:nonzero;stroke:none" /></g><g
           transform="translate(392.4355,30.1328)"
           id="g1334"><path
             d="M 0,0 C -0.002,0.004 -0.002,0.01 -0.002,0.018 -0.002,0.01 -0.002,0.004 0,0"
             id="path1336"
             style="fill:#c4c4c4;fill-opacity:1;fill-rule:nonzero;stroke:none" /></g><g
           transform="translate(392.5664,29.3027)"
           id="g1338"><path
             d="M 0,0 0.003,0 C -0.047,0.236 -0.086,0.471 -0.116,0.703 -0.086,0.469 -0.047,0.234 0,0"
             id="path1340"
             style="fill:#c4c4c4;fill-opacity:1;fill-rule:nonzero;stroke:none" /></g><g
           transform="translate(393.4248,26.8965)"
           id="g1342"><path
             d="M 0,0 C -0.006,0.01 -0.011,0.021 -0.018,0.033 -0.011,0.021 -0.006,0.01 0,0"
             id="path1344"
             style="fill:#c4c4c4;fill-opacity:1;fill-rule:nonzero;stroke:none" /></g><g
           transform="translate(393.3428,27.0566)"
           id="g1346"><path
             d="M 0,0 C -0.022,0.045 -0.044,0.09 -0.065,0.135 -0.044,0.088 -0.022,0.045 0,0"
             id="path1348"
             style="fill:#c4c4c4;fill-opacity:1;fill-rule:nonzero;stroke:none" /></g><g
           transform="translate(392.8076,28.377)"
           id="g1350"><path
             d="M 0,0 C 0.127,-0.4 0.279,-0.789 0.457,-1.158 0.276,-0.781 0.127,-0.393 0.003,0 L 0,0 z"
             id="path1352"
             style="fill:#c4c4c4;fill-opacity:1;fill-rule:nonzero;stroke:none" /></g><g
           transform="translate(402.4727,40.0684)"
           id="g1354"><path
             d="m 0,0 c 0.501,0 0.871,-0.039 1.295,-0.111 l 0.121,0.763 c 0,0 -1.172,0.36 -2.711,0.235 l -0.121,0.414 c 0.479,0.101 0.838,0.527 0.838,1.035 0,0.582 -0.475,1.053 -1.058,1.053 -0.583,0 -1.055,-0.471 -1.055,-1.053 0,-0.508 0.358,-0.934 0.836,-1.035 L -1.722,0.838 C -3.355,0.613 -4.656,-0.023 -4.656,-0.023 l 0.23,-0.706 c 0.988,0.329 1.846,0.53 2.624,0.614 C -1.04,-0.035 -0.467,0 0,0"
             id="path1356"
             style="fill:#c4c4c4;fill-opacity:1;fill-rule:nonzero;stroke:none" /></g><g
           transform="translate(393.4053,36.2109)"
           id="g1358"><path
             d="M 0,0 0.006,0.008 C 0.044,0.057 0.081,0.104 0.119,0.15 l -0.313,0.225 -0.488,0.357 c -0.027,-0.039 -0.795,-0.744 -1.401,-2.048 -0.025,0.041 -0.056,0.082 -0.09,0.119 -0.181,0.199 -0.435,0.301 -0.759,0.295 l -0.014,0 c -0.2,0 -0.337,0.066 -0.427,0.146 0.09,0.113 0.144,0.256 0.144,0.414 0,0.367 -0.3,0.668 -0.67,0.668 -0.369,0 -0.668,-0.301 -0.668,-0.668 0,-0.371 0.299,-0.67 0.668,-0.67 0.058,0 0.113,0.01 0.167,0.022 0.165,-0.184 0.425,-0.342 0.807,-0.334 0.197,0.002 0.341,-0.049 0.438,-0.156 0.111,-0.122 0.148,-0.295 0.16,-0.428 -10e-4,-0.002 -10e-4,-0.004 -0.003,-0.004 -0.436,-1.19 -0.312,-2.67 -0.312,-2.67 l 1.058,-0.043 c 0.022,0.539 0.099,1.482 0.371,2.23 C -0.687,-0.945 -0.027,-0.039 0,0"
             id="path1360"
             style="fill:#c4c4c4;fill-opacity:1;fill-rule:nonzero;stroke:none" /></g><g
           transform="translate(411.6719,39.1855)"
           id="g1362"><path
             d="m 0,0 c -0.367,0 -0.668,-0.299 -0.668,-0.67 0,-0.057 0.008,-0.111 0.023,-0.164 -0.183,-0.166 -0.343,-0.428 -0.337,-0.811 0.003,-0.197 -0.047,-0.339 -0.155,-0.437 -0.084,-0.074 -0.191,-0.115 -0.295,-0.141 -0.787,1.104 -1.756,1.776 -1.756,1.776 L -3.947,-1.26 c 0.574,-0.521 1.16,-1.176 1.728,-1.99 0.395,-0.564 0.799,-1.291 1.137,-2.016 l 1.023,0.487 c 0,0 -0.466,1.156 -1.125,2.191 0.114,0.041 0.229,0.104 0.33,0.193 0.202,0.18 0.299,0.436 0.293,0.758 -0.001,0.207 0.067,0.348 0.149,0.442 0.115,-0.088 0.258,-0.143 0.412,-0.143 0.371,0 0.67,0.299 0.67,0.668 C 0.67,-0.299 0.371,0 0,0"
             id="path1364"
             style="fill:#c4c4c4;fill-opacity:1;fill-rule:nonzero;stroke:none" /></g><g
           transform="translate(409.0156,29.9824)"
           id="g1366"><path
             d="m 0,0 c -1.41,-0.686 -3.729,-1.594 -6.782,-2.02 -1.198,-0.166 -2.36,-0.226 -3.428,-0.226 -1.391,0 -2.62,0.103 -3.562,0.223 -1.077,0.134 -1.918,0.3 -2.433,0.418 0.124,-0.393 0.273,-0.782 0.454,-1.159 0.003,-0.009 0.008,-0.021 0.013,-0.027 0.021,-0.045 0.043,-0.09 0.065,-0.135 0.022,-0.043 0.043,-0.086 0.065,-0.127 0.006,-0.011 0.011,-0.023 0.017,-0.033 0.303,-0.57 0.666,-1.094 1.08,-1.549 1.441,-1.574 2.907,-1.824 2.921,-1.826 l 0.024,-0.002 0.021,-0.008 c 0.013,-0.006 1.314,-0.425 3.291,-0.425 1.945,0 3.856,0.392 5.674,1.167 1.348,0.69 2.623,1.737 3.254,2.67 0.488,0.723 0.842,1.493 1.051,2.293 C 1.836,-0.34 1.924,0.342 1.871,1.061 1.475,0.793 0.848,0.414 0,0"
             id="path1368"
             style="fill:#c4c4c4;fill-opacity:1;fill-rule:nonzero;stroke:none" /></g><g
           transform="translate(397.8857,36.6133)"
           id="g1370"><path
             d="m 0,0 c 1.557,0 2.816,-1.262 2.816,-2.818 0,-1.555 -1.259,-2.815 -2.816,-2.815 -1.555,0 -2.816,1.26 -2.816,2.815 C -2.816,-1.262 -1.555,0 0,0 m 8.241,-0.07 c 0.961,0 1.744,-0.782 1.744,-1.742 0,-0.963 -0.783,-1.745 -1.744,-1.745 -0.961,0 -1.742,0.782 -1.742,1.745 0,0.96 0.781,1.742 1.742,1.742 M -4.028,-0.736 C -4.069,-0.797 -4.681,-1.662 -5.163,-2.99 -5.525,-3.984 -5.509,-5.434 -5.509,-5.449 l 0,-0.004 c 0,-0.34 0.019,-0.676 0.057,-1.01 0,-0.008 0,-0.014 0.002,-0.017 0.004,-0.043 0.011,-0.084 0.014,-0.127 0.031,-0.233 0.07,-0.467 0.12,-0.704 0.7,-0.177 4.878,-1.152 9.547,-0.501 2.928,0.408 5.151,1.273 6.5,1.927 1.122,0.543 1.842,1.035 2.12,1.239 C 12.573,-3.619 11.81,-2.006 11.108,-1 9.103,1.865 6.94,2.6 5.831,2.783 5.406,2.852 5.067,2.893 4.587,2.893 4.14,2.893 3.585,2.855 2.844,2.777 2.101,2.701 1.272,2.506 0.312,2.182 -1.036,1.73 -2.256,1.023 -3.215,0.135 L -3.248,0.104 c -0.142,-0.131 -0.439,-0.407 -0.78,-0.84"
             id="path1372"
             style="fill:#c4c4c4;fill-opacity:1;fill-rule:nonzero;stroke:none" /></g></g></g></g></svg>