<?xml version="1.0" encoding="UTF-8" standalone="no"?>
<!-- Created with Inkscape (http://www.inkscape.org/) -->

<svg
   xmlns:dc="http://purl.org/dc/elements/1.1/"
   xmlns:cc="http://creativecommons.org/ns#"
   xmlns:rdf="http://www.w3.org/1999/02/22-rdf-syntax-ns#"
   xmlns:svg="http://www.w3.org/2000/svg"
   xmlns="http://www.w3.org/2000/svg"
   version="1.1"
   width="1000"
   height="1000"
   id="svg2"
   xml:space="preserve"><metadata
     id="metadata8"><rdf:RDF><cc:Work
         rdf:about=""><dc:format>image/svg+xml</dc:format><dc:type
           rdf:resource="http://purl.org/dc/dcmitype/StillImage" /><dc:title></dc:title></cc:Work></rdf:RDF></metadata><defs
     id="defs6"><clipPath
       id="clipPath18"><path
         d="M 0,800 800,800 800,0 0,0 0,800 z"
         id="path20" /></clipPath><clipPath
       id="clipPath238"><path
         d="m 169.959,604.471 c -32.042,-15.116 -64.085,-3.628 -63.481,16.322 l 0,0 c 0,0 -18.439,-16.625 -11.184,-34.46 l 0,0 c 0,0 -8.161,-15.417 9.975,-26.601 l 0,0 c 0,0 19.347,-51.692 77.386,-51.692 l 0,0 c 58.04,0 68.922,47.761 72.247,71.038 l 0,0 c 3.325,23.276 5.441,59.551 39.902,47.459 l 0,0 c 0,0 -8.161,58.644 -52.295,60.457 l 0,0 c -0.569,0.024 -1.134,0.035 -1.687,0.035 l 0,0 c -42.365,0.006 -39.233,-67.639 -70.863,-82.558"
         id="path240" /></clipPath><clipPath
       id="clipPath262"><path
         d="m 193.721,634.103 c 21.771,-24.989 54.649,-28.959 65.372,-29.585 l 0,0 c 1.471,5.885 3.493,11.355 6.498,15.621 l 0,0 c -37.252,2.698 -58.843,24.438 -64.409,30.802 l 0,0 c -2.511,-5.588 -4.911,-11.334 -7.461,-16.838"
         id="path264" /></clipPath><clipPath
       id="clipPath274"><path
         d="m 169.959,604.471 c -32.042,-15.116 -64.085,-3.628 -63.481,16.322 l 0,0 c 0,0 -18.439,-16.625 -11.184,-34.46 l 0,0 c 0,0 -8.161,-15.417 9.975,-26.601 l 0,0 c 0,0 19.347,-51.692 77.386,-51.692 l 0,0 c 58.04,0 68.922,47.761 72.247,71.038 l 0,0 c 3.325,23.276 5.441,59.551 39.902,47.459 l 0,0 c 0,0 -8.161,58.644 -52.295,60.457 l 0,0 c -0.569,0.024 -1.134,0.035 -1.687,0.035 l 0,0 c -42.365,0.006 -39.233,-67.639 -70.863,-82.558"
         id="path276" /></clipPath><clipPath
       id="clipPath286"><path
         d="M 0,800 800,800 800,0 0,0 0,800 z"
         id="path288" /></clipPath><clipPath
       id="clipPath374"><path
         d="m 568.669,682.015 c 0,0 -16.632,-35.162 -16.923,-35.599 l 0,0 c -0.292,-0.437 -11.527,-25.532 -11.527,-25.532 l 0,0 -52.49,21.886 c 0,0 -18.318,-27.721 -17.782,-28.159 l 0,0 c 0.533,-0.438 -7.028,-10.359 -7.028,-10.359 l 0,0 0,-3.94 0.608,-109.131 c 0,0 5.641,-11.378 24.316,-11.67 l 0,0 c 18.673,-0.292 20.717,7.878 20.717,7.878 l 0,0 c 0,0 -3.21,47.27 1.751,60.11 l 0,0 c 0,0 4.376,-44.791 3.501,-73.824 l 0,0 c 0,0 5.545,-7.878 24.948,-7.878 l 0,0 c 19.404,0 21.156,10.067 21.156,10.067 l 0,0 c 0,0 -2.48,45.374 -1.46,59.087 l 0,0 c 0,0 40.705,-11.234 79.659,14.298 l 0,0 c 0,0 0.292,-23.051 -1.605,-34.285 l 0,0 c -1.897,-11.235 -3.208,-31.659 -0.438,-39.538 l 0,0 c 0,0 6.275,-8.17 24.512,-8.316 l 0,0 c 18.237,-0.146 24.218,9.045 24.218,9.045 l 0,0 c 0,0 2.188,19.259 0,33.119 l 0,0 c -2.188,13.86 -3.064,22.468 -2.042,32.389 l 0,0 c 1.02,9.921 9.775,49.75 9.775,68.57 l 0,0 c 0,18.822 -7.005,43.769 -33.409,57.192 l 0,0 c -26.408,13.422 -68.573,5.981 -85.351,19.55 l 0,0 c -4.496,3.637 -6.949,4.968 -8.131,4.968 l 0,0 c -3.228,0 3.025,-9.928 3.025,-9.928"
         id="path376" /></clipPath><clipPath
       id="clipPath478"><path
         d="M 0,800 800,800 800,0 0,0 0,800 z"
         id="path480" /></clipPath><clipPath
       id="clipPath510"><path
         d="m 512.353,677.151 c -4.865,-20.23 12.45,-65.166 12.45,-65.166 l 0,0 c 0,0 31.707,39.099 33.847,61.471 l 0,0 c 2.14,22.37 -17.701,38.905 -17.701,38.905 l 0,0 c 0,0 -23.733,-14.98 -28.596,-35.21"
         id="path512" /></clipPath><clipPath
       id="clipPath534"><path
         d="m 423.94,699.815 c -4.376,-24.512 1.168,-47.856 -3.791,-57.192 l 0,0 c -4.964,-9.337 -12.841,-29.472 -11.967,-51.356 l 0,0 c 0.877,-21.884 25.387,-39.1 40.851,-37.933 l 0,0 c 15.466,1.168 23.927,17.8 24.22,24.511 l 0,0 c 0.292,6.711 3.89,5.35 3.89,5.35 l 0,0 c 0,0 3.308,0.972 2.724,3.305 l 0,0 c -0.584,2.336 -5.058,1.558 -7.198,1.558 l 0,0 c -2.139,0 -5.058,1.361 -7.782,1.944 l 0,0 c -2.723,0.585 -4.669,-0.389 -4.472,-4.085 l 0,0 c 0.193,-3.695 2.137,-7.003 -1.362,-11.087 l 0,0 c -3.504,-4.085 -13.618,-4.28 -13.813,5.835 l 0,0 c -0.194,10.116 4.28,19.453 5.252,20.232 l 0,0 c 0.974,0.776 29.374,35.014 32.681,36.57 l 0,0 c 3.308,1.557 11.089,-1.945 11.089,-1.945 l 0,0 c 0,0 4.282,-5.251 5.641,-16.534 l 0,0 c 1.362,-11.284 4.084,-42.602 38.711,-47.854 l 0,0 c 0,0 -7.878,9.629 -2.334,28.595 l 0,0 c 5.544,18.966 23.344,37.349 34.14,67.696 l 0,0 c 10.795,30.347 0,62.152 -15.465,66.82 l 0,0 c -8.863,2.675 -14.084,0.464 -19.013,-1.748 l 0,0 c -3.673,-1.647 -7.184,-3.294 -11.918,-2.92 l 0,0 c -11.086,0.875 -18.966,13.714 -43.768,20.425 l 0,0 c -2.251,0.61 -4.522,0.897 -6.793,0.897 l 0,0 c -22.748,0 -45.544,-28.799 -49.523,-51.084"
         id="path536" /></clipPath><clipPath
       id="clipPath546"><path
         d="m 619.735,550.125 c -0.78,-0.584 -18.675,-7.977 -18.675,-8.56 l 0,0 c 0,-0.583 0.972,-4.085 0.972,-4.085 l 0,0 c 0,0 0.777,-8.754 0,-15.173 l 0,0 c -0.779,-6.42 -3.114,-19.257 -1.946,-26.456 l 0,0 c 0,0 11.225,-11.283 34.402,-6.808 l 0,0 1.585,1.944 c 0,0 3.306,31.514 3.696,33.654 l 0,0 c 0.39,2.14 1.944,17.703 1.75,20.036 l 0,0 c -0.192,2.334 -3.111,8.602 -3.111,8.602 l 0,0 c 0,0 -17.897,-2.572 -18.673,-3.154"
         id="path548" /></clipPath><clipPath
       id="clipPath578"><path
         d="M 0,800 800,800 800,0 0,0 0,800 z"
         id="path580" /></clipPath><clipPath
       id="clipPath658"><path
         d="m 127.524,155.186 c 0,0 10.18,-6.962 20.451,-16.944 l 0,0 c 7.764,-7.543 15.154,-17.233 20.651,-24.553 l 0,0 c 21.737,-28.949 56.91,-36.755 86.156,-36.36 l 0,0 c 29.244,0.397 70.347,6.324 102.754,43.473 l 0,0 c 0,0 -22.527,74.694 -99.197,88.527 l 0,0 c -9.322,1.682 -18.155,2.441 -26.486,2.441 l 0,0 c -60.195,0.003 -94.609,-39.573 -104.329,-56.584"
         id="path660" /></clipPath><clipPath
       id="clipPath678"><path
         d="M 0,800 800,800 800,0 0,0 0,800 z"
         id="path680" /></clipPath><clipPath
       id="clipPath766"><path
         d="m 446.25,270.002 c -18.747,-1.042 -45.413,-22.083 -47.705,-41.248 l 0,0 c -2.29,-19.164 49.578,-23.121 76.87,-13.331 l 0,0 c 0,0 10.832,4.583 26.04,3.333 l 0,0 c 15.209,-1.25 29.582,-12.499 31.457,-24.372 l 0,0 c 1.874,-11.875 -0.206,-26.873 -6.25,-38.747 l 0,0 c -6.043,-11.876 -15.208,-36.248 -6.459,-49.58 l 0,0 c 8.751,-13.334 30,-17.082 47.289,-13.334 l 0,0 c 17.29,3.751 33.331,12.708 46.663,15.833 l 0,0 c 13.333,3.126 26.457,-1.458 35.415,-9.165 l 0,0 c 8.956,-7.707 36.872,-16.248 59.995,-9.583 l 0,0 c 23.122,6.666 28.331,21.875 27.288,25.207 l 0,0 c -1.041,3.331 -6.04,1.249 -10.414,-1.667 l 0,0 c -4.375,-2.916 -22.082,-7.917 -34.582,-5.416 l 0,0 c -12.497,2.5 -25.206,16.246 -31.665,21.663 l 0,0 c -6.456,5.418 -18.749,15.625 -37.496,14.166 l 0,0 c -18.75,-1.458 -35.206,-6.458 -41.456,-6.875 l 0,0 c -6.251,-0.416 -14.336,0.182 -16.77,6.46 l 0,0 c -1.201,3.096 -0.646,9.644 1.077,15.37 l 0,0 c 0.595,1.976 3.926,10.686 4.849,15.304 l 0,0 c 2.823,14.114 2.622,33.532 -4.987,48.902 l 0,0 c -10.415,21.039 -42.29,43.328 -89.994,36.455 l 0,0 c 0,0 -9.546,10.69 -26.81,10.69 l 0,0 c -0.77,10e-4 -1.554,-0.021 -2.355,-0.065"
         id="path768" /></clipPath><clipPath
       id="clipPath870"><path
         d="M 0,800 800,800 800,0 0,0 0,800 z"
         id="path872" /></clipPath><clipPath
       id="clipPath1038"><path
         d="M 0,800 800,800 800,0 0,0 0,800 z"
         id="path1040" /></clipPath></defs><g
     transform="matrix(1.25,0,0,-1.25,0,1000)"
     id="g10"><g
       id="g674"><g
         clip-path="url(#clipPath678)"
         id="g676"><g
           transform="translate(402.4521,221.9854)"
           id="g682"><path
             d="m 0,0 c 0,0 -5,-7.396 -14.062,-7.396 -9.062,0 -14.53,5.989 -13.749,12.291 0.781,6.301 5.156,5.052 5.937,3.645 0.781,-1.406 0.625,-4.061 -1.563,-4.374"
             id="path684"
             style="fill:none;stroke:#8e1516;stroke-width:1.41700006;stroke-linecap:round;stroke-linejoin:miter;stroke-miterlimit:10;stroke-opacity:1;stroke-dasharray:none" /></g><g
           transform="translate(475.415,259.377)"
           id="g686"><path
             d="M 0,0 C 0,0 -10.415,11.665 -29.165,10.625 -47.912,9.583 -74.578,-11.458 -76.87,-30.623 -79.16,-49.787 -27.292,-53.744 0,-43.954 c 0,0 10.832,4.583 26.04,3.333 15.209,-1.25 29.582,-12.498 31.457,-24.372 1.874,-11.875 -0.207,-26.873 -6.25,-38.747 -6.043,-11.875 -15.208,-36.248 -6.459,-49.58 8.751,-13.333 30,-17.082 47.289,-13.333 17.29,3.75 33.331,12.708 46.663,15.833 13.333,3.125 26.457,-1.458 35.414,-9.166 8.957,-7.707 36.872,-16.248 59.996,-9.582 23.122,6.665 28.331,21.874 27.288,25.206 -1.041,3.332 -6.041,1.249 -10.415,-1.667 -4.375,-2.916 -22.081,-7.916 -34.581,-5.416 -12.498,2.5 -25.207,16.247 -31.665,21.664 -6.457,5.417 -18.749,15.625 -37.497,14.166 -18.749,-1.458 -35.205,-6.459 -41.455,-6.875 -6.251,-0.417 -14.337,0.181 -16.77,6.459 -1.201,3.095 -0.646,9.644 1.078,15.37 0.595,1.976 3.926,10.685 4.847,15.305 2.824,14.113 2.624,33.531 -4.986,48.901 C 79.579,-15.416 47.704,6.873 0,0"
             id="path688"
             style="fill:#508944;fill-opacity:1;fill-rule:nonzero;stroke:none" /></g><g
           transform="translate(469.6338,244.1182)"
           id="g690"><path
             d="M 0,0 0.782,-16.874 -18.123,-11.718 0,0 z"
             id="path692"
             style="fill:#d13924;fill-opacity:1;fill-rule:nonzero;stroke:none" /></g><g
           transform="translate(467.291,218.3398)"
           id="g694"><path
             d="M 0,0 -19.062,10.311 -19.844,-2.657 0,0 z"
             id="path696"
             style="fill:#d13924;fill-opacity:1;fill-rule:nonzero;stroke:none" /></g><g
           transform="translate(501.9648,249.0986)"
           id="g698"><path
             d="m 0,0 c 0,-3.335 -2.706,-6.041 -6.043,-6.041 -3.337,0 -6.041,2.706 -6.041,6.041 0,3.338 2.704,6.042 6.041,6.042 C -2.706,6.042 0,3.338 0,0"
             id="path700"
             style="fill:#8e1516;fill-opacity:1;fill-rule:nonzero;stroke:none" /></g><g
           transform="translate(527.624,243.0566)"
           id="g702"><path
             d="m 0,0 c 0,-3.334 -2.704,-6.04 -6.042,-6.04 -3.337,0 -6.041,2.706 -6.041,6.04 0,3.338 2.704,6.042 6.041,6.042 C -2.704,6.042 0,3.338 0,0"
             id="path704"
             style="fill:#8e1516;fill-opacity:1;fill-rule:nonzero;stroke:none" /></g><g
           transform="translate(549.3643,229.6396)"
           id="g706"><path
             d="m 0,0 c 0,-3.336 -2.704,-6.041 -6.041,-6.041 -3.337,0 -6.041,2.705 -6.041,6.041 0,3.337 2.704,6.041 6.041,6.041 C -2.704,6.041 0,3.337 0,0"
             id="path708"
             style="fill:#8e1516;fill-opacity:1;fill-rule:nonzero;stroke:none" /></g><g
           transform="translate(564.8145,206.5508)"
           id="g710"><path
             d="m 0,0 c 0,-3.336 -2.704,-6.04 -6.043,-6.04 -3.336,0 -6.04,2.704 -6.04,6.04 0,3.336 2.704,6.042 6.04,6.042 C -2.704,6.042 0,3.336 0,0"
             id="path712"
             style="fill:#8e1516;fill-opacity:1;fill-rule:nonzero;stroke:none" /></g><g
           transform="translate(566.6572,182.0918)"
           id="g714"><path
             d="m 0,0 c 0,-3.336 -2.704,-6.04 -6.041,-6.04 -3.337,0 -6.041,2.704 -6.041,6.04 0,3.338 2.704,6.042 6.041,6.042 C -2.704,6.042 0,3.338 0,0"
             id="path716"
             style="fill:#8e1516;fill-opacity:1;fill-rule:nonzero;stroke:none" /></g><g
           transform="translate(560.6162,155.8437)"
           id="g718"><path
             d="m 0,0 c 0,-3.336 -2.706,-6.041 -6.043,-6.041 -3.336,0 -6.04,2.705 -6.04,6.041 0,3.338 2.704,6.042 6.04,6.042 C -2.706,6.042 0,3.338 0,0"
             id="path720"
             style="fill:#8e1516;fill-opacity:1;fill-rule:nonzero;stroke:none" /></g><g
           transform="translate(561.4473,126.6992)"
           id="g722"><path
             d="m 0,0 c 0,-3.336 -2.706,-6.04 -6.042,-6.04 -3.337,0 -6.041,2.704 -6.041,6.04 0,3.338 2.704,6.042 6.041,6.042 C -2.706,6.042 0,3.338 0,0"
             id="path724"
             style="fill:#8e1516;fill-opacity:1;fill-rule:nonzero;stroke:none" /></g><g
           transform="translate(589.4912,125.2139)"
           id="g726"><path
             d="m 0,0 c 0,-2.905 -2.354,-5.26 -5.261,-5.26 -2.904,0 -5.26,2.355 -5.26,5.26 0,2.906 2.356,5.261 5.26,5.261 C -2.354,5.261 0,2.906 0,0"
             id="path728"
             style="fill:#8e1516;fill-opacity:1;fill-rule:nonzero;stroke:none" /></g><g
           transform="translate(613.6631,132.2197)"
           id="g730"><path
             d="m 0,0 c 0,-2.301 -1.865,-4.165 -4.168,-4.165 -2.3,0 -4.167,1.864 -4.167,4.165 0,2.303 1.867,4.167 4.167,4.167 C -1.865,4.167 0,2.303 0,0"
             id="path732"
             style="fill:#8e1516;fill-opacity:1;fill-rule:nonzero;stroke:none" /></g><g
           transform="translate(638.3467,132.2197)"
           id="g734"><path
             d="m 0,0 c 0,-2.041 -1.654,-3.696 -3.7,-3.696 -2.039,0 -3.696,1.655 -3.696,3.696 0,2.043 1.657,3.699 3.696,3.699 C -1.654,3.699 0,2.043 0,0"
             id="path736"
             style="fill:#8e1516;fill-opacity:1;fill-rule:nonzero;stroke:none" /></g><g
           transform="translate(660.4238,121.5166)"
           id="g738"><path
             d="m 0,0 c 0,-1.866 -1.513,-3.378 -3.38,-3.378 -1.865,0 -3.379,1.512 -3.379,3.378 0,1.867 1.514,3.379 3.379,3.379 C -1.513,3.379 0,1.867 0,0"
             id="path740"
             style="fill:#8e1516;fill-opacity:1;fill-rule:nonzero;stroke:none" /></g><g
           transform="translate(672.3203,110.9941)"
           id="g742"><path
             d="m 0,0 c 0,-1.094 -0.887,-1.977 -1.979,-1.977 -1.093,0 -1.977,0.883 -1.977,1.977 0,1.093 0.884,1.979 1.977,1.979 C -0.887,1.979 0,1.093 0,0"
             id="path744"
             style="fill:#8e1516;fill-opacity:1;fill-rule:nonzero;stroke:none" /></g><g
           transform="translate(441.8242,244.4219)"
           id="g746"><path
             d="m 0,0 c 0,-2.584 -1.89,-4.678 -4.219,-4.678 -2.331,0 -4.219,2.094 -4.219,4.678 0,2.584 1.888,4.68 4.219,4.68 C -1.89,4.68 0,2.584 0,0"
             id="path748"
             style="fill:#fdffe6;fill-opacity:1;fill-rule:nonzero;stroke:none" /></g><g
           transform="translate(443.2295,223.0254)"
           id="g750"><path
             d="m 0,0 c 0,-2.329 -1.888,-4.218 -4.219,-4.218 -2.329,0 -4.218,1.889 -4.218,4.218 0,2.331 1.889,4.219 4.218,4.219 C -1.888,4.219 0,2.331 0,0"
             id="path752"
             style="fill:#d13924;fill-opacity:1;fill-rule:nonzero;stroke:none" /></g><g
           transform="translate(431.6152,224.4326)"
           id="g754"><path
             d="m 0,0 c 0,-1.353 -1.094,-2.447 -2.446,-2.447 -1.352,0 -2.449,1.094 -2.449,2.447 0,1.352 1.097,2.447 2.449,2.447 C -1.094,2.447 0,1.352 0,0"
             id="path756"
             style="fill:#d13924;fill-opacity:1;fill-rule:nonzero;stroke:none" /></g><g
           transform="translate(422.9863,225.4727)"
           id="g758"><path
             d="m 0,0 c 0,-0.854 -0.691,-1.546 -1.546,-1.546 -0.853,0 -1.545,0.692 -1.545,1.546 0,0.855 0.692,1.548 1.545,1.548 C -0.691,1.548 0,0.855 0,0"
             id="path760"
             style="fill:#d13924;fill-opacity:1;fill-rule:nonzero;stroke:none" /></g></g></g><g
       id="g762"><g
         clip-path="url(#clipPath766)"
         id="g764"><g
           transform="translate(420.8877,261.1475)"
           id="g770"><path
             d="m 0,0 c 0,0 4.062,-5.623 18.123,-2.968 14.063,2.656 12.5,15.936 12.5,15.936 L 15.337,14.063 2.03,8.919 0,0 z"
             id="path772"
             style="fill:#ffb03b;fill-opacity:1;fill-rule:nonzero;stroke:none" /></g><g
           transform="translate(475.832,212.5928)"
           id="g774"><path
             d="m 0,0 c 0,0 0.222,0.199 0.575,0.61 1.648,1.92 6.178,8.481 4.634,21.174 0,0 15.235,4.763 36.248,-1.665 21.01,-6.43 31.035,-24.374 31.244,-38.747 0.208,-14.374 -2.498,-25.414 -7.498,-42.288 -4.999,-16.874 -9.79,-35.622 3.75,-40.83 13.54,-5.209 21.457,-3.126 29.998,0 8.541,3.124 27.08,10.415 44.788,12.916 17.708,2.499 28.907,-7.083 37.473,-13.749 8.564,-6.667 30.022,-12.084 44.187,-10.417 14.166,1.668 27.083,5.626 29.998,8.542 2.916,2.916 6.667,0.879 6.667,0.879 l -14.583,-18.378 c 0,0 -18.749,-7.292 -22.499,-6.457 -3.749,0.834 -33.746,3.54 -37.703,4.79 -3.96,1.251 -32.083,14.792 -33.542,15.416 -1.458,0.625 -9.373,1.667 -9.373,1.667 0,0 -23.749,-6.458 -24.999,-7.291 -1.25,-0.834 -20.414,-10.001 -24.788,-9.792 -4.375,0.209 -28.332,1.042 -29.374,0.834 -1.041,-0.208 -14.581,2.083 -15.206,3.125 -0.625,1.041 -7.917,6.251 -8.751,8.333 -0.831,2.082 -2.914,5.416 -3.956,12.29 -1.043,6.875 6.041,43.12 7.499,45.203 1.457,2.084 7.916,19.374 9.374,21.249 1.458,1.875 -0.416,11.456 -1.25,13.749 C 52.08,-16.544 39.165,-6.13 37.29,-4.255 35.416,-2.379 30.623,-1.162 27.706,0 24.792,1.161 12.706,0.955 11.25,0.955 9.792,0.955 0,0 0,0"
             id="path776"
             style="fill:#ffb03b;fill-opacity:1;fill-rule:nonzero;stroke:none" /></g><g
           transform="translate(492.5625,231.542)"
           id="g778"><path
             d="M 0,0 C 0,0 0.29,-6.353 -1.782,-14.165"
             id="path780"
             style="fill:none;stroke:#b63d29;stroke-width:1.70099998;stroke-linecap:round;stroke-linejoin:miter;stroke-miterlimit:10;stroke-opacity:1;stroke-dasharray:none" /></g><g
           transform="translate(511.833,230.0732)"
           id="g782"><path
             d="M 0,0 C 0,0 -1.663,-6.14 -6.015,-12.949"
             id="path784"
             style="fill:none;stroke:#b63d29;stroke-width:1.70099998;stroke-linecap:round;stroke-linejoin:miter;stroke-miterlimit:10;stroke-opacity:1;stroke-dasharray:none" /></g><g
           transform="translate(529.2695,222.5176)"
           id="g786"><path
             d="M 0,0 C 0,0 -3.293,-5.442 -9.358,-10.783"
             id="path788"
             style="fill:none;stroke:#b63d29;stroke-width:1.70099998;stroke-linecap:round;stroke-linejoin:miter;stroke-miterlimit:10;stroke-opacity:1;stroke-dasharray:none" /></g><g
           transform="translate(542.8721,201.543)"
           id="g790"><path
             d="M 0,0 C 0,0 -6.044,-1.973 -14.127,-2.061"
             id="path792"
             style="fill:none;stroke:#b63d29;stroke-width:1.70099998;stroke-linecap:round;stroke-linejoin:miter;stroke-miterlimit:10;stroke-opacity:1;stroke-dasharray:none" /></g><g
           transform="translate(542.7266,179.4639)"
           id="g794"><path
             d="M 0,0 C 0,0 -6.34,0.505 -13.833,3.532"
             id="path796"
             style="fill:none;stroke:#b63d29;stroke-width:1.70099998;stroke-linecap:round;stroke-linejoin:miter;stroke-miterlimit:10;stroke-opacity:1;stroke-dasharray:none" /></g><g
           transform="translate(536.9238,158.3291)"
           id="g798"><path
             d="M 0,0 C 0,0 -6.34,0.504 -13.833,3.533"
             id="path800"
             style="fill:none;stroke:#b63d29;stroke-width:1.70099998;stroke-linecap:round;stroke-linejoin:miter;stroke-miterlimit:10;stroke-opacity:1;stroke-dasharray:none" /></g><g
           transform="translate(530.0977,115.9248)"
           id="g802"><path
             d="M 0,0 C 0,0 -4.45,-4.986 -11.562,-8.827"
             id="path804"
             style="fill:none;stroke:#b63d29;stroke-width:1.70099998;stroke-linecap:round;stroke-linejoin:miter;stroke-miterlimit:10;stroke-opacity:1;stroke-dasharray:none" /></g><g
           transform="translate(538.5361,106.8633)"
           id="g806"><path
             d="M 0,0 C 0,0 -2.478,-5.327 -7.892,-11.327"
             id="path808"
             style="fill:none;stroke:#b63d29;stroke-width:1.70099998;stroke-linecap:round;stroke-linejoin:miter;stroke-miterlimit:10;stroke-opacity:1;stroke-dasharray:none" /></g><g
           transform="translate(551.7461,104.0176)"
           id="g810"><path
             d="M 0,0 C 0,0 -0.051,-6.358 -2.535,-14.049"
             id="path812"
             style="fill:none;stroke:#b63d29;stroke-width:1.70099998;stroke-linecap:round;stroke-linejoin:miter;stroke-miterlimit:10;stroke-opacity:1;stroke-dasharray:none" /></g><g
           transform="translate(569.9121,104.666)"
           id="g814"><path
             d="M 0,0 C 0,0 1.552,-6.167 1.084,-14.235"
             id="path816"
             style="fill:none;stroke:#b63d29;stroke-width:1.70099998;stroke-linecap:round;stroke-linejoin:miter;stroke-miterlimit:10;stroke-opacity:1;stroke-dasharray:none" /></g><g
           transform="translate(585.0566,109.291)"
           id="g818"><path
             d="M 0,0 C 0,0 2.734,-5.741 3.859,-13.745"
             id="path820"
             style="fill:none;stroke:#b63d29;stroke-width:1.70099998;stroke-linecap:round;stroke-linejoin:miter;stroke-miterlimit:10;stroke-opacity:1;stroke-dasharray:none" /></g><g
           transform="translate(602.2344,116.1641)"
           id="g822"><path
             d="M 0,0 C 0,0 2.732,-5.742 3.859,-13.744"
             id="path824"
             style="fill:none;stroke:#b63d29;stroke-width:1.70099998;stroke-linecap:round;stroke-linejoin:miter;stroke-miterlimit:10;stroke-opacity:1;stroke-dasharray:none" /></g><g
           transform="translate(621.6182,120.8877)"
           id="g826"><path
             d="M 0,0 C 0,0 0.149,-6.357 -2.093,-14.122"
             id="path828"
             style="fill:none;stroke:#b63d29;stroke-width:1.70099998;stroke-linecap:round;stroke-linejoin:miter;stroke-miterlimit:10;stroke-opacity:1;stroke-dasharray:none" /></g><g
           transform="translate(637.1504,117.9219)"
           id="g830"><path
             d="M 0,0 C 0,0 -2.18,-5.974 -7.102,-12.385"
             id="path832"
             style="fill:none;stroke:#b63d29;stroke-width:1.70099998;stroke-linecap:round;stroke-linejoin:miter;stroke-miterlimit:10;stroke-opacity:1;stroke-dasharray:none" /></g><g
           transform="translate(650.2432,110.3232)"
           id="g834"><path
             d="M 0,0 C 0,0 -2.18,-5.974 -7.102,-12.385"
             id="path836"
             style="fill:none;stroke:#b63d29;stroke-width:1.70099998;stroke-linecap:round;stroke-linejoin:miter;stroke-miterlimit:10;stroke-opacity:1;stroke-dasharray:none" /></g><g
           transform="translate(665.2695,102.4316)"
           id="g838"><path
             d="M 0,0 C 0,0 -2.182,-5.974 -7.102,-12.385"
             id="path840"
             style="fill:none;stroke:#b63d29;stroke-width:1.70099998;stroke-linecap:round;stroke-linejoin:miter;stroke-miterlimit:10;stroke-opacity:1;stroke-dasharray:none" /></g><g
           transform="translate(681.7373,96.4727)"
           id="g842"><path
             d="M 0,0 C 0,0 -0.724,-6.317 -4.013,-13.701"
             id="path844"
             style="fill:none;stroke:#b63d29;stroke-width:1.70099998;stroke-linecap:round;stroke-linejoin:miter;stroke-miterlimit:10;stroke-opacity:1;stroke-dasharray:none" /></g><g
           transform="translate(697.5039,95.6475)"
           id="g846"><path
             d="M 0,0 C 0,0 0.558,-6.333 -1.187,-14.226"
             id="path848"
             style="fill:none;stroke:#b63d29;stroke-width:1.70099998;stroke-linecap:round;stroke-linejoin:miter;stroke-miterlimit:10;stroke-opacity:1;stroke-dasharray:none" /></g><g
           transform="translate(708.9102,96.7041)"
           id="g850"><path
             d="M 0,0 C 0,0 1.85,-6.084 1.769,-14.165"
             id="path852"
             style="fill:none;stroke:#b63d29;stroke-width:1.70099998;stroke-linecap:round;stroke-linejoin:miter;stroke-miterlimit:10;stroke-opacity:1;stroke-dasharray:none" /></g><g
           transform="translate(719.1855,99.3438)"
           id="g854"><path
             d="M 0,0 C 0,0 2.963,-5.627 4.41,-13.577"
             id="path856"
             style="fill:none;stroke:#b63d29;stroke-width:1.70099998;stroke-linecap:round;stroke-linejoin:miter;stroke-miterlimit:10;stroke-opacity:1;stroke-dasharray:none" /></g><g
           transform="translate(516.1338,143.3164)"
           id="g858"><path
             d="M 0,0 C 0,0 6.35,-0.349 13.915,-3.193"
             id="path860"
             style="fill:none;stroke:#b63d29;stroke-width:1.70099998;stroke-linecap:round;stroke-linejoin:miter;stroke-miterlimit:10;stroke-opacity:1;stroke-dasharray:none" /></g><g
           transform="translate(514.5771,123.502)"
           id="g862"><path
             d="M 0,0 C 0,0 4.48,2.656 14.115,4.219"
             id="path864"
             style="fill:none;stroke:#b63d29;stroke-width:1.70099998;stroke-linecap:round;stroke-linejoin:miter;stroke-miterlimit:10;stroke-opacity:1;stroke-dasharray:none" /></g></g></g></g></svg>