<?xml version="1.0"?><svg width="926.66827" height="885.49182" xmlns="http://www.w3.org/2000/svg" xmlns:xlink="http://www.w3.org/1999/xlink">
 <defs>
  <radialGradient r="9.668112" fy="85.224167" fx="-9428.2139" cy="85.224167" cx="-9428.2139" gradientTransform="matrix(-0.6764369010925293,0.1688186228275299,-0.14395970106124878,-0.5768303871154785,-5876.90576171875,2453.654052734375)" gradientUnits="userSpaceOnUse" id="radialGradient14823" xlink:href="#linearGradient8554"/>
  <linearGradient id="linearGradient8554">
   <stop stop-color="#fff5eb" id="stop8556" offset="0"/>
   <stop stop-color="#fff5eb" stop-opacity="0" id="stop8558" offset="1"/>
  </linearGradient>
  <radialGradient r="9.668112" fy="85.224167" fx="-9428.2139" cy="85.224167" cx="-9428.2139" gradientTransform="matrix(-1.2499035596847534,0.2774548828601837,-0.2582467794418335,-1.1633729934692383,-11273.939453125,3527.889404296875)" gradientUnits="userSpaceOnUse" id="radialGradient14821" xlink:href="#linearGradient8554"/>
  <radialGradient r="9.668112" fy="85.224167" fx="-9428.2139" cy="85.224167" cx="-9428.2139" gradientTransform="matrix(-2.677676200866699,0.6692673563957214,-0.49448320269584656,-1.978380560874939,-24715.14453125,7291.43896484375)" gradientUnits="userSpaceOnUse" id="radialGradient14819" xlink:href="#linearGradient8554"/>
  <radialGradient r="9.668112" fy="85.224167" fx="-9428.2139" cy="85.224167" cx="-9428.2139" gradientTransform="matrix(-0.6764369010925293,0.1688186228275299,-0.14395970106124878,-0.5768303871154785,-5796.68603515625,2464.589599609375)" gradientUnits="userSpaceOnUse" id="radialGradient14817" xlink:href="#linearGradient8554"/>
  <radialGradient r="9.668112" fy="85.224167" fx="-9428.2139" cy="85.224167" cx="-9428.2139" gradientTransform="matrix(-1.2499035596847534,0.2774548828601837,-0.2582467794418335,-1.1633729934692383,-11193.7197265625,3538.825439453125)" gradientUnits="userSpaceOnUse" id="radialGradient14815" xlink:href="#linearGradient8554"/>
  <radialGradient r="9.668112" fy="85.224167" fx="-9428.2139" cy="85.224167" cx="-9428.2139" gradientTransform="matrix(-2.677676200866699,0.6692673563957214,-0.49448320269584656,-1.978380560874939,-24634.92578125,7302.37548828125)" gradientUnits="userSpaceOnUse" id="radialGradient14813" xlink:href="#linearGradient8554"/>
  <radialGradient r="9.668112" fy="85.224167" fx="-9428.2139" cy="85.224167" cx="-9428.2139" gradientTransform="matrix(-0.6764369010925293,0.1688186228275299,-0.14395970106124878,-0.5768303871154785,-5718.2890625,2468.234375)" gradientUnits="userSpaceOnUse" id="radialGradient14811" xlink:href="#linearGradient8554"/>
  <radialGradient r="9.668112" fy="85.224167" fx="-9428.2139" cy="85.224167" cx="-9428.2139" gradientTransform="matrix(-1.2499035596847534,0.2774548828601837,-0.2582467794418335,-1.1633729934692383,-11115.322265625,3542.469482421875)" gradientUnits="userSpaceOnUse" id="radialGradient14809" xlink:href="#linearGradient8554"/>
  <radialGradient r="9.668112" fy="85.224167" fx="-9428.2139" cy="85.224167" cx="-9428.2139" gradientTransform="matrix(-2.677676200866699,0.6692673563957214,-0.49448320269584656,-1.978380560874939,-24556.52734375,7306.01904296875)" gradientUnits="userSpaceOnUse" id="radialGradient14807" xlink:href="#linearGradient8554"/>
  <radialGradient r="9.668112" fy="85.224167" fx="-9428.2139" cy="85.224167" cx="-9428.2139" gradientTransform="matrix(-0.6764369010925293,0.1688186228275299,-0.14395970106124878,-0.5768303871154785,-5638.0068359375,2466.239501953125)" gradientUnits="userSpaceOnUse" id="radialGradient14805" xlink:href="#linearGradient8554"/>
  <radialGradient r="9.668112" fy="85.224167" fx="-9428.2139" cy="85.224167" cx="-9428.2139" gradientTransform="matrix(-1.2499035596847534,0.2774548828601837,-0.2582467794418335,-1.1633729934692383,-11035.041015625,3540.47509765625)" gradientUnits="userSpaceOnUse" id="radialGradient14803" xlink:href="#linearGradient8554"/>
  <radialGradient r="9.668112" fy="85.224167" fx="-9428.2139" cy="85.224167" cx="-9428.2139" gradientTransform="matrix(-2.677676200866699,0.6692673563957214,-0.49448320269584656,-1.978380560874939,-24476.24609375,7304.025390625)" gradientUnits="userSpaceOnUse" id="radialGradient14801" xlink:href="#linearGradient8554"/>
  <radialGradient r="9.668112" fy="85.224167" fx="-9428.2139" cy="85.224167" cx="-9428.2139" gradientTransform="matrix(-0.6971848607063293,-0.0003044269687961787,0.0002596002595964819,-0.5945231318473816,-5768.56494140625,841.94970703125)" gradientUnits="userSpaceOnUse" id="radialGradient14791" xlink:href="#linearGradient8554"/>
  <radialGradient r="9.668112" fy="85.224167" fx="-9428.2139" cy="85.224167" cx="-9428.2139" gradientTransform="matrix(-1.2798763513565063,-0.03401648998260498,0.03166159987449646,-1.1912707090377808,-11264.990234375,574.96240234375)" gradientUnits="userSpaceOnUse" id="radialGradient14789" xlink:href="#linearGradient8554"/>
  <radialGradient r="9.668112" fy="85.224167" fx="-9428.2139" cy="85.224167" cx="-9428.2139" gradientTransform="matrix(-2.7600486278533936,-0.00023590134514961392,0.00017422481323592365,-2.039240837097168,-25217.6875,965.72119140625)" gradientUnits="userSpaceOnUse" id="radialGradient14787" xlink:href="#linearGradient8554"/>
  <radialGradient r="9.668112" fy="85.224167" fx="-9428.2139" cy="85.224167" cx="-9428.2139" gradientTransform="matrix(-0.6971848607063293,-0.0003044269687961787,0.0002596002595964819,-0.5945231318473816,-5722.62841796875,790.9974365234375)" gradientUnits="userSpaceOnUse" id="radialGradient14785" xlink:href="#linearGradient8554"/>
  <radialGradient r="9.668112" fy="85.224167" fx="-9428.2139" cy="85.224167" cx="-9428.2139" gradientTransform="matrix(-1.2798763513565063,-0.03401648998260498,0.03166159987449646,-1.1912707090377808,-11219.0439453125,524.0090942382812)" gradientUnits="userSpaceOnUse" id="radialGradient14783" xlink:href="#linearGradient8554"/>
  <radialGradient r="9.668112" fy="85.224167" fx="-9428.2139" cy="85.224167" cx="-9428.2139" gradientTransform="matrix(-2.7600486278533936,-0.00023590134514961392,0.00017422481323592365,-2.039240837097168,-25171.75,914.7689208984375)" gradientUnits="userSpaceOnUse" id="radialGradient14781" xlink:href="#linearGradient8554"/>
  <radialGradient r="9.668112" fy="85.224167" fx="-9428.2139" cy="85.224167" cx="-9428.2139" gradientTransform="matrix(-0.6971848607063293,-0.0003044269687961787,0.0002596002595964819,-0.5945231318473816,-5702.431640625,732.9822998046875)" gradientUnits="userSpaceOnUse" id="radialGradient14779" xlink:href="#linearGradient8554"/>
  <radialGradient r="9.668112" fy="85.224167" fx="-9428.2139" cy="85.224167" cx="-9428.2139" gradientTransform="matrix(-1.2798763513565063,-0.03401648998260498,0.03166159987449646,-1.1912707090377808,-11198.8466796875,465.99609375)" gradientUnits="userSpaceOnUse" id="radialGradient14777" xlink:href="#linearGradient8554"/>
  <radialGradient r="9.668112" fy="85.224167" fx="-9428.2139" cy="85.224167" cx="-9428.2139" gradientTransform="matrix(-2.7600486278533936,-0.00023590134514961392,0.00017422481323592365,-2.039240837097168,-25151.53125,856.7548828125)" gradientUnits="userSpaceOnUse" id="radialGradient14775" xlink:href="#linearGradient8554"/>
  <radialGradient r="9.668112" fy="85.224167" fx="-9428.2139" cy="85.224167" cx="-9428.2139" gradientTransform="matrix(-0.6971848607063293,-0.0003044269687961787,0.0002596002595964819,-0.5945231318473816,-5794.59375,558.8624877929688)" gradientUnits="userSpaceOnUse" id="radialGradient14773" xlink:href="#linearGradient8554"/>
  <radialGradient r="9.668112" fy="85.224167" fx="-9428.2139" cy="85.224167" cx="-9428.2139" gradientTransform="matrix(-1.2798763513565063,-0.03401648998260498,0.03166159987449646,-1.1912707090377808,-11291.01953125,291.8762512207031)" gradientUnits="userSpaceOnUse" id="radialGradient14771" xlink:href="#linearGradient8554"/>
  <radialGradient r="9.668112" fy="85.224167" fx="-9428.2139" cy="85.224167" cx="-9428.2139" gradientTransform="matrix(-2.7600486278533936,-0.00023590134514961392,0.00017422481323592365,-2.039240837097168,-25243.71484375,682.6339111328125)" gradientUnits="userSpaceOnUse" id="radialGradient14769" xlink:href="#linearGradient8554"/>
  <radialGradient r="9.668112" fy="85.224167" fx="-9428.2139" cy="85.224167" cx="-9428.2139" gradientTransform="matrix(-0.6971848607063293,-0.0003044269687961787,0.0002596002595964819,-0.5945231318473816,-5719.4384765625,591.6671142578125)" gradientUnits="userSpaceOnUse" id="radialGradient14767" xlink:href="#linearGradient8554"/>
  <radialGradient r="9.668112" fy="85.224167" fx="-9428.2139" cy="85.224167" cx="-9428.2139" gradientTransform="matrix(-1.2798763513565063,-0.03401648998260498,0.03166159987449646,-1.1912707090377808,-11215.84375,324.6808776855469)" gradientUnits="userSpaceOnUse" id="radialGradient14765" xlink:href="#linearGradient8554"/>
  <radialGradient r="9.668112" fy="85.224167" fx="-9428.2139" cy="85.224167" cx="-9428.2139" gradientTransform="matrix(-2.7600486278533936,-0.00023590134514961392,0.00017422481323592365,-2.039240837097168,-25168.5390625,715.4385986328125)" gradientUnits="userSpaceOnUse" id="radialGradient14763" xlink:href="#linearGradient8554"/>
  <radialGradient r="9.668112" fy="85.224167" fx="-9428.2139" cy="85.224167" cx="-9428.2139" gradientTransform="matrix(-0.6971848607063293,-0.0003044269687961787,0.0002596002595964819,-0.5945231318473816,-5684.11865234375,661.2247924804688)" gradientUnits="userSpaceOnUse" id="radialGradient14761" xlink:href="#linearGradient8554"/>
  <radialGradient r="9.668112" fy="85.224167" fx="-9428.2139" cy="85.224167" cx="-9428.2139" gradientTransform="matrix(-1.2798763513565063,-0.03401648998260498,0.03166159987449646,-1.1912707090377808,-11180.5439453125,394.23748779296875)" gradientUnits="userSpaceOnUse" id="radialGradient14759" xlink:href="#linearGradient8554"/>
  <radialGradient r="9.668112" fy="85.224167" fx="-9428.2139" cy="85.224167" cx="-9428.2139" gradientTransform="matrix(-2.7600486278533936,-0.00023590134514961392,0.00017422481323592365,-2.039240837097168,-25133.23046875,784.9951782226562)" gradientUnits="userSpaceOnUse" id="radialGradient14757" xlink:href="#linearGradient8554"/>
  <radialGradient r="9.668112" fy="85.224167" fx="-9428.2139" cy="85.224167" cx="-9428.2139" gradientTransform="matrix(-0.6971848607063293,-0.0003044269687961787,0.0002596002595964819,-0.5945231318473816,-6510.884765625,534.5655517578125)" gradientUnits="userSpaceOnUse" id="radialGradient14755" xlink:href="#linearGradient8554"/>
  <radialGradient r="9.668112" fy="85.224167" fx="-9428.2139" cy="85.224167" cx="-9428.2139" gradientTransform="matrix(-1.2798763513565063,-0.03401648998260498,0.03166159987449646,-1.1912707090377808,-12007.30078125,267.5782470703125)" gradientUnits="userSpaceOnUse" id="radialGradient14753" xlink:href="#linearGradient8554"/>
  <radialGradient r="9.668112" fy="85.224167" fx="-9428.2139" cy="85.224167" cx="-9428.2139" gradientTransform="matrix(-2.7600486278533936,-0.00023590134514961392,0.00017422481323592365,-2.039240837097168,-25960.0078125,658.3360595703125)" gradientUnits="userSpaceOnUse" id="radialGradient14751" xlink:href="#linearGradient8554"/>
  <radialGradient r="9.668112" fy="85.224167" fx="-9428.2139" cy="85.224167" cx="-9428.2139" gradientTransform="matrix(-0.6971848607063293,-0.0003044269687961787,0.0002596002595964819,-0.5945231318473816,-6435.708984375,557.1172485351562)" gradientUnits="userSpaceOnUse" id="radialGradient14749" xlink:href="#linearGradient8554"/>
  <radialGradient r="9.668112" fy="85.224167" fx="-9428.2139" cy="85.224167" cx="-9428.2139" gradientTransform="matrix(-1.2798763513565063,-0.03401648998260498,0.03166159987449646,-1.1912707090377808,-11932.1357421875,290.12994384765625)" gradientUnits="userSpaceOnUse" id="radialGradient14747" xlink:href="#linearGradient8554"/>
  <radialGradient r="9.668112" fy="85.224167" fx="-9428.2139" cy="85.224167" cx="-9428.2139" gradientTransform="matrix(-2.7600486278533936,-0.00023590134514961392,0.00017422481323592365,-2.039240837097168,-25884.8203125,680.8876953125)" gradientUnits="userSpaceOnUse" id="radialGradient14745" xlink:href="#linearGradient8554"/>
  <radialGradient r="9.668112" fy="85.224167" fx="-9428.2139" cy="85.224167" cx="-9428.2139" gradientTransform="matrix(-0.6971848607063293,-0.0003044269687961787,0.0002596002595964819,-0.5945231318473816,-6353.01416015625,564.634765625)" gradientUnits="userSpaceOnUse" id="radialGradient14743" xlink:href="#linearGradient8554"/>
  <radialGradient r="9.668112" fy="85.224167" fx="-9428.2139" cy="85.224167" cx="-9428.2139" gradientTransform="matrix(-1.2798763513565063,-0.03401648998260498,0.03166159987449646,-1.1912707090377808,-11849.439453125,297.6474609375)" gradientUnits="userSpaceOnUse" id="radialGradient14741" xlink:href="#linearGradient8554"/>
  <radialGradient r="9.668112" fy="85.224167" fx="-9428.2139" cy="85.224167" cx="-9428.2139" gradientTransform="matrix(-2.7600486278533936,-0.00023590134514961392,0.00017422481323592365,-2.039240837097168,-25802.13671875,688.4052734375)" gradientUnits="userSpaceOnUse" id="radialGradient14739" xlink:href="#linearGradient8554"/>
  <radialGradient r="9.668112" fy="85.224167" fx="-9428.2139" cy="85.224167" cx="-9428.2139" gradientTransform="matrix(-0.6971848607063293,-0.0003044269687961787,0.0002596002595964819,-0.5945231318473816,-6270.3291015625,572.1513671875)" gradientUnits="userSpaceOnUse" id="radialGradient14737" xlink:href="#linearGradient8554"/>
  <radialGradient r="9.668112" fy="85.224167" fx="-9428.2139" cy="85.224167" cx="-9428.2139" gradientTransform="matrix(-1.2798763513565063,-0.03401648998260498,0.03166159987449646,-1.1912707090377808,-11766.7548828125,305.1650390625)" gradientUnits="userSpaceOnUse" id="radialGradient14735" xlink:href="#linearGradient8554"/>
  <radialGradient r="9.668112" fy="85.224167" fx="-9428.2139" cy="85.224167" cx="-9428.2139" gradientTransform="matrix(-2.7600486278533936,-0.00023590134514961392,0.00017422481323592365,-2.039240837097168,-25719.44140625,695.9227905273438)" gradientUnits="userSpaceOnUse" id="radialGradient14733" xlink:href="#linearGradient8554"/>
  <radialGradient r="9.668112" fy="85.224167" fx="-9428.2139" cy="85.224167" cx="-9428.2139" gradientTransform="matrix(-0.6971848607063293,-0.0003044269687961787,0.0002596002595964819,-0.5945231318473816,-6195.1640625,557.1172485351562)" gradientUnits="userSpaceOnUse" id="radialGradient14731" xlink:href="#linearGradient8554"/>
  <radialGradient r="9.668112" fy="85.224167" fx="-9428.2139" cy="85.224167" cx="-9428.2139" gradientTransform="matrix(-1.2798763513565063,-0.03401648998260498,0.03166159987449646,-1.1912707090377808,-11691.5791015625,290.12994384765625)" gradientUnits="userSpaceOnUse" id="radialGradient14729" xlink:href="#linearGradient8554"/>
  <radialGradient r="9.668112" fy="85.224167" fx="-9428.2139" cy="85.224167" cx="-9428.2139" gradientTransform="matrix(-2.7600486278533936,-0.00023590134514961392,0.00017422481323592365,-2.039240837097168,-25644.28515625,680.8876953125)" gradientUnits="userSpaceOnUse" id="radialGradient14727" xlink:href="#linearGradient8554"/>
  <radialGradient r="9.668112" fy="85.224167" fx="-9428.2139" cy="85.224167" cx="-9428.2139" gradientTransform="matrix(-0.6971848607063293,-0.0003044269687961787,0.0002596002595964819,-0.5945231318473816,-6119.98828125,549.5996704101562)" gradientUnits="userSpaceOnUse" id="radialGradient14725" xlink:href="#linearGradient8554"/>
  <radialGradient r="9.668112" fy="85.224167" fx="-9428.2139" cy="85.224167" cx="-9428.2139" gradientTransform="matrix(-1.2798763513565063,-0.03401648998260498,0.03166159987449646,-1.1912707090377808,-11616.3935546875,282.61236572265625)" gradientUnits="userSpaceOnUse" id="radialGradient14723" xlink:href="#linearGradient8554"/>
  <radialGradient r="9.668112" fy="85.224167" fx="-9428.2139" cy="85.224167" cx="-9428.2139" gradientTransform="matrix(-2.7600486278533936,-0.00023590134514961392,0.00017422481323592365,-2.039240837097168,-25569.109375,673.37109375)" gradientUnits="userSpaceOnUse" id="radialGradient14721" xlink:href="#linearGradient8554"/>
  <radialGradient r="9.668112" fy="85.224167" fx="-9428.2139" cy="85.224167" cx="-9428.2139" gradientTransform="matrix(-0.6971848607063293,-0.0003044269687961787,0.0002596002595964819,-0.5945231318473816,-6037.29296875,549.5996704101562)" gradientUnits="userSpaceOnUse" id="radialGradient14719" xlink:href="#linearGradient8554"/>
  <radialGradient r="9.668112" fy="85.224167" fx="-9428.2139" cy="85.224167" cx="-9428.2139" gradientTransform="matrix(-1.2798763513565063,-0.03401648998260498,0.03166159987449646,-1.1912707090377808,-11533.71875,282.61236572265625)" gradientUnits="userSpaceOnUse" id="radialGradient14717" xlink:href="#linearGradient8554"/>
  <radialGradient r="9.668112" fy="85.224167" fx="-9428.2139" cy="85.224167" cx="-9428.2139" gradientTransform="matrix(-2.7600486278533936,-0.00023590134514961392,0.00017422481323592365,-2.039240837097168,-25486.4140625,673.37109375)" gradientUnits="userSpaceOnUse" id="radialGradient14715" xlink:href="#linearGradient8554"/>
  <radialGradient r="9.668112" fy="85.224167" fx="-9428.2139" cy="85.224167" cx="-9428.2139" gradientTransform="matrix(-0.6971848607063293,-0.0003044269687961787,0.0002596002595964819,-0.5945231318473816,-5954.60791015625,549.5996704101562)" gradientUnits="userSpaceOnUse" id="radialGradient14713" xlink:href="#linearGradient8554"/>
  <radialGradient r="9.668112" fy="85.224167" fx="-9428.2139" cy="85.224167" cx="-9428.2139" gradientTransform="matrix(-1.2798763513565063,-0.03401648998260498,0.03166159987449646,-1.1912707090377808,-11451.0234375,282.61236572265625)" gradientUnits="userSpaceOnUse" id="radialGradient14711" xlink:href="#linearGradient8554"/>
  <radialGradient r="9.668112" fy="85.224167" fx="-9428.2139" cy="85.224167" cx="-9428.2139" gradientTransform="matrix(-2.7600486278533936,-0.00023590134514961392,0.00017422481323592365,-2.039240837097168,-25403.71875,673.37109375)" gradientUnits="userSpaceOnUse" id="radialGradient14709" xlink:href="#linearGradient8554"/>
  <radialGradient r="9.668112" fy="85.224167" fx="-9428.2139" cy="85.224167" cx="-9428.2139" gradientTransform="matrix(-0.6971848607063293,-0.0003044269687961787,0.0002596002595964819,-0.5945231318473816,-5879.443359375,557.1172485351562)" gradientUnits="userSpaceOnUse" id="radialGradient14707" xlink:href="#linearGradient8554"/>
  <radialGradient r="9.668112" fy="85.224167" fx="-9428.2139" cy="85.224167" cx="-9428.2139" gradientTransform="matrix(-1.2798763513565063,-0.03401648998260498,0.03166159987449646,-1.1912707090377808,-11375.8486328125,290.12994384765625)" gradientUnits="userSpaceOnUse" id="radialGradient14705" xlink:href="#linearGradient8554"/>
  <radialGradient r="9.668112" fy="85.224167" fx="-9428.2139" cy="85.224167" cx="-9428.2139" gradientTransform="matrix(-2.7600486278533936,-0.00023590134514961392,0.00017422481323592365,-2.039240837097168,-25328.5625,680.8876953125)" gradientUnits="userSpaceOnUse" id="radialGradient14703" xlink:href="#linearGradient8554"/>
  <radialGradient r="9.668112" fy="85.224167" fx="-9428.2139" cy="85.224167" cx="-9428.2139" gradientTransform="matrix(-0.6971848607063293,-0.00028534242301248014,0.0002596002595964819,-0.5572524070739746,-6536.89306640625,460.7675476074219)" gradientUnits="userSpaceOnUse" id="radialGradient14701" xlink:href="#linearGradient8554"/>
  <radialGradient r="9.668112" fy="85.224167" fx="-9428.2139" cy="85.224167" cx="-9428.2139" gradientTransform="matrix(-1.2798763513565063,-0.031883999705314636,0.03166159987449646,-1.1165896654129028,-12033.30859375,210.51919555664062)" gradientUnits="userSpaceOnUse" id="radialGradient14699" xlink:href="#linearGradient8554"/>
  <radialGradient r="9.668112" fy="85.224167" fx="-9428.2139" cy="85.224167" cx="-9428.2139" gradientTransform="matrix(-2.7600486278533936,-0.00022111267026048154,0.00017422481323592365,-1.911400556564331,-25986.00390625,576.7801513671875)" gradientUnits="userSpaceOnUse" id="radialGradient14697" xlink:href="#linearGradient8554"/>
  <radialGradient r="9.668112" fy="85.224167" fx="-9428.2139" cy="85.224167" cx="-9428.2139" gradientTransform="matrix(-0.7152125239372253,-0.00029272070969454944,0.0002663129416760057,-0.5716615915298462,-6684.0849609375,401.2588806152344)" gradientUnits="userSpaceOnUse" id="radialGradient14695" xlink:href="#linearGradient8554"/>
  <radialGradient r="9.668112" fy="85.224167" fx="-9428.2139" cy="85.224167" cx="-9428.2139" gradientTransform="matrix(-1.3129708766937256,-0.032708410173654556,0.03248025104403496,-1.1454622745513916,-12322.6376953125,144.5391082763672)" gradientUnits="userSpaceOnUse" id="radialGradient14693" xlink:href="#linearGradient8554"/>
  <radialGradient r="9.668112" fy="85.224167" fx="-9428.2139" cy="85.224167" cx="-9428.2139" gradientTransform="matrix(-2.8314170837402344,-0.00022683014685753733,0.00017872989701572806,-1.9608250856399536,-26636.09765625,520.2710571289062)" gradientUnits="userSpaceOnUse" id="radialGradient14691" xlink:href="#linearGradient8554"/>
  <radialGradient r="9.668112" fy="85.224167" fx="-9428.2139" cy="85.224167" cx="-9428.2139" gradientTransform="matrix(-0.6971848607063293,-0.00028534242301248014,0.0002596002595964819,-0.5572524070739746,-6445.88037109375,381.3836669921875)" gradientUnits="userSpaceOnUse" id="radialGradient14689" xlink:href="#linearGradient8554"/>
  <radialGradient r="9.668112" fy="85.224167" fx="-9428.2139" cy="85.224167" cx="-9428.2139" gradientTransform="matrix(-1.2798763513565063,-0.031883999705314636,0.03166159987449646,-1.1165896654129028,-11942.2958984375,131.1332550048828)" gradientUnits="userSpaceOnUse" id="radialGradient14687" xlink:href="#linearGradient8554"/>
  <radialGradient r="9.668112" fy="85.224167" fx="-9428.2139" cy="85.224167" cx="-9428.2139" gradientTransform="matrix(-2.7600486278533936,-0.00022111267026048154,0.00017422481323592365,-1.911400556564331,-25894.9921875,497.3952331542969)" gradientUnits="userSpaceOnUse" id="radialGradient14685" xlink:href="#linearGradient8554"/>
  <radialGradient r="9.668112" fy="85.224167" fx="-9428.2139" cy="85.224167" cx="-9428.2139" gradientTransform="matrix(-0.6971848607063293,-0.00028534242301248014,0.0002596002595964819,-0.5572524070739746,-6153.81640625,356.611328125)" gradientUnits="userSpaceOnUse" id="radialGradient14683" xlink:href="#linearGradient8554"/>
  <radialGradient r="9.668112" fy="85.224167" fx="-9428.2139" cy="85.224167" cx="-9428.2139" gradientTransform="matrix(-1.2798763513565063,-0.031883999705314636,0.03166159987449646,-1.1165896654129028,-11650.2314453125,106.36198425292969)" gradientUnits="userSpaceOnUse" id="radialGradient14681" xlink:href="#linearGradient8554"/>
  <radialGradient r="9.668112" fy="85.224167" fx="-9428.2139" cy="85.224167" cx="-9428.2139" gradientTransform="matrix(-2.7600486278533936,-0.00022111267026048154,0.00017422481323592365,-1.911400556564331,-25602.9375,472.6228942871094)" gradientUnits="userSpaceOnUse" id="radialGradient14679" xlink:href="#linearGradient8554"/>
  <radialGradient r="9.668112" fy="85.224167" fx="-9428.2139" cy="85.224167" cx="-9428.2139" gradientTransform="matrix(-0.6971848607063293,-0.00028534242301248014,0.0002596002595964819,-0.5572524070739746,-6228.99169921875,363.6576232910156)" gradientUnits="userSpaceOnUse" id="radialGradient14677" xlink:href="#linearGradient8554"/>
  <radialGradient r="9.668112" fy="85.224167" fx="-9428.2139" cy="85.224167" cx="-9428.2139" gradientTransform="matrix(-1.2798763513565063,-0.031883999705314636,0.03166159987449646,-1.1165896654129028,-11725.4072265625,113.40824890136719)" gradientUnits="userSpaceOnUse" id="radialGradient14675" xlink:href="#linearGradient8554"/>
  <radialGradient r="9.668112" fy="85.224167" fx="-9428.2139" cy="85.224167" cx="-9428.2139" gradientTransform="matrix(-2.7600486278533936,-0.00022111267026048154,0.00017422481323592365,-1.911400556564331,-25678.1015625,479.669189453125)" gradientUnits="userSpaceOnUse" id="radialGradient14673" xlink:href="#linearGradient8554"/>
  <radialGradient r="9.668112" fy="85.224167" fx="-9428.2139" cy="85.224167" cx="-9428.2139" gradientTransform="matrix(-0.6621533036231995,-0.0002710047992877662,0.0002465560974087566,-0.5292519927024841,-5972.982421875,361.94964599609375)" gradientUnits="userSpaceOnUse" id="radialGradient14671" xlink:href="#linearGradient8554"/>
  <radialGradient r="9.668112" fy="85.224167" fx="-9428.2139" cy="85.224167" cx="-9428.2139" gradientTransform="matrix(-1.2155661582946777,-0.03028194047510624,0.030070550739765167,-1.060484528541565,-11193.232421875,124.27444458007812)" gradientUnits="userSpaceOnUse" id="radialGradient14669" xlink:href="#linearGradient8554"/>
  <radialGradient r="9.668112" fy="85.224167" fx="-9428.2139" cy="85.224167" cx="-9428.2139" gradientTransform="matrix(-2.6213643550872803,-0.00021000239939894527,0.00016547052655369043,-1.8153584003448486,-24444.84375,472.134033203125)" gradientUnits="userSpaceOnUse" id="radialGradient14667" xlink:href="#linearGradient8554"/>
  <radialGradient r="9.668112" fy="85.224167" fx="-9428.2139" cy="85.224167" cx="-9428.2139" gradientTransform="matrix(-0.6971848607063293,-0.00028534242301248014,0.0002596002595964819,-0.5572524070739746,-6376.5048828125,368.82403564453125)" gradientUnits="userSpaceOnUse" id="radialGradient14665" xlink:href="#linearGradient8554"/>
  <radialGradient r="9.668112" fy="85.224167" fx="-9428.2139" cy="85.224167" cx="-9428.2139" gradientTransform="matrix(-1.2798763513565063,-0.031883999705314636,0.03166159987449646,-1.1165896654129028,-11872.931640625,118.5745849609375)" gradientUnits="userSpaceOnUse" id="radialGradient14663" xlink:href="#linearGradient8554"/>
  <radialGradient r="9.668112" fy="85.224167" fx="-9428.2139" cy="85.224167" cx="-9428.2139" gradientTransform="matrix(-2.7600486278533936,-0.00022111267026048154,0.00017422481323592365,-1.911400556564331,-25825.625,484.8365478515625)" gradientUnits="userSpaceOnUse" id="radialGradient14661" xlink:href="#linearGradient8554"/>
  <radialGradient r="9.668112" fy="85.224167" fx="-9428.2139" cy="85.224167" cx="-9428.2139" gradientTransform="matrix(-0.6971848607063293,-0.00028534242301248014,0.0002596002595964819,-0.5572524070739746,-6086.16015625,328.42828369140625)" gradientUnits="userSpaceOnUse" id="radialGradient14659" xlink:href="#linearGradient8554"/>
  <radialGradient r="9.668112" fy="85.224167" fx="-9428.2139" cy="85.224167" cx="-9428.2139" gradientTransform="matrix(-1.2798763513565063,-0.031883999705314636,0.03166159987449646,-1.1165896654129028,-11582.5751953125,78.17782592773438)" gradientUnits="userSpaceOnUse" id="radialGradient14657" xlink:href="#linearGradient8554"/>
  <radialGradient r="9.668112" fy="85.224167" fx="-9428.2139" cy="85.224167" cx="-9428.2139" gradientTransform="matrix(-2.7600486278533936,-0.00022111267026048154,0.00017422481323592365,-1.911400556564331,-25535.28125,444.4398193359375)" gradientUnits="userSpaceOnUse" id="radialGradient14655" xlink:href="#linearGradient8554"/>
  <radialGradient r="9.668112" fy="85.224167" fx="-9428.2139" cy="85.224167" cx="-9428.2139" gradientTransform="matrix(-0.6657361388206482,-0.00027247113757766783,0.0002478901587892324,-0.5321158170700073,-5731.16357421875,293.670166015625)" gradientUnits="userSpaceOnUse" id="radialGradient14653" xlink:href="#linearGradient8554"/>
  <radialGradient r="9.668112" fy="85.224167" fx="-9428.2139" cy="85.224167" cx="-9428.2139" gradientTransform="matrix(-1.2221434116363525,-0.030445819720625877,0.030233299359679222,-1.0662225484848022,-10979.638671875,54.70954895019531)" gradientUnits="userSpaceOnUse" id="radialGradient14651" xlink:href="#linearGradient8554"/>
  <radialGradient r="9.668112" fy="85.224167" fx="-9428.2139" cy="85.224167" cx="-9428.2139" gradientTransform="matrix(-2.6355481147766113,-0.0002111386856995523,0.00016636586224194616,-1.8251808881759644,-24302.96484375,404.44903564453125)" gradientUnits="userSpaceOnUse" id="radialGradient14649" xlink:href="#linearGradient8554"/>
  <radialGradient r="9.668112" fy="85.224167" fx="-9428.2139" cy="85.224167" cx="-9428.2139" gradientTransform="matrix(-0.6528645157814026,-0.0002672031114343554,0.00024309738364536315,-0.5218276977539062,-5587.927734375,237.49664306640625)" gradientUnits="userSpaceOnUse" id="radialGradient14647" xlink:href="#linearGradient8554"/>
  <radialGradient r="9.668112" fy="85.224167" fx="-9428.2139" cy="85.224167" cx="-9428.2139" gradientTransform="matrix(-1.1985142230987549,-0.02985719032585621,0.029648790135979652,-1.0456078052520752,-10734.9287109375,3.155517578125)" gradientUnits="userSpaceOnUse" id="radialGradient14645" xlink:href="#linearGradient8554"/>
  <radialGradient r="9.668112" fy="85.224167" fx="-9428.2139" cy="85.224167" cx="-9428.2139" gradientTransform="matrix(-2.5845913887023926,-0.000207056466024369,0.00016314930689986795,-1.7898924350738525,-23800.6484375,346.132568359375)" gradientUnits="userSpaceOnUse" id="radialGradient14643" xlink:href="#linearGradient8554"/>
  <radialGradient r="9.668112" fy="85.224167" fx="-9428.2139" cy="85.224167" cx="-9428.2139" gradientTransform="matrix(-0.6528640985488892,-0.00026720293681137264,0.00024309723812621087,-0.5218273997306824,-5580.39794921875,181.12840270996094)" gradientUnits="userSpaceOnUse" id="radialGradient14641" xlink:href="#linearGradient8554"/>
  <radialGradient r="9.668112" fy="85.224167" fx="-9428.2139" cy="85.224167" cx="-9428.2139" gradientTransform="matrix(-1.198513388633728,-0.029857110232114792,0.029648790135979652,-1.0456072092056274,-10727.3994140625,-53.21270751953125)" gradientUnits="userSpaceOnUse" id="radialGradient14639" xlink:href="#linearGradient8554"/>
  <radialGradient r="9.668112" fy="85.224167" fx="-9428.2139" cy="85.224167" cx="-9428.2139" gradientTransform="matrix(-2.584589958190918,-0.00020705633505713195,0.00016314919048454612,-1.789891242980957,-23793.12109375,289.7653503417969)" gradientUnits="userSpaceOnUse" id="radialGradient14637" xlink:href="#linearGradient8554"/>
  <radialGradient r="9.668112" fy="85.224167" fx="-9428.2139" cy="85.224167" cx="-9428.2139" gradientTransform="matrix(-0.6351365447044373,-0.0002599473809823394,0.00023649624199606478,-0.5076577663421631,-5414.189453125,117.98008728027344)" gradientUnits="userSpaceOnUse" id="radialGradient14635" xlink:href="#linearGradient8554"/>
  <radialGradient r="9.668112" fy="85.224167" fx="-9428.2139" cy="85.224167" cx="-9428.2139" gradientTransform="matrix(-1.1659693717956543,-0.02904636040329933,0.028843680396676064,-1.0172151327133179,-10421.435546875,-109.99624633789062)" gradientUnits="userSpaceOnUse" id="radialGradient14633" xlink:href="#linearGradient8554"/>
  <radialGradient r="9.668112" fy="85.224167" fx="-9428.2139" cy="85.224167" cx="-9428.2139" gradientTransform="matrix(-2.514408588409424,-0.000201433984329924,0.00015871907817199826,-1.7412889003753662,-23132.35546875,223.668212890625)" gradientUnits="userSpaceOnUse" id="radialGradient14631" xlink:href="#linearGradient8554"/>
  <radialGradient r="9.668112" fy="85.224167" fx="-9428.2139" cy="85.224167" cx="-9428.2139" gradientTransform="matrix(-0.6351365447044373,-0.0002599473809823394,0.00023649624199606478,-0.5076577663421631,-5429.20751953125,61.613922119140625)" gradientUnits="userSpaceOnUse" id="radialGradient14629" xlink:href="#linearGradient8554"/>
  <radialGradient r="9.668112" fy="85.224167" fx="-9428.2139" cy="85.224167" cx="-9428.2139" gradientTransform="matrix(-1.1659693717956543,-0.02904636040329933,0.028843680396676064,-1.0172151327133179,-10436.46484375,-166.36453247070312)" gradientUnits="userSpaceOnUse" id="radialGradient14627" xlink:href="#linearGradient8554"/>
  <radialGradient r="9.668112" fy="85.224167" fx="-9428.2139" cy="85.224167" cx="-9428.2139" gradientTransform="matrix(-2.514408588409424,-0.000201433984329924,0.00015871907817199826,-1.7412889003753662,-23147.39453125,167.301025390625)" gradientUnits="userSpaceOnUse" id="radialGradient14625" xlink:href="#linearGradient8554"/>
 </defs>
 <metadata id="metadata30981">image/svg+xml</metadata>
 <g>
  <title>Layer 1</title>
  <g id="layer1">
   <rect fill="#d9ccc4" id="rect13809" width="65.913696" height="61.781551" x="526.11438" y="0.005279" ry="30.890776"/>
   <path fill="#b58f68" id="path13811" d="m559.059814,0.006805c20.95343,-0.113617 34.294006,18.009857 32.957886,30.621277c-1.325745,12.607269 -14.956421,20.786713 -31.445679,20.786713c-16.468628,0 -33.589844,-8.154572 -34.615234,-20.786713c-1.035706,-12.787506 12.522461,-31.031433 33.103027,-30.621277z"/>
   <path fill="url(#radialGradient14625)" d="m559.059814,0.006805c20.95343,-0.113617 34.294006,18.009857 32.957886,30.621277c-1.325745,12.607269 -14.956421,20.786713 -31.445679,20.786713c-16.468628,0 -33.589844,-8.154572 -34.615234,-20.786713c-1.035706,-12.787506 12.522461,-31.031433 33.103027,-30.621277z" id="path13813"/>
   <path fill="url(#radialGradient14627)" id="path13815" d="m559.059814,0.006805c20.95343,-0.113617 34.294006,18.009857 32.957886,30.621277c-1.325745,12.607269 -14.956421,20.786713 -31.445679,20.786713c-16.468628,0 -33.589844,-8.154572 -34.615234,-20.786713c-1.035706,-12.787506 12.522461,-31.031433 33.103027,-30.621277z"/>
   <path fill="url(#radialGradient14629)" d="m559.059814,0.006805c20.95343,-0.113617 34.294006,18.009857 32.957886,30.621277c-1.325745,12.607269 -14.956421,20.786713 -31.445679,20.786713c-16.468628,0 -33.589844,-8.154572 -34.615234,-20.786713c-1.035706,-12.787506 12.522461,-31.031433 33.103027,-30.621277z" id="path13817"/>
   <rect fill="#d9ccc4" ry="30.890776" y="56.375399" x="541.14517" height="61.781551" width="65.913696" id="rect13819"/>
   <path fill="#b58f68" d="m574.09906,56.375046c20.953491,-0.113632 34.294067,18.009827 32.957947,30.621277c-1.325806,12.60733 -14.966797,20.786713 -31.445679,20.786713c-16.479004,0 -33.600159,-8.154541 -34.615234,-20.786713c-1.046143,-12.787506 12.522339,-31.032471 33.102966,-30.621277z" id="path13821"/>
   <path fill="url(#radialGradient14631)" id="path13823" d="m574.09906,56.375046c20.953491,-0.113632 34.294067,18.009827 32.957947,30.621277c-1.325806,12.60733 -14.966797,20.786713 -31.445679,20.786713c-16.479004,0 -33.600159,-8.154541 -34.615234,-20.786713c-1.046143,-12.787506 12.522339,-31.032471 33.102966,-30.621277z"/>
   <path fill="url(#radialGradient14633)" d="m574.09906,56.375046c20.953491,-0.113632 34.294067,18.009827 32.957947,30.621277c-1.325806,12.60733 -14.966797,20.786713 -31.445679,20.786713c-16.479004,0 -33.600159,-8.154541 -34.615234,-20.786713c-1.046143,-12.787506 12.522339,-31.032471 33.102966,-30.621277z" id="path13825"/>
   <path fill="url(#radialGradient14635)" id="path13827" d="m574.09906,56.375046c20.953491,-0.113632 34.294067,18.009827 32.957947,30.621277c-1.325806,12.60733 -14.966797,20.786713 -31.445679,20.786713c-16.479004,0 -33.600159,-8.154541 -34.615234,-20.786713c-1.046143,-12.787506 12.522339,-31.032471 33.102966,-30.621277z"/>
   <rect fill="#d9ccc4" id="rect13829" width="67.753448" height="63.505974" x="541.14517" y="117.798019" ry="31.752991"/>
   <path fill="#b58f68" id="path13831" d="m575.020874,117.801941c21.543823,-0.113617 35.236572,18.512161 33.879761,31.476791c-1.356812,12.959442 -15.391357,21.36676 -32.315796,21.36676c-16.945068,0 -34.552979,-8.381439 -35.588745,-21.36676c-1.066833,-13.143814 12.864136,-31.898361 34.02478,-31.476791z"/>
   <path fill="url(#radialGradient14637)" d="m575.020874,117.801941c21.543823,-0.113617 35.236572,18.512161 33.879761,31.476791c-1.356812,12.959442 -15.391357,21.36676 -32.315796,21.36676c-16.945068,0 -34.552979,-8.381439 -35.588745,-21.36676c-1.066833,-13.143814 12.864136,-31.898361 34.02478,-31.476791z" id="path13833"/>
   <path fill="url(#radialGradient14639)" id="path13835" d="m575.020874,117.801941c21.543823,-0.113617 35.236572,18.512161 33.879761,31.476791c-1.356812,12.959442 -15.391357,21.36676 -32.315796,21.36676c-16.945068,0 -34.552979,-8.381439 -35.588745,-21.36676c-1.066833,-13.143814 12.864136,-31.898361 34.02478,-31.476791z"/>
   <path fill="url(#radialGradient14641)" d="m575.020874,117.801941c21.543823,-0.113617 35.236572,18.512161 33.879761,31.476791c-1.356812,12.959442 -15.391357,21.36676 -32.315796,21.36676c-16.945068,0 -34.552979,-8.381439 -35.588745,-21.36676c-1.066833,-13.143814 12.864136,-31.898361 34.02478,-31.476791z" id="path13837"/>
   <rect fill="#d9ccc4" ry="31.753014" y="174.168139" x="533.63989" height="63.506027" width="67.753479" id="rect13839"/>
   <path fill="#b58f68" d="m567.501221,174.170166c21.543884,-0.113617 35.247009,18.512207 33.890137,31.475769c-1.367188,12.959442 -15.391479,21.366745 -32.326172,21.366745c-16.944946,0 -34.552979,-8.381378 -35.588745,-21.366745c-1.066772,-13.143799 12.864197,-31.898361 34.02478,-31.475769z" id="path13841"/>
   <path fill="url(#radialGradient14643)" id="path13843" d="m567.501221,174.170166c21.543884,-0.113617 35.247009,18.512207 33.890137,31.475769c-1.367188,12.959442 -15.391479,21.366745 -32.326172,21.366745c-16.944946,0 -34.552979,-8.381378 -35.588745,-21.366745c-1.066772,-13.143799 12.864197,-31.898361 34.02478,-31.475769z"/>
   <path fill="url(#radialGradient14645)" d="m567.501221,174.170166c21.543884,-0.113617 35.247009,18.512207 33.890137,31.475769c-1.367188,12.959442 -15.391479,21.366745 -32.326172,21.366745c-16.944946,0 -34.552979,-8.381378 -35.588745,-21.366745c-1.066772,-13.143799 12.864197,-31.898361 34.02478,-31.475769z" id="path13845"/>
   <path fill="url(#radialGradient14647)" id="path13847" d="m567.501221,174.170166c21.543884,-0.113617 35.247009,18.512207 33.890137,31.475769c-1.367188,12.959442 -15.391479,21.366745 -32.326172,21.366745c-16.944946,0 -34.552979,-8.381378 -35.588745,-21.366745c-1.066772,-13.143799 12.864197,-31.898361 34.02478,-31.475769z"/>
   <rect fill="#d9ccc4" id="rect13849" width="69.089272" height="64.758072" x="511.06348" y="229.091683" ry="32.379036"/>
   <path fill="#b58f68" id="path13851" d="m545.625977,229.095612c21.968506,-0.124054 35.930542,18.87674 34.542664,32.097198c-1.387939,13.214233 -15.681458,21.788269 -32.957947,21.788269c-17.27655,0 -35.226257,-8.547089 -36.293091,-21.788269c-1.066833,-13.403809 13.133423,-32.527054 34.708374,-32.097198z"/>
   <path fill="url(#radialGradient14649)" d="m545.625977,229.095612c21.968506,-0.124054 35.930542,18.87674 34.542664,32.097198c-1.387939,13.214233 -15.681458,21.788269 -32.957947,21.788269c-17.27655,0 -35.226257,-8.547089 -36.293091,-21.788269c-1.066833,-13.403809 13.133423,-32.527054 34.708374,-32.097198z" id="path13853"/>
   <path fill="url(#radialGradient14651)" id="path13855" d="m545.625977,229.095612c21.968506,-0.124054 35.930542,18.87674 34.542664,32.097198c-1.387939,13.214233 -15.681458,21.788269 -32.957947,21.788269c-17.27655,0 -35.226257,-8.547089 -36.293091,-21.788269c-1.066833,-13.403809 13.133423,-32.527054 34.708374,-32.097198z"/>
   <path fill="url(#radialGradient14653)" d="m545.625977,229.095612c21.968506,-0.124054 35.930542,18.87674 34.542664,32.097198c-1.387939,13.214233 -15.681458,21.788269 -32.957947,21.788269c-17.27655,0 -35.226257,-8.547089 -36.293091,-21.788269c-1.066833,-13.403809 13.133423,-32.527054 34.708374,-32.097198z" id="path13857"/>
   <rect fill="#d9ccc4" ry="33.908592" y="260.801842" x="450.98114" height="67.817184" width="72.352989" id="rect13859"/>
   <path fill="#b58f68" d="m487.126099,260.803345c23.004333,-0.124054 37.639648,19.768585 36.189575,33.612549c-1.470825,13.838837 -16.437561,22.816833 -34.521973,22.816833c-18.094727,0 -36.89386,-8.950012 -38.002075,-22.816833c-1.139343,-14.036621 13.734192,-34.064148 36.334473,-33.612549z" id="path13861"/>
   <path fill="url(#radialGradient14655)" id="path13863" d="m487.126099,260.803345c23.004333,-0.124054 37.639648,19.768585 36.189575,33.612549c-1.470825,13.838837 -16.437561,22.816833 -34.521973,22.816833c-18.094727,0 -36.89386,-8.950012 -38.002075,-22.816833c-1.139343,-14.036621 13.734192,-34.064148 36.334473,-33.612549z"/>
   <path fill="url(#radialGradient14657)" d="m487.126099,260.803345c23.004333,-0.124054 37.639648,19.768585 36.189575,33.612549c-1.470825,13.838837 -16.437561,22.816833 -34.521973,22.816833c-18.094727,0 -36.89386,-8.950012 -38.002075,-22.816833c-1.139343,-14.036621 13.734192,-34.064148 36.334473,-33.612549z" id="path13865"/>
   <path fill="url(#radialGradient14659)" id="path13867" d="m487.126099,260.803345c23.004333,-0.124054 37.639648,19.768585 36.189575,33.612549c-1.470825,13.838837 -16.437561,22.816833 -34.521973,22.816833c-18.094727,0 -36.89386,-8.950012 -38.002075,-22.816833c-1.139343,-14.036621 13.734192,-34.064148 36.334473,-33.612549z"/>
   <rect fill="#847474" id="rect13869" width="73.681847" height="69.254311" x="157.77161" y="304.305894" ry="34.627155"/>
   <rect fill="#d9ccc4" ry="33.908592" y="301.200501" x="160.62396" height="67.817184" width="72.352989" id="rect13871"/>
   <path fill="#b58f68" d="m196.770996,301.200134c23.004211,-0.124054 37.629211,19.767517 36.189514,33.612579c-1.460449,13.837769 -16.427185,22.816772 -34.511597,22.816772c-18.105103,0 -36.89386,-8.95105 -38.012451,-22.816772c-1.128967,-14.037689 13.744568,-34.064148 36.334534,-33.612579z" id="path13873"/>
   <path fill="url(#radialGradient14661)" id="path13875" d="m196.770996,301.200134c23.004211,-0.124054 37.629211,19.767517 36.189514,33.612579c-1.460449,13.837769 -16.427185,22.816772 -34.511597,22.816772c-18.105103,0 -36.89386,-8.95105 -38.012451,-22.816772c-1.128967,-14.037689 13.744568,-34.064148 36.334534,-33.612579z"/>
   <path fill="url(#radialGradient14663)" d="m196.770996,301.200134c23.004211,-0.124054 37.629211,19.767517 36.189514,33.612579c-1.460449,13.837769 -16.427185,22.816772 -34.511597,22.816772c-18.105103,0 -36.89386,-8.95105 -38.012451,-22.816772c-1.128967,-14.037689 13.744568,-34.064148 36.334534,-33.612579z" id="path13877"/>
   <path fill="url(#radialGradient14665)" id="path13879" d="m196.770996,301.200134c23.004211,-0.124054 37.629211,19.767517 36.189514,33.612579c-1.460449,13.837769 -16.427185,22.816772 -34.511597,22.816772c-18.105103,0 -36.89386,-8.95105 -38.012451,-22.816772c-1.128967,-14.037689 13.744568,-34.064148 36.334534,-33.612579z"/>
   <rect fill="#847474" ry="32.259876" y="300.679614" x="233.43085" height="64.519753" width="69.979561" id="rect13881"/>
   <rect fill="#d9ccc4" id="rect13883" width="68.717453" height="64.409554" x="235.67627" y="297.721133" ry="32.204777"/>
   <path fill="#b58f68" id="path13885" d="m270.009705,297.723114c21.844238,-0.124023 35.744141,18.776306 34.356201,31.924225c-1.377563,13.142822 -15.588196,21.671234 -32.771484,21.671234c-17.183289,0 -35.039856,-8.501465 -36.106628,-21.671234c-1.077271,-13.331268 13.060913,-32.353058 34.521912,-31.924225z"/>
   <path fill="url(#radialGradient14667)" d="m270.009705,297.723114c21.844238,-0.124023 35.744141,18.776306 34.356201,31.924225c-1.377563,13.142822 -15.588196,21.671234 -32.771484,21.671234c-17.183289,0 -35.039856,-8.501465 -36.106628,-21.671234c-1.077271,-13.331268 13.060913,-32.353058 34.521912,-31.924225z" id="path13887"/>
   <path fill="url(#radialGradient14669)" id="path13889" d="m270.009705,297.723114c21.844238,-0.124023 35.744141,18.776306 34.356201,31.924225c-1.377563,13.142822 -15.588196,21.671234 -32.771484,21.671234c-17.183289,0 -35.039856,-8.501465 -36.106628,-21.671234c-1.077271,-13.331268 13.060913,-32.353058 34.521912,-31.924225z"/>
   <path fill="url(#radialGradient14671)" d="m270.009705,297.723114c21.844238,-0.124023 35.744141,18.776306 34.356201,31.924225c-1.377563,13.142822 -15.588196,21.671234 -32.771484,21.671234c-17.183289,0 -35.039856,-8.501465 -36.106628,-21.671234c-1.077271,-13.331268 13.060913,-32.353058 34.521912,-31.924225z" id="path13891"/>
   <rect fill="#847474" id="rect13893" width="73.681847" height="67.933197" x="305.32727" y="299.142246" ry="33.966599"/>
   <rect fill="#d9ccc4" ry="33.908592" y="296.026886" x="308.13922" height="67.817184" width="72.352989" id="rect13895"/>
   <path fill="#b58f68" d="m344.304932,296.032745c22.993896,-0.124054 37.629211,19.768494 36.168762,33.612518c-1.450012,13.839844 -16.416809,22.817871 -34.511597,22.817871c-18.084351,0 -36.883423,-8.950043 -38.002075,-22.817871c-1.139343,-14.036621 13.744568,-34.064117 36.34491,-33.612518z" id="path13897"/>
   <path fill="url(#radialGradient14673)" id="path13899" d="m344.304932,296.032745c22.993896,-0.124054 37.629211,19.768494 36.168762,33.612518c-1.450012,13.839844 -16.416809,22.817871 -34.511597,22.817871c-18.084351,0 -36.883423,-8.950043 -38.002075,-22.817871c-1.139343,-14.036621 13.744568,-34.064117 36.34491,-33.612518z"/>
   <path fill="url(#radialGradient14675)" d="m344.304932,296.032745c22.993896,-0.124054 37.629211,19.768494 36.168762,33.612518c-1.450012,13.839844 -16.416809,22.817871 -34.511597,22.817871c-18.084351,0 -36.883423,-8.950043 -38.002075,-22.817871c-1.139343,-14.036621 13.744568,-34.064117 36.34491,-33.612518z" id="path13901"/>
   <path fill="url(#radialGradient14677)" id="path13903" d="m344.304932,296.032745c22.993896,-0.124054 37.629211,19.768494 36.168762,33.612518c-1.450012,13.839844 -16.416809,22.817871 -34.511597,22.817871c-18.084351,0 -36.883423,-8.950043 -38.002075,-22.817871c-1.139343,-14.036621 13.744568,-34.064117 36.34491,-33.612518z"/>
   <rect fill="#847474" ry="33.085857" y="292.097237" x="381.41119" height="66.171715" width="73.681847" id="rect13905"/>
   <rect fill="#d9ccc4" id="rect13907" width="72.352989" height="67.817184" x="383.31274" y="288.986903" ry="33.908592"/>
   <path fill="#b58f68" id="path13909" d="m419.470154,288.986481c23.004211,-0.124084 37.639587,19.768524 36.189514,33.613556c-1.460449,13.838776 -16.437561,22.816772 -34.521973,22.816772c-18.094727,0 -36.893799,-8.95105 -38.002075,-22.816772c-1.129028,-14.036652 13.744568,-34.064148 36.334534,-33.613556z"/>
   <path fill="url(#radialGradient14679)" d="m419.470154,288.986481c23.004211,-0.124084 37.639587,19.768524 36.189514,33.613556c-1.460449,13.838776 -16.437561,22.816772 -34.521973,22.816772c-18.094727,0 -36.893799,-8.95105 -38.002075,-22.816772c-1.129028,-14.036652 13.744568,-34.064148 36.334534,-33.613556z" id="path13911"/>
   <path fill="url(#radialGradient14681)" id="path13913" d="m419.470154,288.986481c23.004211,-0.124084 37.639587,19.768524 36.189514,33.613556c-1.460449,13.838776 -16.437561,22.816772 -34.521973,22.816772c-18.094727,0 -36.893799,-8.95105 -38.002075,-22.816772c-1.129028,-14.036652 13.744568,-34.064148 36.334534,-33.613556z"/>
   <path fill="url(#radialGradient14683)" d="m419.470154,288.986481c23.004211,-0.124084 37.639587,19.768524 36.189514,33.613556c-1.460449,13.838776 -16.437561,22.816772 -34.521973,22.816772c-18.094727,0 -36.893799,-8.95105 -38.002075,-22.816772c-1.129028,-14.036652 13.744568,-34.064148 36.334534,-33.613556z" id="path13915"/>
   <rect fill="#847474" ry="36.549919" y="313.586138" x="89.35474" height="73.099838" width="73.681847" id="rect13917"/>
   <rect fill="#d9ccc4" id="rect13919" width="72.352989" height="67.817184" x="91.23602" y="313.758176" ry="33.908592"/>
   <path fill="#b58f68" id="path13921" d="m127.416382,313.758789c23.004333,-0.124054 37.629272,19.768494 36.179138,33.612518c-1.460449,13.839844 -16.427185,22.816803 -34.521912,22.816803c-18.084412,0 -36.883484,-8.950043 -38.002136,-22.816803c-1.128967,-14.036621 13.744568,-34.064117 36.34491,-33.612518z"/>
   <path fill="url(#radialGradient14685)" d="m127.416382,313.758789c23.004333,-0.124054 37.629272,19.768494 36.179138,33.612518c-1.460449,13.839844 -16.427185,22.816803 -34.521912,22.816803c-18.084412,0 -36.883484,-8.950043 -38.002136,-22.816803c-1.128967,-14.036621 13.744568,-34.064117 36.34491,-33.612518z" id="path13923"/>
   <path fill="url(#radialGradient14687)" id="path13925" d="m127.416382,313.758789c23.004333,-0.124054 37.629272,19.768494 36.179138,33.612518c-1.460449,13.839844 -16.427185,22.816803 -34.521912,22.816803c-18.084412,0 -36.883484,-8.950043 -38.002136,-22.816803c-1.128967,-14.036621 13.744568,-34.064117 36.34491,-33.612518z"/>
   <path fill="url(#radialGradient14689)" d="m127.416382,313.758789c23.004333,-0.124054 37.629272,19.768494 36.179138,33.612518c-1.460449,13.839844 -16.427185,22.816803 -34.521912,22.816803c-18.084412,0 -36.883484,-8.950043 -38.002136,-22.816803c-1.128967,-14.036621 13.744568,-34.064117 36.34491,-33.612518z" id="path13927"/>
   <rect fill="#847474" id="rect13929" width="74.141167" height="73.544106" x="22.09087" y="335.075207" ry="36.772053"/>
   <rect fill="#d9ccc4" ry="34.785381" y="331.883965" x="22.09087" height="69.57077" width="74.223885" id="rect13931"/>
   <path fill="#b58f68" d="m59.170044,331.886688c23.60498,-0.124054 38.602844,20.280212 37.121704,34.481537c-1.491577,14.197144 -16.851868,23.408173 -35.423096,23.408173c-18.5401,0 -37.825989,-9.183014 -38.965332,-23.408173c-1.170471,-14.3992 14.086365,-34.945587 37.266724,-34.481537z" id="path13933"/>
   <path fill="url(#radialGradient14691)" id="path13935" d="m59.170044,331.886688c23.60498,-0.124054 38.602844,20.280212 37.121704,34.481537c-1.491577,14.197144 -16.851868,23.408173 -35.423096,23.408173c-18.5401,0 -37.825989,-9.183014 -38.965332,-23.408173c-1.170471,-14.3992 14.086365,-34.945587 37.266724,-34.481537z"/>
   <path fill="url(#radialGradient14693)" d="m59.170044,331.886688c23.60498,-0.124054 38.602844,20.280212 37.121704,34.481537c-1.491577,14.197144 -16.851868,23.408173 -35.423096,23.408173c-18.5401,0 -37.825989,-9.183014 -38.965332,-23.408173c-1.170471,-14.3992 14.086365,-34.945587 37.266724,-34.481537z" id="path13937"/>
   <path fill="url(#radialGradient14695)" id="path13939" d="m59.170044,331.886688c23.60498,-0.124054 38.602844,20.280212 37.121704,34.481537c-1.491577,14.197144 -16.851868,23.408173 -35.423096,23.408173c-18.5401,0 -37.825989,-9.183014 -38.965332,-23.408173c-1.170471,-14.3992 14.086365,-34.945587 37.266724,-34.481537z"/>
   <rect fill="#847474" ry="38.822422" y="392.689377" x="0.24277" height="77.644844" width="73.681847" id="rect13941"/>
   <rect fill="#d9ccc4" id="rect13943" width="72.352989" height="72.352989" x="0.24277" y="389.366723" ry="36.176495"/>
   <path fill="#b58f68" id="path13945" d="m36.403992,393.143707c22.993958,-0.124054 37.629211,19.768524 36.168762,33.612579c-1.460327,13.837769 -16.427124,22.816772 -34.511536,22.816772c-18.084351,0 -36.883484,-8.950012 -38.002136,-22.816772c-1.118652,-14.036682 13.744568,-34.064178 36.34491,-33.612579z"/>
   <path fill="url(#radialGradient14697)" d="m36.403992,393.143707c22.993958,-0.124054 37.629211,19.768524 36.168762,33.612579c-1.460327,13.837769 -16.427124,22.816772 -34.511536,22.816772c-18.084351,0 -36.883484,-8.950012 -38.002136,-22.816772c-1.118652,-14.036682 13.744568,-34.064178 36.34491,-33.612579z" id="path13947"/>
   <path fill="url(#radialGradient14699)" id="path13949" d="m36.403992,393.143707c22.993958,-0.124054 37.629211,19.768524 36.168762,33.612579c-1.460327,13.837769 -16.427124,22.816772 -34.511536,22.816772c-18.084351,0 -36.883484,-8.950012 -38.002136,-22.816772c-1.118652,-14.036682 13.744568,-34.064178 36.34491,-33.612579z"/>
   <path fill="url(#radialGradient14701)" d="m36.403992,393.143707c22.993958,-0.124054 37.629211,19.768524 36.168762,33.612579c-1.460327,13.837769 -16.427124,22.816772 -34.511536,22.816772c-18.084351,0 -36.883484,-8.950012 -38.002136,-22.816772c-1.118652,-14.036682 13.744568,-34.064178 36.34491,-33.612579z" id="path13951"/>
   <rect fill="#847474" id="rect13953" width="73.681847" height="79.993965" x="657.68866" y="488.285139" ry="39.996983"/>
   <rect fill="#d9ccc4" ry="36.176495" y="484.967499" x="657.68866" height="72.352989" width="72.352989" id="rect13955"/>
   <path fill="#b58f68" d="m693.853821,484.969147c22.993835,-0.134491 37.639587,21.090179 36.179138,35.861176c-1.450012,14.763794 -16.427124,24.342529 -34.511597,24.342529c-18.105103,0 -36.893799,-9.548706 -38.01239,-24.342529c-1.128967,-14.976044 13.754944,-36.342773 36.344849,-35.861176z" id="path13957"/>
   <path fill="url(#radialGradient14703)" id="path13959" d="m693.853821,484.969147c22.993835,-0.134491 37.639587,21.090179 36.179138,35.861176c-1.450012,14.763794 -16.427124,24.342529 -34.511597,24.342529c-18.105103,0 -36.893799,-9.548706 -38.01239,-24.342529c-1.128967,-14.976044 13.754944,-36.342773 36.344849,-35.861176z"/>
   <path fill="url(#radialGradient14705)" d="m693.853821,484.969147c22.993835,-0.134491 37.639587,21.090179 36.179138,35.861176c-1.450012,14.763794 -16.427124,24.342529 -34.511597,24.342529c-18.105103,0 -36.893799,-9.548706 -38.01239,-24.342529c-1.128967,-14.976044 13.754944,-36.342773 36.344849,-35.861176z" id="path13961"/>
   <path fill="url(#radialGradient14707)" id="path13963" d="m693.853821,484.969147c22.993835,-0.134491 37.639587,21.090179 36.179138,35.861176c-1.450012,14.763794 -16.427124,24.342529 -34.511597,24.342529c-18.105103,0 -36.893799,-9.548706 -38.01239,-24.342529c-1.128967,-14.976044 13.754944,-36.342773 36.344849,-35.861176z"/>
   <rect fill="#847474" ry="39.996983" y="480.774859" x="582.51489" height="79.993965" width="73.681847" id="rect13965"/>
   <rect fill="#d9ccc4" id="rect13967" width="72.352989" height="72.352989" x="582.51489" y="477.452029" ry="36.176495"/>
   <path fill="#b58f68" id="path13969" d="m618.688599,477.451599c22.983521,-0.134491 37.629272,21.091217 36.168823,35.861206c-1.450073,14.763794 -16.416809,24.343506 -34.501282,24.343506c-18.094788,0 -36.89386,-9.549683 -38.002075,-24.343506c-1.149658,-14.975098 13.734192,-36.341736 36.334534,-35.861206z"/>
   <path fill="url(#radialGradient14709)" d="m618.688599,477.451599c22.983521,-0.134491 37.629272,21.091217 36.168823,35.861206c-1.450073,14.763794 -16.416809,24.343506 -34.501282,24.343506c-18.094788,0 -36.89386,-9.549683 -38.002075,-24.343506c-1.149658,-14.975098 13.734192,-36.341736 36.334534,-35.861206z" id="path13971"/>
   <path fill="url(#radialGradient14711)" id="path13973" d="m618.688599,477.451599c22.983521,-0.134491 37.629272,21.091217 36.168823,35.861206c-1.450073,14.763794 -16.416809,24.343506 -34.501282,24.343506c-18.094788,0 -36.89386,-9.549683 -38.002075,-24.343506c-1.149658,-14.975098 13.734192,-36.341736 36.334534,-35.861206z"/>
   <path fill="url(#radialGradient14713)" d="m618.688599,477.451599c22.983521,-0.134491 37.629272,21.091217 36.168823,35.861206c-1.450073,14.763794 -16.416809,24.343506 -34.501282,24.343506c-18.094788,0 -36.89386,-9.549683 -38.002075,-24.343506c-1.149658,-14.975098 13.734192,-36.341736 36.334534,-35.861206z" id="path13975"/>
   <rect fill="#847474" id="rect13977" width="73.681847" height="79.993965" x="499.83606" y="480.774859" ry="39.996983"/>
   <rect fill="#d9ccc4" ry="36.176495" y="477.452029" x="499.83606" height="72.352989" width="72.352989" id="rect13979"/>
   <path fill="#b58f68" d="m535.993408,477.451599c23.004211,-0.134491 37.629211,21.091217 36.179138,35.861206c-1.460449,14.763794 -16.427185,24.343506 -34.511597,24.343506c-18.105164,0 -36.883484,-9.549683 -38.012451,-24.343506c-1.129028,-14.975098 13.744568,-36.341736 36.34491,-35.861206z" id="path13981"/>
   <path fill="url(#radialGradient14715)" id="path13983" d="m535.993408,477.451599c23.004211,-0.134491 37.629211,21.091217 36.179138,35.861206c-1.460449,14.763794 -16.427185,24.343506 -34.511597,24.343506c-18.105164,0 -36.883484,-9.549683 -38.012451,-24.343506c-1.129028,-14.975098 13.744568,-36.341736 36.34491,-35.861206z"/>
   <path fill="url(#radialGradient14717)" d="m535.993408,477.451599c23.004211,-0.134491 37.629211,21.091217 36.179138,35.861206c-1.460449,14.763794 -16.427185,24.343506 -34.511597,24.343506c-18.105164,0 -36.883484,-9.549683 -38.012451,-24.343506c-1.129028,-14.975098 13.744568,-36.341736 36.34491,-35.861206z" id="path13985"/>
   <path fill="url(#radialGradient14719)" id="path13987" d="m535.993408,477.451599c23.004211,-0.134491 37.629211,21.091217 36.179138,35.861206c-1.460449,14.763794 -16.427185,24.343506 -34.511597,24.343506c-18.105164,0 -36.883484,-9.549683 -38.012451,-24.343506c-1.129028,-14.975098 13.744568,-36.341736 36.34491,-35.861206z"/>
   <rect fill="#847474" ry="39.996983" y="480.774859" x="417.13702" height="79.993965" width="73.681847" id="rect13989"/>
   <rect fill="#d9ccc4" id="rect13991" width="72.352989" height="72.352989" x="417.13702" y="477.452029" ry="36.176495"/>
   <path fill="#b58f68" id="path13993" d="m453.298157,477.451599c23.004211,-0.134491 37.639587,21.091217 36.179138,35.861206c-1.450073,14.763794 -16.427185,24.343506 -34.511597,24.343506c-18.094727,0 -36.883423,-9.549683 -38.002075,-24.343506c-1.139343,-14.975098 13.744507,-36.341736 36.334534,-35.861206z"/>
   <path fill="url(#radialGradient14721)" d="m453.298157,477.451599c23.004211,-0.134491 37.639587,21.091217 36.179138,35.861206c-1.450073,14.763794 -16.427185,24.343506 -34.511597,24.343506c-18.094727,0 -36.883423,-9.549683 -38.002075,-24.343506c-1.139343,-14.975098 13.744507,-36.341736 36.334534,-35.861206z" id="path13995"/>
   <path fill="url(#radialGradient14723)" id="path13997" d="m453.298157,477.451599c23.004211,-0.134491 37.639587,21.091217 36.179138,35.861206c-1.450073,14.763794 -16.427185,24.343506 -34.511597,24.343506c-18.094727,0 -36.883423,-9.549683 -38.002075,-24.343506c-1.139343,-14.975098 13.744507,-36.341736 36.334534,-35.861206z"/>
   <path fill="url(#radialGradient14725)" d="m453.298157,477.451599c23.004211,-0.134491 37.639587,21.091217 36.179138,35.861206c-1.450073,14.763794 -16.427185,24.343506 -34.511597,24.343506c-18.094727,0 -36.883423,-9.549683 -38.002075,-24.343506c-1.139343,-14.975098 13.744507,-36.341736 36.334534,-35.861206z" id="path13999"/>
   <rect fill="#847474" id="rect14001" width="73.681847" height="79.993965" x="341.96326" y="488.285139" ry="39.996983"/>
   <rect fill="#d9ccc4" ry="36.176495" y="484.967499" x="341.96326" height="72.352989" width="72.352989" id="rect14003"/>
   <path fill="#b58f68" d="m378.122559,484.969147c23.004272,-0.134491 37.639587,21.090179 36.179138,35.861176c-1.439697,14.763794 -16.427185,24.342529 -34.521912,24.342529c-18.084412,0 -36.873108,-9.548706 -37.99176,-24.342529c-1.128967,-14.976044 13.754944,-36.342773 36.334534,-35.861176z" id="path14005"/>
   <path fill="url(#radialGradient14727)" id="path14007" d="m378.122559,484.969147c23.004272,-0.134491 37.639587,21.090179 36.179138,35.861176c-1.439697,14.763794 -16.427185,24.342529 -34.521912,24.342529c-18.084412,0 -36.873108,-9.548706 -37.99176,-24.342529c-1.128967,-14.976044 13.754944,-36.342773 36.334534,-35.861176z"/>
   <path fill="url(#radialGradient14729)" d="m378.122559,484.969147c23.004272,-0.134491 37.639587,21.090179 36.179138,35.861176c-1.439697,14.763794 -16.427185,24.342529 -34.521912,24.342529c-18.084412,0 -36.873108,-9.548706 -37.99176,-24.342529c-1.128967,-14.976044 13.754944,-36.342773 36.334534,-35.861176z" id="path14009"/>
   <path fill="url(#radialGradient14731)" id="path14011" d="m378.122559,484.969147c23.004272,-0.134491 37.639587,21.090179 36.179138,35.861176c-1.439697,14.763794 -16.427185,24.342529 -34.521912,24.342529c-18.084412,0 -36.873108,-9.548706 -37.99176,-24.342529c-1.128967,-14.976044 13.754944,-36.342773 36.334534,-35.861176z"/>
   <rect fill="#847474" ry="39.996983" y="503.325809" x="266.76941" height="79.993965" width="73.681847" id="rect14013"/>
   <rect fill="#d9ccc4" id="rect14015" width="72.352989" height="72.352989" x="266.76941" y="500.003139" ry="36.176495"/>
   <path fill="#b58f68" id="path14017" d="m302.957275,500.004272c22.993896,-0.13446 37.639587,21.09021 36.179138,35.860168c-1.460327,14.763733 -16.427124,24.343506 -34.511536,24.343506c-18.094727,0 -36.883484,-9.549744 -38.012451,-24.343506c-1.139343,-14.975037 13.744568,-36.342834 36.344849,-35.860168z"/>
   <path fill="url(#radialGradient14733)" d="m302.957275,500.004272c22.993896,-0.13446 37.639587,21.09021 36.179138,35.860168c-1.460327,14.763733 -16.427124,24.343506 -34.511536,24.343506c-18.094727,0 -36.883484,-9.549744 -38.012451,-24.343506c-1.139343,-14.975037 13.744568,-36.342834 36.344849,-35.860168z" id="path14019"/>
   <path fill="url(#radialGradient14735)" id="path14021" d="m302.957275,500.004272c22.993896,-0.13446 37.639587,21.09021 36.179138,35.860168c-1.460327,14.763733 -16.427124,24.343506 -34.511536,24.343506c-18.094727,0 -36.883484,-9.549744 -38.012451,-24.343506c-1.139343,-14.975037 13.744568,-36.342834 36.344849,-35.860168z"/>
   <path fill="url(#radialGradient14737)" d="m302.957275,500.004272c22.993896,-0.13446 37.639587,21.09021 36.179138,35.860168c-1.460327,14.763733 -16.427124,24.343506 -34.511536,24.343506c-18.094727,0 -36.883484,-9.549744 -38.012451,-24.343506c-1.139343,-14.975037 13.744568,-36.342834 36.344849,-35.860168z" id="path14023"/>
   <rect fill="#847474" id="rect14025" width="73.681847" height="79.993965" x="184.11078" y="495.805389" ry="39.996983"/>
   <rect fill="#d9ccc4" ry="36.176495" y="492.482729" x="184.11078" height="72.352989" width="72.352989" id="rect14027"/>
   <path fill="#b58f68" d="m220.272461,492.486694c23.004211,-0.13446 37.618835,21.09021 36.179138,35.861206c-1.470764,14.762756 -16.437561,24.342468 -34.521912,24.342468c-18.084412,0 -36.883545,-9.549683 -38.002075,-24.342468c-1.139343,-14.976074 13.734131,-36.343811 36.344849,-35.861206z" id="path14029"/>
   <path fill="url(#radialGradient14739)" id="path14031" d="m220.272461,492.486694c23.004211,-0.13446 37.618835,21.09021 36.179138,35.861206c-1.470764,14.762756 -16.437561,24.342468 -34.521912,24.342468c-18.084412,0 -36.883545,-9.549683 -38.002075,-24.342468c-1.139343,-14.976074 13.734131,-36.343811 36.344849,-35.861206z"/>
   <path fill="url(#radialGradient14741)" d="m220.272461,492.486694c23.004211,-0.13446 37.618835,21.09021 36.179138,35.861206c-1.470764,14.762756 -16.437561,24.342468 -34.521912,24.342468c-18.084412,0 -36.883545,-9.549683 -38.002075,-24.342468c-1.139343,-14.976074 13.734131,-36.343811 36.344849,-35.861206z" id="path14033"/>
   <path fill="url(#radialGradient14743)" id="path14035" d="m220.272461,492.486694c23.004211,-0.13446 37.618835,21.09021 36.179138,35.861206c-1.470764,14.762756 -16.437561,24.342468 -34.521912,24.342468c-18.084412,0 -36.883545,-9.549683 -38.002075,-24.342468c-1.139343,-14.976074 13.734131,-36.343811 36.344849,-35.861206z"/>
   <rect fill="#847474" ry="39.996983" y="488.285139" x="101.43182" height="79.993965" width="73.681847" id="rect14037"/>
   <rect fill="#d9ccc4" id="rect14039" width="72.352989" height="72.352989" x="101.43182" y="484.967499" ry="36.176495"/>
   <path fill="#b58f68" id="path14041" d="m137.577209,484.969147c22.993896,-0.134491 37.639526,21.090179 36.179138,35.861176c-1.460388,14.763794 -16.427185,24.342529 -34.521912,24.342529c-18.084412,0 -36.883484,-9.548706 -38.002136,-24.342529c-1.128967,-14.976044 13.754883,-36.342773 36.34491,-35.861176z"/>
   <path fill="url(#radialGradient14745)" d="m137.577209,484.969147c22.993896,-0.134491 37.639526,21.090179 36.179138,35.861176c-1.460388,14.763794 -16.427185,24.342529 -34.521912,24.342529c-18.084412,0 -36.883484,-9.548706 -38.002136,-24.342529c-1.128967,-14.976044 13.754883,-36.342773 36.34491,-35.861176z" id="path14043"/>
   <path fill="url(#radialGradient14747)" id="path14045" d="m137.577209,484.969147c22.993896,-0.134491 37.639526,21.090179 36.179138,35.861176c-1.460388,14.763794 -16.427185,24.342529 -34.521912,24.342529c-18.084412,0 -36.883484,-9.548706 -38.002136,-24.342529c-1.128967,-14.976044 13.754883,-36.342773 36.34491,-35.861176z"/>
   <path fill="url(#radialGradient14749)" d="m137.577209,484.969147c22.993896,-0.134491 37.639526,21.090179 36.179138,35.861176c-1.460388,14.763794 -16.427185,24.342529 -34.521912,24.342529c-18.084412,0 -36.883484,-9.548706 -38.002136,-24.342529c-1.128967,-14.976044 13.754883,-36.342773 36.34491,-35.861176z" id="path14047"/>
   <rect fill="#847474" id="rect14049" width="73.681847" height="79.993965" x="26.23797" y="465.733929" ry="39.996983"/>
   <rect fill="#d9ccc4" ry="36.176495" y="462.411199" x="26.23797" height="72.352989" width="72.352989" id="rect14051"/>
   <path fill="#b58f68" d="m62.411987,462.417542c22.993896,-0.134491 37.629211,21.090179 36.168823,35.861145c-1.460449,14.763794 -16.427185,24.342468 -34.511597,24.342468c-18.084412,0 -36.873169,-9.549683 -38.002014,-24.342468c-1.139404,-14.975037 13.744446,-36.342773 36.344788,-35.861145z" id="path14053"/>
   <path fill="url(#radialGradient14751)" id="path14055" d="m62.411987,462.417542c22.993896,-0.134491 37.629211,21.090179 36.168823,35.861145c-1.460449,14.763794 -16.427185,24.342468 -34.511597,24.342468c-18.084412,0 -36.873169,-9.549683 -38.002014,-24.342468c-1.139404,-14.975037 13.744446,-36.342773 36.344788,-35.861145z"/>
   <path fill="url(#radialGradient14753)" d="m62.411987,462.417542c22.993896,-0.134491 37.629211,21.090179 36.168823,35.861145c-1.460449,14.763794 -16.427185,24.342468 -34.511597,24.342468c-18.084412,0 -36.873169,-9.549683 -38.002014,-24.342468c-1.139404,-14.975037 13.744446,-36.342773 36.344788,-35.861145z" id="path14057"/>
   <path fill="url(#radialGradient14755)" id="path14059" d="m62.411987,462.417542c22.993896,-0.134491 37.629211,21.090179 36.168823,35.861145c-1.460449,14.763794 -16.427185,24.342468 -34.511597,24.342468c-18.084412,0 -36.873169,-9.549683 -38.002014,-24.342468c-1.139404,-14.975037 13.744446,-36.342773 36.344788,-35.861145z"/>
   <rect fill="#847474" id="rect14061" width="73.681847" height="79.993965" x="852.98639" y="592.397339" ry="39.996983"/>
   <rect fill="#d9ccc4" ry="36.176495" y="589.074619" x="852.98639" height="72.352989" width="72.352989" id="rect14063"/>
   <path fill="#b58f68" d="m889.177856,589.07666c22.983521,-0.134766 37.62915,21.091248 36.179138,35.861206c-1.460449,14.763794 -16.427185,24.343506 -34.511597,24.343506c-18.094727,0 -36.89386,-9.549683 -38.002075,-24.343506c-1.149719,-14.976074 13.734192,-36.342773 36.334534,-35.861206z" id="path14065"/>
   <path fill="url(#radialGradient14757)" id="path14067" d="m889.177856,589.07666c22.983521,-0.134766 37.62915,21.091248 36.179138,35.861206c-1.460449,14.763794 -16.427185,24.343506 -34.511597,24.343506c-18.094727,0 -36.89386,-9.549683 -38.002075,-24.343506c-1.149719,-14.976074 13.734192,-36.342773 36.334534,-35.861206z"/>
   <path fill="url(#radialGradient14759)" d="m889.177856,589.07666c22.983521,-0.134766 37.62915,21.091248 36.179138,35.861206c-1.460449,14.763794 -16.427185,24.343506 -34.511597,24.343506c-18.094727,0 -36.89386,-9.549683 -38.002075,-24.343506c-1.149719,-14.976074 13.734192,-36.342773 36.334534,-35.861206z" id="path14069"/>
   <path fill="url(#radialGradient14761)" id="path14071" d="m889.177856,589.07666c22.983521,-0.134766 37.62915,21.091248 36.179138,35.861206c-1.460449,14.763794 -16.427185,24.343506 -34.511597,24.343506c-18.094727,0 -36.89386,-9.549683 -38.002075,-24.343506c-1.149719,-14.976074 13.734192,-36.342773 36.334534,-35.861206z"/>
   <rect fill="#847474" ry="39.996983" y="522.842469" x="817.70573" height="79.993965" width="73.681847" id="rect14073"/>
   <rect fill="#d9ccc4" id="rect14075" width="72.352989" height="72.352989" x="817.70573" y="519.519809" ry="36.176495"/>
   <path fill="#b58f68" id="path14077" d="m853.868652,519.519043c22.993958,-0.13446 37.629272,21.091248 36.179199,35.861206c-1.460449,14.764771 -16.427185,24.343506 -34.521973,24.343506c-18.094727,0 -36.883484,-9.549744 -38.002075,-24.343506c-1.129028,-14.975098 13.744507,-36.341797 36.344849,-35.861206z"/>
   <path fill="url(#radialGradient14763)" d="m853.868652,519.519043c22.993958,-0.13446 37.629272,21.091248 36.179199,35.861206c-1.460449,14.764771 -16.427185,24.343506 -34.521973,24.343506c-18.094727,0 -36.883484,-9.549744 -38.002075,-24.343506c-1.129028,-14.975098 13.744507,-36.341797 36.344849,-35.861206z" id="path14079"/>
   <path fill="url(#radialGradient14765)" id="path14081" d="m853.868652,519.519043c22.993958,-0.13446 37.629272,21.091248 36.179199,35.861206c-1.460449,14.764771 -16.427185,24.343506 -34.521973,24.343506c-18.094727,0 -36.883484,-9.549744 -38.002075,-24.343506c-1.129028,-14.975098 13.744507,-36.341797 36.344849,-35.861206z"/>
   <path fill="url(#radialGradient14767)" d="m853.868652,519.519043c22.993958,-0.13446 37.629272,21.091248 36.179199,35.861206c-1.460449,14.764771 -16.427185,24.343506 -34.521973,24.343506c-18.094727,0 -36.883484,-9.549744 -38.002075,-24.343506c-1.129028,-14.975098 13.744507,-36.341797 36.344849,-35.861206z" id="path14083"/>
   <rect fill="#847474" id="rect14085" width="73.681847" height="79.993965" x="742.53213" y="490.034909" ry="39.996983"/>
   <rect fill="#d9ccc4" ry="36.176495" y="486.712079" x="742.53213" height="72.352989" width="72.352989" id="rect14087"/>
   <path fill="#b58f68" d="m778.693115,486.715454c22.993896,-0.13446 37.639587,21.09021 36.179199,35.860168c-1.460449,14.764771 -16.41687,24.343506 -34.511597,24.343506c-18.094788,0 -36.883484,-9.549744 -38.002136,-24.343506c-1.139343,-14.975067 13.734192,-36.341797 36.334534,-35.860168z" id="path14089"/>
   <path fill="url(#radialGradient14769)" id="path14091" d="m778.693115,486.715454c22.993896,-0.13446 37.639587,21.09021 36.179199,35.860168c-1.460449,14.764771 -16.41687,24.343506 -34.511597,24.343506c-18.094788,0 -36.883484,-9.549744 -38.002136,-24.343506c-1.139343,-14.975067 13.734192,-36.341797 36.334534,-35.860168z"/>
   <path fill="url(#radialGradient14771)" d="m778.693115,486.715454c22.993896,-0.13446 37.639587,21.09021 36.179199,35.860168c-1.460449,14.764771 -16.41687,24.343506 -34.511597,24.343506c-18.094788,0 -36.883484,-9.549744 -38.002136,-24.343506c-1.139343,-14.975067 13.734192,-36.341797 36.334534,-35.860168z" id="path14093"/>
   <path fill="url(#radialGradient14773)" id="path14095" d="m778.693115,486.715454c22.993896,-0.13446 37.639587,21.09021 36.179199,35.860168c-1.460449,14.764771 -16.41687,24.343506 -34.511597,24.343506c-18.094788,0 -36.883484,-9.549744 -38.002136,-24.343506c-1.139343,-14.975067 13.734192,-36.341797 36.334534,-35.860168z"/>
   <rect fill="#847474" ry="39.996983" y="664.157079" x="834.6987" height="79.993965" width="73.681847" id="rect14097"/>
   <rect fill="#d9ccc4" id="rect14099" width="72.352989" height="72.352989" x="834.6987" y="660.834569" ry="36.176495"/>
   <path fill="#b58f68" id="path14101" d="m870.875916,660.835327c22.993896,-0.134521 37.629211,21.09021 36.168823,35.860168c-1.450134,14.765808 -16.427185,24.343445 -34.521973,24.343445c-18.084412,0 -36.873108,-9.549683 -38.002136,-24.343445c-1.128967,-14.97406 13.744568,-36.341858 36.355286,-35.860168z"/>
   <path fill="url(#radialGradient14775)" d="m870.875916,660.835327c22.993896,-0.134521 37.629211,21.09021 36.168823,35.860168c-1.450134,14.765808 -16.427185,24.343445 -34.521973,24.343445c-18.084412,0 -36.873108,-9.549683 -38.002136,-24.343445c-1.128967,-14.97406 13.744568,-36.341858 36.355286,-35.860168z" id="path14103"/>
   <path fill="url(#radialGradient14777)" id="path14105" d="m870.875916,660.835327c22.993896,-0.134521 37.629211,21.09021 36.168823,35.860168c-1.450134,14.765808 -16.427185,24.343445 -34.521973,24.343445c-18.084412,0 -36.873108,-9.549683 -38.002136,-24.343445c-1.128967,-14.97406 13.744568,-36.341858 36.355286,-35.860168z"/>
   <path fill="url(#radialGradient14779)" d="m870.875916,660.835327c22.993896,-0.134521 37.629211,21.09021 36.168823,35.860168c-1.450134,14.765808 -16.427185,24.343445 -34.521973,24.343445c-18.084412,0 -36.873108,-9.549683 -38.002136,-24.343445c-1.128967,-14.97406 13.744568,-36.341858 36.355286,-35.860168z" id="path14107"/>
   <rect fill="#847474" ry="39.996983" y="722.170839" x="814.4892" height="79.993965" width="73.681847" id="rect14109"/>
   <rect fill="#d9ccc4" id="rect14111" width="72.352989" height="72.352989" x="814.4892" y="718.848359" ry="36.176495"/>
   <path fill="#b58f68" id="path14113" d="m850.657837,718.849365c23.004272,-0.134705 37.639526,21.09021 36.179199,35.861206c-1.450134,14.764771 -16.427246,24.343506 -34.521973,24.343506c-18.084412,0 -36.873169,-9.549683 -38.002136,-24.343506c-1.118591,-14.976074 13.754944,-36.342773 36.34491,-35.861206z"/>
   <path fill="url(#radialGradient14781)" d="m850.657837,718.849365c23.004272,-0.134705 37.639526,21.09021 36.179199,35.861206c-1.450134,14.764771 -16.427246,24.343506 -34.521973,24.343506c-18.084412,0 -36.873169,-9.549683 -38.002136,-24.343506c-1.118591,-14.976074 13.754944,-36.342773 36.34491,-35.861206z" id="path14115"/>
   <path fill="url(#radialGradient14783)" id="path14117" d="m850.657837,718.849365c23.004272,-0.134705 37.639526,21.09021 36.179199,35.861206c-1.450134,14.764771 -16.427246,24.343506 -34.521973,24.343506c-18.084412,0 -36.873169,-9.549683 -38.002136,-24.343506c-1.118591,-14.976074 13.754944,-36.342773 36.34491,-35.861206z"/>
   <path fill="url(#radialGradient14785)" d="m850.657837,718.849365c23.004272,-0.134705 37.639526,21.09021 36.179199,35.861206c-1.450134,14.764771 -16.427246,24.343506 -34.521973,24.343506c-18.084412,0 -36.873169,-9.549683 -38.002136,-24.343506c-1.118591,-14.976074 13.754944,-36.342773 36.34491,-35.861206z" id="path14119"/>
   <rect fill="#847474" id="rect14121" width="73.681847" height="79.993965" x="768.56772" y="773.119359" ry="39.996983"/>
   <rect fill="#d9ccc4" ry="36.176495" y="769.801729" x="768.56772" height="72.352989" width="72.352989" id="rect14123"/>
   <path fill="#b58f68" d="m804.721802,769.801636c22.993896,-0.134521 37.629211,21.091187 36.168823,35.861206c-1.439758,14.764771 -16.41687,24.343506 -34.501221,24.343506c-18.094788,0 -36.873169,-9.548706 -38.002075,-24.343506c-1.129028,-14.975098 13.744507,-36.341797 36.334473,-35.861206z" id="path14125"/>
   <path fill="url(#radialGradient14787)" id="path14127" d="m804.721802,769.801636c22.993896,-0.134521 37.629211,21.091187 36.168823,35.861206c-1.439758,14.764771 -16.41687,24.343506 -34.501221,24.343506c-18.094788,0 -36.873169,-9.548706 -38.002075,-24.343506c-1.129028,-14.975098 13.744507,-36.341797 36.334473,-35.861206z"/>
   <path fill="url(#radialGradient14789)" d="m804.721802,769.801636c22.993896,-0.134521 37.629211,21.091187 36.168823,35.861206c-1.439758,14.764771 -16.41687,24.343506 -34.501221,24.343506c-18.094788,0 -36.873169,-9.548706 -38.002075,-24.343506c-1.129028,-14.975098 13.744507,-36.341797 36.334473,-35.861206z" id="path14129"/>
   <path fill="url(#radialGradient14791)" id="path14131" d="m804.721802,769.801636c22.993896,-0.134521 37.629211,21.091187 36.168823,35.861206c-1.439758,14.764771 -16.41687,24.343506 -34.501221,24.343506c-18.094788,0 -36.873169,-9.548706 -38.002075,-24.343506c-1.129028,-14.975098 13.744507,-36.341797 36.334473,-35.861206z"/>
   <rect fill="#847474" id="rect14155" width="73.681847" height="79.993965" x="469.222624" y="956.169125" ry="39.996983" transform="matrix(0.970135, -0.242567, 0.242567, 0.970135, 0, 0)"/>
   <rect fill="#d9ccc4" ry="36.176495" y="952.847475" x="469.222624" height="72.352989" width="72.352989" id="rect14157" transform="matrix(0.970135, -0.242567, 0.242567, 0.970135, 0, 0)"/>
   <path fill="#b58f68" d="m721.467224,801.784912c22.289612,-5.709106 41.627319,11.332275 43.792053,26.01416c2.164734,14.676758 -10.026245,27.599976 -27.582336,31.988525c-17.545837,4.38855 -38.095276,-0.321289 -42.766663,-14.397095c-4.733398,-14.253174 4.51593,-38.592529 26.556946,-43.605591z" id="path14159"/>
   <path fill="url(#radialGradient14801)" id="path14161" d="m721.467224,801.784912c22.289612,-5.709106 41.627319,11.332275 43.792053,26.01416c2.164734,14.676758 -10.026245,27.599976 -27.582336,31.988525c-17.545837,4.38855 -38.095276,-0.321289 -42.766663,-14.397095c-4.733398,-14.253174 4.51593,-38.592529 26.556946,-43.605591z"/>
   <path fill="url(#radialGradient14803)" d="m721.467224,801.784912c22.289612,-5.709106 41.627319,11.332275 43.792053,26.01416c2.164734,14.676758 -10.026245,27.599976 -27.582336,31.988525c-17.545837,4.38855 -38.095276,-0.321289 -42.766663,-14.397095c-4.733398,-14.253174 4.51593,-38.592529 26.556946,-43.605591z" id="path14163"/>
   <path fill="url(#radialGradient14805)" id="path14165" d="m721.467224,801.784912c22.289612,-5.709106 41.627319,11.332275 43.792053,26.01416c2.164734,14.676758 -10.026245,27.599976 -27.582336,31.988525c-17.545837,4.38855 -38.095276,-0.321289 -42.766663,-14.397095c-4.733398,-14.253174 4.51593,-38.592529 26.556946,-43.605591z"/>
   <rect fill="#847474" ry="39.996983" y="938.630985" x="390.852664" height="79.993965" width="73.681847" id="rect14167" transform="matrix(0.970135, -0.242567, 0.242567, 0.970135, 0, 0)"/>
   <rect fill="#d9ccc4" id="rect14169" width="72.352989" height="72.352989" x="390.852664" y="935.309505" ry="36.176495" transform="matrix(0.970135, -0.242567, 0.242567, 0.970135, 0, 0)"/>
   <path fill="#b58f68" id="path14171" d="m641.195679,803.77771c22.279297,-5.707031 41.627319,11.334351 43.792053,26.015259c2.154358,14.677734 -10.03656,27.600952 -27.582336,31.989502c-17.556152,4.387451 -38.095337,-0.321289 -42.776978,-14.399292c-4.723022,-14.251953 4.526245,-38.590332 26.567261,-43.605469z"/>
   <path fill="url(#radialGradient14807)" d="m641.195679,803.77771c22.279297,-5.707031 41.627319,11.334351 43.792053,26.015259c2.154358,14.677734 -10.03656,27.600952 -27.582336,31.989502c-17.556152,4.387451 -38.095337,-0.321289 -42.776978,-14.399292c-4.723022,-14.251953 4.526245,-38.590332 26.567261,-43.605469z" id="path14173"/>
   <path fill="url(#radialGradient14809)" id="path14175" d="m641.195679,803.77771c22.279297,-5.707031 41.627319,11.334351 43.792053,26.015259c2.154358,14.677734 -10.03656,27.600952 -27.582336,31.989502c-17.556152,4.387451 -38.095337,-0.321289 -42.776978,-14.399292c-4.723022,-14.251953 4.526245,-38.590332 26.567261,-43.605469z"/>
   <path fill="url(#radialGradient14811)" d="m641.195679,803.77771c22.279297,-5.707031 41.627319,11.334351 43.792053,26.015259c2.154358,14.677734 -10.03656,27.600952 -27.582336,31.989502c-17.556152,4.387451 -38.095337,-0.321289 -42.776978,-14.399292c-4.723022,-14.251953 4.526245,-38.590332 26.567261,-43.605469z" id="path14177"/>
   <rect fill="#847474" id="rect14179" width="73.681847" height="79.993965" x="315.699284" y="916.079955" ry="39.996983" transform="matrix(0.970135, -0.242567, 0.242567, 0.970135, 0, 0)"/>
   <rect fill="#d9ccc4" ry="36.176495" y="912.758485" x="315.699284" height="72.352989" width="72.352989" id="rect14181" transform="matrix(0.970135, -0.242567, 0.242567, 0.970135, 0, 0)"/>
   <path fill="#b58f68" d="m562.788513,800.134888c22.279236,-5.708069 41.627319,11.332275 43.791992,26.015259c2.17511,14.676758 -10.015808,27.599976 -27.57196,31.988403c-17.545776,4.387573 -38.105652,-0.321167 -42.776978,-14.39917c-4.733398,-14.251953 4.526367,-38.590332 26.556946,-43.604492z" id="path14183"/>
   <path fill="url(#radialGradient14813)" id="path14185" d="m562.788513,800.134888c22.279236,-5.708069 41.627319,11.332275 43.791992,26.015259c2.17511,14.676758 -10.015808,27.599976 -27.57196,31.988403c-17.545776,4.387573 -38.105652,-0.321167 -42.776978,-14.39917c-4.733398,-14.251953 4.526367,-38.590332 26.556946,-43.604492z"/>
   <path fill="url(#radialGradient14815)" d="m562.788513,800.134888c22.279236,-5.708069 41.627319,11.332275 43.791992,26.015259c2.17511,14.676758 -10.015808,27.599976 -27.57196,31.988403c-17.545776,4.387573 -38.105652,-0.321167 -42.776978,-14.39917c-4.733398,-14.251953 4.526367,-38.590332 26.556946,-43.604492z" id="path14187"/>
   <path fill="url(#radialGradient14817)" id="path14189" d="m562.788513,800.134888c22.279236,-5.708069 41.627319,11.332275 43.791992,26.015259c2.17511,14.676758 -10.015808,27.599976 -27.57196,31.988403c-17.545776,4.387573 -38.105652,-0.321167 -42.776978,-14.39917c-4.733398,-14.251953 4.526367,-38.590332 26.556946,-43.604492z"/>
   <rect fill="#847474" ry="39.996983" y="886.011015" x="240.525634" height="79.993965" width="73.681847" id="rect14191" transform="matrix(0.970135, -0.242567, 0.242567, 0.970135, 0, 0)"/>
   <rect fill="#d9ccc4" id="rect14193" width="72.352989" height="72.352989" x="240.525634" y="882.690885" ry="36.176495" transform="matrix(0.970135, -0.242567, 0.242567, 0.970135, 0, 0)"/>
   <path fill="#b58f68" id="path14195" d="m482.568787,789.197266c22.289551,-5.707031 41.627258,11.334351 43.791992,26.015259c2.164734,14.677734 -10.026184,27.600952 -27.57196,31.989502c-17.556213,4.387573 -38.105713,-0.321167 -42.766602,-14.39917c-4.743835,-14.252014 4.505554,-38.590393 26.54657,-43.605591z"/>
   <path fill="url(#radialGradient14819)" d="m482.568787,789.197266c22.289551,-5.707031 41.627258,11.334351 43.791992,26.015259c2.164734,14.677734 -10.026184,27.600952 -27.57196,31.989502c-17.556213,4.387573 -38.105713,-0.321167 -42.766602,-14.39917c-4.743835,-14.252014 4.505554,-38.590393 26.54657,-43.605591z" id="path14197"/>
   <path fill="url(#radialGradient14821)" id="path14199" d="m482.568787,789.197266c22.289551,-5.707031 41.627258,11.334351 43.791992,26.015259c2.164734,14.677734 -10.026184,27.600952 -27.57196,31.989502c-17.556213,4.387573 -38.105713,-0.321167 -42.766602,-14.39917c-4.743835,-14.252014 4.505554,-38.590393 26.54657,-43.605591z"/>
   <path fill="url(#radialGradient14823)" d="m482.568787,789.197266c22.289551,-5.707031 41.627258,11.334351 43.791992,26.015259c2.164734,14.677734 -10.026184,27.600952 -27.57196,31.989502c-17.556213,4.387573 -38.105713,-0.321167 -42.766602,-14.39917c-4.743835,-14.252014 4.505554,-38.590393 26.54657,-43.605591z" id="path14201"/>
  </g>
 </g>
</svg>