<?xml version="1.0" encoding="UTF-8" standalone="no"?>
<!-- Created with Inkscape (http://www.inkscape.org/) -->

<svg
   xmlns:dc="http://purl.org/dc/elements/1.1/"
   xmlns:cc="http://creativecommons.org/ns#"
   xmlns:rdf="http://www.w3.org/1999/02/22-rdf-syntax-ns#"
   xmlns:svg="http://www.w3.org/2000/svg"
   xmlns="http://www.w3.org/2000/svg"
   version="1.1"
   width="1000"
   height="1000"
   id="svg2"
   xml:space="preserve"><metadata
     id="metadata8"><rdf:RDF><cc:Work
         rdf:about=""><dc:format>image/svg+xml</dc:format><dc:type
           rdf:resource="http://purl.org/dc/dcmitype/StillImage" /><dc:title></dc:title></cc:Work></rdf:RDF></metadata><defs
     id="defs6"><clipPath
       id="clipPath16"><path
         d="M 0,800 800,800 800,0 0,0 0,800 z"
         id="path18" /></clipPath><clipPath
       id="clipPath24"><path
         d="M 0,800 800,800 800,0 0,0 0,800 z"
         id="path26" /></clipPath><clipPath
       id="clipPath38"><path
         d="M 0,0 800,0 800,800 0,800 0,0 z"
         id="path40" /></clipPath><clipPath
       id="clipPath46"><path
         d="m -114.718,772.187 1074.462,0 0,-675.8579 -1074.462,0 0,675.8579 z"
         id="path48" /></clipPath><clipPath
       id="clipPath86"><path
         d="M 0,800 800,800 800,0 0,0 0,800 z"
         id="path88" /></clipPath><clipPath
       id="clipPath226"><path
         d="M 0,800 800,800 800,0 0,0 0,800 z"
         id="path228" /></clipPath><clipPath
       id="clipPath402"><path
         d="M 0,800 800,800 800,0 0,0 0,800 z"
         id="path404" /></clipPath><clipPath
       id="clipPath590"><path
         d="M 0,800 800,800 800,0 0,0 0,800 z"
         id="path592" /></clipPath><clipPath
       id="clipPath758"><path
         d="M 0,800 800,800 800,0 0,0 0,800 z"
         id="path760" /></clipPath><clipPath
       id="clipPath926"><path
         d="M 0,800 800,800 800,0 0,0 0,800 z"
         id="path928" /></clipPath><clipPath
       id="clipPath1098"><path
         d="M 0,800 800,800 800,0 0,0 0,800 z"
         id="path1100" /></clipPath><clipPath
       id="clipPath1350"><path
         d="M 0,800 800,800 800,0 0,0 0,800 z"
         id="path1352" /></clipPath><clipPath
       id="clipPath1378"><path
         d="M 0,800 800,800 800,0 0,0 0,800 z"
         id="path1380" /></clipPath></defs><g
     transform="matrix(1.25,0,0,-1.25,0,1000)"
     id="g10"><g
       id="g922"><g
         clip-path="url(#clipPath926)"
         id="g924"><g
           transform="translate(439.458,57.5439)"
           id="g930"><path
             d="m 0,0 c 3.191,1.108 6.362,2.236 9.549,3.316 4.131,1.399 7.863,3.439 10.534,6.977 2.965,3.927 5.824,7.933 8.663,11.951 1.661,2.357 2.122,5.088 2.226,7.923 0.209,5.74 -0.87,11.302 -2.482,16.749 -1.097,3.707 -2.966,7.103 -5.411,10.126 -2.443,3.018 -4.045,6.528 -5.853,9.908 -0.589,1.102 -0.733,2.446 -1.037,3.693 -0.528,2.175 -1.043,4.358 -1.525,6.544 -0.316,1.444 -1.156,2.498 -2.293,3.372 -2.874,2.212 -5.577,4.678 -9.019,6.048 -0.272,0.109 -0.476,0.395 -0.687,0.577 0.007,0.706 0.529,0.614 0.905,0.629 3.276,0.149 6.312,-0.962 9.333,-1.95 2.912,-0.953 5.113,-3.118 7.112,-5.297 1.171,-1.273 1.793,-3.13 2.396,-4.821 0.607,-1.698 0.938,-3.505 1.302,-5.283 0.531,-2.597 1.703,-4.733 3.68,-6.579 4.266,-3.982 7.434,-8.765 9.944,-14.044 2.082,-4.381 2.144,-8.88 1.357,-13.485 C 38.208,33.503 37.374,30.748 36.116,28.11 35.015,25.794 34.06,23.406 33.142,21.01 31.805,17.506 29.659,14.626 26.663,12.409 23.139,9.803 19.582,7.232 15.975,4.738 14.489,3.709 12.813,2.957 11.264,2.011 10.371,1.468 9.429,1.425 8.471,1.528 6.684,1.723 5.106,1.222 3.614,0.281 2.983,-0.117 2.323,-0.497 1.629,-0.766 0.981,-1.017 0.361,-0.884 0,0"
             id="path932"
             style="fill:#506975;fill-opacity:1;fill-rule:evenodd;stroke:none" /></g><g
           transform="translate(457.4531,55.5771)"
           id="g934"><path
             d="m 0,0 c -1.801,1.085 -3.135,1.888 -4.612,2.775 0.401,0.377 0.577,0.633 0.823,0.761 5.354,2.774 9.968,6.61 14.703,10.266 2.33,1.799 4.008,4.094 5.144,6.838 1.385,3.352 2.993,6.609 4.387,9.955 2.317,5.553 3.056,11.329 2.043,17.279 -0.695,4.092 -2.634,7.654 -4.96,11.022 -2.187,3.172 -4.581,6.164 -7.488,8.731 -1.311,1.157 -2.091,2.67 -2.349,4.44 -0.179,1.268 -0.477,2.52 -0.69,3.786 -0.423,2.569 -1.499,4.892 -2.813,7.092 -0.948,1.59 -2.479,2.621 -4.002,3.626 -1.247,0.822 -2.47,1.677 -3.637,2.473 0.034,0.91 0.613,0.905 1.127,0.897 0.639,-0.007 1.301,-0.223 1.916,-0.125 3.388,0.538 5.72,-1.371 7.832,-3.502 1.641,-1.66 2.986,-3.617 4.457,-5.446 1.317,-1.636 1.936,-3.536 2.173,-5.597 0.109,-0.956 0.339,-1.896 0.448,-2.851 0.344,-3.105 1.788,-5.638 3.868,-7.915 2.377,-2.605 4.69,-5.273 6.929,-7.994 3.098,-3.767 4.797,-7.96 4.216,-13.017 -0.341,-2.971 -0.493,-5.95 -1.208,-8.875 -1.105,-4.494 -2.77,-8.756 -5.259,-12.653 -1.722,-2.697 -3.479,-5.374 -5.919,-7.547 -1.426,-1.27 -2.555,-2.865 -3.91,-4.22 C 11.008,7.983 8.251,6.5 5.652,4.823 3.602,3.497 1.285,2.546 0,0"
             id="path936"
             style="fill:#485e69;fill-opacity:1;fill-rule:evenodd;stroke:none" /></g><g
           transform="translate(402.5312,130.2051)"
           id="g938"><path
             d="m 0,0 c 1.744,0.6 3.016,1.209 4.354,1.443 1.121,0.199 2.417,0.235 3.471,-0.132 3.855,-1.344 7.487,-3.015 10.258,-6.291 2.095,-2.479 3.705,-5.123 5.069,-8.063 2.094,-4.502 3.336,-9.242 4.719,-13.958 0.737,-2.514 0.826,-4.995 0.223,-7.598 -0.656,-2.803 -1.104,-5.686 -1.32,-8.558 -0.334,-4.48 -2.676,-7.882 -5.639,-10.87 -1.868,-1.879 -4.205,-3.293 -6.315,-4.941 -2.544,-1.993 -5.522,-2.734 -8.65,-3.05 -1.259,-0.128 -2.53,-0.008 -3.694,-0.81 -0.371,-0.254 -1.158,0.098 -1.855,0.184 0.174,0.261 0.21,0.379 0.267,0.389 3.2,0.493 5.849,2.067 7.863,4.501 2.284,2.757 5.125,4.833 7.835,7.083 3.369,2.796 5.332,6.368 5.838,10.707 0.109,0.935 0.053,1.932 -0.151,2.85 -0.755,3.452 -1.586,6.885 -2.418,10.32 -0.452,1.871 -0.839,3.737 -1.086,5.657 -0.531,4.063 -2.123,7.561 -5.741,9.964 -2.301,1.527 -4.332,3.396 -5.992,5.694 C 5.588,-3.477 3.462,-2.134 1.313,-0.907 1.046,-0.755 0.806,-0.56 0,0"
             id="path940"
             style="fill:#62808f;fill-opacity:1;fill-rule:evenodd;stroke:none" /></g><g
           transform="translate(360.9395,81.6348)"
           id="g942"><path
             d="m 0,0 c -1.888,-0.256 -3.591,0.148 -5.21,1.145 -2.085,1.28 -4.239,2.455 -6.319,3.74 -1.381,0.851 -1.547,1.436 -1.107,2.952 1.214,4.193 3.604,7.707 6.466,10.905 0.758,0.846 1.868,1.428 2.9,1.959 1.606,0.824 3.236,1.97 4.938,2.147 3.951,0.408 7.627,-0.736 10.511,-3.6 0.683,-0.678 1.012,-1.894 1.144,-2.909 0.209,-1.598 0.497,-3.127 1.117,-4.633 C 15.104,10.092 14.715,8.537 13.558,7.242 11.418,4.841 8.829,2.955 6.251,1.066 5.849,0.772 5.269,0.669 4.756,0.596 3.174,0.366 1.584,0.193 0,0"
             id="path944"
             style="fill:#485e69;fill-opacity:1;fill-rule:evenodd;stroke:none" /></g><g
           transform="translate(433.4668,63.3936)"
           id="g946"><path
             d="m 0,0 c 1.201,0.647 2.343,1.45 3.613,1.911 4.549,1.651 8.233,4.536 11.335,8.112 3.535,4.073 6.178,8.696 7.586,13.974 1.065,3.987 0.456,7.852 -0.659,11.69 -0.441,1.527 -0.987,3.029 -1.561,4.513 -1.425,3.707 -3.197,7.24 -5.656,10.372 -1.355,1.729 -2.323,3.513 -2.463,5.785 -0.096,1.579 -0.694,3.123 -0.946,4.702 -0.27,1.673 -1.107,3.016 -2.231,4.182 -2.522,2.611 -5.141,5.129 -7.628,7.769 -1.525,1.614 -3.275,2.686 -5.428,3.211 -1.418,0.348 -2.791,0.88 -4.589,1.458 1.023,0.413 1.596,0.814 2.192,0.856 2.243,0.154 4.491,0.215 6.737,0.271 1.689,0.041 3.073,-0.543 4.253,-1.844 1.357,-1.498 3.043,-2.707 4.344,-4.247 2.698,-3.191 5.225,-6.521 6.264,-10.702 0.542,-2.178 1.083,-4.355 1.651,-6.526 0.911,-3.489 2.627,-6.42 5.28,-8.977 2.301,-2.219 3.771,-5.156 5.055,-8.103 0.993,-2.282 1.541,-4.618 1.33,-7.169 -0.202,-2.444 -0.077,-4.917 -0.11,-7.378 -0.053,-3.67 -1.285,-6.8 -3.737,-9.631 C 21.945,11.129 18.971,8.428 15.618,6.103 14.918,5.614 14.219,5.099 13.62,4.498 12.063,2.94 10.156,1.958 8.123,1.288 5.897,0.558 3.591,0.068 1.312,-0.487 0.922,-0.584 0.488,-0.503 0.075,-0.503 0.053,-0.334 0.025,-0.166 0,0"
             id="path948"
             style="fill:#506975;fill-opacity:1;fill-rule:evenodd;stroke:none" /></g><g
           transform="translate(424.1074,64.1074)"
           id="g950"><path
             d="m 0,0 c 0.572,0.24 1.122,0.565 1.714,0.707 2.866,0.686 5.349,2.11 7.657,3.883 2.979,2.288 5.608,4.917 7.908,7.887 3.08,3.984 5.01,8.331 5.28,13.488 0.282,5.386 -0.247,10.679 -0.91,15.989 -0.506,4.064 -2.26,7.583 -4.801,10.68 -1.044,1.274 -1.869,2.61 -2.372,4.105 -0.994,2.96 -2.351,5.67 -4.091,8.288 -1.31,1.967 -2.664,3.825 -4.224,5.59 -1.355,1.532 -2.974,2.397 -4.892,2.823 -1.563,0.346 -3.14,0.616 -5.011,0.977 0.508,0.327 0.833,0.687 1.211,0.758 1.608,0.303 3.172,0.063 4.747,-0.367 3.24,-0.891 6.285,-2.084 8.521,-4.751 1.165,-1.387 2.329,-2.773 3.518,-4.137 0.487,-0.563 1.011,-1.111 1.58,-1.591 2.085,-1.753 3.114,-4.026 3.4,-6.683 0.048,-0.425 0.054,-0.857 0.103,-1.282 0.342,-3.155 1.514,-5.892 3.501,-8.438 4.362,-5.594 6.827,-12.032 7.716,-19.071 C 30.943,25.77 30.141,22.866 28.873,20.134 25.793,13.475 21.301,7.999 14.906,4.229 11.001,1.927 6.83,0.329 2.349,-0.422 2.036,-0.474 1.71,-0.47 1.388,-0.477 0.968,-0.485 0.548,-0.479 0.128,-0.479 0.085,-0.319 0.043,-0.16 0,0"
             id="path952"
             style="fill:#485e69;fill-opacity:1;fill-rule:evenodd;stroke:none" /></g><g
           transform="translate(394.6084,127.042)"
           id="g954"><path
             d="m 0,0 c 2.364,0.555 4.269,1.204 6.349,1.021 3.023,-0.269 5.305,-2.001 6.907,-4.215 1.746,-2.41 3.918,-4.264 6.195,-5.975 3.534,-2.655 5.149,-6.139 5.532,-10.385 0.078,-0.845 0.232,-1.688 0.422,-2.517 0.825,-3.532 1.563,-7.087 2.554,-10.572 0.977,-3.45 0.275,-6.558 -1.435,-9.535 -1.129,-1.961 -2.541,-3.691 -4.477,-4.953 -2.706,-1.763 -4.982,-3.996 -7.123,-6.416 -2.771,-3.136 -6.476,-4.4 -10.545,-4.747 -0.304,-0.023 -0.621,0.104 -0.929,0.19 -0.065,0.021 -0.091,0.168 -0.243,0.474 0.707,0.813 1.714,1.304 2.708,1.851 3.002,1.641 5.889,3.421 8.496,5.698 1.73,1.511 2.694,3.299 3.235,5.385 0.881,3.416 1.68,6.853 2.438,10.297 0.511,2.333 0.495,4.644 -0.415,6.934 -1.7,4.271 -3.201,8.621 -4.998,12.848 -1.084,2.546 -2.526,4.948 -3.901,7.356 C 9.908,-5.756 8.683,-4.555 7.119,-3.738 4.867,-2.558 2.615,-1.374 0,0"
             id="path956"
             style="fill:#485e69;fill-opacity:1;fill-rule:evenodd;stroke:none" /></g><g
           transform="translate(435.627,60.6914)"
           id="g958"><path
             d="m 0,0 c 1.673,1.136 3.538,1.664 5.376,2.119 2.755,0.683 5.181,1.885 7.363,3.682 2.474,2.037 5.123,3.878 7.461,6.053 2.025,1.881 3.895,3.99 5.495,6.238 0.956,1.341 1.434,3.106 1.807,4.752 0.401,1.758 0.518,3.597 0.604,5.41 0.117,2.457 0.18,4.926 0.091,7.384 -0.049,1.37 -0.246,2.804 -0.735,4.072 -1.701,4.398 -3.778,8.603 -7.143,12.036 -1.439,1.47 -2.528,3.206 -3.133,5.174 -0.696,2.245 -1.412,4.506 -1.811,6.813 -0.372,2.158 -1.082,4.174 -2.163,5.999 -1.789,3.023 -3.494,6.15 -6.546,8.206 -0.788,0.531 -1.401,1.321 -2.087,1.998 -1.208,1.191 -2.411,2.385 -3.765,3.728 0.838,0.167 1.596,0.191 2.364,-0.114 0.778,-0.312 1.576,-0.584 2.323,-0.964 0.567,-0.289 1.011,-0.882 1.597,-1.062 3.202,-0.969 5.207,-3.622 7.801,-5.44 1.108,-0.774 1.713,-1.866 1.997,-3.183 0.454,-2.088 1.053,-4.151 1.412,-6.256 0.276,-1.613 0.79,-3.099 1.541,-4.531 1.046,-1.985 2.046,-3.992 3.106,-5.971 0.299,-0.559 0.7,-1.081 1.121,-1.562 4.213,-4.79 6.569,-10.418 7.871,-16.621 0.753,-3.591 0.884,-7.208 1.071,-10.823 0.145,-2.838 -0.83,-5.474 -2.46,-7.828 C 28.729,16.669 26.897,14.03 25.061,11.397 21.499,6.3 16.831,2.783 10.744,1.196 9.103,0.768 7.509,0.095 5.945,-0.59 4.182,-1.361 2.444,-1.486 0.673,-0.742 0.417,-0.635 0.257,-0.292 0,0"
             id="path960"
             style="fill:#485e69;fill-opacity:1;fill-rule:evenodd;stroke:none" /></g><g
           transform="translate(411.5264,136.3799)"
           id="g962"><path
             d="m 0,0 c 3.881,0.402 7.722,0.808 11.638,0.016 3.918,-0.79 6.442,-3.109 8.526,-6.211 0.832,-1.24 1.572,-2.539 2.431,-3.759 0.805,-1.15 1.435,-2.345 1.847,-3.704 0.803,-2.669 1.928,-5.142 3.848,-7.294 1.867,-2.093 2.932,-4.722 3.526,-7.479 1.437,-6.648 1.732,-13.364 0.994,-20.116 -0.348,-3.176 -1.842,-5.91 -3.588,-8.5 -4.444,-6.597 -10.407,-11.282 -17.871,-14.057 -0.902,-0.333 -1.779,-0.72 -2.667,-1.089 -0.871,-0.361 -1.584,-0.144 -2.226,0.508 0.193,0.221 0.306,0.476 0.476,0.522 5.176,1.394 9.117,4.56 12.461,8.601 0.135,0.166 0.252,0.357 0.418,0.485 3.13,2.41 4.363,5.821 5.578,9.457 1.742,5.202 2.119,10.463 1.897,15.82 -0.107,2.555 -0.531,5.111 -1.013,7.627 -0.235,1.233 -0.889,2.396 -1.426,3.559 -1.294,2.813 -2.698,5.578 -3.933,8.416 -1.548,3.573 -3.759,6.708 -6.133,9.749 -0.989,1.264 -2.024,2.493 -3.003,3.762 -0.883,1.143 -2.015,1.919 -3.355,2.384 C 6.202,-0.532 3.967,0.217 1.553,0.007 1.036,-0.038 0.517,0 0,0"
             id="path964"
             style="fill:#506975;fill-opacity:1;fill-rule:evenodd;stroke:none" /></g><g
           transform="translate(385.9717,69.75)"
           id="g966"><path
             d="m 0,0 c 0.496,0.336 0.725,0.582 1.001,0.665 3.312,0.995 6.208,2.84 9.199,4.491 2.153,1.185 3.761,2.907 4.798,5.046 1.394,2.879 2.582,5.861 3.754,8.843 0.799,2.034 0.984,4.197 0.429,6.318 -0.337,1.287 -0.39,2.528 -0.189,3.809 0.428,2.699 0.192,5.323 -0.795,7.886 -0.766,1.997 -1.308,4.093 -2.212,6.022 -1.582,3.376 -3.916,6.103 -7.532,7.485 -0.499,0.191 -1.052,0.321 -1.475,0.627 -1.704,1.235 -3.667,1.703 -5.682,2.077 -0.714,0.131 -1.415,0.345 -2.168,0.532 0.688,1.07 1.746,0.899 2.632,1.2 3.264,1.102 6.347,0.535 9.351,-0.84 1.359,-0.623 2.709,-1.302 3.949,-2.126 1.33,-0.885 2.575,-1.92 3.203,-3.482 0.081,-0.199 0.186,-0.392 0.311,-0.563 2.151,-2.873 3.199,-6.239 4.385,-9.565 0.967,-2.712 2.105,-5.367 3.3,-7.988 0.981,-2.146 1.189,-4.369 0.737,-6.587 C 26.251,20.189 25.265,16.576 24.398,12.939 23.987,11.202 23.046,9.807 21.725,8.65 18.153,5.521 14.121,3.119 9.817,1.152 8.74,0.661 7.668,0.246 6.428,0.742 5.349,1.175 4.312,0.738 3.359,0.222 2.382,-0.31 1.413,-0.679 0,0"
             id="path968"
             style="fill:#506975;fill-opacity:1;fill-rule:evenodd;stroke:none" /></g><g
           transform="translate(372.2451,114.3047)"
           id="g970"><path
             d="m 0,0 c 0.664,0.339 1.091,0.644 1.563,0.785 3.079,0.923 6.199,0.602 9.198,-0.17 1.592,-0.41 3.132,-1.437 4.42,-2.511 1.951,-1.631 4.04,-3.196 5.329,-5.485 0.52,-0.926 1.04,-1.875 1.372,-2.875 0.602,-1.823 0.97,-3.724 1.611,-5.533 0.73,-2.062 0.801,-4.197 0.898,-6.315 0.083,-1.823 -0.345,-3.593 -1.222,-5.252 -2.169,-4.102 -5.586,-6.982 -9.249,-9.636 -3.546,-0.567 -6.696,-2.89 -10.485,-2.362 -0.295,0.041 -0.576,0.181 -0.875,0.28 0.986,1.73 1.73,2.514 2.976,3.12 0.287,0.14 0.591,0.257 0.896,0.351 5.216,1.632 7.626,5.595 8.561,10.616 0.77,4.124 -0.013,8.085 -1.897,11.824 -0.625,1.241 -1.39,2.422 -1.921,3.701 -0.852,2.055 -2.248,3.608 -4.022,4.879 C 6.633,-4.21 6.148,-3.784 5.646,-3.385 4.807,-2.719 4.018,-1.971 3.112,-1.418 2.23,-0.881 1.228,-0.546 0,0"
             id="path972"
             style="fill:#506975;fill-opacity:1;fill-rule:evenodd;stroke:none" /></g><g
           transform="translate(375.1191,117.2324)"
           id="g974"><path
             d="m 0,0 c 2.139,1.723 4.302,3.047 6.813,3.717 2.893,0.772 5.701,0.695 8.439,-0.593 1.454,-0.683 2.947,-1.283 4.373,-2.018 1.952,-1.002 3.527,-2.523 4.562,-4.409 2.438,-4.452 4.17,-9.13 3.599,-14.363 -0.185,-1.705 -0.155,-3.369 0.272,-5.088 0.49,-1.988 0.242,-3.983 -0.714,-5.929 -1.127,-2.295 -1.968,-4.73 -2.949,-7.1 -0.803,-1.941 -2.129,-3.458 -3.888,-4.58 -3.436,-2.198 -7.128,-3.892 -10.895,-5.43 -2.444,-0.997 -4.541,-0.406 -6.649,1.529 2.365,0.765 4.514,1.563 6.722,2.131 1.169,0.301 2.175,0.657 3.086,1.507 1.708,1.602 3.521,3.099 5.323,4.597 4.454,3.703 5.958,8.471 5.075,14.072 -0.584,3.698 -1.749,7.249 -3.019,10.76 -0.218,0.597 -0.533,1.183 -0.91,1.695 -2.753,3.761 -5.924,7.093 -10.395,8.737 C 7.285,-0.189 5.504,-0.17 3.814,-0.022 2.552,0.089 1.273,0 0,0"
             id="path976"
             style="fill:#485e69;fill-opacity:1;fill-rule:evenodd;stroke:none" /></g><g
           transform="translate(456.7803,147.373)"
           id="g978"><path
             d="m 0,0 c 2.594,1.136 2.596,1.136 5.793,0.997 0.302,-0.466 0.636,-1.002 0.988,-1.524 1.05,-1.566 2.419,-2.678 4.309,-3.115 1.859,-0.428 3.47,-1.53 5.42,-1.843 1.489,-0.239 2.581,-1.459 3.229,-2.904 0.932,-2.076 1.395,-4.256 1.489,-6.53 0.109,-2.583 0.456,-5.139 1.649,-7.469 0.627,-1.224 1.371,-2.423 2.25,-3.474 1.093,-1.303 2.347,-2.484 3.595,-3.651 4.529,-4.238 6.696,-9.553 7.193,-15.636 0.282,-3.442 -0.252,-6.84 -0.738,-10.227 -0.651,-4.569 -2.038,-8.954 -3.716,-13.236 -0.461,-1.171 -1.188,-2.284 -1.986,-3.261 -1.564,-1.9 -3.286,-3.666 -4.904,-5.522 -1.033,-1.185 -2.236,-1.943 -3.856,-2.011 -0.61,-0.026 -1.211,-0.261 -2.217,-0.492 0.595,0.851 0.899,1.402 1.31,1.853 4.537,4.962 7.846,10.58 10.02,16.993 1.649,4.863 2.254,9.787 2.292,14.83 0.027,3.969 -1.209,7.581 -3.742,10.679 -2.502,3.058 -4.982,6.138 -7.615,9.081 -2.293,2.562 -3.839,5.4 -4.099,8.85 -0.324,4.399 -2.472,7.889 -5.396,10.99 -1.317,1.396 -2.747,2.688 -4.082,4.07 -1.416,1.465 -3.123,2.201 -5.138,2.3 C 1.415,-0.221 0.791,-0.099 0,0"
             id="path980"
             style="fill:#607e8c;fill-opacity:1;fill-rule:evenodd;stroke:none" /></g><g
           transform="translate(411.3252,66.6963)"
           id="g982"><path
             d="m 0,0 c 3.501,0.406 6.124,2.469 8.839,4.335 0.617,0.425 1.203,0.898 1.834,1.3 3.849,2.441 6.306,6.046 8.193,10.053 0.621,1.319 0.863,2.86 1.051,4.332 0.437,3.393 0.704,6.795 1.486,10.15 0.35,1.505 0.299,3.247 -0.081,4.754 -1.672,6.637 -3.485,13.253 -6.83,19.289 -3.699,6.673 -9.042,11.291 -16.763,12.723 -0.2,0.036 -0.386,0.142 -0.897,0.339 0.423,0.174 0.619,0.295 0.829,0.33 0.317,0.051 0.641,0.044 0.959,0.058 2.782,0.127 5.535,0.105 8.264,-0.651 1.86,-0.515 3.236,-1.506 4.33,-3.062 1.228,-1.744 2.454,-3.51 3.878,-5.089 1.458,-1.616 2.505,-3.426 3.404,-5.375 1.659,-3.585 3.431,-7.117 5.052,-10.72 1.243,-2.758 1.704,-5.735 1.857,-8.732 0.131,-2.667 0.203,-5.35 0.061,-8.017 -0.093,-1.792 -0.522,-3.582 -0.946,-5.34 -0.454,-1.866 -1.095,-3.688 -1.622,-5.538 -0.481,-1.676 -1.255,-3.13 -2.559,-4.353 C 17.929,8.522 16.023,5.77 13.296,3.796 10.115,1.491 6.591,0.101 2.785,-0.7 1.79,-0.909 0.91,-0.688 0,0"
             id="path984"
             style="fill:#485e69;fill-opacity:1;fill-rule:evenodd;stroke:none" /></g><g
           transform="translate(499.9277,83.9463)"
           id="g986"><path
             d="m 0,0 c -0.662,-0.496 -1.303,-1.062 -2.023,-1.5 -3.577,-2.187 -6.281,-5.106 -7.835,-9.045 -0.355,-0.893 -0.77,-1.769 -1.25,-2.601 -0.415,-0.72 -0.959,-1.368 -1.355,-1.918 l -4.655,0 c 1.045,1.107 1.846,1.922 2.612,2.772 0.714,0.795 1.375,1.637 2.085,2.436 1.374,1.54 2.378,3.233 2.872,5.291 0.448,1.858 1.245,3.629 1.854,5.453 1.571,4.708 2.226,9.59 2.418,14.509 0.313,8.164 -2.71,15.004 -8.644,20.597 -1.235,1.164 -2.531,2.304 -3.545,3.648 -1.86,2.461 -2.533,5.386 -2.633,8.427 -0.086,2.702 -0.559,5.307 -1.567,7.819 -0.154,0.385 -0.209,0.808 -0.311,1.218 2.361,0.42 2.691,0.33 3.123,-1.511 0.535,-2.283 0.987,-4.599 1.293,-6.924 0.491,-3.735 1.82,-6.974 4.807,-9.42 3.912,-3.204 5.99,-7.736 8.465,-11.958 0.575,-0.98 0.848,-2.212 0.974,-3.36 0.176,-1.646 0.601,-3.108 1.702,-4.38 0.331,-0.381 0.411,-0.975 0.634,-1.545 C -3.468,13.17 -2.441,8.31 -0.859,3.458 -0.595,2.646 -0.274,1.852 -0.008,1.04 0.051,0.851 0,0.623 0,0"
             id="path988"
             style="fill:#485e69;fill-opacity:1;fill-rule:evenodd;stroke:none" /></g><g
           transform="translate(364.4316,78.9883)"
           id="g990"><path
             d="m 0,0 c 0.701,-0.118 1.437,-0.137 2.094,-0.373 1.93,-0.694 3.565,-0.227 5.015,1.116 0.55,0.507 1.079,1.038 1.593,1.581 1.118,1.171 2.361,2.152 3.873,2.78 0.591,0.242 1.183,0.527 1.696,0.904 1.038,0.758 2.089,1.571 2.312,2.945 0.68,4.228 1.358,8.463 -0.128,12.67 -0.179,0.504 -0.292,1.074 -0.609,1.477 -1.976,2.517 -3.825,5.222 -6.694,6.796 -1.368,0.75 -3.029,0.977 -4.568,1.402 -0.605,0.167 -1.237,0.22 -1.957,0.343 2.697,1.806 5.691,1.715 7.855,-0.081 1.395,-1.154 2.865,-2.218 4.293,-3.331 0.335,-0.262 0.704,-0.51 0.959,-0.843 3.985,-5.215 6.35,-10.971 5.089,-17.629 C 20.115,6.015 18.022,3.019 14.202,1.765 12.622,1.244 11.351,0.43 10.105,-0.618 7.331,-2.948 7.086,-2.949 3.735,-1.846 2.722,-1.511 1.73,-1.108 0.735,-0.715 0.453,-0.604 0.199,-0.421 -0.068,-0.271 -0.044,-0.181 -0.021,-0.09 0,0"
             id="path992"
             style="fill:#485e69;fill-opacity:1;fill-rule:evenodd;stroke:none" /></g><g
           transform="translate(483.7207,136.1709)"
           id="g994"><path
             d="m 0,0 c 0.261,-0.134 0.646,-0.199 0.765,-0.411 1.909,-3.432 5.25,-4.846 8.646,-6.177 1.082,-0.423 2.183,-0.791 3.42,-1.238 -0.054,-0.611 -0.026,-1.133 -0.145,-1.617 -1.132,-4.551 -0.467,-8.671 3.067,-12.245 -0.53,-1.032 -1.046,-2.034 -1.688,-3.284 -1.288,2.041 -2.505,3.76 -3.501,5.603 -1.181,2.192 -2.691,4.073 -4.584,5.67 -0.08,0.068 -0.148,0.152 -0.23,0.22 -4.251,3.518 -6.184,8.012 -5.695,13.528 L 0,0 z"
             id="path996"
             style="fill:#62808f;fill-opacity:1;fill-rule:evenodd;stroke:none" /></g><g
           transform="translate(373.6631,84.9189)"
           id="g998"><path
             d="m 0,0 c 0.868,0.942 1.501,1.612 2.116,2.297 1.947,2.17 2.678,4.602 1.432,7.368 -0.63,1.398 -0.924,2.832 -0.91,4.344 0.018,2.013 -0.865,3.339 -2.669,4.351 -2.052,1.154 -4.004,2.373 -6.396,2.761 -2.933,0.479 -5.687,0.324 -8.328,-1.226 -1.243,-0.729 -2.533,-1.484 -4.022,-1.858 -0.05,0.375 -0.161,0.641 -0.083,0.727 1.707,1.837 3.681,3.231 6.202,3.737 1.464,0.293 2.9,0.727 4.369,0.992 1.93,0.348 3.857,0.06 5.712,-0.456 C 1.135,22.006 5.581,16.479 5.866,12.583 6.077,9.706 6.282,6.829 5.586,3.965 5.343,2.962 4.954,2.116 4.03,1.678 2.838,1.115 1.902,-0.089 0,0"
             id="path1000"
             style="fill:#648291;fill-opacity:1;fill-rule:evenodd;stroke:none" /></g><g
           transform="translate(446.9463,146.9277)"
           id="g1002"><path
             d="M 0,0 C 1.441,0.735 2.17,1.11 2.956,1.511 3.526,1.219 4.075,0.939 4.569,0.686 4.638,-0.163 3.765,-1.072 2.971,-0.939 2.175,-0.805 1.417,-0.461 0,0"
             id="path1004"
             style="fill:#485e69;fill-opacity:1;fill-rule:evenodd;stroke:none" /></g><g
           transform="translate(348.1074,93.9238)"
           id="g1006"><path
             d="m 0,0 c -0.517,-1.598 -0.995,-3.209 -1.583,-4.779 -0.086,-0.235 -0.712,-0.445 -1.03,-0.38 -0.452,0.092 -0.632,0.596 -0.404,1.014 0.803,1.485 1.658,2.942 2.492,4.411 C -0.351,0.176 -0.176,0.09 0,0"
             id="path1008"
             style="fill:#485e69;fill-opacity:1;fill-rule:evenodd;stroke:none" /></g><g
           transform="translate(372.3311,83.5)"
           id="g1010"><path
             d="M 0,0 C -1.141,-1.937 -2.253,-2.928 -4.045,-3.025 -2.86,-2.128 -2.084,-0.694 0,0"
             id="path1012"
             style="fill:#485e69;fill-opacity:1;fill-rule:evenodd;stroke:none" /></g><g
           transform="translate(483.7754,136.2197)"
           id="g1014"><path
             d="M 0,0 C -0.086,0.062 -0.232,0.112 -0.249,0.191 -0.542,1.49 -0.817,2.792 -0.746,4.259 -0.56,3.992 -0.238,3.736 -0.212,3.455 -0.109,2.292 -0.097,1.121 -0.055,-0.048 -0.055,-0.049 0,0 0,0"
             id="path1016"
             style="fill:#485e69;fill-opacity:1;fill-rule:evenodd;stroke:none" /></g><g
           transform="translate(446.5312,204.7422)"
           id="g1018"><path
             d="m 0,0 c -0.904,0.607 -1.723,1.243 -2.62,1.741 -2.032,1.123 -3.17,2.865 -3.922,5.016 -0.786,2.24 -1.607,4.451 -1.74,6.852 -0.014,0.268 -0.154,0.528 -0.281,0.95 -0.625,0.028 -1.265,0.084 -1.903,0.081 -1.043,-0.003 -2.085,-0.098 -3.123,-0.046 -0.544,0.029 -1.172,0.156 -1.589,0.469 -1.131,0.849 -2.11,1.904 -3.261,2.717 -0.96,0.678 -0.707,2.495 -2.082,2.479 -1.061,-0.013 -2.112,-0.681 -3.17,-1.054 -0.088,-0.033 -0.193,-0.023 -0.277,-0.064 -3.802,-1.856 -9.437,0.513 -11.762,2.845 -0.385,0.39 -0.785,0.767 -1.218,1.19 -0.525,-0.212 -0.952,-0.399 -1.388,-0.558 -1.514,-0.555 -3.008,-1.162 -4.546,-1.629 -1.701,-0.518 -3.346,-0.477 -4.841,0.742 -0.559,0.458 -1.303,0.686 -2.026,1.046 -0.545,-0.571 -0.969,-1.078 -1.452,-1.509 -0.564,-0.501 -1.122,-1.084 -1.792,-1.375 -3.644,-1.589 -7.253,-3.369 -11.427,-2.843 -0.468,0.058 -0.95,-0.003 -1.425,0.007 -1.391,0.025 -2.594,-0.465 -3.673,-1.318 -0.52,-0.41 -1.07,-0.779 -1.574,-1.205 -2.672,-2.27 -5.358,-4.529 -7.993,-6.839 -1.139,-0.999 -2.143,-2.142 -3.25,-3.173 -2.356,-2.193 -4.778,-4.319 -7.104,-6.541 -1.23,-1.174 -2.376,-2.451 -3.459,-3.765 -2.463,-2.99 -5.323,-5.604 -7.653,-8.757 -3.643,-4.931 -6.611,-10.136 -8.774,-15.852 -0.945,-2.497 -1.053,-4.984 -0.567,-7.541 0.668,-3.486 1.99,-6.71 3.913,-9.701 2.245,-3.491 5.243,-5.942 9.297,-7.033 0.912,-0.246 1.817,-0.561 2.689,-0.928 2.62,-1.111 5.359,-1.206 8.119,-0.953 3.207,0.293 6.398,0.801 9.608,1.01 3.97,0.256 7.877,0.865 11.76,1.668 0.736,0.152 1.475,0.344 2.165,0.63 1.421,0.582 2.876,0.953 4.41,1.034 0.852,0.046 1.717,0.077 2.547,0.253 3.624,0.759 7.267,1.444 10.839,2.391 5.055,1.343 10.225,1.977 15.362,2.84 1.488,0.25 3.011,0.162 4.49,-0.346 0.686,-0.236 1.441,-0.281 2.053,-0.391 3.06,3.858 3.919,5.175 11.536,6.639 0.081,0.235 0.248,0.496 0.248,0.758 0.007,3.177 1.613,5.349 4.266,6.887 0.902,0.525 1.771,1.108 2.672,1.63 1.564,0.904 1.551,0.892 1.302,2.631 -0.093,0.648 -0.206,1.344 -0.07,1.966 0.523,2.396 1.039,4.802 2.728,6.753 0.672,0.774 1.171,1.701 1.663,2.435 -0.373,1.421 -0.736,2.679 -1.025,3.951 -0.352,1.547 1.054,2.601 1.219,4.169 C -0.427,-6.86 -0.179,-3.423 0,0 m -64.31,22.261 c 0.248,-0.811 0.455,-1.51 0.68,-2.202 0.023,-0.067 0.148,-0.098 0.405,-0.253 5.121,2.827 10.613,5.098 16.245,7.155 0.229,-0.207 0.493,-0.349 0.614,-0.566 0.957,-1.673 1.311,-1.927 2.835,-1.226 3.792,1.745 7.879,1.985 11.913,2.525 0.272,0.036 0.559,-0.056 0.831,-0.088 0.51,-0.619 -0.082,-1.042 -0.24,-1.518 -0.591,-1.786 0.1,-3.206 1.896,-3.744 1.214,-0.361 2.428,-0.308 3.653,0.014 1.559,0.413 3.128,0.783 4.707,1.119 0.72,0.149 1.466,0.169 2.355,0.265 0.115,-0.875 0.205,-1.604 0.309,-2.331 0.226,-1.624 1.115,-2.776 2.512,-3.595 1.334,-0.778 2.779,-1.22 4.29,-1.42 1.6,-0.21 3.208,-0.337 4.813,-0.519 0.549,-0.064 1.092,-0.184 1.658,-0.279 0,-0.674 0.03,-1.236 -0.004,-1.793 C -5.055,10.348 -3.721,7.506 -1.306,5.14 -0.787,4.627 -0.051,4.299 0.635,3.994 1.487,3.612 2.39,3.344 3.311,3.013 3.212,1.863 3.089,0.844 3.041,-0.177 2.996,-1.123 3.152,-2.094 3.003,-3.02 2.74,-4.626 3.366,-5.787 4.535,-6.758 4.89,-7.053 5.262,-7.328 5.555,-7.557 5.101,-9.501 4.495,-11.3 4.296,-13.144 c -0.197,-1.847 0.594,-3.515 1.9,-4.651 -1.081,-1.638 -2.092,-3.011 -2.933,-4.477 -1.409,-2.457 -2.277,-5.028 -0.77,-7.945 -2.869,-1.512 -5.794,-2.76 -7.701,-5.344 -1.876,-2.542 -2.966,-5.487 -4.01,-8.593 -5.423,0.515 -9.026,-2.21 -11.72,-6.757 -1.94,0.843 -3.968,1.188 -6.041,1.129 -1.984,-0.057 -3.981,-0.109 -5.947,-0.355 -4.512,-0.571 -9.012,-1.243 -13.512,-1.906 -1.025,-0.153 -2.083,-0.299 -3.035,-0.679 -3.715,-1.486 -7.598,-2.298 -11.497,-3.092 -2.871,-0.586 -5.731,-1.258 -8.59,-1.916 -4.285,-0.984 -8.616,-1.208 -13.003,-1.137 -4.55,0.074 -9.124,0.142 -13.651,-0.232 -3.222,-0.266 -6.421,-0.487 -9.651,-0.473 -4.948,0.019 -8.918,2.3 -12.463,5.449 -1.975,1.751 -2.758,4.097 -2.227,6.696 0.438,2.132 0.973,4.269 1.749,6.295 1.317,3.447 2.832,6.824 4.315,10.207 0.838,1.909 1.768,3.78 2.678,5.657 0.204,0.425 0.495,0.811 0.739,1.219 0.59,0.987 1.493,1.708 2.195,2.573 0.68,0.837 0.856,2.071 1.309,3.109 0.146,0.334 0.467,0.588 0.709,0.882 3.374,4.1 6.754,8.192 10.116,12.298 2.533,3.096 5.436,5.82 8.4,8.485 5.927,5.337 12.063,10.427 18.374,15.299 1.499,1.157 3.075,2.217 4.637,3.295 0.289,0.197 0.679,0.251 1.024,0.369"
             id="path1020"
             style="fill:#485e69;fill-opacity:1;fill-rule:evenodd;stroke:none" /></g><g
           transform="translate(387.124,159.8691)"
           id="g1022"><path
             d="m 0,0 0,0.182 c 1.138,0 2.273,-0.003 3.412,0 3.439,0.007 6.483,0.978 9.081,3.369 3.075,2.836 6.75,4.517 10.905,5.119 0.654,0.095 1.302,0.233 1.945,0.389 3.003,0.724 5.651,2.119 8.044,4.08 2.278,1.865 4.602,3.683 7.829,3.59 0.452,-0.013 1.034,0.47 1.357,0.879 0.462,0.585 0.821,1.284 1.077,1.988 0.787,2.131 1.458,4.308 2.263,6.433 0.615,1.629 0.476,3.184 -0.246,4.693 -0.631,1.318 -0.849,2.706 -0.972,4.13 -0.1,1.135 -0.174,2.278 -0.358,3.397 -0.133,0.831 -0.266,1.727 -0.672,2.437 -1.686,2.969 -3.483,5.878 -5.794,8.414 -0.618,0.681 -1.445,1.191 -2.226,1.703 -0.869,0.569 -1.94,0.894 -2.669,1.593 -2.381,2.29 -5.238,2.911 -8.38,2.688 C 20.68,54.805 16.903,53.819 13.397,52.108 10.938,50.908 8.432,50.39 5.754,50.313 4.812,50.284 3.86,50.178 2.933,49.991 -0.409,49.322 -3.731,48.556 -7.078,47.92 c -3.771,-0.717 -6.681,-2.663 -8.483,-6.024 -0.744,-1.385 -1.748,-2.211 -3.146,-2.63 -2.127,-0.634 -3.972,-1.772 -5.761,-3.031 -2.246,-1.579 -4.51,-3.14 -6.75,-4.729 -0.539,-0.382 -1.107,-0.777 -1.516,-1.281 -3.432,-4.238 -6.335,-8.727 -7.341,-14.244 -0.744,-4.066 -0.419,-7.966 1.576,-11.582 3.349,-6.06 8.129,-7.802 13.915,-7.429 3.626,0.233 6.905,1.978 9.702,4.382 1.793,1.539 1.924,1.622 3.939,0.567 0.171,-0.088 0.339,-0.168 0.508,-0.259 2.639,-1.431 5.392,-2.289 8.447,-1.784 C -1.338,-0.018 -0.664,-0.039 0,0 m 9.962,65.414 c 0.274,-0.104 0.476,-0.138 0.623,-0.248 2.404,-1.818 4.983,-1.495 7.595,-0.613 1.158,0.39 2.287,0.867 3.251,1.238 1.876,-1.074 3.523,-2.195 5.317,-2.988 1.726,-0.764 3.589,-1.149 5.534,-1.153 2.047,-0.002 3.839,0.913 5.799,1.515 0.38,-0.44 0.699,-0.769 0.975,-1.129 2.535,-3.304 5.701,-5.196 9.957,-4.432 0.217,-0.235 0.45,-0.373 0.453,-0.509 0.018,-2.54 1.205,-4.765 1.961,-7.093 0.6,-1.846 1.935,-3.247 3.473,-4.415 0.829,-0.629 1.698,-1.211 2.628,-1.87 -0.152,-3.134 0.284,-6.2 1.728,-9.142 -1.639,-2.233 -1.027,-4.487 0,-6.806 -0.735,-1.281 -1.503,-2.575 -2.235,-3.892 -1.493,-2.703 -2.323,-5.572 -2.046,-8.62 -1.863,-1.268 -3.794,-2.33 -5.412,-3.749 C 47.888,10.039 47.204,7.88 46.778,5.692 42.562,4.645 38.707,3.161 36.202,-0.491 c -0.367,0 -0.659,-0.064 -0.915,0.007 -2.05,0.574 -4.057,0.588 -6.18,0.176 C 25.386,-1.021 21.624,-1.43 17.944,-2.477 14.952,-3.329 11.805,-3.645 8.726,-4.197 8.352,-4.264 7.963,-4.279 7.603,-4.392 4.79,-5.257 1.953,-5.962 -1.011,-6.076 c -0.365,-0.014 -0.74,-0.158 -1.09,-0.301 -4.187,-1.707 -8.615,-2.114 -13.063,-2.412 -0.283,-0.018 -0.577,0 -0.851,-0.06 -3.354,-0.728 -6.801,-0.539 -10.177,-1.017 -2.683,-0.382 -5.262,-0.21 -7.787,0.898 -1.551,0.684 -3.208,1.125 -4.795,1.732 -1.823,0.692 -3.212,1.922 -4.438,3.439 -1.321,1.632 -2.484,3.335 -3.521,5.156 -1.452,2.548 -1.903,5.328 -2.198,8.168 -0.166,1.642 0.156,3.214 0.725,4.745 2.374,6.359 5.44,12.345 9.917,17.489 3.232,3.718 6.564,7.358 10.018,10.872 2.318,2.36 4.922,4.436 7.395,6.646 0.564,0.504 1.175,0.982 1.634,1.575 2.768,3.564 6.52,6.008 9.938,8.835 0.709,0.585 1.497,0.797 2.378,0.776 0.57,-0.014 1.141,-0.027 1.706,-0.093 4.446,-0.519 8.346,1.26 12.237,2.968 1.014,0.445 1.853,1.289 2.945,2.074"
             id="path1024"
             style="fill:#485e69;fill-opacity:1;fill-rule:evenodd;stroke:none" /></g><g
           transform="translate(370.0889,198.248)"
           id="g1026"><path
             d="m 0,0 c 0.339,-0.405 3.903,0.08 4.878,0.037 1.223,-0.05 2.449,-0.021 3.67,-0.073 2.921,-0.126 5.486,-1.335 8.014,-2.662 1.589,-0.836 3.221,-1.6 4.771,-2.502 2.001,-1.164 4.134,-1.857 6.408,-2.221 1.031,-0.166 1.245,-0.4 2.598,-1.712 -0.162,-0.289 -0.287,-0.653 -0.524,-0.915 -1.726,-1.884 -3.512,-3.714 -5.198,-5.632 -1.564,-1.779 -3.155,-3.557 -4.511,-5.496 -2.127,-3.042 -4.668,-5.432 -8.274,-6.604 -3.135,-1.022 -5.698,-2.905 -7.942,-5.321 -2.145,-2.306 -4.599,-4.243 -7.541,-5.5 -1.588,-0.676 -3.195,-1.152 -4.945,-0.93 -0.376,0.048 -0.754,0.11 -1.13,0.096 -2.621,-0.099 -4.769,0.932 -6.697,2.638 -4.278,3.782 -5.781,8.456 -4.86,14.057 0.878,5.369 3.679,9.695 7.096,13.717 0.48,0.564 1.124,1.007 1.737,1.441 2.165,1.533 4.4,2.972 6.515,4.569 C -4.171,-1.682 -2.277,-0.687 0,0"
             id="path1028"
             style="fill:#a9c6d1;fill-opacity:1;fill-rule:evenodd;stroke:none" /></g><g
           transform="translate(379.0273,167.2598)"
           id="g1030"><path
             d="m 0,0 c 0.573,0.331 1.019,0.645 1.508,0.859 1.473,0.646 3.034,1.131 4.436,1.908 2.526,1.393 4.513,3.452 6.198,5.767 2.069,2.841 4.206,5.616 6.834,7.971 1.714,1.538 2.861,3.504 4.156,5.358 0.156,0.221 0.172,0.537 0.279,0.905 -1.627,0.943 -3.226,1.937 -5.083,2.419 -2.119,0.553 -4.117,1.409 -6.049,2.435 -2.588,1.371 -5.218,2.66 -7.8,4.04 -1.464,0.784 -2.977,1.197 -4.637,1.099 -0.238,-0.013 -0.487,0.164 -0.924,0.319 0.288,0.378 0.44,0.757 0.716,0.913 0.983,0.552 1.975,1.124 3.028,1.511 1.686,0.618 3.414,1.118 5.141,1.618 0.631,0.183 1.301,0.291 1.959,0.324 2.364,0.119 4.728,0.197 7.092,0.284 1.809,0.069 3.575,0.293 5.309,0.875 3.326,1.117 6.681,2.139 10.013,3.233 1,0.327 1.984,0.65 3.054,0.502 0.461,-0.064 0.985,-0.07 1.362,-0.299 1.686,-1.046 3.371,-2.078 4.58,-3.749 2.182,-3.018 4.007,-6.273 5.321,-9.696 1.688,-4.39 2.135,-9.04 0.417,-13.605 C 45.883,12.258 43.996,10.383 40.947,9.943 37.757,9.483 34.619,8.905 31.617,7.593 29.437,6.642 27.409,5.46 25.362,4.291 23.635,3.305 21.924,2.292 20.213,1.279 19.479,0.845 18.725,0.431 18.053,-0.088 14.9,-2.518 11.139,-3.213 7.371,-3.439 4.564,-3.608 2.064,-2.304 0,0"
             id="path1032"
             style="fill:#6d90a1;fill-opacity:1;fill-rule:evenodd;stroke:none" /></g><g
           transform="translate(425.8877,178.2891)"
           id="g1034"><path
             d="m 0,0 c 0.659,1.411 1.336,2.551 1.74,3.778 1.674,5.1 1.035,10.119 -0.863,15.005 -1.377,3.542 -3.221,6.854 -5.392,9.985 -4.035,4.628 -8.518,4.433 -10.097,3.903 -3.495,-1.177 -6.991,-2.363 -10.516,-3.452 -1.81,-0.558 -3.674,-0.862 -5.608,-0.774 -1.789,0.082 -3.589,-0.02 -5.38,-0.112 -0.946,-0.049 -1.904,-0.164 -2.815,-0.404 -2.106,-0.557 -4.183,-1.225 -6.278,-1.825 -1.677,-0.477 -3.201,-1.148 -4.246,-2.657 -0.754,-1.085 -1.858,-1.517 -3.406,-1.457 0.109,0.449 0.109,0.818 0.276,1.076 1.507,2.34 3.632,3.842 6.347,4.429 2.037,0.439 4.131,0.649 6.148,1.158 3.404,0.869 6.857,1.382 10.349,1.695 1.426,0.128 2.709,0.684 4.018,1.31 3.953,1.888 8.132,3.097 12.517,3.463 1.963,0.165 3.742,-0.448 5.377,-1.518 1.35,-0.88 2.711,-1.742 4.066,-2.61 0.159,-0.101 0.353,-0.173 0.475,-0.309 C -1.146,28.3 1.09,26.021 2.547,23.077 3.59,20.971 4.044,18.842 4.151,16.537 4.235,14.744 4.482,12.949 5.318,11.29 5.804,10.33 5.869,9.278 5.534,8.235 4.81,5.979 4.139,3.702 3.317,1.481 2.727,-0.115 2.126,-0.329 0,0"
             id="path1036"
             style="fill:#485e69;fill-opacity:1;fill-rule:evenodd;stroke:none" /></g><g
           transform="translate(420.0615,175.292)"
           id="g1038"><path
             d="m 0,0 c -1.599,-1.683 -3.087,-2.962 -4.991,-3.601 -1.968,-0.662 -3.98,-1.187 -5.985,-1.733 -1.895,-0.517 -3.802,-0.981 -5.768,-1.485 0.049,-0.063 -0.041,0.003 -0.039,0.066 0,0.085 0.051,0.201 0.119,0.247 1.329,0.894 2.628,1.848 4.016,2.644 1.141,0.654 2.376,1.155 3.598,1.652 1.401,0.57 2.8,1.19 4.26,1.553 C -3.353,-0.3 -1.839,-0.236 0,0"
             id="path1040"
             style="fill:#485e69;fill-opacity:1;fill-rule:evenodd;stroke:none" /></g><g
           transform="translate(384.917,161.9375)"
           id="g1042"><path
             d="m 0,0 c -3.942,-0.761 -6.458,1.007 -9.346,2.28 0.593,0.606 1.031,1.058 1.538,1.578 0.73,-0.421 1.383,-0.767 2.002,-1.165 0.869,-0.558 1.66,-1.256 2.574,-1.707 C -2.417,0.586 -1.482,0.437 0,0"
             id="path1044"
             style="fill:#485e69;fill-opacity:1;fill-rule:evenodd;stroke:none" /></g><g
           transform="translate(400.7344,166.5557)"
           id="g1046"><path
             d="m 0,0 c -2.957,-2.534 -5.924,-4.854 -10.231,-4.645 0.151,0.266 0.184,0.403 0.246,0.417 3.251,0.805 6.062,2.511 8.839,4.292 0.215,0.138 0.521,0.141 0.79,0.176 C -0.288,0.247 -0.204,0.141 0,0"
             id="path1048"
             style="fill:#485e69;fill-opacity:1;fill-rule:evenodd;stroke:none" /></g></g></g></g></svg>