<?xml version="1.0" encoding="utf-8"?>
<!-- Generator: Adobe Illustrator 15.0.2, SVG Export Plug-In . SVG Version: 6.00 Build 0)  -->
<!DOCTYPE svg PUBLIC "-//W3C//DTD SVG 1.1//EN" "http://www.w3.org/Graphics/SVG/1.1/DTD/svg11.dtd">
<svg version="1.1" id="layer_x5F_www.ABC-color.com"
	 xmlns="http://www.w3.org/2000/svg" xmlns:xlink="http://www.w3.org/1999/xlink" x="0px" y="0px" width="822px" height="567px"
	 viewBox="0 0 822 567" enable-background="new 0 0 822 567" xml:space="preserve">
<rect display="none" fill="#FFFFFF" width="822" height="567"/>
<text id="image_1_" transform="matrix(1 0 0 1 16 549)" font-family="'MyriadPro-Regular'" font-size="12">www . ABC - color . com</text>
<g id="XMLID_1_">
	<g>
		<path fill="#694C26" d="M529.1,105.2l-0.1,0.1c-0.1,0.1-0.2,0.2-0.3,0.3c-16-2.2-18.7,1.4-18.7,1.4c-2.8,1.9-7.1,10.7-11.6,21.3
			l-0.601-0.2c-16,13.1-30.1,27.8-41.899,43.8c-20.9,28.4-34.4,60.8-38.7,96c-0.7,5.3-1.101,10.7-1.3,16.1
			c4,4.7,8.699,8.5,13.199,11.4c3.101,2,6,3.6,8.4,4.8c3.8,1.899,6.4,2.8,6.4,2.8c-2.9,1.1-5.301,2.4-7,3.5
			c-2.5,1.6-4.801,3.1-6.9,4.5c0-1.8-2.3-4.8-5.2-8c-5.3-5.8-12.8-12-12.8-12v20.9c-2.8-8-5.9-14.601-9.1-19.801L405,280
			c0-39,12.3-75.9,34-108.4l0,0c10.1-15.1,22.2-29.2,36-42.2c4.5-4.2,9.1-8.2,13.9-12.1C545.7,70.9,626.4,42,716,42c0,0,10-3,15-11
			c0,0-2,16-18,26c-56.3,0-126.8,18.6-170.3,40.7c-5.101,2.6-9.8,5.2-14,7.9c0.1-0.1,0.2-0.2,0.3-0.3
			C529.1,105.3,529.1,105.2,529.1,105.2z"/>
		<path fill="#548910" d="M666,306c0,0,69,79,4,67c0,0,47,121-16,85c0,0-15,89-41,36c0,0-42.4,115.4-69.7,4.3
			c-10,4.601-44,16.3-31.5-43c3.9-0.8,7.7-2.399,11.101-4.8c30.5-21.5,13.899-64.7-2.301-90.9c-8-12.899-15.1-21-22.3-25.5
			c-0.1-0.1-0.2-0.1-0.3-0.199c-4.6-23.5-16.5-32.301-28.7-34.4c1.4-3.3,3.8-6.9,7.9-11.1c0.5-0.601,1.1-1.101,1.7-1.7
			c4.3-4.2,10.199-9,18.1-14.8c0,0-31.9-3-10.3-33.4c0.7-1,1.399-2,2.3-3.1c5-6.4,12.1-13.8,22.1-22.6c3.601-3.2,7.601-6.5,12-10
			c0,0-21.399-17.3,23-33c4.9,13.1,9.2,25.8,13.101,38c0.8,2.4-48.8,64.6-48.101,67c0.5,1.5,51.301-56.7,51.801-55.2
			c2.5,8.3,7.199,27.4,9.3,35.2c0.5,1.9-51.7,56.7-47,54c7-4,49.3-48.7,50-46c1.399,5.8,6.8,41.5,8,47c0.399,1.7-36.3,36.3-36,38
			c0.5,2.3,36.6-30.3,37-28c3.1,15.7,5,28.4,6.2,38.8c0.199,1.801-28.4,25.601-28.2,27.2c0.2,2.5,27.8-14.2,28-12
			c1.1,16.3-0.7,24.9-2,31c-0.8,3.601-11.601,13.4-12,16c-0.3,1.8,11.5-6.6,11.3-5c-11.5,83.5,7.7-5,7.7-5c0-2,15,8,15,6
			c0-1.3-15-14.7-15-16c0-13.1-0.101-24.6-0.3-35c0-1,29.3,8,29.3,7s-29.4-12-29.4-13c-0.399-17.2-1.1-31.3-2.6-44.899
			c-0.3-3,36.3,2.899,36-0.101c-0.5-3.7-34.4-4.3-35-8c-1.7-10.6-7.4-33.6-10.2-46.2c-0.3-1.6,18.2-3.8,34.2-9.8
			c1.899-0.7-36.2,1-36.7-1.1c-2.1-9-4.5-18.9-7.3-29.9c-2.7-10.8-3-3,35-7c1.7-0.2-38.2-4.5-38.601-6.1
			c-2.8-10.6-5.899-22.1-9.399-34.9c-0.5-1.5-1-2.9-1.5-4.4c0,0,53.5-15.6,50.5,35.4c0,0,30.7,7.4,46,17c11.7,7.4,14.399,16.2-13,24
			C642,244,736,313,666,306z"/>
		<path fill="#936D25" d="M628,315c0.4,3-36.3-2.9-36,0.1c1.4,13.601,2.2,27.7,2.6,44.9c0,1,29.4,12,29.4,13s-29.3-8-29.3-7
			c0.2,10.4,0.3,21.9,0.3,35c0,1.3,15,14.7,15,16c0,2-15-8-15-6c0,0-19.3,88.5-7.7,5c0.2-1.6-11.5,6.7-11.3,5
			c0.4-2.6,11.2-12.4,12-16c1.3-6.1,3.1-14.7,2-31c-0.2-2.2-27.8,14.5-28,12c-0.2-1.7,28.4-25.4,28.2-27.2
			C589,348.4,587.1,335.7,584,320c-0.4-2.3-36.5,30.3-37,28c-0.3-1.7,36.4-36.3,36-38c-1.2-5.5-6.6-41.2-8-47c-0.7-2.7-43,42-50,46
			c-4.7,2.7,47.5-52.1,47-54c-2.1-7.9-6.8-26.9-9.3-35.2c-0.5-1.5-51.3,56.8-51.8,55.2c-0.7-2.4,48.899-64.6,48.1-67
			c-3.9-12.2-8.2-24.9-13.1-38c0,0-20.301-56.4-17.301-64.4c4.301-2.7,9-5.3,14-7.9c1.101,9.4,4.4,36.6,15.7,69.9
			c0.5,1.5,1,2.9,1.5,4.4c3.5,12.8,6.601,24.3,9.4,34.9c0.399,1.7,40.3,5.9,38.6,6.1c-38,4-37.7-3.8-35,7c2.8,11,5.2,20.9,7.3,29.9
			c0.5,2.1,38.601,0.3,36.7,1.1c-16,6-34.6,8.3-34.2,9.8c2.801,12.6,8.601,35.601,10.2,46.2C593.6,310.8,627.5,311.3,628,315z"/>
		<path fill="#DDC080" d="M520.5,359.7c16.3,26.1,32.9,69.3,2.3,90.899c-3.399,2.4-7.2,4-11.1,4.801c-12.3,2.6-26.4-2.2-39.101-11
			c-9.1-6.301-17.5-14.7-24-23.9c-4.399-6.3-13-21.3-15.399-28.1c-0.8-2.4-1.5-4.7-2.101-7.101c0-0.1,0-0.1-0.1-0.2
			c-0.8-3.1-1.4-6.1-2-9.1c-3-15.1,6.3-28.8,23.8-37.2c18.9-9,32-12.899,45-4.899c0.101,0.1,0.2,0.1,0.3,0.199
			C505.4,338.7,512.5,346.8,520.5,359.7z"/>
		<path fill="#936D25" d="M510,107c0,0,2.8-3.6,18.7-1.4c-3.7,4.1-27.5,31.8-36.8,75.3c-0.2,1-0.4,2.1-0.7,3.1
			c-4.3,9.8-13.601,30.4-16.601,37.1c0.301-0.8,7.5,6.8,14.301,14.4c-0.801,1-1.601,2.1-2.301,3.1c-9-7.5-14.5-11.3-18.199-3.5
			c-5.5,11.6-10.301,22-14.9,31.4c-0.8,1.6,17.3,14.2,25.3,20.2c-0.6,0.6-1.2,1.2-1.7,1.7c-15-4.7-28.399-12.101-29.1-10.601
			c-2.8,5.7-6.6,14.4-10.5,22.3c-2.4-1.199-5.4-2.8-8.4-4.8c5-8.8,10-17.6,11.2-20.3c1-2.2-18.5-6.5-20.2-6.9
			c0.4,0.1,3.301-0.3,5.601,0.2c6.1,1.2,16.899-0.3,17.8-2.3c3.8-8.3,12.7-26,16.5-35.1c0.7-1.6,0-5-16-11c-2.6-1,20.6-1.5,21.7-4.1
			c4.899-12.1,9.7-24.8,14.399-38.1c0.5-1.4,1-2.7,1.4-4.1c0,0,8.7-25.8,16.9-45.4C502.9,117.7,507.2,108.9,510,107z"/>
		<path fill="#49720E" d="M491.9,180.9C503,185.3,514.8,194.6,511,213c-10,8.8-17.2,16.2-22.1,22.6C482.1,228,475,220.4,474.6,221.2
			c3-6.8,12.301-27.4,16.601-37.1C491.5,183,491.7,182,491.9,180.9z"/>
		<path fill="#49720E" d="M497,272c-7.9,5.7-13.8,10.5-18.1,14.8c-8-6-26.101-18.6-25.301-20.2c4.5-9.4,9.4-19.7,14.9-31.4
			c3.7-7.8,9.2-4,18.2,3.5C465.1,269,497,272,497,272z"/>
		<path fill="#442D00" d="M469.3,299.6C481.6,301.7,493.4,310.5,498,334c-13-8-26.1-4.2-45,4.9c-17.5,8.399-26.8,22.1-23.8,37.199
			c0.6,3,1.3,6,2,9.101l-0.2,0.1c-5.3-2.8-20-10.5-26.1-23.3c12.199-10.3,12.199-28,10.3-38.6c4-4.101,8.7-8.101,14.8-12.301
			c2.1-1.5,4.4-3,6.9-4.5c1.699-1.1,4.1-2.3,7-3.5C450.8,300.3,460.1,298.1,469.3,299.6z"/>
		<path fill="#936D25" d="M489,117.3c-4.8,3.9-9.5,8-13.9,12.1C455.2,143.1,434,150.7,428.4,152.5c-0.801,0.3-1.301,0.4-1.4,0.5l0,0
			c-15.9,7-27.9,9-27.9,9c-12.3,1.9-26.1,9-37.3,11.2c-2.2,0.5-41.5,68.7-43.7,69.1c-1.399,0.3,34.2-67.2,32.801-66.9
			c-16.801,3.7-17.801,4.5-32,8.1c-1.7,0.4-34.101,67.5-33,62.4c1.5-7.5,28-62,25.5-61.3C306.1,186,274.8,197.5,269.8,199
			c-1.5,0.4-21,45.9-22.5,46.3c-2.1,0.7,15.9-43.3,13.8-42.7c-14,4.5-25.1,8.6-34.2,12.2c-1.6,0.6-14.1,34.6-15.5,35.2
			c-2.1,0.9,4.6-29.1,2.8-28.2c-14,6.4-20.7,11.7-25.5,15.5c-2.8,2.2-8.2,15.5-10.3,16.9c-1.4,1,2.5-12.3,1.2-11.4
			c-67.1,46.7,2.2-8.5,2.2-8.5c1.7-0.9-10.6-8.7-9-9.6c1.1-0.6,16.3,5.7,17.4,5.1c11-5.8,20.7-10.9,29.5-15.4
			c0.9-0.4-14.4-20.4-13.5-20.8c0.9-0.4,17.8,18.6,18.6,18.2c14.5-7.4,26.6-13,38.4-17.9c2.6-1.1-12-28.4-9.3-29.4
			c3.2-1.3,12.6,26.2,15.9,25c9.3-3.4,30.2-8.9,41.5-12.2c1.4-0.4-1.6-16.6-0.7-32.3c0.101-1.9,8.601,30,10.5,29.5
			c8.101-2.3,17-4.7,27-7.4c9.801-2.6,3.301,1.1-3.3-31.7c-0.3-1.4,13.7,29.2,15.2,28.8c9.6-2.4,20.1-5,31.8-7.9
			c11-3.3,23.3-7.7,35.5-12.5C452.4,134,477.3,122.6,489,117.3z"/>
		<path fill="#49720E" d="M477,177.2c0,0,1.2,0.2,3.1,0.6c-4.699,13.3-9.5,26-14.399,38.1c-1.101,2.7-24.3,3.1-21.7,4.1
			c16,6,16.7,9.4,16,11c-3.8,9-12.7,26.7-16.5,35.1c-0.9,2-11.6,3.6-17.8,2.3c-2.3-0.5-5.2-0.1-5.601-0.2l-2.899-0.3
			c4.2-35.2,17.8-67.6,38.7-96c1.5,0.2,4.199,0.4,5.8,0.6L477,177.2z"/>
		<path fill="#49720E" d="M477.1,288.5c-4.1,4.2-6.5,7.8-7.899,11.1c-9.101-1.5-18.5,0.7-25.3,3.4c0,0-2.601-0.9-6.4-2.8
			c3.8-7.9,7.6-16.7,10.5-22.3C448.8,276.4,462.1,283.8,477.1,288.5z"/>
		<path fill="#49720E" d="M448.8,420.5c6.5,9.2,14.8,17.6,24,23.9c-7.5,33.1-22.6,72.699-47.7,33.199c0,0-54.8,71.801-53.1,12.7
			c0,0-91.3,82.3-63.7-28.7c-11.6-0.6-50-6.699-1.5-60c0,0-8.1-3-14.5-10.699c16.8,2,35.5-1.5,50.2-6.101c14.5-4.5,24.2-9.3,30.3-15
			c6.601,0.4,12.2,0,17-1c-2.899,6-5.3,11.4-6.8,15.101c-0.8,1.899-38.6,12.399-39.4,14.1c-1.1,2.6,32.2-1.2,31.101,1.1
			C367.1,415.9,360.9,423.7,356.5,429.2c-2.6,3.2-17.4,8-19.1,10.399C336.3,441.2,350.6,438.1,350,439.9c-21,68.1-20,69.1,9.6-1.2
			c1.101-2,9.101,15,10.101,13c0.7-1.4-5.5-21.7-4.8-23.101C371.8,415.4,377.8,403.9,383.2,393.4c0.5-1,19.5,11.399,20.2,10.5
			C404.1,403,385.8,388.3,386.3,387.3c3-6,7.5-14,11.4-20.899c2.8-1.301,5.2-2.801,7.3-4.5c6.1,12.8,20.7,20.5,26.1,23.3l0.2-0.101
			c0,0.101,0,0.2,0.101,0.2c0.6,2.3,1.3,4.7,2.1,7.101C435.7,399.2,444.3,414.1,448.8,420.5z"/>
		<path fill="#548910" d="M420.2,268.2c1.7,0.4,21.2,4.6,20.2,6.9c-1.301,2.6-6.301,11.5-11.2,20.3c-4.4-2.9-9.2-6.7-13.2-11.4
			c0.2-5.4,0.6-10.8,1.3-16.1L420.2,268.2z"/>
		<path fill="#49720E" d="M427.1,175.6c3-2.1,5.9-3.1,11.9-4c-21.7,32.5-34,69.3-34,108.4l-2.1,12.1c-23.9-39.3-56.301-7.899-63.5,0
			c-2.101,0-4.2,0.101-6.4,0.2c-4.6,0.3-13,2.3-20.4,4.4c6-4.9,16.7-11,31-16.7c0,0-1.8-0.9-5.3-3.9c5.3-5.1,11.3-16.1,17.5-36.7
			c0,0,28.3,43.5,61.101-50.3c0,0,6.6,6.4,9.8-13.5H427.1z"/>
		<path fill="#936D25" d="M424.8,303c2.9,3.2,5.2,6.2,5.2,8c-6.2,4.2-10.9,8.2-14.8,12.3c-0.101-0.6-0.3-1.3-0.4-1.899
			C416.1,319,420,311.5,424.8,303z"/>
		<path fill="#548910" d="M417,189c-32.8,93.8-61.1,50.3-61.1,50.3c-6.301,20.6-12.301,31.5-17.5,36.7
			c-12.9,12.5-21.801-9.1-21.801-9.1c-38.2,70.9-45.8,16.6-45.8,16.6C219,357.8,205.4,303,205.4,303c-53.9,45.9-52.9,10.2-51.6-0.6
			c-99.1,26.5-14.6-58.9-14.6-58.9C87.8,246,158.6,194,158.6,194c-46.7-35.4,67.2-51,67.2-51c-27.1-47.7,57.3-26.6,57.3-26.6
			c-24.2-54,58.4-8.1,58.4-8.1c-1.4-59.4,43.1,8.7,43.1,8.7c42-25.2,42.601,26.8,42.601,26.8c-12.2,4.8-24.5,9.3-35.5,12.5
			c-11.601,2.9-22.2,5.5-31.8,7.9c-1.5,0.4-15.5-30.2-15.2-28.8c6.6,32.8,13.1,29.1,3.3,31.7c-10,2.7-18.9,5.1-27,7.4
			c-1.9,0.5-10.4-31.4-10.5-29.5c-0.9,15.7,2.1,31.9,0.7,32.3c-11.3,3.3-32.1,8.9-41.5,12.2c-3.3,1.2-12.6-26.3-15.9-25
			c-2.6,1,12,28.3,9.3,29.4c-11.8,4.9-23.8,10.6-38.4,17.9c-0.8,0.4-17.8-18.6-18.6-18.2c-0.8,0.4,14.4,20.4,13.5,20.8
			c-8.8,4.5-18.4,9.5-29.5,15.4c-1.1,0.6-16.2-5.7-17.4-5.1c-1.6,0.9,10.7,8.7,9,9.6c0,0-69.3,55.2-2.2,8.5
			c1.3-0.9-2.6,12.4-1.2,11.4c2.1-1.4,7.5-14.7,10.3-16.9c4.8-3.8,11.5-9.1,25.5-15.5c1.9-0.8-4.9,29.1-2.8,28.2
			c1.4-0.6,13.9-34.5,15.5-35.2c9-3.7,20.2-7.7,34.2-12.2c2-0.6-15.9,43.3-13.8,42.7c1.5-0.5,21-45.9,22.5-46.3
			c5-1.5,36.3-13,41.6-14.4c2.4-0.7-24,53.8-25.5,61.3c-1,5,31.3-62,33-62.4c14.2-3.6,15.2-4.5,32-8.1c1.4-0.3-34.2,67.2-32.8,66.9
			c2.2-0.5,41.4-68.7,43.7-69.1c11.3-2.3,25-9.4,37.3-11.2c0,0,12-2,27.9-9l0,0h1.5c-0.2,9.9-0.801,17.1-1.7,22.5
			C423.6,195.4,417,189,417,189z"/>
		<path id="www.ABC-color.com" fill="#49720E" d="M424.8,303c-4.8,8.5-8.8,16-10,18.4c-0.3-1.301-0.6-2.4-0.899-3.4
			c-0.7-2.1-1.301-4.2-2-6.1V291C412,291,419.5,297.2,424.8,303z"/>
		<path fill="#442D00" d="M415.3,323.3c1.9,10.601,1.8,28.3-10.3,38.601c-2.1,1.699-4.5,3.3-7.3,4.5c-2.4,1.1-5,1.899-7.9,2.5
			c-4.8,1-10.399,1.399-17,1c11.3-10.5,10-24.2,6.101-45c-3.601-19.101-14.5-31.5-29.9-32.5c-3.1-0.2-6.2-0.301-9.4-0.301
			c-0.1,0-0.1,0-0.199,0c7.3-7.899,39.6-39.3,63.5,0c3.199,5.301,6.3,11.801,9.1,19.801c0.7,1.899,1.3,4,2,6.1
			c0.3,1,0.6,2.1,0.9,3.4C415,322,415.1,322.6,415.3,323.3z"/>
		<path fill="#936D25" d="M386.2,387.3c-0.5,1,17.8,15.7,17.1,16.601c-0.7,0.899-19.7-11.5-20.2-10.5
			c-5.3,10.5-11.399,22.1-18.3,35.199c-0.7,1.301,5.5,21.7,4.8,23.101c-1,2-9-15.101-10.1-13C330,509,329,508,350.1,440.1
			c0.601-1.8-13.8,1.301-12.6-0.3c1.7-2.399,16.5-7.2,19.1-10.399c4.4-5.5,10.5-13.301,18.2-30.101c1-2.3-32.2,1.5-31.1-1.1
			c0.7-1.7,38.6-12.3,39.399-14.101c1.5-3.699,3.9-9,6.801-15.1c2.899-0.6,5.6-1.5,7.899-2.5C393.7,373.4,389.3,381.3,386.2,387.3z"
			/>
		<path fill="#DDC080" d="M378.8,324.9c3.9,20.8,5.3,34.5-6.1,45c-6.2,5.8-15.9,10.6-30.3,15c-14.7,4.5-33.5,8-50.2,6.1
			c-16.9-2-31.7-9.5-38.2-27c-9.3-25.1,18-53,48-64c2.6-1,6.5-2.2,10.7-3.3c7.399-2.101,15.8-4,20.399-4.4
			c2.101-0.1,4.301-0.2,6.4-0.2c0.1,0,0.1,0,0.2,0c3.2,0,6.3,0.2,9.399,0.301C364.3,293.4,375.2,305.8,378.8,324.9z"/>
	</g>
	<g>
		<path fill="none" stroke="#000000" d="M491.9,180.9C503,185.3,514.8,194.6,511,213"/>
		<path fill="none" stroke="#000000" d="M455.9,171.9c1.5,0.2,4.199,0.4,5.8,0.6l15.2,4.7c0,0,1.199,0.2,3.1,0.6"/>
		<line fill="none" stroke="#000000" x1="417.3" y1="267.9" x2="420.2" y2="268.2"/>
		<path fill="none" stroke="#000000" d="M424.8,303c-4.8,8.5-8.8,16-10,18.4"/>
		<path fill="none" stroke="#000000" d="M312.7,296.7c6-4.9,16.7-11,31-16.7c0,0-1.8-0.9-5.3-3.9"/>
		<path fill="none" stroke="#000000" d="M426.8,175.5h0.3c3-2.1,5.9-3.1,11.9-4"/>
		<path fill="none" stroke="#000000" d="M292.2,391c-16.9-2-31.7-9.5-38.2-27c-9.3-25.1,18-53,48-64c2.6-1,6.5-2.2,10.7-3.3
			c7.399-2.101,15.8-4,20.399-4.4c2.101-0.1,4.301-0.2,6.4-0.2"/>
		<path fill="none" stroke="#000000" d="M412,311.9c0.7,1.899,1.3,4,2,6.1c0.3,1,0.6,2.1,0.9,3.4c0.1,0.6,0.3,1.199,0.399,1.899"/>
		<path fill="none" stroke="#000000" d="M372.8,369.9c11.3-10.5,10-24.2,6.101-45c-3.601-19.101-14.5-31.5-29.9-32.5
			c-3.1-0.2-6.2-0.301-9.4-0.301c-0.1,0-0.1,0-0.199,0c7.3-7.899,39.6-39.3,63.5,0"/>
		<path fill="none" stroke="#000000" d="M389.8,368.9c2.9-0.601,5.601-1.5,7.9-2.5"/>
		<path fill="none" stroke="#000000" d="M472.7,444.4C465.2,477.5,450.1,517.1,425,477.6c0,0-54.8,71.801-53.1,12.7
			c0,0-91.3,82.3-63.7-28.7c-11.6-0.6-50-6.699-1.5-60c0,0-8.101-3-14.5-10.699c16.8,2,35.5-1.5,50.2-6.101
			c14.5-4.5,24.199-9.3,30.3-15c6.6,0.4,12.2,0,17-1c-2.9,6-5.3,11.4-6.8,15.101C382.1,385.8,344.3,396.3,343.5,398
			c-1.1,2.6,32.2-1.2,31.1,1.1C367,415.9,360.8,423.7,356.4,429.2c-2.601,3.2-17.4,8-19.101,10.399
			c-1.1,1.601,13.2-1.5,12.601,0.301C329,508,330,509,359.6,438.7c1.101-2,9.101,15,10.101,13c0.7-1.4-5.5-21.7-4.8-23.101
			C371.8,415.4,377.8,403.9,383.2,393.4c0.5-1,19.5,11.399,20.2,10.5C404.1,403,385.8,388.3,386.3,387.3c3-6,7.5-14,11.4-20.899
			c2.8-1.301,5.2-2.801,7.3-4.5"/>
		<path fill="none" stroke="#000000" d="M431.2,385.1L431,385.2c-5.3-2.8-20-10.5-26.1-23.3c12.199-10.301,12.199-28,10.3-38.601
			c4-4.1,8.7-8.1,14.8-12.3"/>
		<path fill="none" stroke="#000000" d="M444,303c6.8-2.7,16.1-4.9,25.3-3.4"/>
		<path fill="none" stroke="#000000" d="M511.8,455.3c-12.3,2.601-26.399-2.2-39.1-11c-9.101-6.3-17.5-14.7-24-23.899
			c-4.4-6.301-13-21.301-15.4-28.101c-0.8-2.399-1.5-4.7-2.1-7.1c0-0.101,0-0.101-0.101-0.2c-0.8-3.1-1.399-6.1-2-9.1
			c-3-15.101,6.301-28.801,23.801-37.2c18.899-9,32-12.9,45-4.9"/>
		<path fill="none" stroke="#000000" d="M488.9,235.6c5-6.4,12.1-13.8,22.1-22.6c3.6-3.2,7.6-6.5,12-10c0,0-21.4-17.3,23-33"/>
		<path fill="none" stroke="#000000" d="M478.9,286.8c4.3-4.2,10.199-9,18.1-14.8c0,0-31.9-3-10.3-33.4"/>
		<path id="ABC-color.com" fill="none" stroke="#000000" d="M558.5,167.6c0,0,53.5-15.6,50.5,35.4c0,0,30.7,7.4,46,17
			c11.7,7.4,14.4,16.2-13,24c0,0,94,69,24,62c0,0,69,79,4,67c0,0,47,121-16,85c0,0-15,89-41,36c0,0-42.4,115.4-69.7,4.3
			c-10,4.601-44,16.3-31.5-43c3.9-0.8,7.7-2.399,11.101-4.8c30.5-21.5,13.899-64.7-2.301-90.9c-8-12.899-15.1-21-22.3-25.5
			c-0.1-0.1-0.2-0.1-0.3-0.199c-4.6-23.5-16.5-32.301-28.7-34.4c1.4-3.3,3.8-6.9,7.9-11.1"/>
		<path fill="none" stroke="#000000" d="M542.8,97.7c1.101,9.4,4.4,36.6,15.7,69.9c0.5,1.5,1,2.9,1.5,4.4
			c3.5,12.8,6.6,24.3,9.4,34.9c0.399,1.7,40.3,5.9,38.6,6.1c-38,4-37.7-3.8-35,7c2.8,11,5.2,20.9,7.3,29.9
			c0.5,2.1,38.601,0.3,36.7,1.1c-16,6-34.6,8.3-34.2,9.8c2.8,12.6,8.601,35.601,10.2,46.2c0.6,3.8,34.5,4.3,35,8
			c0.4,3-36.3-2.9-36,0.1c1.4,13.601,2.2,27.7,2.6,44.9c0,1,29.4,12,29.4,13s-29.3-8-29.3-7c0.2,10.4,0.3,21.9,0.3,35
			c0,1.3,15,14.7,15,16c0,2-15-8-15-6c0,0-19.3,88.5-7.7,5c0.2-1.6-11.5,6.7-11.3,5c0.4-2.6,11.2-12.4,12-16c1.3-6.1,3.1-14.7,2-31
			c-0.2-2.2-27.8,14.5-28,12c-0.2-1.7,28.4-25.4,28.2-27.2C589,348.4,587.1,335.7,584,320c-0.4-2.3-36.5,30.3-37,28
			c-0.3-1.7,36.4-36.3,36-38c-1.2-5.5-6.6-41.2-8-47c-0.7-2.7-43,42-50,46c-4.7,2.7,47.5-52.1,47-54c-2.1-7.9-6.8-26.9-9.3-35.2
			c-0.5-1.5-51.3,56.8-51.8,55.2c-0.7-2.4,48.899-64.6,48.1-67c-3.9-12.2-8.2-24.9-13.1-38c0,0-20.301-56.4-17.301-64.4"/>
		<path fill="none" stroke="#000000" d="M528.7,105.6c-3.7,4.1-27.5,31.8-36.8,75.3c-0.2,1-0.4,2.1-0.7,3.1
			c-4.3,9.8-13.601,30.4-16.601,37.1c0.301-0.8,7.5,6.8,14.301,14.4c-0.801,1-1.601,2.1-2.301,3.1c-9-7.5-14.5-11.3-18.199-3.5
			c-5.5,11.6-10.301,22-14.9,31.4c-0.8,1.6,17.3,14.2,25.3,20.2c-0.6,0.6-1.2,1.2-1.7,1.7c-15-4.7-28.399-12.101-29.1-10.601
			c-2.8,5.7-6.6,14.4-10.5,22.3"/>
		<path fill="none" stroke="#000000" d="M429.2,295.4c5-8.801,10-17.601,11.2-20.3c1-2.2-18.5-6.5-20.2-6.9
			c0.399,0.1,3.3-0.3,5.6,0.2c6.101,1.2,16.9-0.3,17.8-2.3c3.801-8.3,12.7-26,16.5-35.1c0.7-1.6,0-5-16-11
			c-2.6-1,20.601-1.5,21.7-4.1c4.9-12.1,9.7-24.8,14.4-38.1c0.5-1.4,1-2.7,1.399-4.1c0,0,8.7-25.8,16.9-45.4"/>
		<path fill="none" stroke="#000000" d="M489,117.3C545.7,70.9,626.4,42,716,42c0,0,10-3,15-11c0,0-2,16-18,26
			c-56.3,0-126.8,18.6-170.3,40.7c-5.101,2.6-9.8,5.2-14,7.9c0.1-0.1,0.2-0.2,0.3-0.3l0.1-0.1"/>
		<path fill="none" stroke="#000000" d="M529.2,105.1L529.2,105.1L529.2,105.1c-0.101,0.1-0.101,0.1-0.2,0.2
			c-0.1,0.1-0.2,0.2-0.3,0.3c-16-2.2-18.7,1.4-18.7,1.4c-2.8,1.9-7.1,10.7-11.6,21.3l-0.601-0.2c-16,13.1-30.1,27.8-41.899,43.8
			c-20.9,28.4-34.4,60.8-38.7,96c-0.7,5.3-1.101,10.7-1.3,16.1c4,4.7,8.699,8.5,13.199,11.4c3.101,2,6,3.6,8.4,4.8
			c3.8,1.899,6.4,2.8,6.4,2.8c-2.9,1.1-5.301,2.4-7,3.5c-2.5,1.6-4.801,3.1-6.9,4.5c0-1.8-2.3-4.8-5.2-8c-5.3-5.8-12.8-12-12.8-12
			v20.9c-2.8-8-5.9-14.601-9.1-19.801L405,280c0-39,12.3-75.9,34-108.4l0,0c10.1-15.1,22.2-29.2,36-42.2"/>
		<path fill="none" stroke="#000000" d="M427.1,143.9c25.301-10,50.2-21.4,61.801-26.7c-4.801,3.9-9.5,8-13.9,12.1
			c-19.9,13.7-41.1,21.3-46.7,23.1c-0.8,0.3-1.3,0.4-1.399,0.5"/>
		<path fill="none" stroke="#000000" d="M417,189L417,189c-32.8,93.9-61.1,50.3-61.1,50.3c-6.301,20.6-12.301,31.5-17.5,36.7
			c-12.9,12.5-21.801-9.1-21.801-9.1c-38.2,70.9-45.8,16.6-45.8,16.6C219,357.8,205.4,303,205.4,303c-53.9,45.9-52.9,10.2-51.6-0.6
			c-99.1,26.5-14.6-58.9-14.6-58.9C87.8,246,158.6,194,158.6,194c-46.7-35.4,67.2-51,67.2-51c-27.1-47.7,57.3-26.6,57.3-26.6
			c-24.2-54,58.4-8.1,58.4-8.1c-1.4-59.4,43.1,8.7,43.1,8.7c42-25.2,42.601,26.8,42.601,26.8c-12.2,4.8-24.5,9.3-35.5,12.5
			c-11.601,2.9-22.2,5.5-31.8,7.9c-1.5,0.4-15.5-30.2-15.2-28.8c6.6,32.8,13.1,29.1,3.3,31.7c-10,2.7-18.9,5.1-27,7.4
			c-1.9,0.5-10.4-31.4-10.5-29.5c-0.9,15.7,2.1,31.9,0.7,32.3c-11.3,3.3-32.1,8.9-41.5,12.2c-3.3,1.2-12.6-26.3-15.9-25
			c-2.6,1,12,28.3,9.3,29.4c-11.8,4.9-23.8,10.6-38.4,17.9c-0.8,0.4-17.8-18.6-18.6-18.2c-0.8,0.4,14.4,20.4,13.5,20.8
			c-8.8,4.5-18.4,9.5-29.5,15.4c-1.1,0.6-16.2-5.7-17.4-5.1c-1.6,0.9,10.7,8.7,9,9.6c0,0-69.3,55.2-2.2,8.5
			c1.3-0.9-2.6,12.4-1.2,11.4c2.1-1.4,7.5-14.7,10.3-16.9c4.8-3.8,11.5-9.1,25.5-15.5c1.9-0.8-4.9,29.1-2.8,28.2
			c1.4-0.6,13.9-34.5,15.5-35.2c9-3.7,20.2-7.7,34.2-12.2c2-0.6-15.9,43.3-13.8,42.7c1.5-0.5,21-45.9,22.5-46.3
			c5-1.5,36.3-13,41.6-14.4c2.4-0.7-24,53.8-25.5,61.3c-1,5,31.3-62,33-62.4c14.2-3.6,15.2-4.5,32-8.1c1.4-0.3-34.2,67.2-32.8,66.9
			c2.2-0.5,41.4-68.7,43.7-69.1c11.3-2.3,25-9.4,37.3-11.2c0,0,12-2,27.9-9l0,0h1.5c-0.2,9.9-0.801,17.1-1.7,22.5
			C423.6,195.4,417,189,417,189"/>
	</g>
</g>
</svg>
